M48
;DRILL file {KiCad 4.0.4+e1-6308~48~ubuntu16.04.1-stable} date Sat Jan 14 12:07:33 2017
;FORMAT={-:-/ absolute / inch / decimal}
FMAT,2
INCH,TZ
T1C0.016
T2C0.039
T3C0.039
T4C0.040
T5C0.040
%
G90
G05
M72
T1
X4.45Y-3.78
X4.67Y-3.395
X5.01Y-4.34
X5.01Y-4.41
X5.01Y-4.46
X5.01Y-4.52
X5.01Y-4.57
X5.1Y-4.66
X5.26Y-3.57
X5.33Y-3.23
X5.4Y-3.3
X5.4Y-3.88
X5.48Y-3.37
X5.48Y-4.46
X5.54Y-3.43
X5.54Y-4.57
X5.76Y-3.43
X5.77Y-4.34
X5.86Y-3.36
X5.96Y-3.3
X5.97Y-4.17
X6.05Y-3.23
X6.07Y-4.23
X6.16Y-3.77
X6.36Y-4.23
X6.36Y-4.41
X6.56Y-3.67
X6.66Y-4.5
T2
X5.96Y-5.57
X6.06Y-5.57
T3
X5.26Y-3.07
X5.36Y-3.07
X5.46Y-3.07
X5.56Y-3.07
X5.66Y-3.07
X5.67Y-5.38
X5.76Y-3.07
X5.77Y-5.38
X5.86Y-3.07
X5.87Y-5.38
X5.96Y-3.07
X5.97Y-5.38
X6.06Y-3.07
X6.07Y-5.38
X6.16Y-3.07
X6.17Y-5.38
X6.26Y-3.07
X6.27Y-5.38
X6.36Y-3.07
X6.37Y-5.38
X6.46Y-3.07
X6.56Y-3.07
X6.66Y-3.07
X6.76Y-3.07
T4
X3.5788Y-3.38
X3.5788Y-3.48
X3.5788Y-3.58
X3.5788Y-3.68
X3.5788Y-3.78
X3.5788Y-3.88
X3.5788Y-3.98
X3.5788Y-4.08
X3.5788Y-4.18
X3.5788Y-4.28
X3.5788Y-4.38
X3.5788Y-4.48
X3.5788Y-4.58
X3.5788Y-4.68
X3.5788Y-4.78
X4.6812Y-3.38
X4.6812Y-3.48
X4.6812Y-3.58
X4.6812Y-3.68
X4.6812Y-3.78
X4.6812Y-3.88
X4.6812Y-3.98
X4.6812Y-4.08
X4.6812Y-4.18
X4.6812Y-4.28
X4.6812Y-4.38
X4.6812Y-4.48
X4.6812Y-4.58
X4.6812Y-4.68
X4.6812Y-4.78
T5
X7.7846Y-4.8739
X8.2846Y-4.8739
T0
M30
