G04 #@! TF.FileFunction,Soldermask,Top*
%FSLAX46Y46*%
G04 Gerber Fmt 4.6, Leading zero omitted, Abs format (unit mm)*
G04 Created by KiCad (PCBNEW 4.0.4+e1-6308~48~ubuntu16.04.1-stable) date Mon Jan  2 11:44:22 2017*
%MOMM*%
%LPD*%
G01*
G04 APERTURE LIST*
%ADD10C,0.100000*%
%ADD11O,2.032000X1.727200*%
%ADD12R,2.032000X1.727200*%
%ADD13O,1.506220X3.014980*%
%ADD14R,1.700000X1.700000*%
%ADD15O,1.700000X1.700000*%
G04 APERTURE END LIST*
D10*
D11*
X135666000Y-77978000D03*
X135666000Y-75438000D03*
X135666000Y-72898000D03*
X135666000Y-70358000D03*
X135666000Y-67818000D03*
X135666000Y-65278000D03*
X135666000Y-62738000D03*
X135666000Y-60198000D03*
X135666000Y-57658000D03*
X135666000Y-55118000D03*
X135666000Y-52578000D03*
X135666000Y-50038000D03*
X135666000Y-47498000D03*
X135666000Y-44958000D03*
X135666000Y-42418000D03*
D12*
X107666000Y-42418000D03*
D11*
X107666000Y-44958000D03*
X107666000Y-47498000D03*
X107666000Y-50038000D03*
X107666000Y-52578000D03*
X107666000Y-55118000D03*
X107666000Y-57658000D03*
X107666000Y-60198000D03*
X107666000Y-62738000D03*
X107666000Y-65278000D03*
X107666000Y-67818000D03*
X107666000Y-70358000D03*
X107666000Y-72898000D03*
X107666000Y-75438000D03*
X107666000Y-77978000D03*
D13*
X147574000Y-86360000D03*
X150114000Y-86360000D03*
D14*
X148590000Y-42926000D03*
D15*
X151130000Y-42926000D03*
X153670000Y-42926000D03*
X156210000Y-42926000D03*
X158750000Y-42926000D03*
X161290000Y-42926000D03*
X163830000Y-42926000D03*
X166370000Y-42926000D03*
D14*
X174244000Y-50546000D03*
D15*
X174244000Y-53086000D03*
X174244000Y-55626000D03*
X174244000Y-58166000D03*
X174244000Y-60706000D03*
X174244000Y-63246000D03*
X174244000Y-65786000D03*
X174244000Y-68326000D03*
D14*
X112776000Y-41402000D03*
D15*
X112776000Y-43942000D03*
X112776000Y-46482000D03*
X112776000Y-49022000D03*
X112776000Y-51562000D03*
X112776000Y-54102000D03*
X112776000Y-56642000D03*
X112776000Y-59182000D03*
X112776000Y-61722000D03*
X112776000Y-64262000D03*
X112776000Y-66802000D03*
X112776000Y-69342000D03*
X112776000Y-71882000D03*
X112776000Y-74422000D03*
X112776000Y-76962000D03*
D14*
X116078000Y-76962000D03*
D15*
X116078000Y-74422000D03*
X116078000Y-71882000D03*
X116078000Y-69342000D03*
X116078000Y-66802000D03*
X116078000Y-64262000D03*
X116078000Y-61722000D03*
X116078000Y-59182000D03*
X116078000Y-56642000D03*
X116078000Y-54102000D03*
X116078000Y-51562000D03*
X116078000Y-49022000D03*
X116078000Y-46482000D03*
X116078000Y-43942000D03*
X116078000Y-41402000D03*
M02*
