G04 #@! TF.FileFunction,Legend,Top*
%FSLAX46Y46*%
G04 Gerber Fmt 4.6, Leading zero omitted, Abs format (unit mm)*
G04 Created by KiCad (PCBNEW 4.0.4+e1-6308~48~ubuntu16.04.1-stable) date Mon Jan  2 11:44:22 2017*
%MOMM*%
%LPD*%
G01*
G04 APERTURE LIST*
%ADD10C,0.100000*%
%ADD11C,0.300000*%
%ADD12C,0.150000*%
%ADD13C,0.120000*%
%ADD14O,2.032000X1.727200*%
%ADD15R,2.032000X1.727200*%
%ADD16O,1.506220X3.014980*%
%ADD17R,1.700000X1.700000*%
%ADD18O,1.700000X1.700000*%
G04 APERTURE END LIST*
D10*
D11*
X147002572Y-89007143D02*
X148145429Y-89007143D01*
X147574000Y-89578571D02*
X147574000Y-88435714D01*
X149018572Y-46144571D02*
X148161429Y-46144571D01*
X148590001Y-46144571D02*
X148590001Y-44644571D01*
X148447144Y-44858857D01*
X148304286Y-45001714D01*
X148161429Y-45073143D01*
X130222858Y-77156571D02*
X131151429Y-77156571D01*
X130651429Y-77728000D01*
X130865715Y-77728000D01*
X131008572Y-77799429D01*
X131080001Y-77870857D01*
X131151429Y-78013714D01*
X131151429Y-78370857D01*
X131080001Y-78513714D01*
X131008572Y-78585143D01*
X130865715Y-78656571D01*
X130437143Y-78656571D01*
X130294286Y-78585143D01*
X130222858Y-78513714D01*
X131580000Y-77156571D02*
X132080000Y-78656571D01*
X132580000Y-77156571D01*
X132937143Y-77156571D02*
X133865714Y-77156571D01*
X133365714Y-77728000D01*
X133580000Y-77728000D01*
X133722857Y-77799429D01*
X133794286Y-77870857D01*
X133865714Y-78013714D01*
X133865714Y-78370857D01*
X133794286Y-78513714D01*
X133722857Y-78585143D01*
X133580000Y-78656571D01*
X133151428Y-78656571D01*
X133008571Y-78585143D01*
X132937143Y-78513714D01*
X109188572Y-45208000D02*
X109902858Y-45208000D01*
X109045715Y-45636571D02*
X109545715Y-44136571D01*
X110045715Y-45636571D01*
X110545715Y-45636571D02*
X110545715Y-44136571D01*
X110902858Y-44136571D01*
X111117143Y-44208000D01*
X111260001Y-44350857D01*
X111331429Y-44493714D01*
X111402858Y-44779429D01*
X111402858Y-44993714D01*
X111331429Y-45279429D01*
X111260001Y-45422286D01*
X111117143Y-45565143D01*
X110902858Y-45636571D01*
X110545715Y-45636571D01*
X112902858Y-45493714D02*
X112831429Y-45565143D01*
X112617143Y-45636571D01*
X112474286Y-45636571D01*
X112260001Y-45565143D01*
X112117143Y-45422286D01*
X112045715Y-45279429D01*
X111974286Y-44993714D01*
X111974286Y-44779429D01*
X112045715Y-44493714D01*
X112117143Y-44350857D01*
X112260001Y-44208000D01*
X112474286Y-44136571D01*
X112617143Y-44136571D01*
X112831429Y-44208000D01*
X112902858Y-44279429D01*
X113831429Y-44136571D02*
X113974286Y-44136571D01*
X114117143Y-44208000D01*
X114188572Y-44279429D01*
X114260001Y-44422286D01*
X114331429Y-44708000D01*
X114331429Y-45065143D01*
X114260001Y-45350857D01*
X114188572Y-45493714D01*
X114117143Y-45565143D01*
X113974286Y-45636571D01*
X113831429Y-45636571D01*
X113688572Y-45565143D01*
X113617143Y-45493714D01*
X113545715Y-45350857D01*
X113474286Y-45065143D01*
X113474286Y-44708000D01*
X113545715Y-44422286D01*
X113617143Y-44279429D01*
X113688572Y-44208000D01*
X113831429Y-44136571D01*
X178776286Y-67504571D02*
X179704857Y-67504571D01*
X179204857Y-68076000D01*
X179419143Y-68076000D01*
X179562000Y-68147429D01*
X179633429Y-68218857D01*
X179704857Y-68361714D01*
X179704857Y-68718857D01*
X179633429Y-68861714D01*
X179562000Y-68933143D01*
X179419143Y-69004571D01*
X178990571Y-69004571D01*
X178847714Y-68933143D01*
X178776286Y-68861714D01*
X180133428Y-67504571D02*
X180633428Y-69004571D01*
X181133428Y-67504571D01*
X181490571Y-67504571D02*
X182419142Y-67504571D01*
X181919142Y-68076000D01*
X182133428Y-68076000D01*
X182276285Y-68147429D01*
X182347714Y-68218857D01*
X182419142Y-68361714D01*
X182419142Y-68718857D01*
X182347714Y-68861714D01*
X182276285Y-68933143D01*
X182133428Y-69004571D01*
X181704856Y-69004571D01*
X181561999Y-68933143D01*
X181490571Y-68861714D01*
X179776286Y-66464571D02*
X179276286Y-65750286D01*
X178919143Y-66464571D02*
X178919143Y-64964571D01*
X179490571Y-64964571D01*
X179633429Y-65036000D01*
X179704857Y-65107429D01*
X179776286Y-65250286D01*
X179776286Y-65464571D01*
X179704857Y-65607429D01*
X179633429Y-65678857D01*
X179490571Y-65750286D01*
X178919143Y-65750286D01*
X180347714Y-66393143D02*
X180562000Y-66464571D01*
X180919143Y-66464571D01*
X181062000Y-66393143D01*
X181133429Y-66321714D01*
X181204857Y-66178857D01*
X181204857Y-66036000D01*
X181133429Y-65893143D01*
X181062000Y-65821714D01*
X180919143Y-65750286D01*
X180633429Y-65678857D01*
X180490571Y-65607429D01*
X180419143Y-65536000D01*
X180347714Y-65393143D01*
X180347714Y-65250286D01*
X180419143Y-65107429D01*
X180490571Y-65036000D01*
X180633429Y-64964571D01*
X180990571Y-64964571D01*
X181204857Y-65036000D01*
X181633428Y-64964571D02*
X182490571Y-64964571D01*
X182062000Y-66464571D02*
X182062000Y-64964571D01*
X179704857Y-62496000D02*
X179562000Y-62424571D01*
X179347714Y-62424571D01*
X179133429Y-62496000D01*
X178990571Y-62638857D01*
X178919143Y-62781714D01*
X178847714Y-63067429D01*
X178847714Y-63281714D01*
X178919143Y-63567429D01*
X178990571Y-63710286D01*
X179133429Y-63853143D01*
X179347714Y-63924571D01*
X179490571Y-63924571D01*
X179704857Y-63853143D01*
X179776286Y-63781714D01*
X179776286Y-63281714D01*
X179490571Y-63281714D01*
X180419143Y-63924571D02*
X180419143Y-62424571D01*
X181276286Y-63924571D01*
X181276286Y-62424571D01*
X181990572Y-63924571D02*
X181990572Y-62424571D01*
X182347715Y-62424571D01*
X182562000Y-62496000D01*
X182704858Y-62638857D01*
X182776286Y-62781714D01*
X182847715Y-63067429D01*
X182847715Y-63281714D01*
X182776286Y-63567429D01*
X182704858Y-63710286D01*
X182562000Y-63853143D01*
X182347715Y-63924571D01*
X181990572Y-63924571D01*
X178919143Y-61384571D02*
X178919143Y-59884571D01*
X180490572Y-61384571D02*
X179990572Y-60670286D01*
X179633429Y-61384571D02*
X179633429Y-59884571D01*
X180204857Y-59884571D01*
X180347715Y-59956000D01*
X180419143Y-60027429D01*
X180490572Y-60170286D01*
X180490572Y-60384571D01*
X180419143Y-60527429D01*
X180347715Y-60598857D01*
X180204857Y-60670286D01*
X179633429Y-60670286D01*
X182133429Y-61527429D02*
X181990572Y-61456000D01*
X181847715Y-61313143D01*
X181633429Y-61098857D01*
X181490572Y-61027429D01*
X181347715Y-61027429D01*
X181419143Y-61384571D02*
X181276286Y-61313143D01*
X181133429Y-61170286D01*
X181062000Y-60884571D01*
X181062000Y-60384571D01*
X181133429Y-60098857D01*
X181276286Y-59956000D01*
X181419143Y-59884571D01*
X181704857Y-59884571D01*
X181847715Y-59956000D01*
X181990572Y-60098857D01*
X182062000Y-60384571D01*
X182062000Y-60884571D01*
X181990572Y-61170286D01*
X181847715Y-61313143D01*
X181704857Y-61384571D01*
X181419143Y-61384571D01*
X178919143Y-58590571D02*
X178919143Y-57090571D01*
X179419143Y-58162000D01*
X179919143Y-57090571D01*
X179919143Y-58590571D01*
X180633429Y-58590571D02*
X180633429Y-57090571D01*
X181276286Y-58519143D02*
X181490572Y-58590571D01*
X181847715Y-58590571D01*
X181990572Y-58519143D01*
X182062001Y-58447714D01*
X182133429Y-58304857D01*
X182133429Y-58162000D01*
X182062001Y-58019143D01*
X181990572Y-57947714D01*
X181847715Y-57876286D01*
X181562001Y-57804857D01*
X181419143Y-57733429D01*
X181347715Y-57662000D01*
X181276286Y-57519143D01*
X181276286Y-57376286D01*
X181347715Y-57233429D01*
X181419143Y-57162000D01*
X181562001Y-57090571D01*
X181919143Y-57090571D01*
X182133429Y-57162000D01*
X183062000Y-57090571D02*
X183347714Y-57090571D01*
X183490572Y-57162000D01*
X183633429Y-57304857D01*
X183704857Y-57590571D01*
X183704857Y-58090571D01*
X183633429Y-58376286D01*
X183490572Y-58519143D01*
X183347714Y-58590571D01*
X183062000Y-58590571D01*
X182919143Y-58519143D01*
X182776286Y-58376286D01*
X182704857Y-58090571D01*
X182704857Y-57590571D01*
X182776286Y-57304857D01*
X182919143Y-57162000D01*
X183062000Y-57090571D01*
X178919143Y-56050571D02*
X178919143Y-54550571D01*
X179419143Y-55622000D01*
X179919143Y-54550571D01*
X179919143Y-56050571D01*
X180919143Y-54550571D02*
X181204857Y-54550571D01*
X181347715Y-54622000D01*
X181490572Y-54764857D01*
X181562000Y-55050571D01*
X181562000Y-55550571D01*
X181490572Y-55836286D01*
X181347715Y-55979143D01*
X181204857Y-56050571D01*
X180919143Y-56050571D01*
X180776286Y-55979143D01*
X180633429Y-55836286D01*
X180562000Y-55550571D01*
X180562000Y-55050571D01*
X180633429Y-54764857D01*
X180776286Y-54622000D01*
X180919143Y-54550571D01*
X182133429Y-55979143D02*
X182347715Y-56050571D01*
X182704858Y-56050571D01*
X182847715Y-55979143D01*
X182919144Y-55907714D01*
X182990572Y-55764857D01*
X182990572Y-55622000D01*
X182919144Y-55479143D01*
X182847715Y-55407714D01*
X182704858Y-55336286D01*
X182419144Y-55264857D01*
X182276286Y-55193429D01*
X182204858Y-55122000D01*
X182133429Y-54979143D01*
X182133429Y-54836286D01*
X182204858Y-54693429D01*
X182276286Y-54622000D01*
X182419144Y-54550571D01*
X182776286Y-54550571D01*
X182990572Y-54622000D01*
X183633429Y-56050571D02*
X183633429Y-54550571D01*
X178847714Y-53693143D02*
X179062000Y-53764571D01*
X179419143Y-53764571D01*
X179562000Y-53693143D01*
X179633429Y-53621714D01*
X179704857Y-53478857D01*
X179704857Y-53336000D01*
X179633429Y-53193143D01*
X179562000Y-53121714D01*
X179419143Y-53050286D01*
X179133429Y-52978857D01*
X178990571Y-52907429D01*
X178919143Y-52836000D01*
X178847714Y-52693143D01*
X178847714Y-52550286D01*
X178919143Y-52407429D01*
X178990571Y-52336000D01*
X179133429Y-52264571D01*
X179490571Y-52264571D01*
X179704857Y-52336000D01*
X181204857Y-53621714D02*
X181133428Y-53693143D01*
X180919142Y-53764571D01*
X180776285Y-53764571D01*
X180562000Y-53693143D01*
X180419142Y-53550286D01*
X180347714Y-53407429D01*
X180276285Y-53121714D01*
X180276285Y-52907429D01*
X180347714Y-52621714D01*
X180419142Y-52478857D01*
X180562000Y-52336000D01*
X180776285Y-52264571D01*
X180919142Y-52264571D01*
X181133428Y-52336000D01*
X181204857Y-52407429D01*
X181847714Y-53764571D02*
X181847714Y-52264571D01*
X182704857Y-53764571D02*
X182062000Y-52907429D01*
X182704857Y-52264571D02*
X181847714Y-53121714D01*
X178847714Y-51153143D02*
X179062000Y-51224571D01*
X179419143Y-51224571D01*
X179562000Y-51153143D01*
X179633429Y-51081714D01*
X179704857Y-50938857D01*
X179704857Y-50796000D01*
X179633429Y-50653143D01*
X179562000Y-50581714D01*
X179419143Y-50510286D01*
X179133429Y-50438857D01*
X178990571Y-50367429D01*
X178919143Y-50296000D01*
X178847714Y-50153143D01*
X178847714Y-50010286D01*
X178919143Y-49867429D01*
X178990571Y-49796000D01*
X179133429Y-49724571D01*
X179490571Y-49724571D01*
X179704857Y-49796000D01*
X180347714Y-51224571D02*
X180347714Y-49724571D01*
X180704857Y-49724571D01*
X180919142Y-49796000D01*
X181062000Y-49938857D01*
X181133428Y-50081714D01*
X181204857Y-50367429D01*
X181204857Y-50581714D01*
X181133428Y-50867429D01*
X181062000Y-51010286D01*
X180919142Y-51153143D01*
X180704857Y-51224571D01*
X180347714Y-51224571D01*
X181776285Y-50796000D02*
X182490571Y-50796000D01*
X181633428Y-51224571D02*
X182133428Y-49724571D01*
X182633428Y-51224571D01*
D12*
X134366000Y-41402000D02*
X134366000Y-43688000D01*
X136906000Y-41402000D02*
X136906000Y-43942000D01*
X134116000Y-40868000D02*
X137216000Y-40868000D01*
X134116000Y-42418000D02*
X134116000Y-40868000D01*
X136936000Y-41402000D02*
X134396000Y-41402000D01*
X137216000Y-40868000D02*
X137216000Y-42418000D01*
X136936000Y-79248000D02*
X136936000Y-43688000D01*
X134396000Y-79248000D02*
X136936000Y-79248000D01*
X134396000Y-43688000D02*
X134396000Y-79248000D01*
X106396000Y-43688000D02*
X106396000Y-79248000D01*
X106396000Y-79248000D02*
X108936000Y-79248000D01*
X108936000Y-79248000D02*
X108936000Y-43688000D01*
X109216000Y-40868000D02*
X109216000Y-42418000D01*
X108936000Y-43688000D02*
X106396000Y-43688000D01*
X106116000Y-42418000D02*
X106116000Y-40868000D01*
X106116000Y-40868000D02*
X109216000Y-40868000D01*
X151384000Y-85090000D02*
X146304000Y-85090000D01*
X151384000Y-89535000D02*
X146304000Y-89535000D01*
X146304000Y-83185000D02*
X151384000Y-83185000D01*
X146304000Y-83185000D02*
X146304000Y-89535000D01*
X151384000Y-83185000D02*
X151384000Y-89535000D01*
D13*
X149860000Y-44316000D02*
X167760000Y-44316000D01*
X167760000Y-44316000D02*
X167760000Y-41536000D01*
X167760000Y-41536000D02*
X149860000Y-41536000D01*
X149860000Y-41536000D02*
X149860000Y-44316000D01*
X148590000Y-44316000D02*
X147200000Y-44316000D01*
X147200000Y-44316000D02*
X147200000Y-42926000D01*
X172854000Y-51816000D02*
X172854000Y-69716000D01*
X172854000Y-69716000D02*
X175634000Y-69716000D01*
X175634000Y-69716000D02*
X175634000Y-51816000D01*
X175634000Y-51816000D02*
X172854000Y-51816000D01*
X172854000Y-50546000D02*
X172854000Y-49156000D01*
X172854000Y-49156000D02*
X174244000Y-49156000D01*
D12*
X120904095Y-58570381D02*
X120904095Y-59379905D01*
X120951714Y-59475143D01*
X120999333Y-59522762D01*
X121094571Y-59570381D01*
X121285048Y-59570381D01*
X121380286Y-59522762D01*
X121427905Y-59475143D01*
X121475524Y-59379905D01*
X121475524Y-58570381D01*
X122475524Y-59570381D02*
X121904095Y-59570381D01*
X122189809Y-59570381D02*
X122189809Y-58570381D01*
X122094571Y-58713238D01*
X121999333Y-58808476D01*
X121904095Y-58856095D01*
X148058286Y-82388571D02*
X148201143Y-82436190D01*
X148248762Y-82483810D01*
X148296381Y-82579048D01*
X148296381Y-82721905D01*
X148248762Y-82817143D01*
X148201143Y-82864762D01*
X148105905Y-82912381D01*
X147724952Y-82912381D01*
X147724952Y-81912381D01*
X148058286Y-81912381D01*
X148153524Y-81960000D01*
X148201143Y-82007619D01*
X148248762Y-82102857D01*
X148248762Y-82198095D01*
X148201143Y-82293333D01*
X148153524Y-82340952D01*
X148058286Y-82388571D01*
X147724952Y-82388571D01*
X148582095Y-81912381D02*
X149153524Y-81912381D01*
X148867809Y-82912381D02*
X148867809Y-81912381D01*
X150010667Y-82912381D02*
X149439238Y-82912381D01*
X149724952Y-82912381D02*
X149724952Y-81912381D01*
X149629714Y-82055238D01*
X149534476Y-82150476D01*
X149439238Y-82198095D01*
X145652381Y-43687905D02*
X146461905Y-43687905D01*
X146557143Y-43640286D01*
X146604762Y-43592667D01*
X146652381Y-43497429D01*
X146652381Y-43306952D01*
X146604762Y-43211714D01*
X146557143Y-43164095D01*
X146461905Y-43116476D01*
X145652381Y-43116476D01*
X145747619Y-42687905D02*
X145700000Y-42640286D01*
X145652381Y-42545048D01*
X145652381Y-42306952D01*
X145700000Y-42211714D01*
X145747619Y-42164095D01*
X145842857Y-42116476D01*
X145938095Y-42116476D01*
X146080952Y-42164095D01*
X146652381Y-42735524D01*
X146652381Y-42116476D01*
X173482095Y-47608381D02*
X173482095Y-48417905D01*
X173529714Y-48513143D01*
X173577333Y-48560762D01*
X173672571Y-48608381D01*
X173863048Y-48608381D01*
X173958286Y-48560762D01*
X174005905Y-48513143D01*
X174053524Y-48417905D01*
X174053524Y-47608381D01*
X174434476Y-47608381D02*
X175053524Y-47608381D01*
X174720190Y-47989333D01*
X174863048Y-47989333D01*
X174958286Y-48036952D01*
X175005905Y-48084571D01*
X175053524Y-48179810D01*
X175053524Y-48417905D01*
X175005905Y-48513143D01*
X174958286Y-48560762D01*
X174863048Y-48608381D01*
X174577333Y-48608381D01*
X174482095Y-48560762D01*
X174434476Y-48513143D01*
%LPC*%
D14*
X135666000Y-77978000D03*
X135666000Y-75438000D03*
X135666000Y-72898000D03*
X135666000Y-70358000D03*
X135666000Y-67818000D03*
X135666000Y-65278000D03*
X135666000Y-62738000D03*
X135666000Y-60198000D03*
X135666000Y-57658000D03*
X135666000Y-55118000D03*
X135666000Y-52578000D03*
X135666000Y-50038000D03*
X135666000Y-47498000D03*
X135666000Y-44958000D03*
X135666000Y-42418000D03*
D15*
X107666000Y-42418000D03*
D14*
X107666000Y-44958000D03*
X107666000Y-47498000D03*
X107666000Y-50038000D03*
X107666000Y-52578000D03*
X107666000Y-55118000D03*
X107666000Y-57658000D03*
X107666000Y-60198000D03*
X107666000Y-62738000D03*
X107666000Y-65278000D03*
X107666000Y-67818000D03*
X107666000Y-70358000D03*
X107666000Y-72898000D03*
X107666000Y-75438000D03*
X107666000Y-77978000D03*
D16*
X147574000Y-86360000D03*
X150114000Y-86360000D03*
D17*
X148590000Y-42926000D03*
D18*
X151130000Y-42926000D03*
X153670000Y-42926000D03*
X156210000Y-42926000D03*
X158750000Y-42926000D03*
X161290000Y-42926000D03*
X163830000Y-42926000D03*
X166370000Y-42926000D03*
D17*
X174244000Y-50546000D03*
D18*
X174244000Y-53086000D03*
X174244000Y-55626000D03*
X174244000Y-58166000D03*
X174244000Y-60706000D03*
X174244000Y-63246000D03*
X174244000Y-65786000D03*
X174244000Y-68326000D03*
D17*
X112776000Y-41402000D03*
D18*
X112776000Y-43942000D03*
X112776000Y-46482000D03*
X112776000Y-49022000D03*
X112776000Y-51562000D03*
X112776000Y-54102000D03*
X112776000Y-56642000D03*
X112776000Y-59182000D03*
X112776000Y-61722000D03*
X112776000Y-64262000D03*
X112776000Y-66802000D03*
X112776000Y-69342000D03*
X112776000Y-71882000D03*
X112776000Y-74422000D03*
X112776000Y-76962000D03*
D17*
X116078000Y-76962000D03*
D18*
X116078000Y-74422000D03*
X116078000Y-71882000D03*
X116078000Y-69342000D03*
X116078000Y-66802000D03*
X116078000Y-64262000D03*
X116078000Y-61722000D03*
X116078000Y-59182000D03*
X116078000Y-56642000D03*
X116078000Y-54102000D03*
X116078000Y-51562000D03*
X116078000Y-49022000D03*
X116078000Y-46482000D03*
X116078000Y-43942000D03*
X116078000Y-41402000D03*
M02*
