M48
;DRILL file {KiCad 4.0.4+e1-6308~48~ubuntu16.04.1-stable} date Mon Jan  2 11:24:02 2017
;FORMAT={-:-/ absolute / inch / decimal}
FMAT,2
INCH,TZ
T1C0.016
T2C0.039
T3C0.039
T4C0.040
%
G90
G05
M72
T1
X5.48Y-2.02
X5.48Y-2.23
X5.49Y-2.63
X5.49Y-3.07
X6.09Y-2.71
X6.15Y-2.19
X6.15Y-2.41
X6.24Y-2.09
X6.24Y-2.29
X6.35Y-3.16
X6.45Y-2.78
X6.55Y-2.49
T2
X5.81Y-3.4
X5.91Y-3.4
T3
X4.44Y-1.63
X4.44Y-1.73
X4.44Y-1.83
X4.44Y-1.93
X4.44Y-2.03
X4.44Y-2.13
X4.44Y-2.23
X4.44Y-2.33
X4.44Y-2.43
X4.44Y-2.53
X4.44Y-2.63
X4.44Y-2.73
X4.44Y-2.83
X4.44Y-2.93
X4.44Y-3.03
X4.57Y-1.63
X4.57Y-1.73
X4.57Y-1.83
X4.57Y-1.93
X4.57Y-2.03
X4.57Y-2.13
X4.57Y-2.23
X4.57Y-2.33
X4.57Y-2.43
X4.57Y-2.53
X4.57Y-2.63
X4.57Y-2.73
X4.57Y-2.83
X4.57Y-2.93
X4.57Y-3.03
X5.85Y-1.69
X5.95Y-1.69
X6.05Y-1.69
X6.15Y-1.69
X6.25Y-1.69
X6.35Y-1.69
X6.45Y-1.69
X6.55Y-1.69
X6.86Y-1.99
X6.86Y-2.09
X6.86Y-2.19
X6.86Y-2.29
X6.86Y-2.39
X6.86Y-2.49
X6.86Y-2.59
X6.86Y-2.69
T4
X4.2388Y-1.67
X4.2388Y-1.77
X4.2388Y-1.87
X4.2388Y-1.97
X4.2388Y-2.07
X4.2388Y-2.17
X4.2388Y-2.27
X4.2388Y-2.37
X4.2388Y-2.47
X4.2388Y-2.57
X4.2388Y-2.67
X4.2388Y-2.77
X4.2388Y-2.87
X4.2388Y-2.97
X4.2388Y-3.07
X5.3412Y-1.67
X5.3412Y-1.77
X5.3412Y-1.87
X5.3412Y-1.97
X5.3412Y-2.07
X5.3412Y-2.17
X5.3412Y-2.27
X5.3412Y-2.37
X5.3412Y-2.47
X5.3412Y-2.57
X5.3412Y-2.67
X5.3412Y-2.77
X5.3412Y-2.87
X5.3412Y-2.97
X5.3412Y-3.07
T0
M30
