G04 #@! TF.FileFunction,Copper,L1,Top,Signal*
%FSLAX46Y46*%
G04 Gerber Fmt 4.6, Leading zero omitted, Abs format (unit mm)*
G04 Created by KiCad (PCBNEW 4.0.4+e1-6308~48~ubuntu16.04.1-stable) date Mon Jan  2 11:44:22 2017*
%MOMM*%
%LPD*%
G01*
G04 APERTURE LIST*
%ADD10C,0.100000*%
%ADD11O,2.032000X1.727200*%
%ADD12R,2.032000X1.727200*%
%ADD13O,1.506220X3.014980*%
%ADD14R,1.700000X1.700000*%
%ADD15O,1.700000X1.700000*%
%ADD16C,0.600000*%
%ADD17C,0.500000*%
%ADD18C,1.000000*%
%ADD19C,0.250000*%
%ADD20C,0.254000*%
G04 APERTURE END LIST*
D10*
D11*
X135666000Y-77978000D03*
X135666000Y-75438000D03*
X135666000Y-72898000D03*
X135666000Y-70358000D03*
X135666000Y-67818000D03*
X135666000Y-65278000D03*
X135666000Y-62738000D03*
X135666000Y-60198000D03*
X135666000Y-57658000D03*
X135666000Y-55118000D03*
X135666000Y-52578000D03*
X135666000Y-50038000D03*
X135666000Y-47498000D03*
X135666000Y-44958000D03*
X135666000Y-42418000D03*
D12*
X107666000Y-42418000D03*
D11*
X107666000Y-44958000D03*
X107666000Y-47498000D03*
X107666000Y-50038000D03*
X107666000Y-52578000D03*
X107666000Y-55118000D03*
X107666000Y-57658000D03*
X107666000Y-60198000D03*
X107666000Y-62738000D03*
X107666000Y-65278000D03*
X107666000Y-67818000D03*
X107666000Y-70358000D03*
X107666000Y-72898000D03*
X107666000Y-75438000D03*
X107666000Y-77978000D03*
D13*
X147574000Y-86360000D03*
X150114000Y-86360000D03*
D14*
X148590000Y-42926000D03*
D15*
X151130000Y-42926000D03*
X153670000Y-42926000D03*
X156210000Y-42926000D03*
X158750000Y-42926000D03*
X161290000Y-42926000D03*
X163830000Y-42926000D03*
X166370000Y-42926000D03*
D14*
X174244000Y-50546000D03*
D15*
X174244000Y-53086000D03*
X174244000Y-55626000D03*
X174244000Y-58166000D03*
X174244000Y-60706000D03*
X174244000Y-63246000D03*
X174244000Y-65786000D03*
X174244000Y-68326000D03*
D14*
X112776000Y-41402000D03*
D15*
X112776000Y-43942000D03*
X112776000Y-46482000D03*
X112776000Y-49022000D03*
X112776000Y-51562000D03*
X112776000Y-54102000D03*
X112776000Y-56642000D03*
X112776000Y-59182000D03*
X112776000Y-61722000D03*
X112776000Y-64262000D03*
X112776000Y-66802000D03*
X112776000Y-69342000D03*
X112776000Y-71882000D03*
X112776000Y-74422000D03*
X112776000Y-76962000D03*
D14*
X116078000Y-76962000D03*
D15*
X116078000Y-74422000D03*
X116078000Y-71882000D03*
X116078000Y-69342000D03*
X116078000Y-66802000D03*
X116078000Y-64262000D03*
X116078000Y-61722000D03*
X116078000Y-59182000D03*
X116078000Y-56642000D03*
X116078000Y-54102000D03*
X116078000Y-51562000D03*
X116078000Y-49022000D03*
X116078000Y-46482000D03*
X116078000Y-43942000D03*
X116078000Y-41402000D03*
D16*
X161290000Y-80264000D03*
X166370000Y-63246000D03*
X139446000Y-66802000D03*
X139192000Y-56642000D03*
X139192000Y-51308000D03*
X139446000Y-77978000D03*
X163830000Y-70612000D03*
X154686000Y-68834000D03*
X156210000Y-61214000D03*
X156210000Y-55626000D03*
X158496000Y-58166000D03*
X158496000Y-53086000D03*
D17*
X112776000Y-76962000D02*
X112014000Y-76962000D01*
X112014000Y-76962000D02*
X110998000Y-75946000D01*
X110236000Y-75946000D02*
X108204000Y-77978000D01*
X110998000Y-75946000D02*
X110236000Y-75946000D01*
X108204000Y-77978000D02*
X107666000Y-77978000D01*
D18*
X147574000Y-86360000D02*
X147574000Y-84328000D01*
X151638000Y-80264000D02*
X161290000Y-80264000D01*
X147574000Y-84328000D02*
X151638000Y-80264000D01*
D19*
X133858000Y-74168000D02*
X133604000Y-74168000D01*
D17*
X143510000Y-86360000D02*
X137668000Y-80518000D01*
X137668000Y-80518000D02*
X137668000Y-75184000D01*
D19*
X137668000Y-75184000D02*
X136652000Y-74168000D01*
X136652000Y-74168000D02*
X133858000Y-74168000D01*
D17*
X147574000Y-86360000D02*
X143510000Y-86360000D01*
X114300000Y-75438000D02*
X112776000Y-76962000D01*
X114300000Y-73914000D02*
X114300000Y-75438000D01*
X115062000Y-73152000D02*
X114300000Y-73914000D01*
D19*
X117602000Y-73152000D02*
X115062000Y-73152000D01*
X121412000Y-69342000D02*
X117602000Y-73152000D01*
X128016000Y-69342000D02*
X121412000Y-69342000D01*
X130302000Y-71628000D02*
X128016000Y-69342000D01*
X131064000Y-71628000D02*
X130302000Y-71628000D01*
D17*
X133604000Y-74168000D02*
X131064000Y-71628000D01*
D19*
X107666000Y-77978000D02*
X107950000Y-77978000D01*
X107950000Y-77978000D02*
X109728000Y-76200000D01*
X109728000Y-76200000D02*
X111506000Y-76200000D01*
X111506000Y-76200000D02*
X112268000Y-76962000D01*
X112268000Y-76962000D02*
X112776000Y-76962000D01*
D17*
X135666000Y-75438000D02*
X133350000Y-75438000D01*
X133350000Y-75438000D02*
X130302000Y-72390000D01*
X129794000Y-72390000D02*
X127508000Y-70104000D01*
X130302000Y-72390000D02*
X129794000Y-72390000D01*
X127508000Y-70104000D02*
X125984000Y-70104000D01*
X125984000Y-70104000D02*
X121666000Y-74422000D01*
X121666000Y-74422000D02*
X116078000Y-74422000D01*
D18*
X112776000Y-74422000D02*
X110236000Y-74422000D01*
X109220000Y-75438000D02*
X107666000Y-75438000D01*
X110236000Y-74422000D02*
X109220000Y-75438000D01*
X112776000Y-64262000D02*
X110744000Y-64262000D01*
X109728000Y-65278000D02*
X107666000Y-65278000D01*
X110744000Y-64262000D02*
X109728000Y-65278000D01*
X112776000Y-43942000D02*
X110744000Y-43942000D01*
X109728000Y-44958000D02*
X107666000Y-44958000D01*
X110744000Y-43942000D02*
X109728000Y-44958000D01*
D19*
X107666000Y-75438000D02*
X106934000Y-75438000D01*
D17*
X106934000Y-75438000D02*
X104648000Y-73152000D01*
X104648000Y-73152000D02*
X104648000Y-68296000D01*
X104648000Y-68296000D02*
X107666000Y-65278000D01*
D19*
X166370000Y-63246000D02*
X167386000Y-63246000D01*
D18*
X174244000Y-63246000D02*
X167386000Y-63246000D01*
X167386000Y-63246000D02*
X154940000Y-63246000D01*
X152146000Y-66802000D02*
X139446000Y-66802000D01*
X154940000Y-63246000D02*
X152146000Y-66802000D01*
D19*
X129540000Y-71628000D02*
X129032000Y-71628000D01*
X129032000Y-71628000D02*
X127508000Y-70104000D01*
D18*
X116078000Y-56642000D02*
X130302000Y-56642000D01*
X131318000Y-57658000D02*
X135666000Y-57658000D01*
X130302000Y-56642000D02*
X131318000Y-57658000D01*
D19*
X129540000Y-71628000D02*
X133350000Y-75438000D01*
D18*
X112776000Y-41402000D02*
X110998000Y-41402000D01*
X109982000Y-42418000D02*
X107666000Y-42418000D01*
X110998000Y-41402000D02*
X109982000Y-42418000D01*
X112776000Y-46482000D02*
X110998000Y-46482000D01*
X109982000Y-47498000D02*
X107666000Y-47498000D01*
X110998000Y-46482000D02*
X109982000Y-47498000D01*
D17*
X174244000Y-65786000D02*
X177800000Y-65786000D01*
X181102000Y-59690000D02*
X178308000Y-56896000D01*
X181102000Y-62484000D02*
X181102000Y-59690000D01*
X177800000Y-65786000D02*
X181102000Y-62484000D01*
D18*
X112776000Y-49022000D02*
X110998000Y-49022000D01*
X109982000Y-50038000D02*
X107666000Y-50038000D01*
X110998000Y-49022000D02*
X109982000Y-50038000D01*
X162560000Y-56896000D02*
X139446000Y-56896000D01*
D19*
X164592000Y-56896000D02*
X178308000Y-56896000D01*
X114808000Y-50292000D02*
X118110000Y-50292000D01*
X118110000Y-50292000D02*
X120396000Y-52578000D01*
X120396000Y-52578000D02*
X132334000Y-52578000D01*
X132334000Y-52578000D02*
X133604000Y-51308000D01*
X133604000Y-51308000D02*
X138176000Y-51308000D01*
X113538000Y-49022000D02*
X114808000Y-50292000D01*
X164592000Y-56896000D02*
X162560000Y-56896000D01*
X139446000Y-56896000D02*
X139192000Y-56642000D01*
X139192000Y-51308000D02*
X138176000Y-51308000D01*
X112776000Y-49022000D02*
X113538000Y-49022000D01*
D18*
X112776000Y-51562000D02*
X110744000Y-51562000D01*
X110744000Y-51562000D02*
X109728000Y-52578000D01*
X109728000Y-52578000D02*
X107666000Y-52578000D01*
D19*
X107666000Y-52578000D02*
X109728000Y-52578000D01*
X109728000Y-52578000D02*
X110744000Y-51562000D01*
D18*
X112776000Y-54102000D02*
X111252000Y-54102000D01*
X110236000Y-55118000D02*
X107666000Y-55118000D01*
X111252000Y-54102000D02*
X110236000Y-55118000D01*
X112776000Y-56642000D02*
X110998000Y-56642000D01*
X109982000Y-57658000D02*
X107666000Y-57658000D01*
X110998000Y-56642000D02*
X109982000Y-57658000D01*
X112776000Y-61722000D02*
X110744000Y-61722000D01*
X109728000Y-62738000D02*
X107666000Y-62738000D01*
X110744000Y-61722000D02*
X109728000Y-62738000D01*
D17*
X135666000Y-77978000D02*
X133096000Y-77978000D01*
X132080000Y-76962000D02*
X132080000Y-75692000D01*
X133096000Y-77978000D02*
X132080000Y-76962000D01*
X132080000Y-75692000D02*
X128270000Y-71882000D01*
X121158000Y-76962000D02*
X116078000Y-76962000D01*
X121920000Y-76200000D02*
X121158000Y-76962000D01*
X122682000Y-76200000D02*
X121920000Y-76200000D01*
X127000000Y-71882000D02*
X122682000Y-76200000D01*
X128270000Y-71882000D02*
X127000000Y-71882000D01*
D18*
X112776000Y-66802000D02*
X110236000Y-66802000D01*
X110236000Y-66802000D02*
X109220000Y-67818000D01*
X109220000Y-67818000D02*
X107666000Y-67818000D01*
X135666000Y-55118000D02*
X119126000Y-55118000D01*
X118110000Y-54102000D02*
X116078000Y-54102000D01*
X119126000Y-55118000D02*
X118110000Y-54102000D01*
X139446000Y-77978000D02*
X154686000Y-77978000D01*
X169418000Y-68326000D02*
X174244000Y-68326000D01*
X162814000Y-74930000D02*
X169418000Y-68326000D01*
X157734000Y-74930000D02*
X162814000Y-74930000D01*
X154686000Y-77978000D02*
X157734000Y-74930000D01*
D17*
X116078000Y-54102000D02*
X115062000Y-54102000D01*
X115062000Y-54102000D02*
X114300000Y-54864000D01*
X114300000Y-54864000D02*
X114300000Y-66548000D01*
X114300000Y-66548000D02*
X114046000Y-66802000D01*
X114046000Y-66802000D02*
X112776000Y-66802000D01*
D19*
X107666000Y-67818000D02*
X109220000Y-67818000D01*
X109220000Y-67818000D02*
X110236000Y-66802000D01*
D18*
X112776000Y-69342000D02*
X109982000Y-69342000D01*
X108966000Y-70358000D02*
X107666000Y-70358000D01*
X109982000Y-69342000D02*
X108966000Y-70358000D01*
X112776000Y-71882000D02*
X110744000Y-71882000D01*
X109728000Y-72898000D02*
X107666000Y-72898000D01*
X110744000Y-71882000D02*
X109728000Y-72898000D01*
X135666000Y-72898000D02*
X133858000Y-72898000D01*
X121412000Y-68072000D02*
X117602000Y-71882000D01*
X129032000Y-68072000D02*
X121412000Y-68072000D01*
X133858000Y-72898000D02*
X129032000Y-68072000D01*
X117602000Y-71882000D02*
X116078000Y-71882000D01*
X135666000Y-72898000D02*
X161544000Y-72898000D01*
X161544000Y-72898000D02*
X163830000Y-70612000D01*
D19*
X117602000Y-71882000D02*
X116078000Y-71882000D01*
X161544000Y-72898000D02*
X163830000Y-70612000D01*
D18*
X135666000Y-70358000D02*
X133350000Y-70358000D01*
X118110000Y-69342000D02*
X116078000Y-69342000D01*
X120719998Y-66732002D02*
X118110000Y-69342000D01*
X129724002Y-66732002D02*
X120719998Y-66732002D01*
X133350000Y-70358000D02*
X129724002Y-66732002D01*
X135666000Y-67818000D02*
X132588000Y-67818000D01*
X118872000Y-66802000D02*
X116078000Y-66802000D01*
X120142000Y-65532000D02*
X118872000Y-66802000D01*
X130302000Y-65532000D02*
X120142000Y-65532000D01*
X132588000Y-67818000D02*
X130302000Y-65532000D01*
X135666000Y-67818000D02*
X137414000Y-67818000D01*
X138430000Y-68834000D02*
X154686000Y-68834000D01*
X137414000Y-67818000D02*
X138430000Y-68834000D01*
X135666000Y-65278000D02*
X149860000Y-65278000D01*
X154432000Y-61214000D02*
X156210000Y-61214000D01*
X150622000Y-65024000D02*
X154432000Y-61214000D01*
X150114000Y-65024000D02*
X150622000Y-65024000D01*
X149860000Y-65278000D02*
X150114000Y-65024000D01*
X174244000Y-55626000D02*
X156210000Y-55626000D01*
X116078000Y-64262000D02*
X131064000Y-64262000D01*
X132080000Y-65278000D02*
X135666000Y-65278000D01*
X131064000Y-64262000D02*
X132080000Y-65278000D01*
X158242000Y-59690000D02*
X159512000Y-59690000D01*
X159512000Y-59690000D02*
X161036000Y-58166000D01*
X158242000Y-59690000D02*
X153670000Y-59690000D01*
X116078000Y-61722000D02*
X130556000Y-61722000D01*
X131572000Y-62738000D02*
X135666000Y-62738000D01*
X130556000Y-61722000D02*
X131572000Y-62738000D01*
X174244000Y-58166000D02*
X161036000Y-58166000D01*
X150622000Y-62738000D02*
X135666000Y-62738000D01*
X153670000Y-59690000D02*
X150622000Y-62738000D01*
X151384000Y-60198000D02*
X153162000Y-58420000D01*
X158496000Y-58350002D02*
X158496000Y-58166000D01*
X158172002Y-58420000D02*
X158496000Y-58350002D01*
X153162000Y-58420000D02*
X158172002Y-58420000D01*
X151384000Y-60198000D02*
X135666000Y-60198000D01*
X174244000Y-53086000D02*
X158496000Y-53086000D01*
X116078000Y-59182000D02*
X130810000Y-59182000D01*
X130810000Y-59182000D02*
X131826000Y-60198000D01*
X131826000Y-60198000D02*
X135666000Y-60198000D01*
X135666000Y-52578000D02*
X134112000Y-52578000D01*
X117856000Y-51562000D02*
X116078000Y-51562000D01*
X119888000Y-53594000D02*
X117856000Y-51562000D01*
X133096000Y-53594000D02*
X119888000Y-53594000D01*
X134112000Y-52578000D02*
X133096000Y-53594000D01*
X174244000Y-50546000D02*
X142240000Y-50546000D01*
X141732000Y-50038000D02*
X135666000Y-50038000D01*
X142240000Y-50546000D02*
X141732000Y-50038000D01*
D19*
X135666000Y-50038000D02*
X133604000Y-50038000D01*
X117602000Y-49022000D02*
X116078000Y-49022000D01*
X120650000Y-52070000D02*
X117602000Y-49022000D01*
X130810000Y-52070000D02*
X120650000Y-52070000D01*
X131064000Y-51816000D02*
X130810000Y-52070000D01*
X131826000Y-51816000D02*
X131064000Y-51816000D01*
X133604000Y-50038000D02*
X131826000Y-51816000D01*
D18*
X135666000Y-47498000D02*
X151384000Y-47498000D01*
X153670000Y-45212000D02*
X153670000Y-42926000D01*
X151384000Y-47498000D02*
X153670000Y-45212000D01*
D19*
X135666000Y-47498000D02*
X133858000Y-47498000D01*
X117348000Y-46482000D02*
X116078000Y-46482000D01*
X118618000Y-47752000D02*
X117348000Y-46482000D01*
X118618000Y-49022000D02*
X118618000Y-47752000D01*
X120904000Y-51308000D02*
X118618000Y-49022000D01*
X131572000Y-51308000D02*
X120904000Y-51308000D01*
X132588000Y-50292000D02*
X131572000Y-51308000D01*
X132588000Y-48768000D02*
X132588000Y-50292000D01*
X133858000Y-47498000D02*
X132588000Y-48768000D01*
D17*
X135666000Y-44958000D02*
X132080000Y-44958000D01*
X117602000Y-45466000D02*
X116078000Y-43942000D01*
X118364000Y-45466000D02*
X117602000Y-45466000D01*
X123630998Y-50732998D02*
X118364000Y-45466000D01*
X128337002Y-50732998D02*
X123630998Y-50732998D01*
X130810000Y-48260000D02*
X128337002Y-50732998D01*
X130810000Y-46228000D02*
X130810000Y-48260000D01*
X132080000Y-44958000D02*
X130810000Y-46228000D01*
X135666000Y-42418000D02*
X131064000Y-42418000D01*
X117856000Y-44450000D02*
X117856000Y-43180000D01*
X118110000Y-44450000D02*
X117856000Y-44450000D01*
X118872000Y-44450000D02*
X118110000Y-44450000D01*
X120396000Y-45974000D02*
X118872000Y-44450000D01*
X120396000Y-46482000D02*
X120396000Y-45974000D01*
X123698000Y-49784000D02*
X120396000Y-46482000D01*
X128016000Y-49784000D02*
X123698000Y-49784000D01*
X129794000Y-48006000D02*
X128016000Y-49784000D01*
X129794000Y-43688000D02*
X129794000Y-48006000D01*
X131064000Y-42418000D02*
X129794000Y-43688000D01*
X117856000Y-43180000D02*
X116078000Y-41402000D01*
D18*
X135666000Y-42418000D02*
X139192000Y-42418000D01*
X139700000Y-42926000D02*
X148590000Y-42926000D01*
X139192000Y-42418000D02*
X139700000Y-42926000D01*
D19*
X117856000Y-43180000D02*
X116078000Y-41402000D01*
D18*
X112776000Y-59182000D02*
X111252000Y-59182000D01*
X110236000Y-60198000D02*
X107666000Y-60198000D01*
X111252000Y-59182000D02*
X110236000Y-60198000D01*
D20*
G36*
X169447517Y-71759685D02*
X169390347Y-71789129D01*
X169314523Y-71849441D01*
X169233625Y-71902779D01*
X169118382Y-72016614D01*
X169099855Y-72043975D01*
X169074266Y-72064886D01*
X168924128Y-72247047D01*
X168922259Y-72250525D01*
X168919232Y-72253061D01*
X168883673Y-72297287D01*
X168695758Y-72516108D01*
X168466622Y-72764565D01*
X168210191Y-73028521D01*
X167944476Y-73289824D01*
X167687239Y-73530996D01*
X167457900Y-73733521D01*
X167273176Y-73882222D01*
X167206212Y-73930467D01*
X166996590Y-74068822D01*
X166775041Y-74201814D01*
X166577668Y-74307483D01*
X166177418Y-74503251D01*
X166176678Y-74503815D01*
X166175785Y-74504054D01*
X166077661Y-74579284D01*
X165978813Y-74654624D01*
X165978346Y-74655427D01*
X165977610Y-74655991D01*
X165915582Y-74763327D01*
X165853253Y-74870478D01*
X165853129Y-74871397D01*
X165852665Y-74872200D01*
X165616791Y-75566139D01*
X165586281Y-75655402D01*
X165079248Y-77019138D01*
X164519816Y-78313553D01*
X163904521Y-79547544D01*
X163232299Y-80723383D01*
X162502008Y-81843327D01*
X161712334Y-82909730D01*
X160861910Y-83924830D01*
X159948609Y-84891512D01*
X159081890Y-85712039D01*
X158136501Y-86512266D01*
X157148045Y-87254530D01*
X156107562Y-87945196D01*
X155006229Y-88590192D01*
X153830073Y-89197861D01*
X153566348Y-89324249D01*
X152937363Y-89611987D01*
X152305011Y-89881161D01*
X151650743Y-90139120D01*
X150958110Y-90392141D01*
X150210778Y-90646366D01*
X149390825Y-90908407D01*
X148609245Y-91151441D01*
X147870505Y-90918802D01*
X147870503Y-90918802D01*
X147697673Y-90864171D01*
X146972022Y-90629525D01*
X146316888Y-90407978D01*
X145718779Y-90194444D01*
X145164736Y-89984011D01*
X144641649Y-89771682D01*
X144136207Y-89552313D01*
X143634920Y-89320589D01*
X143127692Y-89072742D01*
X142211143Y-88591184D01*
X141110840Y-87945432D01*
X140073328Y-87255951D01*
X139087234Y-86515095D01*
X138142689Y-85715784D01*
X137228124Y-84848951D01*
X136676098Y-84276693D01*
X135808191Y-83286861D01*
X135004187Y-82250917D01*
X134259116Y-81162357D01*
X133570514Y-80017300D01*
X132947435Y-78833449D01*
X133096000Y-78863001D01*
X133096005Y-78863000D01*
X134304874Y-78863000D01*
X134421585Y-79037670D01*
X134907766Y-79362526D01*
X135481255Y-79476600D01*
X135850745Y-79476600D01*
X136424234Y-79362526D01*
X136783000Y-79122806D01*
X136783000Y-80517995D01*
X136782999Y-80518000D01*
X136833124Y-80769989D01*
X136850367Y-80856675D01*
X137038637Y-81138443D01*
X137042210Y-81143790D01*
X142884208Y-86985787D01*
X142884210Y-86985790D01*
X143171325Y-87177633D01*
X143211463Y-87185617D01*
X143510000Y-87245001D01*
X143510005Y-87245000D01*
X146203523Y-87245000D01*
X146291554Y-87687561D01*
X146592458Y-88137896D01*
X147042793Y-88438800D01*
X147574000Y-88544464D01*
X148105207Y-88438800D01*
X148555542Y-88137896D01*
X148856446Y-87687561D01*
X148857016Y-87684694D01*
X148880154Y-87762919D01*
X149222260Y-88185724D01*
X149700125Y-88445427D01*
X149772326Y-88459783D01*
X149987000Y-88337162D01*
X149987000Y-86487000D01*
X150241000Y-86487000D01*
X150241000Y-88337162D01*
X150455674Y-88459783D01*
X150527875Y-88445427D01*
X151005740Y-88185724D01*
X151347846Y-87762919D01*
X151502110Y-87241380D01*
X151502110Y-86487000D01*
X150241000Y-86487000D01*
X149987000Y-86487000D01*
X149967000Y-86487000D01*
X149967000Y-86233000D01*
X149987000Y-86233000D01*
X149987000Y-84382838D01*
X150241000Y-84382838D01*
X150241000Y-86233000D01*
X151502110Y-86233000D01*
X151502110Y-85478620D01*
X151347846Y-84957081D01*
X151005740Y-84534276D01*
X150527875Y-84274573D01*
X150455674Y-84260217D01*
X150241000Y-84382838D01*
X149987000Y-84382838D01*
X149772326Y-84260217D01*
X149700125Y-84274573D01*
X149222260Y-84534276D01*
X148880154Y-84957081D01*
X148857016Y-85035306D01*
X148856446Y-85032439D01*
X148709000Y-84811770D01*
X148709000Y-84798132D01*
X152108132Y-81399000D01*
X161290000Y-81399000D01*
X161724346Y-81312603D01*
X162092566Y-81066566D01*
X162338603Y-80698346D01*
X162425000Y-80264000D01*
X162338603Y-79829654D01*
X162092566Y-79461434D01*
X161724346Y-79215397D01*
X161290000Y-79129000D01*
X151638000Y-79129000D01*
X151203654Y-79215397D01*
X150861454Y-79444048D01*
X150835434Y-79461434D01*
X146771434Y-83525434D01*
X146525397Y-83893654D01*
X146439000Y-84328000D01*
X146439000Y-84811770D01*
X146291554Y-85032439D01*
X146203523Y-85475000D01*
X143876579Y-85475000D01*
X138553000Y-80151420D01*
X138553000Y-78645222D01*
X138643434Y-78780566D01*
X139011654Y-79026603D01*
X139446000Y-79113000D01*
X154686000Y-79113000D01*
X155120346Y-79026603D01*
X155488566Y-78780566D01*
X158204132Y-76065000D01*
X162814000Y-76065000D01*
X163248346Y-75978603D01*
X163616566Y-75732566D01*
X169440231Y-69908901D01*
X169447517Y-71759685D01*
X169447517Y-71759685D01*
G37*
X169447517Y-71759685D02*
X169390347Y-71789129D01*
X169314523Y-71849441D01*
X169233625Y-71902779D01*
X169118382Y-72016614D01*
X169099855Y-72043975D01*
X169074266Y-72064886D01*
X168924128Y-72247047D01*
X168922259Y-72250525D01*
X168919232Y-72253061D01*
X168883673Y-72297287D01*
X168695758Y-72516108D01*
X168466622Y-72764565D01*
X168210191Y-73028521D01*
X167944476Y-73289824D01*
X167687239Y-73530996D01*
X167457900Y-73733521D01*
X167273176Y-73882222D01*
X167206212Y-73930467D01*
X166996590Y-74068822D01*
X166775041Y-74201814D01*
X166577668Y-74307483D01*
X166177418Y-74503251D01*
X166176678Y-74503815D01*
X166175785Y-74504054D01*
X166077661Y-74579284D01*
X165978813Y-74654624D01*
X165978346Y-74655427D01*
X165977610Y-74655991D01*
X165915582Y-74763327D01*
X165853253Y-74870478D01*
X165853129Y-74871397D01*
X165852665Y-74872200D01*
X165616791Y-75566139D01*
X165586281Y-75655402D01*
X165079248Y-77019138D01*
X164519816Y-78313553D01*
X163904521Y-79547544D01*
X163232299Y-80723383D01*
X162502008Y-81843327D01*
X161712334Y-82909730D01*
X160861910Y-83924830D01*
X159948609Y-84891512D01*
X159081890Y-85712039D01*
X158136501Y-86512266D01*
X157148045Y-87254530D01*
X156107562Y-87945196D01*
X155006229Y-88590192D01*
X153830073Y-89197861D01*
X153566348Y-89324249D01*
X152937363Y-89611987D01*
X152305011Y-89881161D01*
X151650743Y-90139120D01*
X150958110Y-90392141D01*
X150210778Y-90646366D01*
X149390825Y-90908407D01*
X148609245Y-91151441D01*
X147870505Y-90918802D01*
X147870503Y-90918802D01*
X147697673Y-90864171D01*
X146972022Y-90629525D01*
X146316888Y-90407978D01*
X145718779Y-90194444D01*
X145164736Y-89984011D01*
X144641649Y-89771682D01*
X144136207Y-89552313D01*
X143634920Y-89320589D01*
X143127692Y-89072742D01*
X142211143Y-88591184D01*
X141110840Y-87945432D01*
X140073328Y-87255951D01*
X139087234Y-86515095D01*
X138142689Y-85715784D01*
X137228124Y-84848951D01*
X136676098Y-84276693D01*
X135808191Y-83286861D01*
X135004187Y-82250917D01*
X134259116Y-81162357D01*
X133570514Y-80017300D01*
X132947435Y-78833449D01*
X133096000Y-78863001D01*
X133096005Y-78863000D01*
X134304874Y-78863000D01*
X134421585Y-79037670D01*
X134907766Y-79362526D01*
X135481255Y-79476600D01*
X135850745Y-79476600D01*
X136424234Y-79362526D01*
X136783000Y-79122806D01*
X136783000Y-80517995D01*
X136782999Y-80518000D01*
X136833124Y-80769989D01*
X136850367Y-80856675D01*
X137038637Y-81138443D01*
X137042210Y-81143790D01*
X142884208Y-86985787D01*
X142884210Y-86985790D01*
X143171325Y-87177633D01*
X143211463Y-87185617D01*
X143510000Y-87245001D01*
X143510005Y-87245000D01*
X146203523Y-87245000D01*
X146291554Y-87687561D01*
X146592458Y-88137896D01*
X147042793Y-88438800D01*
X147574000Y-88544464D01*
X148105207Y-88438800D01*
X148555542Y-88137896D01*
X148856446Y-87687561D01*
X148857016Y-87684694D01*
X148880154Y-87762919D01*
X149222260Y-88185724D01*
X149700125Y-88445427D01*
X149772326Y-88459783D01*
X149987000Y-88337162D01*
X149987000Y-86487000D01*
X150241000Y-86487000D01*
X150241000Y-88337162D01*
X150455674Y-88459783D01*
X150527875Y-88445427D01*
X151005740Y-88185724D01*
X151347846Y-87762919D01*
X151502110Y-87241380D01*
X151502110Y-86487000D01*
X150241000Y-86487000D01*
X149987000Y-86487000D01*
X149967000Y-86487000D01*
X149967000Y-86233000D01*
X149987000Y-86233000D01*
X149987000Y-84382838D01*
X150241000Y-84382838D01*
X150241000Y-86233000D01*
X151502110Y-86233000D01*
X151502110Y-85478620D01*
X151347846Y-84957081D01*
X151005740Y-84534276D01*
X150527875Y-84274573D01*
X150455674Y-84260217D01*
X150241000Y-84382838D01*
X149987000Y-84382838D01*
X149772326Y-84260217D01*
X149700125Y-84274573D01*
X149222260Y-84534276D01*
X148880154Y-84957081D01*
X148857016Y-85035306D01*
X148856446Y-85032439D01*
X148709000Y-84811770D01*
X148709000Y-84798132D01*
X152108132Y-81399000D01*
X161290000Y-81399000D01*
X161724346Y-81312603D01*
X162092566Y-81066566D01*
X162338603Y-80698346D01*
X162425000Y-80264000D01*
X162338603Y-79829654D01*
X162092566Y-79461434D01*
X161724346Y-79215397D01*
X161290000Y-79129000D01*
X151638000Y-79129000D01*
X151203654Y-79215397D01*
X150861454Y-79444048D01*
X150835434Y-79461434D01*
X146771434Y-83525434D01*
X146525397Y-83893654D01*
X146439000Y-84328000D01*
X146439000Y-84811770D01*
X146291554Y-85032439D01*
X146203523Y-85475000D01*
X143876579Y-85475000D01*
X138553000Y-80151420D01*
X138553000Y-78645222D01*
X138643434Y-78780566D01*
X139011654Y-79026603D01*
X139446000Y-79113000D01*
X154686000Y-79113000D01*
X155120346Y-79026603D01*
X155488566Y-78780566D01*
X158204132Y-76065000D01*
X162814000Y-76065000D01*
X163248346Y-75978603D01*
X163616566Y-75732566D01*
X169440231Y-69908901D01*
X169447517Y-71759685D01*
G36*
X130011160Y-72330148D02*
X130302000Y-72388000D01*
X130572420Y-72388000D01*
X132978210Y-74793789D01*
X133265325Y-74985633D01*
X133604000Y-75053000D01*
X133942674Y-74985633D01*
X134028928Y-74928000D01*
X134126422Y-74928000D01*
X134061291Y-75063209D01*
X134058642Y-75078974D01*
X134179783Y-75311000D01*
X135539000Y-75311000D01*
X135539000Y-75291000D01*
X135793000Y-75291000D01*
X135793000Y-75311000D01*
X135813000Y-75311000D01*
X135813000Y-75565000D01*
X135793000Y-75565000D01*
X135793000Y-75585000D01*
X135539000Y-75585000D01*
X135539000Y-75565000D01*
X134179783Y-75565000D01*
X134058642Y-75797026D01*
X134061291Y-75812791D01*
X134315268Y-76340036D01*
X134731069Y-76711539D01*
X134421585Y-76918330D01*
X134304874Y-77093000D01*
X133462579Y-77093000D01*
X132965000Y-76595420D01*
X132965000Y-75692005D01*
X132965001Y-75692000D01*
X132903927Y-75384965D01*
X132897633Y-75353325D01*
X132705790Y-75066210D01*
X132705787Y-75066208D01*
X129886297Y-72246717D01*
X130011160Y-72330148D01*
X130011160Y-72330148D01*
G37*
X130011160Y-72330148D02*
X130302000Y-72388000D01*
X130572420Y-72388000D01*
X132978210Y-74793789D01*
X133265325Y-74985633D01*
X133604000Y-75053000D01*
X133942674Y-74985633D01*
X134028928Y-74928000D01*
X134126422Y-74928000D01*
X134061291Y-75063209D01*
X134058642Y-75078974D01*
X134179783Y-75311000D01*
X135539000Y-75311000D01*
X135539000Y-75291000D01*
X135793000Y-75291000D01*
X135793000Y-75311000D01*
X135813000Y-75311000D01*
X135813000Y-75565000D01*
X135793000Y-75565000D01*
X135793000Y-75585000D01*
X135539000Y-75585000D01*
X135539000Y-75565000D01*
X134179783Y-75565000D01*
X134058642Y-75797026D01*
X134061291Y-75812791D01*
X134315268Y-76340036D01*
X134731069Y-76711539D01*
X134421585Y-76918330D01*
X134304874Y-77093000D01*
X133462579Y-77093000D01*
X132965000Y-76595420D01*
X132965000Y-75692005D01*
X132965001Y-75692000D01*
X132903927Y-75384965D01*
X132897633Y-75353325D01*
X132705790Y-75066210D01*
X132705787Y-75066208D01*
X129886297Y-72246717D01*
X130011160Y-72330148D01*
G36*
X169429530Y-67191000D02*
X169418000Y-67191000D01*
X169023687Y-67269434D01*
X168983654Y-67277397D01*
X168615434Y-67523434D01*
X162343868Y-73795000D01*
X162205236Y-73795000D01*
X162346566Y-73700566D01*
X164632566Y-71414566D01*
X164878603Y-71046345D01*
X164965000Y-70612000D01*
X164878603Y-70177655D01*
X164632566Y-69809434D01*
X164264345Y-69563397D01*
X163830000Y-69477000D01*
X163395655Y-69563397D01*
X163027434Y-69809434D01*
X161073868Y-71763000D01*
X136797676Y-71763000D01*
X136595634Y-71628000D01*
X136910415Y-71417670D01*
X137235271Y-70931489D01*
X137349345Y-70358000D01*
X137235271Y-69784511D01*
X136910415Y-69298330D01*
X136595634Y-69088000D01*
X136797676Y-68953000D01*
X136943868Y-68953000D01*
X137627434Y-69636566D01*
X137995654Y-69882603D01*
X138430000Y-69969000D01*
X154686000Y-69969000D01*
X155120346Y-69882603D01*
X155488566Y-69636566D01*
X155734603Y-69268346D01*
X155821000Y-68834000D01*
X155734603Y-68399654D01*
X155488566Y-68031434D01*
X155120346Y-67785397D01*
X154686000Y-67699000D01*
X138900132Y-67699000D01*
X138216566Y-67015434D01*
X138173371Y-66986572D01*
X137848346Y-66769397D01*
X137414000Y-66683000D01*
X136797676Y-66683000D01*
X136595634Y-66548000D01*
X136797676Y-66413000D01*
X149860000Y-66413000D01*
X150294346Y-66326603D01*
X150545181Y-66159000D01*
X150622000Y-66159000D01*
X151056346Y-66072603D01*
X151424566Y-65826566D01*
X154902132Y-62349000D01*
X156210000Y-62349000D01*
X156644346Y-62262603D01*
X157012566Y-62016566D01*
X157258603Y-61648346D01*
X157345000Y-61214000D01*
X157267623Y-60825000D01*
X159512000Y-60825000D01*
X159946346Y-60738603D01*
X160314566Y-60492566D01*
X161506133Y-59301000D01*
X169398468Y-59301000D01*
X169429530Y-67191000D01*
X169429530Y-67191000D01*
G37*
X169429530Y-67191000D02*
X169418000Y-67191000D01*
X169023687Y-67269434D01*
X168983654Y-67277397D01*
X168615434Y-67523434D01*
X162343868Y-73795000D01*
X162205236Y-73795000D01*
X162346566Y-73700566D01*
X164632566Y-71414566D01*
X164878603Y-71046345D01*
X164965000Y-70612000D01*
X164878603Y-70177655D01*
X164632566Y-69809434D01*
X164264345Y-69563397D01*
X163830000Y-69477000D01*
X163395655Y-69563397D01*
X163027434Y-69809434D01*
X161073868Y-71763000D01*
X136797676Y-71763000D01*
X136595634Y-71628000D01*
X136910415Y-71417670D01*
X137235271Y-70931489D01*
X137349345Y-70358000D01*
X137235271Y-69784511D01*
X136910415Y-69298330D01*
X136595634Y-69088000D01*
X136797676Y-68953000D01*
X136943868Y-68953000D01*
X137627434Y-69636566D01*
X137995654Y-69882603D01*
X138430000Y-69969000D01*
X154686000Y-69969000D01*
X155120346Y-69882603D01*
X155488566Y-69636566D01*
X155734603Y-69268346D01*
X155821000Y-68834000D01*
X155734603Y-68399654D01*
X155488566Y-68031434D01*
X155120346Y-67785397D01*
X154686000Y-67699000D01*
X138900132Y-67699000D01*
X138216566Y-67015434D01*
X138173371Y-66986572D01*
X137848346Y-66769397D01*
X137414000Y-66683000D01*
X136797676Y-66683000D01*
X136595634Y-66548000D01*
X136797676Y-66413000D01*
X149860000Y-66413000D01*
X150294346Y-66326603D01*
X150545181Y-66159000D01*
X150622000Y-66159000D01*
X151056346Y-66072603D01*
X151424566Y-65826566D01*
X154902132Y-62349000D01*
X156210000Y-62349000D01*
X156644346Y-62262603D01*
X157012566Y-62016566D01*
X157258603Y-61648346D01*
X157345000Y-61214000D01*
X157267623Y-60825000D01*
X159512000Y-60825000D01*
X159946346Y-60738603D01*
X160314566Y-60492566D01*
X161506133Y-59301000D01*
X169398468Y-59301000D01*
X169429530Y-67191000D01*
G36*
X141437433Y-51348566D02*
X141773483Y-51573107D01*
X141805654Y-51594603D01*
X142240000Y-51681000D01*
X169368468Y-51681000D01*
X169369530Y-51951000D01*
X158496000Y-51951000D01*
X158061654Y-52037397D01*
X157693434Y-52283434D01*
X157447397Y-52651654D01*
X157361000Y-53086000D01*
X157447397Y-53520346D01*
X157693434Y-53888566D01*
X158061654Y-54134603D01*
X158496000Y-54221000D01*
X169378468Y-54221000D01*
X169379530Y-54491000D01*
X156210000Y-54491000D01*
X155775654Y-54577397D01*
X155407434Y-54823434D01*
X155161397Y-55191654D01*
X155075000Y-55626000D01*
X155101853Y-55761000D01*
X139508455Y-55761000D01*
X139378799Y-55707162D01*
X139006833Y-55706838D01*
X138663057Y-55848883D01*
X138399808Y-56111673D01*
X138257162Y-56455201D01*
X138256838Y-56827167D01*
X138334877Y-57016035D01*
X138397397Y-57330346D01*
X138643434Y-57698566D01*
X139011654Y-57944603D01*
X139446000Y-58031000D01*
X151945868Y-58031000D01*
X150913868Y-59063000D01*
X136797676Y-59063000D01*
X136600931Y-58931539D01*
X137016732Y-58560036D01*
X137270709Y-58032791D01*
X137273358Y-58017026D01*
X137152217Y-57785000D01*
X135793000Y-57785000D01*
X135793000Y-57805000D01*
X135539000Y-57805000D01*
X135539000Y-57785000D01*
X134179783Y-57785000D01*
X134058642Y-58017026D01*
X134061291Y-58032791D01*
X134315268Y-58560036D01*
X134731069Y-58931539D01*
X134534324Y-59063000D01*
X132296132Y-59063000D01*
X131612566Y-58379434D01*
X131514516Y-58313919D01*
X131244346Y-58133397D01*
X130810000Y-58047000D01*
X127488225Y-58047000D01*
X127445847Y-56253000D01*
X134534324Y-56253000D01*
X134731069Y-56384461D01*
X134315268Y-56755964D01*
X134061291Y-57283209D01*
X134058642Y-57298974D01*
X134179783Y-57531000D01*
X135539000Y-57531000D01*
X135539000Y-57511000D01*
X135793000Y-57511000D01*
X135793000Y-57531000D01*
X137152217Y-57531000D01*
X137273358Y-57298974D01*
X137270709Y-57283209D01*
X137016732Y-56755964D01*
X136600931Y-56384461D01*
X136910415Y-56177670D01*
X137235271Y-55691489D01*
X137349345Y-55118000D01*
X137235271Y-54544511D01*
X136910415Y-54058330D01*
X136595634Y-53848000D01*
X136910415Y-53637670D01*
X137235271Y-53151489D01*
X137349345Y-52578000D01*
X137247900Y-52068000D01*
X138629537Y-52068000D01*
X138661673Y-52100192D01*
X139005201Y-52242838D01*
X139377167Y-52243162D01*
X139720943Y-52101117D01*
X139984192Y-51838327D01*
X140126838Y-51494799D01*
X140127118Y-51173000D01*
X141261867Y-51173000D01*
X141437433Y-51348566D01*
X141437433Y-51348566D01*
G37*
X141437433Y-51348566D02*
X141773483Y-51573107D01*
X141805654Y-51594603D01*
X142240000Y-51681000D01*
X169368468Y-51681000D01*
X169369530Y-51951000D01*
X158496000Y-51951000D01*
X158061654Y-52037397D01*
X157693434Y-52283434D01*
X157447397Y-52651654D01*
X157361000Y-53086000D01*
X157447397Y-53520346D01*
X157693434Y-53888566D01*
X158061654Y-54134603D01*
X158496000Y-54221000D01*
X169378468Y-54221000D01*
X169379530Y-54491000D01*
X156210000Y-54491000D01*
X155775654Y-54577397D01*
X155407434Y-54823434D01*
X155161397Y-55191654D01*
X155075000Y-55626000D01*
X155101853Y-55761000D01*
X139508455Y-55761000D01*
X139378799Y-55707162D01*
X139006833Y-55706838D01*
X138663057Y-55848883D01*
X138399808Y-56111673D01*
X138257162Y-56455201D01*
X138256838Y-56827167D01*
X138334877Y-57016035D01*
X138397397Y-57330346D01*
X138643434Y-57698566D01*
X139011654Y-57944603D01*
X139446000Y-58031000D01*
X151945868Y-58031000D01*
X150913868Y-59063000D01*
X136797676Y-59063000D01*
X136600931Y-58931539D01*
X137016732Y-58560036D01*
X137270709Y-58032791D01*
X137273358Y-58017026D01*
X137152217Y-57785000D01*
X135793000Y-57785000D01*
X135793000Y-57805000D01*
X135539000Y-57805000D01*
X135539000Y-57785000D01*
X134179783Y-57785000D01*
X134058642Y-58017026D01*
X134061291Y-58032791D01*
X134315268Y-58560036D01*
X134731069Y-58931539D01*
X134534324Y-59063000D01*
X132296132Y-59063000D01*
X131612566Y-58379434D01*
X131514516Y-58313919D01*
X131244346Y-58133397D01*
X130810000Y-58047000D01*
X127488225Y-58047000D01*
X127445847Y-56253000D01*
X134534324Y-56253000D01*
X134731069Y-56384461D01*
X134315268Y-56755964D01*
X134061291Y-57283209D01*
X134058642Y-57298974D01*
X134179783Y-57531000D01*
X135539000Y-57531000D01*
X135539000Y-57511000D01*
X135793000Y-57511000D01*
X135793000Y-57531000D01*
X137152217Y-57531000D01*
X137273358Y-57298974D01*
X137270709Y-57283209D01*
X137016732Y-56755964D01*
X136600931Y-56384461D01*
X136910415Y-56177670D01*
X137235271Y-55691489D01*
X137349345Y-55118000D01*
X137235271Y-54544511D01*
X136910415Y-54058330D01*
X136595634Y-53848000D01*
X136910415Y-53637670D01*
X137235271Y-53151489D01*
X137349345Y-52578000D01*
X137247900Y-52068000D01*
X138629537Y-52068000D01*
X138661673Y-52100192D01*
X139005201Y-52242838D01*
X139377167Y-52243162D01*
X139720943Y-52101117D01*
X139984192Y-51838327D01*
X140126838Y-51494799D01*
X140127118Y-51173000D01*
X141261867Y-51173000D01*
X141437433Y-51348566D01*
G36*
X166497000Y-42799000D02*
X166517000Y-42799000D01*
X166517000Y-43053000D01*
X166497000Y-43053000D01*
X166497000Y-44246155D01*
X166726890Y-44367476D01*
X167136924Y-44197645D01*
X167451853Y-43910639D01*
X167453041Y-44366999D01*
X167461581Y-47647832D01*
X167463472Y-47657211D01*
X167461907Y-47666647D01*
X167488082Y-47779272D01*
X167510936Y-47892621D01*
X167516271Y-47900561D01*
X167518437Y-47909880D01*
X167585742Y-48003948D01*
X167650211Y-48099890D01*
X167658175Y-48105181D01*
X167663744Y-48112965D01*
X167951117Y-48382506D01*
X167966522Y-48392101D01*
X167977890Y-48406246D01*
X168371606Y-48736173D01*
X168408925Y-48756615D01*
X168439710Y-48785986D01*
X168860673Y-49053170D01*
X168908618Y-49071721D01*
X168950984Y-49100840D01*
X169359000Y-49276146D01*
X169359530Y-49411000D01*
X142710132Y-49411000D01*
X142534566Y-49235434D01*
X142489538Y-49205347D01*
X142166346Y-48989397D01*
X141732000Y-48903000D01*
X136797676Y-48903000D01*
X136595634Y-48768000D01*
X136797676Y-48633000D01*
X151384000Y-48633000D01*
X151818346Y-48546603D01*
X152186566Y-48300566D01*
X154472566Y-46014566D01*
X154491872Y-45985672D01*
X154718603Y-45646346D01*
X154805000Y-45212000D01*
X154805000Y-43878016D01*
X154940000Y-43675974D01*
X155159946Y-44005147D01*
X155641715Y-44327054D01*
X156210000Y-44440093D01*
X156778285Y-44327054D01*
X157260054Y-44005147D01*
X157480000Y-43675974D01*
X157699946Y-44005147D01*
X158181715Y-44327054D01*
X158750000Y-44440093D01*
X159318285Y-44327054D01*
X159800054Y-44005147D01*
X160020000Y-43675974D01*
X160239946Y-44005147D01*
X160721715Y-44327054D01*
X161290000Y-44440093D01*
X161858285Y-44327054D01*
X162340054Y-44005147D01*
X162560000Y-43675974D01*
X162779946Y-44005147D01*
X163261715Y-44327054D01*
X163830000Y-44440093D01*
X164398285Y-44327054D01*
X164880054Y-44005147D01*
X165107702Y-43664447D01*
X165174817Y-43807358D01*
X165603076Y-44197645D01*
X166013110Y-44367476D01*
X166243000Y-44246155D01*
X166243000Y-43053000D01*
X166223000Y-43053000D01*
X166223000Y-42799000D01*
X166243000Y-42799000D01*
X166243000Y-42779000D01*
X166497000Y-42779000D01*
X166497000Y-42799000D01*
X166497000Y-42799000D01*
G37*
X166497000Y-42799000D02*
X166517000Y-42799000D01*
X166517000Y-43053000D01*
X166497000Y-43053000D01*
X166497000Y-44246155D01*
X166726890Y-44367476D01*
X167136924Y-44197645D01*
X167451853Y-43910639D01*
X167453041Y-44366999D01*
X167461581Y-47647832D01*
X167463472Y-47657211D01*
X167461907Y-47666647D01*
X167488082Y-47779272D01*
X167510936Y-47892621D01*
X167516271Y-47900561D01*
X167518437Y-47909880D01*
X167585742Y-48003948D01*
X167650211Y-48099890D01*
X167658175Y-48105181D01*
X167663744Y-48112965D01*
X167951117Y-48382506D01*
X167966522Y-48392101D01*
X167977890Y-48406246D01*
X168371606Y-48736173D01*
X168408925Y-48756615D01*
X168439710Y-48785986D01*
X168860673Y-49053170D01*
X168908618Y-49071721D01*
X168950984Y-49100840D01*
X169359000Y-49276146D01*
X169359530Y-49411000D01*
X142710132Y-49411000D01*
X142534566Y-49235434D01*
X142489538Y-49205347D01*
X142166346Y-48989397D01*
X141732000Y-48903000D01*
X136797676Y-48903000D01*
X136595634Y-48768000D01*
X136797676Y-48633000D01*
X151384000Y-48633000D01*
X151818346Y-48546603D01*
X152186566Y-48300566D01*
X154472566Y-46014566D01*
X154491872Y-45985672D01*
X154718603Y-45646346D01*
X154805000Y-45212000D01*
X154805000Y-43878016D01*
X154940000Y-43675974D01*
X155159946Y-44005147D01*
X155641715Y-44327054D01*
X156210000Y-44440093D01*
X156778285Y-44327054D01*
X157260054Y-44005147D01*
X157480000Y-43675974D01*
X157699946Y-44005147D01*
X158181715Y-44327054D01*
X158750000Y-44440093D01*
X159318285Y-44327054D01*
X159800054Y-44005147D01*
X160020000Y-43675974D01*
X160239946Y-44005147D01*
X160721715Y-44327054D01*
X161290000Y-44440093D01*
X161858285Y-44327054D01*
X162340054Y-44005147D01*
X162560000Y-43675974D01*
X162779946Y-44005147D01*
X163261715Y-44327054D01*
X163830000Y-44440093D01*
X164398285Y-44327054D01*
X164880054Y-44005147D01*
X165107702Y-43664447D01*
X165174817Y-43807358D01*
X165603076Y-44197645D01*
X166013110Y-44367476D01*
X166243000Y-44246155D01*
X166243000Y-43053000D01*
X166223000Y-43053000D01*
X166223000Y-42799000D01*
X166243000Y-42799000D01*
X166243000Y-42779000D01*
X166497000Y-42779000D01*
X166497000Y-42799000D01*
M02*
