G04 #@! TF.FileFunction,Soldermask,Bot*
%FSLAX46Y46*%
G04 Gerber Fmt 4.6, Leading zero omitted, Abs format (unit mm)*
G04 Created by KiCad (PCBNEW 4.0.4+e1-6308~48~ubuntu16.04.1-stable) date Mon Jan  2 16:02:27 2017*
%MOMM*%
%LPD*%
G01*
G04 APERTURE LIST*
%ADD10C,0.100000*%
%ADD11C,0.010000*%
%ADD12O,1.506220X3.014980*%
%ADD13O,2.032000X1.727200*%
%ADD14R,2.032000X1.727200*%
%ADD15R,1.700000X1.700000*%
%ADD16O,1.700000X1.700000*%
G04 APERTURE END LIST*
D10*
D11*
G36*
X183336859Y-120056456D02*
X183361968Y-120181641D01*
X183398307Y-120371585D01*
X183443457Y-120613535D01*
X183495001Y-120894738D01*
X183528352Y-121079006D01*
X183584129Y-121381356D01*
X183637149Y-121655292D01*
X183684592Y-121887272D01*
X183723633Y-122063754D01*
X183751450Y-122171197D01*
X183761268Y-122196456D01*
X183828311Y-122237997D01*
X183921203Y-122245631D01*
X183962326Y-122236916D01*
X183999588Y-122214293D01*
X184038788Y-122167002D01*
X184085720Y-122084284D01*
X184146182Y-121955379D01*
X184225970Y-121769529D01*
X184330881Y-121515974D01*
X184383485Y-121387543D01*
X184728807Y-120543360D01*
X184753741Y-120839835D01*
X184758515Y-120989630D01*
X184755305Y-121216957D01*
X184744633Y-121507567D01*
X184727021Y-121847212D01*
X184703445Y-122215110D01*
X184634575Y-123323486D01*
X184587555Y-124358382D01*
X184562320Y-125318130D01*
X184558803Y-126201062D01*
X184576938Y-127005512D01*
X184616660Y-127729812D01*
X184677901Y-128372294D01*
X184760598Y-128931293D01*
X184864683Y-129405140D01*
X184990090Y-129792167D01*
X185004560Y-129827864D01*
X185121129Y-130066999D01*
X185265427Y-130280057D01*
X185445691Y-130473938D01*
X185670158Y-130655541D01*
X185947063Y-130831767D01*
X186284645Y-131009513D01*
X186578164Y-131145993D01*
X186934718Y-131312260D01*
X187225531Y-131465613D01*
X187459028Y-131612328D01*
X187643635Y-131758679D01*
X187787776Y-131910943D01*
X187899878Y-132075395D01*
X187947333Y-132165784D01*
X188000882Y-132284832D01*
X188030716Y-132366691D01*
X188032844Y-132387932D01*
X187992740Y-132383444D01*
X187894269Y-132359915D01*
X187752510Y-132321234D01*
X187592831Y-132274406D01*
X187091343Y-132143812D01*
X186543864Y-132038472D01*
X185978283Y-131962889D01*
X185422491Y-131921566D01*
X185402940Y-131920772D01*
X184843484Y-131918286D01*
X184345791Y-131959552D01*
X183903561Y-132047620D01*
X183510495Y-132185541D01*
X183160294Y-132376366D01*
X182846658Y-132623144D01*
X182563287Y-132928928D01*
X182303881Y-133296768D01*
X182199688Y-133472039D01*
X182140782Y-133583665D01*
X182059549Y-133747629D01*
X181970075Y-133935256D01*
X181934612Y-134011643D01*
X181758400Y-134394570D01*
X181642287Y-134108967D01*
X181454954Y-133712659D01*
X181238968Y-133367772D01*
X181003616Y-133086579D01*
X180758188Y-132881357D01*
X180676050Y-132832118D01*
X180457406Y-132743118D01*
X180168142Y-132672715D01*
X179811995Y-132621442D01*
X179392700Y-132589834D01*
X178913995Y-132578424D01*
X178901298Y-132578402D01*
X178571758Y-132581879D01*
X178281628Y-132595430D01*
X178016933Y-132622453D01*
X177763693Y-132666349D01*
X177507931Y-132730517D01*
X177235669Y-132818356D01*
X176932929Y-132933267D01*
X176585733Y-133078648D01*
X176266522Y-133219200D01*
X176256795Y-133206544D01*
X176295400Y-133143875D01*
X176374405Y-133043091D01*
X176418164Y-132991754D01*
X176773871Y-132641893D01*
X177178642Y-132347123D01*
X177614876Y-132118534D01*
X178030668Y-131975755D01*
X178195461Y-131944845D01*
X178400234Y-131923080D01*
X178624495Y-131910846D01*
X178847756Y-131908526D01*
X179049523Y-131916504D01*
X179209307Y-131935164D01*
X179278613Y-131952375D01*
X179415928Y-131966739D01*
X179519730Y-131911788D01*
X179576783Y-131797311D01*
X179583686Y-131726681D01*
X179573856Y-131631802D01*
X179538404Y-131558868D01*
X179468393Y-131504244D01*
X179354884Y-131464290D01*
X179188936Y-131435369D01*
X178961611Y-131413843D01*
X178787567Y-131402710D01*
X178592402Y-131390337D01*
X178463934Y-131378279D01*
X178393062Y-131364579D01*
X178370683Y-131347275D01*
X178387697Y-131324411D01*
X178395883Y-131318397D01*
X178507697Y-131258244D01*
X178666002Y-131203366D01*
X178877182Y-131152360D01*
X179147623Y-131103823D01*
X179483711Y-131056350D01*
X179716373Y-131028159D01*
X180081422Y-130985010D01*
X180382483Y-130946752D01*
X180631178Y-130911415D01*
X180839130Y-130877030D01*
X181017964Y-130841630D01*
X181179300Y-130803245D01*
X181334763Y-130759908D01*
X181378931Y-130746586D01*
X181795962Y-130597406D01*
X182151300Y-130421277D01*
X182457431Y-130210364D01*
X182726839Y-129956831D01*
X182833773Y-129833648D01*
X182996022Y-129617929D01*
X183127153Y-129398012D01*
X183230434Y-129160882D01*
X183309131Y-128893520D01*
X183366511Y-128582909D01*
X183405841Y-128216032D01*
X183430389Y-127779871D01*
X183440755Y-127415058D01*
X183443972Y-126761694D01*
X183426629Y-126099885D01*
X183387610Y-125414558D01*
X183325795Y-124690638D01*
X183240067Y-123913052D01*
X183129307Y-123066726D01*
X183105976Y-122901364D01*
X182990771Y-122093182D01*
X183151580Y-121043058D01*
X183197672Y-120746210D01*
X183239721Y-120483249D01*
X183275643Y-120266575D01*
X183303355Y-120108585D01*
X183320774Y-120021675D01*
X183325400Y-120008784D01*
X183336859Y-120056456D01*
X183336859Y-120056456D01*
G37*
X183336859Y-120056456D02*
X183361968Y-120181641D01*
X183398307Y-120371585D01*
X183443457Y-120613535D01*
X183495001Y-120894738D01*
X183528352Y-121079006D01*
X183584129Y-121381356D01*
X183637149Y-121655292D01*
X183684592Y-121887272D01*
X183723633Y-122063754D01*
X183751450Y-122171197D01*
X183761268Y-122196456D01*
X183828311Y-122237997D01*
X183921203Y-122245631D01*
X183962326Y-122236916D01*
X183999588Y-122214293D01*
X184038788Y-122167002D01*
X184085720Y-122084284D01*
X184146182Y-121955379D01*
X184225970Y-121769529D01*
X184330881Y-121515974D01*
X184383485Y-121387543D01*
X184728807Y-120543360D01*
X184753741Y-120839835D01*
X184758515Y-120989630D01*
X184755305Y-121216957D01*
X184744633Y-121507567D01*
X184727021Y-121847212D01*
X184703445Y-122215110D01*
X184634575Y-123323486D01*
X184587555Y-124358382D01*
X184562320Y-125318130D01*
X184558803Y-126201062D01*
X184576938Y-127005512D01*
X184616660Y-127729812D01*
X184677901Y-128372294D01*
X184760598Y-128931293D01*
X184864683Y-129405140D01*
X184990090Y-129792167D01*
X185004560Y-129827864D01*
X185121129Y-130066999D01*
X185265427Y-130280057D01*
X185445691Y-130473938D01*
X185670158Y-130655541D01*
X185947063Y-130831767D01*
X186284645Y-131009513D01*
X186578164Y-131145993D01*
X186934718Y-131312260D01*
X187225531Y-131465613D01*
X187459028Y-131612328D01*
X187643635Y-131758679D01*
X187787776Y-131910943D01*
X187899878Y-132075395D01*
X187947333Y-132165784D01*
X188000882Y-132284832D01*
X188030716Y-132366691D01*
X188032844Y-132387932D01*
X187992740Y-132383444D01*
X187894269Y-132359915D01*
X187752510Y-132321234D01*
X187592831Y-132274406D01*
X187091343Y-132143812D01*
X186543864Y-132038472D01*
X185978283Y-131962889D01*
X185422491Y-131921566D01*
X185402940Y-131920772D01*
X184843484Y-131918286D01*
X184345791Y-131959552D01*
X183903561Y-132047620D01*
X183510495Y-132185541D01*
X183160294Y-132376366D01*
X182846658Y-132623144D01*
X182563287Y-132928928D01*
X182303881Y-133296768D01*
X182199688Y-133472039D01*
X182140782Y-133583665D01*
X182059549Y-133747629D01*
X181970075Y-133935256D01*
X181934612Y-134011643D01*
X181758400Y-134394570D01*
X181642287Y-134108967D01*
X181454954Y-133712659D01*
X181238968Y-133367772D01*
X181003616Y-133086579D01*
X180758188Y-132881357D01*
X180676050Y-132832118D01*
X180457406Y-132743118D01*
X180168142Y-132672715D01*
X179811995Y-132621442D01*
X179392700Y-132589834D01*
X178913995Y-132578424D01*
X178901298Y-132578402D01*
X178571758Y-132581879D01*
X178281628Y-132595430D01*
X178016933Y-132622453D01*
X177763693Y-132666349D01*
X177507931Y-132730517D01*
X177235669Y-132818356D01*
X176932929Y-132933267D01*
X176585733Y-133078648D01*
X176266522Y-133219200D01*
X176256795Y-133206544D01*
X176295400Y-133143875D01*
X176374405Y-133043091D01*
X176418164Y-132991754D01*
X176773871Y-132641893D01*
X177178642Y-132347123D01*
X177614876Y-132118534D01*
X178030668Y-131975755D01*
X178195461Y-131944845D01*
X178400234Y-131923080D01*
X178624495Y-131910846D01*
X178847756Y-131908526D01*
X179049523Y-131916504D01*
X179209307Y-131935164D01*
X179278613Y-131952375D01*
X179415928Y-131966739D01*
X179519730Y-131911788D01*
X179576783Y-131797311D01*
X179583686Y-131726681D01*
X179573856Y-131631802D01*
X179538404Y-131558868D01*
X179468393Y-131504244D01*
X179354884Y-131464290D01*
X179188936Y-131435369D01*
X178961611Y-131413843D01*
X178787567Y-131402710D01*
X178592402Y-131390337D01*
X178463934Y-131378279D01*
X178393062Y-131364579D01*
X178370683Y-131347275D01*
X178387697Y-131324411D01*
X178395883Y-131318397D01*
X178507697Y-131258244D01*
X178666002Y-131203366D01*
X178877182Y-131152360D01*
X179147623Y-131103823D01*
X179483711Y-131056350D01*
X179716373Y-131028159D01*
X180081422Y-130985010D01*
X180382483Y-130946752D01*
X180631178Y-130911415D01*
X180839130Y-130877030D01*
X181017964Y-130841630D01*
X181179300Y-130803245D01*
X181334763Y-130759908D01*
X181378931Y-130746586D01*
X181795962Y-130597406D01*
X182151300Y-130421277D01*
X182457431Y-130210364D01*
X182726839Y-129956831D01*
X182833773Y-129833648D01*
X182996022Y-129617929D01*
X183127153Y-129398012D01*
X183230434Y-129160882D01*
X183309131Y-128893520D01*
X183366511Y-128582909D01*
X183405841Y-128216032D01*
X183430389Y-127779871D01*
X183440755Y-127415058D01*
X183443972Y-126761694D01*
X183426629Y-126099885D01*
X183387610Y-125414558D01*
X183325795Y-124690638D01*
X183240067Y-123913052D01*
X183129307Y-123066726D01*
X183105976Y-122901364D01*
X182990771Y-122093182D01*
X183151580Y-121043058D01*
X183197672Y-120746210D01*
X183239721Y-120483249D01*
X183275643Y-120266575D01*
X183303355Y-120108585D01*
X183320774Y-120021675D01*
X183325400Y-120008784D01*
X183336859Y-120056456D01*
G36*
X122077118Y-120602638D02*
X122252290Y-121090784D01*
X122410421Y-121659604D01*
X122487454Y-121995703D01*
X122521152Y-122157754D01*
X122540741Y-122280806D01*
X122546359Y-122392340D01*
X122538145Y-122519837D01*
X122516236Y-122690777D01*
X122491798Y-122857959D01*
X122390725Y-123597181D01*
X122306140Y-124331081D01*
X122238460Y-125049882D01*
X122188101Y-125743804D01*
X122155478Y-126403067D01*
X122141008Y-127017894D01*
X122145105Y-127578505D01*
X122168187Y-128075121D01*
X122210667Y-128497963D01*
X122243388Y-128700481D01*
X122365362Y-129144704D01*
X122552879Y-129543549D01*
X122804677Y-129895325D01*
X123119494Y-130198340D01*
X123496069Y-130450903D01*
X123583649Y-130497769D01*
X123757797Y-130582304D01*
X123933670Y-130656114D01*
X124120243Y-130721194D01*
X124326492Y-130779544D01*
X124561390Y-130833160D01*
X124833912Y-130884041D01*
X125153033Y-130934183D01*
X125527727Y-130985584D01*
X125966968Y-131040243D01*
X126082913Y-131054058D01*
X126440343Y-131101924D01*
X126726966Y-131152971D01*
X126947781Y-131208432D01*
X127107785Y-131269538D01*
X127203674Y-131330161D01*
X127232680Y-131360143D01*
X127229232Y-131380164D01*
X127183159Y-131392440D01*
X127084287Y-131399187D01*
X126922443Y-131402621D01*
X126868166Y-131403252D01*
X126570539Y-131415107D01*
X126342283Y-131444492D01*
X126178112Y-131492816D01*
X126072739Y-131561487D01*
X126029257Y-131626844D01*
X126005432Y-131764126D01*
X126043618Y-131876483D01*
X126130469Y-131949214D01*
X126252641Y-131967615D01*
X126323892Y-131951468D01*
X126450065Y-131925408D01*
X126630905Y-131911214D01*
X126845936Y-131908425D01*
X127074682Y-131916579D01*
X127296667Y-131935214D01*
X127491416Y-131963869D01*
X127562672Y-131979401D01*
X127912313Y-132094492D01*
X128268832Y-132262139D01*
X128598937Y-132465616D01*
X128734693Y-132568220D01*
X128855585Y-132672480D01*
X128982450Y-132791733D01*
X129105084Y-132914867D01*
X129213281Y-133030770D01*
X129296836Y-133128328D01*
X129345543Y-133196429D01*
X129349197Y-133223961D01*
X129333388Y-133220138D01*
X128951540Y-133056434D01*
X128628061Y-132922893D01*
X128350558Y-132816495D01*
X128106641Y-132734220D01*
X127883920Y-132673047D01*
X127670002Y-132629957D01*
X127452497Y-132601928D01*
X127219015Y-132585940D01*
X126957164Y-132578974D01*
X126698611Y-132577897D01*
X126235530Y-132587050D01*
X125840184Y-132613410D01*
X125505645Y-132658105D01*
X125224985Y-132722264D01*
X124991275Y-132807017D01*
X124852630Y-132878770D01*
X124624518Y-133056590D01*
X124398551Y-133312531D01*
X124185248Y-133632916D01*
X124006349Y-133979163D01*
X123930314Y-134142234D01*
X123867439Y-134269391D01*
X123826792Y-134342668D01*
X123817417Y-134353515D01*
X123792818Y-134315587D01*
X123743314Y-134213815D01*
X123677848Y-134067008D01*
X123648351Y-133997888D01*
X123418149Y-133512990D01*
X123163443Y-133098546D01*
X122879187Y-132751555D01*
X122560336Y-132469015D01*
X122201843Y-132247925D01*
X121798662Y-132085281D01*
X121345748Y-131978084D01*
X120838053Y-131923330D01*
X120270532Y-131918018D01*
X120159059Y-131922194D01*
X119735575Y-131952457D01*
X119289843Y-132005174D01*
X118840571Y-132076886D01*
X118406471Y-132164134D01*
X118006250Y-132263459D01*
X117658620Y-132371402D01*
X117585926Y-132397892D01*
X117546977Y-132406421D01*
X117542345Y-132378742D01*
X117573915Y-132297704D01*
X117604258Y-132230960D01*
X117707943Y-132042568D01*
X117840740Y-131871456D01*
X118010885Y-131711313D01*
X118226611Y-131555832D01*
X118496156Y-131398704D01*
X118827754Y-131233620D01*
X119021746Y-131145075D01*
X119408210Y-130962105D01*
X119728091Y-130785025D01*
X119989843Y-130606477D01*
X120201920Y-130419102D01*
X120372775Y-130215538D01*
X120510863Y-129988428D01*
X120613508Y-129759364D01*
X120737363Y-129375838D01*
X120839828Y-128913844D01*
X120920950Y-128372213D01*
X120980778Y-127749773D01*
X121019360Y-127045354D01*
X121036743Y-126257786D01*
X121032975Y-125385900D01*
X121008104Y-124428524D01*
X120962178Y-123384488D01*
X120910615Y-122490918D01*
X120845314Y-121457017D01*
X121127709Y-121127383D01*
X121285952Y-120947455D01*
X121462173Y-120754506D01*
X121625838Y-120581772D01*
X121674551Y-120532194D01*
X121938997Y-120266639D01*
X122077118Y-120602638D01*
X122077118Y-120602638D01*
G37*
X122077118Y-120602638D02*
X122252290Y-121090784D01*
X122410421Y-121659604D01*
X122487454Y-121995703D01*
X122521152Y-122157754D01*
X122540741Y-122280806D01*
X122546359Y-122392340D01*
X122538145Y-122519837D01*
X122516236Y-122690777D01*
X122491798Y-122857959D01*
X122390725Y-123597181D01*
X122306140Y-124331081D01*
X122238460Y-125049882D01*
X122188101Y-125743804D01*
X122155478Y-126403067D01*
X122141008Y-127017894D01*
X122145105Y-127578505D01*
X122168187Y-128075121D01*
X122210667Y-128497963D01*
X122243388Y-128700481D01*
X122365362Y-129144704D01*
X122552879Y-129543549D01*
X122804677Y-129895325D01*
X123119494Y-130198340D01*
X123496069Y-130450903D01*
X123583649Y-130497769D01*
X123757797Y-130582304D01*
X123933670Y-130656114D01*
X124120243Y-130721194D01*
X124326492Y-130779544D01*
X124561390Y-130833160D01*
X124833912Y-130884041D01*
X125153033Y-130934183D01*
X125527727Y-130985584D01*
X125966968Y-131040243D01*
X126082913Y-131054058D01*
X126440343Y-131101924D01*
X126726966Y-131152971D01*
X126947781Y-131208432D01*
X127107785Y-131269538D01*
X127203674Y-131330161D01*
X127232680Y-131360143D01*
X127229232Y-131380164D01*
X127183159Y-131392440D01*
X127084287Y-131399187D01*
X126922443Y-131402621D01*
X126868166Y-131403252D01*
X126570539Y-131415107D01*
X126342283Y-131444492D01*
X126178112Y-131492816D01*
X126072739Y-131561487D01*
X126029257Y-131626844D01*
X126005432Y-131764126D01*
X126043618Y-131876483D01*
X126130469Y-131949214D01*
X126252641Y-131967615D01*
X126323892Y-131951468D01*
X126450065Y-131925408D01*
X126630905Y-131911214D01*
X126845936Y-131908425D01*
X127074682Y-131916579D01*
X127296667Y-131935214D01*
X127491416Y-131963869D01*
X127562672Y-131979401D01*
X127912313Y-132094492D01*
X128268832Y-132262139D01*
X128598937Y-132465616D01*
X128734693Y-132568220D01*
X128855585Y-132672480D01*
X128982450Y-132791733D01*
X129105084Y-132914867D01*
X129213281Y-133030770D01*
X129296836Y-133128328D01*
X129345543Y-133196429D01*
X129349197Y-133223961D01*
X129333388Y-133220138D01*
X128951540Y-133056434D01*
X128628061Y-132922893D01*
X128350558Y-132816495D01*
X128106641Y-132734220D01*
X127883920Y-132673047D01*
X127670002Y-132629957D01*
X127452497Y-132601928D01*
X127219015Y-132585940D01*
X126957164Y-132578974D01*
X126698611Y-132577897D01*
X126235530Y-132587050D01*
X125840184Y-132613410D01*
X125505645Y-132658105D01*
X125224985Y-132722264D01*
X124991275Y-132807017D01*
X124852630Y-132878770D01*
X124624518Y-133056590D01*
X124398551Y-133312531D01*
X124185248Y-133632916D01*
X124006349Y-133979163D01*
X123930314Y-134142234D01*
X123867439Y-134269391D01*
X123826792Y-134342668D01*
X123817417Y-134353515D01*
X123792818Y-134315587D01*
X123743314Y-134213815D01*
X123677848Y-134067008D01*
X123648351Y-133997888D01*
X123418149Y-133512990D01*
X123163443Y-133098546D01*
X122879187Y-132751555D01*
X122560336Y-132469015D01*
X122201843Y-132247925D01*
X121798662Y-132085281D01*
X121345748Y-131978084D01*
X120838053Y-131923330D01*
X120270532Y-131918018D01*
X120159059Y-131922194D01*
X119735575Y-131952457D01*
X119289843Y-132005174D01*
X118840571Y-132076886D01*
X118406471Y-132164134D01*
X118006250Y-132263459D01*
X117658620Y-132371402D01*
X117585926Y-132397892D01*
X117546977Y-132406421D01*
X117542345Y-132378742D01*
X117573915Y-132297704D01*
X117604258Y-132230960D01*
X117707943Y-132042568D01*
X117840740Y-131871456D01*
X118010885Y-131711313D01*
X118226611Y-131555832D01*
X118496156Y-131398704D01*
X118827754Y-131233620D01*
X119021746Y-131145075D01*
X119408210Y-130962105D01*
X119728091Y-130785025D01*
X119989843Y-130606477D01*
X120201920Y-130419102D01*
X120372775Y-130215538D01*
X120510863Y-129988428D01*
X120613508Y-129759364D01*
X120737363Y-129375838D01*
X120839828Y-128913844D01*
X120920950Y-128372213D01*
X120980778Y-127749773D01*
X121019360Y-127045354D01*
X121036743Y-126257786D01*
X121032975Y-125385900D01*
X121008104Y-124428524D01*
X120962178Y-123384488D01*
X120910615Y-122490918D01*
X120845314Y-121457017D01*
X121127709Y-121127383D01*
X121285952Y-120947455D01*
X121462173Y-120754506D01*
X121625838Y-120581772D01*
X121674551Y-120532194D01*
X121938997Y-120266639D01*
X122077118Y-120602638D01*
G36*
X153652940Y-120176636D02*
X153650202Y-120308403D01*
X153643201Y-120392004D01*
X153637729Y-120407546D01*
X153610907Y-120371806D01*
X153562345Y-120282490D01*
X153544232Y-120245909D01*
X153465945Y-120084273D01*
X152818910Y-120084273D01*
X152818910Y-120332500D01*
X152823133Y-120503319D01*
X152833868Y-120658105D01*
X152841145Y-120716158D01*
X152856379Y-120790056D01*
X152883923Y-120828788D01*
X152943024Y-120841061D01*
X153052929Y-120835582D01*
X153097040Y-120831917D01*
X153262659Y-120808930D01*
X153364650Y-120769116D01*
X153414788Y-120705335D01*
X153425477Y-120632800D01*
X153440126Y-120560843D01*
X153458489Y-120546091D01*
X153481251Y-120587738D01*
X153500963Y-120694566D01*
X153515854Y-120839407D01*
X153524155Y-120995091D01*
X153524095Y-121134449D01*
X153513905Y-121230311D01*
X153504565Y-121253311D01*
X153467656Y-121260006D01*
X153430442Y-121182175D01*
X153422266Y-121155085D01*
X153397215Y-121077955D01*
X153364598Y-121033965D01*
X153305114Y-121013809D01*
X153199467Y-121008182D01*
X153117009Y-121007909D01*
X152853868Y-121007909D01*
X152875776Y-121816091D01*
X153154623Y-121829758D01*
X153348803Y-121827160D01*
X153486864Y-121791141D01*
X153585772Y-121712872D01*
X153662491Y-121583525D01*
X153672721Y-121560146D01*
X153725076Y-121461799D01*
X153759017Y-121444329D01*
X153770743Y-121497979D01*
X153756456Y-121612996D01*
X153732268Y-121712998D01*
X153665027Y-121954636D01*
X153384133Y-121983237D01*
X153180647Y-122000302D01*
X152973584Y-122011369D01*
X152776704Y-122016450D01*
X152603767Y-122015558D01*
X152468533Y-122008708D01*
X152384764Y-121995913D01*
X152363985Y-121982245D01*
X152395862Y-121939854D01*
X152473048Y-121894301D01*
X152477716Y-121892284D01*
X152591447Y-121843987D01*
X152586738Y-121275857D01*
X152582768Y-121017058D01*
X152575658Y-120755468D01*
X152566489Y-120524963D01*
X152558306Y-120384455D01*
X152544166Y-120215257D01*
X152527529Y-120117196D01*
X152500444Y-120069285D01*
X152454964Y-120050536D01*
X152430328Y-120046569D01*
X152354598Y-120022396D01*
X152326074Y-119988842D01*
X152362326Y-119973876D01*
X152464482Y-119961462D01*
X152622639Y-119952244D01*
X152826898Y-119946864D01*
X152989507Y-119945727D01*
X153652940Y-119945727D01*
X153652940Y-120176636D01*
X153652940Y-120176636D01*
G37*
X153652940Y-120176636D02*
X153650202Y-120308403D01*
X153643201Y-120392004D01*
X153637729Y-120407546D01*
X153610907Y-120371806D01*
X153562345Y-120282490D01*
X153544232Y-120245909D01*
X153465945Y-120084273D01*
X152818910Y-120084273D01*
X152818910Y-120332500D01*
X152823133Y-120503319D01*
X152833868Y-120658105D01*
X152841145Y-120716158D01*
X152856379Y-120790056D01*
X152883923Y-120828788D01*
X152943024Y-120841061D01*
X153052929Y-120835582D01*
X153097040Y-120831917D01*
X153262659Y-120808930D01*
X153364650Y-120769116D01*
X153414788Y-120705335D01*
X153425477Y-120632800D01*
X153440126Y-120560843D01*
X153458489Y-120546091D01*
X153481251Y-120587738D01*
X153500963Y-120694566D01*
X153515854Y-120839407D01*
X153524155Y-120995091D01*
X153524095Y-121134449D01*
X153513905Y-121230311D01*
X153504565Y-121253311D01*
X153467656Y-121260006D01*
X153430442Y-121182175D01*
X153422266Y-121155085D01*
X153397215Y-121077955D01*
X153364598Y-121033965D01*
X153305114Y-121013809D01*
X153199467Y-121008182D01*
X153117009Y-121007909D01*
X152853868Y-121007909D01*
X152875776Y-121816091D01*
X153154623Y-121829758D01*
X153348803Y-121827160D01*
X153486864Y-121791141D01*
X153585772Y-121712872D01*
X153662491Y-121583525D01*
X153672721Y-121560146D01*
X153725076Y-121461799D01*
X153759017Y-121444329D01*
X153770743Y-121497979D01*
X153756456Y-121612996D01*
X153732268Y-121712998D01*
X153665027Y-121954636D01*
X153384133Y-121983237D01*
X153180647Y-122000302D01*
X152973584Y-122011369D01*
X152776704Y-122016450D01*
X152603767Y-122015558D01*
X152468533Y-122008708D01*
X152384764Y-121995913D01*
X152363985Y-121982245D01*
X152395862Y-121939854D01*
X152473048Y-121894301D01*
X152477716Y-121892284D01*
X152591447Y-121843987D01*
X152586738Y-121275857D01*
X152582768Y-121017058D01*
X152575658Y-120755468D01*
X152566489Y-120524963D01*
X152558306Y-120384455D01*
X152544166Y-120215257D01*
X152527529Y-120117196D01*
X152500444Y-120069285D01*
X152454964Y-120050536D01*
X152430328Y-120046569D01*
X152354598Y-120022396D01*
X152326074Y-119988842D01*
X152362326Y-119973876D01*
X152464482Y-119961462D01*
X152622639Y-119952244D01*
X152826898Y-119946864D01*
X152989507Y-119945727D01*
X153652940Y-119945727D01*
X153652940Y-120176636D01*
G36*
X151033359Y-119816977D02*
X151193284Y-119842966D01*
X151380157Y-119880054D01*
X151570559Y-119923146D01*
X151741075Y-119967149D01*
X151868287Y-120006967D01*
X151899174Y-120019386D01*
X152065347Y-120130656D01*
X152172015Y-120283787D01*
X152212198Y-120468493D01*
X152212343Y-120480873D01*
X152182724Y-120702449D01*
X152094783Y-120867166D01*
X152032905Y-120924559D01*
X151935050Y-120996888D01*
X152020040Y-121052298D01*
X152091485Y-121131550D01*
X152154334Y-121252489D01*
X152160554Y-121269587D01*
X152191229Y-121469126D01*
X152149330Y-121663030D01*
X152037891Y-121838769D01*
X152017351Y-121860761D01*
X151949850Y-121921312D01*
X151879513Y-121955887D01*
X151783126Y-121970877D01*
X151637474Y-121972670D01*
X151612345Y-121972241D01*
X151434207Y-121963512D01*
X151252273Y-121946042D01*
X151112940Y-121924846D01*
X150969462Y-121896155D01*
X150835907Y-121869687D01*
X150781223Y-121858967D01*
X150691951Y-121826762D01*
X150660239Y-121786562D01*
X150690517Y-121754953D01*
X150751269Y-121746818D01*
X150797937Y-121737066D01*
X150835849Y-121700144D01*
X150854195Y-121656935D01*
X151166815Y-121656935D01*
X151172396Y-121739292D01*
X151176506Y-121748761D01*
X151262503Y-121799764D01*
X151392575Y-121825317D01*
X151537628Y-121824190D01*
X151668570Y-121795152D01*
X151716796Y-121771617D01*
X151810208Y-121690851D01*
X151857553Y-121580933D01*
X151871134Y-121412613D01*
X151871149Y-121404728D01*
X151835888Y-121246338D01*
X151738839Y-121113228D01*
X151593102Y-121016231D01*
X151411775Y-120966182D01*
X151335536Y-120961727D01*
X151285712Y-120966678D01*
X151252742Y-120993809D01*
X151229502Y-121061536D01*
X151208866Y-121188276D01*
X151190345Y-121337036D01*
X151173067Y-121514833D01*
X151166815Y-121656935D01*
X150854195Y-121656935D01*
X150867945Y-121624551D01*
X150897166Y-121498788D01*
X150926450Y-121311354D01*
X150958739Y-121050749D01*
X150981810Y-120845076D01*
X150986287Y-120800091D01*
X151283537Y-120800091D01*
X151454134Y-120823421D01*
X151625783Y-120835862D01*
X151745094Y-120813293D01*
X151831707Y-120749720D01*
X151872002Y-120695917D01*
X151936013Y-120535017D01*
X151928447Y-120373754D01*
X151852726Y-120225311D01*
X151719088Y-120107100D01*
X151611600Y-120060881D01*
X151493609Y-120040864D01*
X151390468Y-120047766D01*
X151327530Y-120082306D01*
X151320905Y-120095818D01*
X151310939Y-120168724D01*
X151301185Y-120304712D01*
X151293734Y-120474528D01*
X151293662Y-120476818D01*
X151283537Y-120800091D01*
X150986287Y-120800091D01*
X151014167Y-120520008D01*
X151030066Y-120275445D01*
X151028995Y-120101593D01*
X151010442Y-119988659D01*
X150973897Y-119926849D01*
X150932865Y-119907879D01*
X150863052Y-119876584D01*
X150852803Y-119834541D01*
X150904503Y-119808230D01*
X150923796Y-119807182D01*
X151033359Y-119816977D01*
X151033359Y-119816977D01*
G37*
X151033359Y-119816977D02*
X151193284Y-119842966D01*
X151380157Y-119880054D01*
X151570559Y-119923146D01*
X151741075Y-119967149D01*
X151868287Y-120006967D01*
X151899174Y-120019386D01*
X152065347Y-120130656D01*
X152172015Y-120283787D01*
X152212198Y-120468493D01*
X152212343Y-120480873D01*
X152182724Y-120702449D01*
X152094783Y-120867166D01*
X152032905Y-120924559D01*
X151935050Y-120996888D01*
X152020040Y-121052298D01*
X152091485Y-121131550D01*
X152154334Y-121252489D01*
X152160554Y-121269587D01*
X152191229Y-121469126D01*
X152149330Y-121663030D01*
X152037891Y-121838769D01*
X152017351Y-121860761D01*
X151949850Y-121921312D01*
X151879513Y-121955887D01*
X151783126Y-121970877D01*
X151637474Y-121972670D01*
X151612345Y-121972241D01*
X151434207Y-121963512D01*
X151252273Y-121946042D01*
X151112940Y-121924846D01*
X150969462Y-121896155D01*
X150835907Y-121869687D01*
X150781223Y-121858967D01*
X150691951Y-121826762D01*
X150660239Y-121786562D01*
X150690517Y-121754953D01*
X150751269Y-121746818D01*
X150797937Y-121737066D01*
X150835849Y-121700144D01*
X150854195Y-121656935D01*
X151166815Y-121656935D01*
X151172396Y-121739292D01*
X151176506Y-121748761D01*
X151262503Y-121799764D01*
X151392575Y-121825317D01*
X151537628Y-121824190D01*
X151668570Y-121795152D01*
X151716796Y-121771617D01*
X151810208Y-121690851D01*
X151857553Y-121580933D01*
X151871134Y-121412613D01*
X151871149Y-121404728D01*
X151835888Y-121246338D01*
X151738839Y-121113228D01*
X151593102Y-121016231D01*
X151411775Y-120966182D01*
X151335536Y-120961727D01*
X151285712Y-120966678D01*
X151252742Y-120993809D01*
X151229502Y-121061536D01*
X151208866Y-121188276D01*
X151190345Y-121337036D01*
X151173067Y-121514833D01*
X151166815Y-121656935D01*
X150854195Y-121656935D01*
X150867945Y-121624551D01*
X150897166Y-121498788D01*
X150926450Y-121311354D01*
X150958739Y-121050749D01*
X150981810Y-120845076D01*
X150986287Y-120800091D01*
X151283537Y-120800091D01*
X151454134Y-120823421D01*
X151625783Y-120835862D01*
X151745094Y-120813293D01*
X151831707Y-120749720D01*
X151872002Y-120695917D01*
X151936013Y-120535017D01*
X151928447Y-120373754D01*
X151852726Y-120225311D01*
X151719088Y-120107100D01*
X151611600Y-120060881D01*
X151493609Y-120040864D01*
X151390468Y-120047766D01*
X151327530Y-120082306D01*
X151320905Y-120095818D01*
X151310939Y-120168724D01*
X151301185Y-120304712D01*
X151293734Y-120474528D01*
X151293662Y-120476818D01*
X151283537Y-120800091D01*
X150986287Y-120800091D01*
X151014167Y-120520008D01*
X151030066Y-120275445D01*
X151028995Y-120101593D01*
X151010442Y-119988659D01*
X150973897Y-119926849D01*
X150932865Y-119907879D01*
X150863052Y-119876584D01*
X150852803Y-119834541D01*
X150904503Y-119808230D01*
X150923796Y-119807182D01*
X151033359Y-119816977D01*
G36*
X154795083Y-119872932D02*
X154867814Y-119901069D01*
X154893759Y-119916195D01*
X155036271Y-120048931D01*
X155116325Y-120216369D01*
X155133792Y-120400614D01*
X155088540Y-120583770D01*
X154980437Y-120747942D01*
X154900370Y-120819108D01*
X154791873Y-120899485D01*
X155016532Y-121222207D01*
X155172554Y-121429092D01*
X155314912Y-121574331D01*
X155465394Y-121677923D01*
X155567417Y-121727872D01*
X155602343Y-121751738D01*
X155576751Y-121773272D01*
X155491597Y-121797426D01*
X155360491Y-121826412D01*
X155261358Y-121834126D01*
X155178912Y-121811395D01*
X155097868Y-121749047D01*
X155002943Y-121637908D01*
X154878850Y-121468805D01*
X154830130Y-121400455D01*
X154669924Y-121184782D01*
X154547213Y-121040280D01*
X154463979Y-120969181D01*
X154440282Y-120961727D01*
X154395952Y-120969845D01*
X154376691Y-121009233D01*
X154377502Y-121102449D01*
X154386583Y-121204182D01*
X154400656Y-121369889D01*
X154409419Y-121517171D01*
X154410819Y-121570338D01*
X154433350Y-121692987D01*
X154488218Y-121783683D01*
X154557373Y-121816600D01*
X154579008Y-121810980D01*
X154638451Y-121814213D01*
X154653470Y-121831107D01*
X154651523Y-121865167D01*
X154602135Y-121893978D01*
X154497073Y-121920007D01*
X154328103Y-121945718D01*
X154231074Y-121957603D01*
X154071184Y-121970002D01*
X153978920Y-121962425D01*
X153956223Y-121942519D01*
X153988528Y-121898050D01*
X154056432Y-121864738D01*
X154156641Y-121834100D01*
X154132084Y-121432550D01*
X154116256Y-121198905D01*
X154095164Y-120921185D01*
X154072489Y-120647031D01*
X154064113Y-120552502D01*
X154043786Y-120338106D01*
X154025899Y-120197097D01*
X154016546Y-120158433D01*
X154306379Y-120158433D01*
X154311834Y-120300155D01*
X154318105Y-120399619D01*
X154330950Y-120576279D01*
X154343582Y-120719222D01*
X154353576Y-120801505D01*
X154354822Y-120807461D01*
X154396948Y-120838224D01*
X154481586Y-120830140D01*
X154585734Y-120790851D01*
X154686390Y-120728001D01*
X154737052Y-120680443D01*
X154807941Y-120541833D01*
X154828487Y-120368824D01*
X154796404Y-120198452D01*
X154770208Y-120142574D01*
X154682958Y-120058204D01*
X154555876Y-120007599D01*
X154422598Y-120001688D01*
X154375223Y-120014233D01*
X154334985Y-120036307D01*
X154313067Y-120077429D01*
X154306379Y-120158433D01*
X154016546Y-120158433D01*
X154005069Y-120110994D01*
X153975918Y-120061313D01*
X153933064Y-120029570D01*
X153908016Y-120016286D01*
X153833968Y-119975683D01*
X153825474Y-119953643D01*
X153878043Y-119933372D01*
X153885255Y-119931170D01*
X153959994Y-119916775D01*
X154089804Y-119899814D01*
X154254050Y-119882764D01*
X154374792Y-119872390D01*
X154566422Y-119860100D01*
X154700569Y-119859778D01*
X154795083Y-119872932D01*
X154795083Y-119872932D01*
G37*
X154795083Y-119872932D02*
X154867814Y-119901069D01*
X154893759Y-119916195D01*
X155036271Y-120048931D01*
X155116325Y-120216369D01*
X155133792Y-120400614D01*
X155088540Y-120583770D01*
X154980437Y-120747942D01*
X154900370Y-120819108D01*
X154791873Y-120899485D01*
X155016532Y-121222207D01*
X155172554Y-121429092D01*
X155314912Y-121574331D01*
X155465394Y-121677923D01*
X155567417Y-121727872D01*
X155602343Y-121751738D01*
X155576751Y-121773272D01*
X155491597Y-121797426D01*
X155360491Y-121826412D01*
X155261358Y-121834126D01*
X155178912Y-121811395D01*
X155097868Y-121749047D01*
X155002943Y-121637908D01*
X154878850Y-121468805D01*
X154830130Y-121400455D01*
X154669924Y-121184782D01*
X154547213Y-121040280D01*
X154463979Y-120969181D01*
X154440282Y-120961727D01*
X154395952Y-120969845D01*
X154376691Y-121009233D01*
X154377502Y-121102449D01*
X154386583Y-121204182D01*
X154400656Y-121369889D01*
X154409419Y-121517171D01*
X154410819Y-121570338D01*
X154433350Y-121692987D01*
X154488218Y-121783683D01*
X154557373Y-121816600D01*
X154579008Y-121810980D01*
X154638451Y-121814213D01*
X154653470Y-121831107D01*
X154651523Y-121865167D01*
X154602135Y-121893978D01*
X154497073Y-121920007D01*
X154328103Y-121945718D01*
X154231074Y-121957603D01*
X154071184Y-121970002D01*
X153978920Y-121962425D01*
X153956223Y-121942519D01*
X153988528Y-121898050D01*
X154056432Y-121864738D01*
X154156641Y-121834100D01*
X154132084Y-121432550D01*
X154116256Y-121198905D01*
X154095164Y-120921185D01*
X154072489Y-120647031D01*
X154064113Y-120552502D01*
X154043786Y-120338106D01*
X154025899Y-120197097D01*
X154016546Y-120158433D01*
X154306379Y-120158433D01*
X154311834Y-120300155D01*
X154318105Y-120399619D01*
X154330950Y-120576279D01*
X154343582Y-120719222D01*
X154353576Y-120801505D01*
X154354822Y-120807461D01*
X154396948Y-120838224D01*
X154481586Y-120830140D01*
X154585734Y-120790851D01*
X154686390Y-120728001D01*
X154737052Y-120680443D01*
X154807941Y-120541833D01*
X154828487Y-120368824D01*
X154796404Y-120198452D01*
X154770208Y-120142574D01*
X154682958Y-120058204D01*
X154555876Y-120007599D01*
X154422598Y-120001688D01*
X154375223Y-120014233D01*
X154334985Y-120036307D01*
X154313067Y-120077429D01*
X154306379Y-120158433D01*
X154016546Y-120158433D01*
X154005069Y-120110994D01*
X153975918Y-120061313D01*
X153933064Y-120029570D01*
X153908016Y-120016286D01*
X153833968Y-119975683D01*
X153825474Y-119953643D01*
X153878043Y-119933372D01*
X153885255Y-119931170D01*
X153959994Y-119916775D01*
X154089804Y-119899814D01*
X154254050Y-119882764D01*
X154374792Y-119872390D01*
X154566422Y-119860100D01*
X154700569Y-119859778D01*
X154795083Y-119872932D01*
G36*
X149062195Y-119333597D02*
X149146568Y-119355402D01*
X149350104Y-119416037D01*
X149659085Y-120154246D01*
X149762168Y-120400679D01*
X149856154Y-120625649D01*
X149934431Y-120813304D01*
X149990385Y-120947790D01*
X150015229Y-121007909D01*
X150035751Y-121048476D01*
X150054344Y-121051445D01*
X150074724Y-121005625D01*
X150100608Y-120899820D01*
X150135714Y-120722839D01*
X150168597Y-120546091D01*
X150217766Y-120276339D01*
X150250443Y-120082269D01*
X150266812Y-119949460D01*
X150267055Y-119863494D01*
X150251354Y-119809948D01*
X150219892Y-119774403D01*
X150178721Y-119746184D01*
X150112191Y-119692767D01*
X150114746Y-119663833D01*
X150182195Y-119660150D01*
X150310345Y-119682485D01*
X150402119Y-119705315D01*
X150541523Y-119749806D01*
X150629163Y-119792165D01*
X150659075Y-119826957D01*
X150625295Y-119848746D01*
X150564572Y-119853364D01*
X150495894Y-119869220D01*
X150444941Y-119927320D01*
X150403896Y-120043458D01*
X150364941Y-120233430D01*
X150358840Y-120269000D01*
X150309795Y-120548618D01*
X150257279Y-120829229D01*
X150204355Y-121096403D01*
X150154088Y-121335707D01*
X150109541Y-121532711D01*
X150073776Y-121672982D01*
X150049859Y-121742089D01*
X150045130Y-121746818D01*
X150019525Y-121707269D01*
X149966070Y-121596577D01*
X149890054Y-121426677D01*
X149796761Y-121209503D01*
X149691479Y-120956989D01*
X149645597Y-120844841D01*
X149527204Y-120559199D01*
X149425267Y-120323925D01*
X149343484Y-120146949D01*
X149285553Y-120036205D01*
X149255172Y-119999624D01*
X149252675Y-120002023D01*
X149235240Y-120067457D01*
X149206011Y-120204327D01*
X149168817Y-120393690D01*
X149127491Y-120616599D01*
X149120278Y-120656762D01*
X149013819Y-121252342D01*
X149125096Y-121360805D01*
X149186163Y-121431238D01*
X149184141Y-121464527D01*
X149116444Y-121461952D01*
X148989955Y-121427770D01*
X148866146Y-121390299D01*
X148753719Y-121358067D01*
X148753014Y-121357875D01*
X148671062Y-121318056D01*
X148653230Y-121273328D01*
X148700911Y-121242815D01*
X148744350Y-121238818D01*
X148791847Y-121233125D01*
X148830444Y-121208006D01*
X148864211Y-121151407D01*
X148897219Y-121051271D01*
X148933539Y-120895541D01*
X148977241Y-120672162D01*
X149026032Y-120404519D01*
X149068649Y-120170976D01*
X149107180Y-119966479D01*
X149138010Y-119809738D01*
X149157526Y-119719459D01*
X149160424Y-119708786D01*
X149150146Y-119632329D01*
X149098112Y-119531883D01*
X149023880Y-119437792D01*
X148949423Y-119381410D01*
X148914374Y-119344827D01*
X148919105Y-119326388D01*
X148966179Y-119319067D01*
X149062195Y-119333597D01*
X149062195Y-119333597D01*
G37*
X149062195Y-119333597D02*
X149146568Y-119355402D01*
X149350104Y-119416037D01*
X149659085Y-120154246D01*
X149762168Y-120400679D01*
X149856154Y-120625649D01*
X149934431Y-120813304D01*
X149990385Y-120947790D01*
X150015229Y-121007909D01*
X150035751Y-121048476D01*
X150054344Y-121051445D01*
X150074724Y-121005625D01*
X150100608Y-120899820D01*
X150135714Y-120722839D01*
X150168597Y-120546091D01*
X150217766Y-120276339D01*
X150250443Y-120082269D01*
X150266812Y-119949460D01*
X150267055Y-119863494D01*
X150251354Y-119809948D01*
X150219892Y-119774403D01*
X150178721Y-119746184D01*
X150112191Y-119692767D01*
X150114746Y-119663833D01*
X150182195Y-119660150D01*
X150310345Y-119682485D01*
X150402119Y-119705315D01*
X150541523Y-119749806D01*
X150629163Y-119792165D01*
X150659075Y-119826957D01*
X150625295Y-119848746D01*
X150564572Y-119853364D01*
X150495894Y-119869220D01*
X150444941Y-119927320D01*
X150403896Y-120043458D01*
X150364941Y-120233430D01*
X150358840Y-120269000D01*
X150309795Y-120548618D01*
X150257279Y-120829229D01*
X150204355Y-121096403D01*
X150154088Y-121335707D01*
X150109541Y-121532711D01*
X150073776Y-121672982D01*
X150049859Y-121742089D01*
X150045130Y-121746818D01*
X150019525Y-121707269D01*
X149966070Y-121596577D01*
X149890054Y-121426677D01*
X149796761Y-121209503D01*
X149691479Y-120956989D01*
X149645597Y-120844841D01*
X149527204Y-120559199D01*
X149425267Y-120323925D01*
X149343484Y-120146949D01*
X149285553Y-120036205D01*
X149255172Y-119999624D01*
X149252675Y-120002023D01*
X149235240Y-120067457D01*
X149206011Y-120204327D01*
X149168817Y-120393690D01*
X149127491Y-120616599D01*
X149120278Y-120656762D01*
X149013819Y-121252342D01*
X149125096Y-121360805D01*
X149186163Y-121431238D01*
X149184141Y-121464527D01*
X149116444Y-121461952D01*
X148989955Y-121427770D01*
X148866146Y-121390299D01*
X148753719Y-121358067D01*
X148753014Y-121357875D01*
X148671062Y-121318056D01*
X148653230Y-121273328D01*
X148700911Y-121242815D01*
X148744350Y-121238818D01*
X148791847Y-121233125D01*
X148830444Y-121208006D01*
X148864211Y-121151407D01*
X148897219Y-121051271D01*
X148933539Y-120895541D01*
X148977241Y-120672162D01*
X149026032Y-120404519D01*
X149068649Y-120170976D01*
X149107180Y-119966479D01*
X149138010Y-119809738D01*
X149157526Y-119719459D01*
X149160424Y-119708786D01*
X149150146Y-119632329D01*
X149098112Y-119531883D01*
X149023880Y-119437792D01*
X148949423Y-119381410D01*
X148914374Y-119344827D01*
X148919105Y-119326388D01*
X148966179Y-119319067D01*
X149062195Y-119333597D01*
G36*
X156437202Y-119494011D02*
X156556035Y-119526622D01*
X156634479Y-119572871D01*
X156747795Y-119703950D01*
X156808821Y-119873761D01*
X156817240Y-120057708D01*
X156772732Y-120231193D01*
X156674981Y-120369618D01*
X156645092Y-120393796D01*
X156570272Y-120454692D01*
X156534622Y-120497586D01*
X156534134Y-120500453D01*
X156561038Y-120543901D01*
X156631820Y-120629714D01*
X156731587Y-120741902D01*
X156845447Y-120864475D01*
X156958506Y-120981446D01*
X157055870Y-121076823D01*
X157122646Y-121134618D01*
X157128731Y-121138816D01*
X157233322Y-121181370D01*
X157311965Y-121192636D01*
X157389434Y-121205260D01*
X157403600Y-121236802D01*
X157363302Y-121277768D01*
X157277380Y-121318663D01*
X157167584Y-121347702D01*
X156954106Y-121387313D01*
X156608055Y-121001338D01*
X156438891Y-120819829D01*
X156312301Y-120702202D01*
X156220704Y-120643073D01*
X156156517Y-120637059D01*
X156125929Y-120659052D01*
X156128226Y-120706466D01*
X156143535Y-120821149D01*
X156168718Y-120980124D01*
X156174211Y-121012571D01*
X156225672Y-121246539D01*
X156285250Y-121390800D01*
X156354151Y-121447627D01*
X156401297Y-121440316D01*
X156459835Y-121445961D01*
X156473555Y-121462408D01*
X156449784Y-121492418D01*
X156364213Y-121533899D01*
X156229552Y-121581242D01*
X156152287Y-121604101D01*
X155982257Y-121651789D01*
X155872910Y-121681124D01*
X155810922Y-121693847D01*
X155782972Y-121691700D01*
X155775736Y-121676426D01*
X155775925Y-121653312D01*
X155807306Y-121603674D01*
X155870701Y-121562091D01*
X155914641Y-121537546D01*
X155943618Y-121502652D01*
X155957339Y-121444203D01*
X155955511Y-121348997D01*
X155937841Y-121203829D01*
X155904034Y-120995496D01*
X155853799Y-120710794D01*
X155851509Y-120697998D01*
X155796380Y-120389476D01*
X155754373Y-120159343D01*
X155721782Y-119995927D01*
X155694902Y-119887555D01*
X155670027Y-119822557D01*
X155643451Y-119789260D01*
X155618967Y-119779104D01*
X155975653Y-119779104D01*
X155983255Y-119888488D01*
X156021200Y-120136778D01*
X156050405Y-120307692D01*
X156075908Y-120414679D01*
X156102743Y-120471191D01*
X156135947Y-120490677D01*
X156180556Y-120486587D01*
X156205033Y-120480799D01*
X156313161Y-120428425D01*
X156419408Y-120339064D01*
X156428509Y-120328812D01*
X156508793Y-120182615D01*
X156529811Y-120020595D01*
X156498203Y-119865009D01*
X156420611Y-119738113D01*
X156303674Y-119662161D01*
X156225997Y-119650164D01*
X156083628Y-119660667D01*
X156004073Y-119699824D01*
X155975653Y-119779104D01*
X155618967Y-119779104D01*
X155611467Y-119775993D01*
X155570371Y-119771084D01*
X155556744Y-119769619D01*
X155473318Y-119747962D01*
X155435002Y-119714812D01*
X155434731Y-119711892D01*
X155446830Y-119669355D01*
X155449513Y-119668636D01*
X155490553Y-119659917D01*
X155589204Y-119636429D01*
X155728840Y-119602179D01*
X155832791Y-119576273D01*
X156088587Y-119518782D01*
X156285722Y-119491379D01*
X156437202Y-119494011D01*
X156437202Y-119494011D01*
G37*
X156437202Y-119494011D02*
X156556035Y-119526622D01*
X156634479Y-119572871D01*
X156747795Y-119703950D01*
X156808821Y-119873761D01*
X156817240Y-120057708D01*
X156772732Y-120231193D01*
X156674981Y-120369618D01*
X156645092Y-120393796D01*
X156570272Y-120454692D01*
X156534622Y-120497586D01*
X156534134Y-120500453D01*
X156561038Y-120543901D01*
X156631820Y-120629714D01*
X156731587Y-120741902D01*
X156845447Y-120864475D01*
X156958506Y-120981446D01*
X157055870Y-121076823D01*
X157122646Y-121134618D01*
X157128731Y-121138816D01*
X157233322Y-121181370D01*
X157311965Y-121192636D01*
X157389434Y-121205260D01*
X157403600Y-121236802D01*
X157363302Y-121277768D01*
X157277380Y-121318663D01*
X157167584Y-121347702D01*
X156954106Y-121387313D01*
X156608055Y-121001338D01*
X156438891Y-120819829D01*
X156312301Y-120702202D01*
X156220704Y-120643073D01*
X156156517Y-120637059D01*
X156125929Y-120659052D01*
X156128226Y-120706466D01*
X156143535Y-120821149D01*
X156168718Y-120980124D01*
X156174211Y-121012571D01*
X156225672Y-121246539D01*
X156285250Y-121390800D01*
X156354151Y-121447627D01*
X156401297Y-121440316D01*
X156459835Y-121445961D01*
X156473555Y-121462408D01*
X156449784Y-121492418D01*
X156364213Y-121533899D01*
X156229552Y-121581242D01*
X156152287Y-121604101D01*
X155982257Y-121651789D01*
X155872910Y-121681124D01*
X155810922Y-121693847D01*
X155782972Y-121691700D01*
X155775736Y-121676426D01*
X155775925Y-121653312D01*
X155807306Y-121603674D01*
X155870701Y-121562091D01*
X155914641Y-121537546D01*
X155943618Y-121502652D01*
X155957339Y-121444203D01*
X155955511Y-121348997D01*
X155937841Y-121203829D01*
X155904034Y-120995496D01*
X155853799Y-120710794D01*
X155851509Y-120697998D01*
X155796380Y-120389476D01*
X155754373Y-120159343D01*
X155721782Y-119995927D01*
X155694902Y-119887555D01*
X155670027Y-119822557D01*
X155643451Y-119789260D01*
X155618967Y-119779104D01*
X155975653Y-119779104D01*
X155983255Y-119888488D01*
X156021200Y-120136778D01*
X156050405Y-120307692D01*
X156075908Y-120414679D01*
X156102743Y-120471191D01*
X156135947Y-120490677D01*
X156180556Y-120486587D01*
X156205033Y-120480799D01*
X156313161Y-120428425D01*
X156419408Y-120339064D01*
X156428509Y-120328812D01*
X156508793Y-120182615D01*
X156529811Y-120020595D01*
X156498203Y-119865009D01*
X156420611Y-119738113D01*
X156303674Y-119662161D01*
X156225997Y-119650164D01*
X156083628Y-119660667D01*
X156004073Y-119699824D01*
X155975653Y-119779104D01*
X155618967Y-119779104D01*
X155611467Y-119775993D01*
X155570371Y-119771084D01*
X155556744Y-119769619D01*
X155473318Y-119747962D01*
X155435002Y-119714812D01*
X155434731Y-119711892D01*
X155446830Y-119669355D01*
X155449513Y-119668636D01*
X155490553Y-119659917D01*
X155589204Y-119636429D01*
X155728840Y-119602179D01*
X155832791Y-119576273D01*
X156088587Y-119518782D01*
X156285722Y-119491379D01*
X156437202Y-119494011D01*
G36*
X148134265Y-118936387D02*
X148147505Y-118963302D01*
X148160815Y-119020874D01*
X148175566Y-119119505D01*
X148193129Y-119269598D01*
X148214875Y-119481554D01*
X148242175Y-119765775D01*
X148271915Y-120084273D01*
X148308000Y-120443777D01*
X148342425Y-120719275D01*
X148376949Y-120919028D01*
X148413332Y-121051300D01*
X148453331Y-121124353D01*
X148497993Y-121146455D01*
X148533960Y-121181630D01*
X148535029Y-121192636D01*
X148526653Y-121222030D01*
X148493187Y-121230720D01*
X148422126Y-121216569D01*
X148300966Y-121177440D01*
X148168484Y-121129972D01*
X147999968Y-121063848D01*
X147896350Y-121012686D01*
X147860355Y-120978313D01*
X147894708Y-120962555D01*
X147917502Y-120961727D01*
X148009508Y-120931840D01*
X148057694Y-120837620D01*
X148064747Y-120672230D01*
X148058665Y-120602321D01*
X148033694Y-120373017D01*
X147733593Y-120272829D01*
X147433492Y-120172640D01*
X147330305Y-120319995D01*
X147237342Y-120458336D01*
X147191939Y-120548960D01*
X147189807Y-120611537D01*
X147226656Y-120665739D01*
X147249995Y-120688239D01*
X147313105Y-120757416D01*
X147311185Y-120790532D01*
X147242583Y-120788052D01*
X147105649Y-120750442D01*
X147070362Y-120738894D01*
X146920358Y-120679813D01*
X146845568Y-120627412D01*
X146845618Y-120581144D01*
X146920132Y-120540463D01*
X146931642Y-120536688D01*
X146986210Y-120500983D01*
X147064985Y-120417556D01*
X147172726Y-120280221D01*
X147314191Y-120082796D01*
X147359116Y-120016961D01*
X147550285Y-120016961D01*
X147556107Y-120059368D01*
X147680217Y-120105248D01*
X147812056Y-120145277D01*
X147917749Y-120169536D01*
X147942394Y-120172471D01*
X147977429Y-120167442D01*
X147996004Y-120134826D01*
X148000399Y-120056104D01*
X147992897Y-119912755D01*
X147985982Y-119818727D01*
X147968063Y-119610042D01*
X147951700Y-119484317D01*
X147935223Y-119432230D01*
X147918400Y-119441576D01*
X147890843Y-119483354D01*
X147826407Y-119577534D01*
X147737375Y-119706204D01*
X147707165Y-119749629D01*
X147600358Y-119913505D01*
X147550285Y-120016961D01*
X147359116Y-120016961D01*
X147494139Y-119819096D01*
X147562903Y-119716287D01*
X147717184Y-119486872D01*
X147856475Y-119283817D01*
X147973461Y-119117457D01*
X148060825Y-118998127D01*
X148111250Y-118936162D01*
X148119723Y-118929727D01*
X148134265Y-118936387D01*
X148134265Y-118936387D01*
G37*
X148134265Y-118936387D02*
X148147505Y-118963302D01*
X148160815Y-119020874D01*
X148175566Y-119119505D01*
X148193129Y-119269598D01*
X148214875Y-119481554D01*
X148242175Y-119765775D01*
X148271915Y-120084273D01*
X148308000Y-120443777D01*
X148342425Y-120719275D01*
X148376949Y-120919028D01*
X148413332Y-121051300D01*
X148453331Y-121124353D01*
X148497993Y-121146455D01*
X148533960Y-121181630D01*
X148535029Y-121192636D01*
X148526653Y-121222030D01*
X148493187Y-121230720D01*
X148422126Y-121216569D01*
X148300966Y-121177440D01*
X148168484Y-121129972D01*
X147999968Y-121063848D01*
X147896350Y-121012686D01*
X147860355Y-120978313D01*
X147894708Y-120962555D01*
X147917502Y-120961727D01*
X148009508Y-120931840D01*
X148057694Y-120837620D01*
X148064747Y-120672230D01*
X148058665Y-120602321D01*
X148033694Y-120373017D01*
X147733593Y-120272829D01*
X147433492Y-120172640D01*
X147330305Y-120319995D01*
X147237342Y-120458336D01*
X147191939Y-120548960D01*
X147189807Y-120611537D01*
X147226656Y-120665739D01*
X147249995Y-120688239D01*
X147313105Y-120757416D01*
X147311185Y-120790532D01*
X147242583Y-120788052D01*
X147105649Y-120750442D01*
X147070362Y-120738894D01*
X146920358Y-120679813D01*
X146845568Y-120627412D01*
X146845618Y-120581144D01*
X146920132Y-120540463D01*
X146931642Y-120536688D01*
X146986210Y-120500983D01*
X147064985Y-120417556D01*
X147172726Y-120280221D01*
X147314191Y-120082796D01*
X147359116Y-120016961D01*
X147550285Y-120016961D01*
X147556107Y-120059368D01*
X147680217Y-120105248D01*
X147812056Y-120145277D01*
X147917749Y-120169536D01*
X147942394Y-120172471D01*
X147977429Y-120167442D01*
X147996004Y-120134826D01*
X148000399Y-120056104D01*
X147992897Y-119912755D01*
X147985982Y-119818727D01*
X147968063Y-119610042D01*
X147951700Y-119484317D01*
X147935223Y-119432230D01*
X147918400Y-119441576D01*
X147890843Y-119483354D01*
X147826407Y-119577534D01*
X147737375Y-119706204D01*
X147707165Y-119749629D01*
X147600358Y-119913505D01*
X147550285Y-120016961D01*
X147359116Y-120016961D01*
X147494139Y-119819096D01*
X147562903Y-119716287D01*
X147717184Y-119486872D01*
X147856475Y-119283817D01*
X147973461Y-119117457D01*
X148060825Y-118998127D01*
X148111250Y-118936162D01*
X148119723Y-118929727D01*
X148134265Y-118936387D01*
G36*
X157796518Y-118920909D02*
X157876420Y-119013460D01*
X157987120Y-119152744D01*
X158119290Y-119327124D01*
X158221149Y-119465999D01*
X158443639Y-119770308D01*
X158623711Y-120008984D01*
X158766759Y-120188076D01*
X158878178Y-120313635D01*
X158963361Y-120391710D01*
X159027704Y-120428351D01*
X159076602Y-120429609D01*
X159079446Y-120428583D01*
X159138230Y-120420334D01*
X159142722Y-120457068D01*
X159101759Y-120497228D01*
X159009223Y-120552505D01*
X158886557Y-120613123D01*
X158755204Y-120669306D01*
X158636606Y-120711278D01*
X158552206Y-120729265D01*
X158545481Y-120729349D01*
X158509651Y-120719843D01*
X158535422Y-120683067D01*
X158552865Y-120666531D01*
X158606091Y-120592994D01*
X158606280Y-120506981D01*
X158550553Y-120391822D01*
X158490104Y-120303214D01*
X158364156Y-120129610D01*
X158065190Y-120257032D01*
X157766223Y-120384455D01*
X157754854Y-120650000D01*
X157751781Y-120806648D01*
X157767062Y-120890790D01*
X157811834Y-120921865D01*
X157897234Y-120919311D01*
X157908388Y-120917961D01*
X157964306Y-120933784D01*
X157974731Y-120958824D01*
X157967359Y-121006166D01*
X157964718Y-121007909D01*
X157926738Y-121022428D01*
X157838637Y-121060038D01*
X157747268Y-121100273D01*
X157596042Y-121163637D01*
X157507306Y-121188410D01*
X157474225Y-121173401D01*
X157489961Y-121117419D01*
X157521634Y-121060955D01*
X157550395Y-121004139D01*
X157573477Y-120930584D01*
X157592657Y-120826487D01*
X157609715Y-120678045D01*
X157626432Y-120471457D01*
X157644586Y-120192919D01*
X157652258Y-120064429D01*
X157789174Y-120064429D01*
X157798240Y-120155363D01*
X157810279Y-120176636D01*
X157857620Y-120163756D01*
X157953196Y-120130556D01*
X158037742Y-120098930D01*
X158147968Y-120052305D01*
X158221243Y-120013071D01*
X158239568Y-119995021D01*
X158215966Y-119950449D01*
X158153831Y-119855628D01*
X158065349Y-119728962D01*
X158040771Y-119694796D01*
X157842511Y-119420774D01*
X157816030Y-119602433D01*
X157798323Y-119762626D01*
X157789287Y-119925071D01*
X157789174Y-120064429D01*
X157652258Y-120064429D01*
X157654111Y-120033410D01*
X157670611Y-119746910D01*
X157685132Y-119484812D01*
X157696790Y-119263864D01*
X157704704Y-119100816D01*
X157707989Y-119012415D01*
X157708013Y-119010546D01*
X157723900Y-118917967D01*
X157756746Y-118886730D01*
X157796518Y-118920909D01*
X157796518Y-118920909D01*
G37*
X157796518Y-118920909D02*
X157876420Y-119013460D01*
X157987120Y-119152744D01*
X158119290Y-119327124D01*
X158221149Y-119465999D01*
X158443639Y-119770308D01*
X158623711Y-120008984D01*
X158766759Y-120188076D01*
X158878178Y-120313635D01*
X158963361Y-120391710D01*
X159027704Y-120428351D01*
X159076602Y-120429609D01*
X159079446Y-120428583D01*
X159138230Y-120420334D01*
X159142722Y-120457068D01*
X159101759Y-120497228D01*
X159009223Y-120552505D01*
X158886557Y-120613123D01*
X158755204Y-120669306D01*
X158636606Y-120711278D01*
X158552206Y-120729265D01*
X158545481Y-120729349D01*
X158509651Y-120719843D01*
X158535422Y-120683067D01*
X158552865Y-120666531D01*
X158606091Y-120592994D01*
X158606280Y-120506981D01*
X158550553Y-120391822D01*
X158490104Y-120303214D01*
X158364156Y-120129610D01*
X158065190Y-120257032D01*
X157766223Y-120384455D01*
X157754854Y-120650000D01*
X157751781Y-120806648D01*
X157767062Y-120890790D01*
X157811834Y-120921865D01*
X157897234Y-120919311D01*
X157908388Y-120917961D01*
X157964306Y-120933784D01*
X157974731Y-120958824D01*
X157967359Y-121006166D01*
X157964718Y-121007909D01*
X157926738Y-121022428D01*
X157838637Y-121060038D01*
X157747268Y-121100273D01*
X157596042Y-121163637D01*
X157507306Y-121188410D01*
X157474225Y-121173401D01*
X157489961Y-121117419D01*
X157521634Y-121060955D01*
X157550395Y-121004139D01*
X157573477Y-120930584D01*
X157592657Y-120826487D01*
X157609715Y-120678045D01*
X157626432Y-120471457D01*
X157644586Y-120192919D01*
X157652258Y-120064429D01*
X157789174Y-120064429D01*
X157798240Y-120155363D01*
X157810279Y-120176636D01*
X157857620Y-120163756D01*
X157953196Y-120130556D01*
X158037742Y-120098930D01*
X158147968Y-120052305D01*
X158221243Y-120013071D01*
X158239568Y-119995021D01*
X158215966Y-119950449D01*
X158153831Y-119855628D01*
X158065349Y-119728962D01*
X158040771Y-119694796D01*
X157842511Y-119420774D01*
X157816030Y-119602433D01*
X157798323Y-119762626D01*
X157789287Y-119925071D01*
X157789174Y-120064429D01*
X157652258Y-120064429D01*
X157654111Y-120033410D01*
X157670611Y-119746910D01*
X157685132Y-119484812D01*
X157696790Y-119263864D01*
X157704704Y-119100816D01*
X157707989Y-119012415D01*
X157708013Y-119010546D01*
X157723900Y-118917967D01*
X157756746Y-118886730D01*
X157796518Y-118920909D01*
G36*
X146716326Y-118294381D02*
X146928721Y-118394252D01*
X147102539Y-118549495D01*
X147176966Y-118623055D01*
X147227595Y-118634172D01*
X147264575Y-118606914D01*
X147323196Y-118566947D01*
X147348304Y-118601717D01*
X147340294Y-118714211D01*
X147302607Y-118894795D01*
X147253116Y-119087270D01*
X147216181Y-119193003D01*
X147188433Y-119215558D01*
X147166504Y-119158496D01*
X147150590Y-119055526D01*
X147118456Y-118891255D01*
X147070285Y-118740658D01*
X147056014Y-118708903D01*
X146954110Y-118581351D01*
X146806119Y-118486169D01*
X146640221Y-118437104D01*
X146507897Y-118441525D01*
X146354580Y-118520217D01*
X146214326Y-118670973D01*
X146094265Y-118873779D01*
X146001531Y-119108618D01*
X145943257Y-119355475D01*
X145926575Y-119594335D01*
X145958618Y-119805181D01*
X145992287Y-119888422D01*
X146133162Y-120084644D01*
X146306712Y-120205030D01*
X146500121Y-120244534D01*
X146700577Y-120198113D01*
X146735221Y-120180889D01*
X146873255Y-120111936D01*
X146948908Y-120088419D01*
X146965620Y-120109930D01*
X146940716Y-120156591D01*
X146824253Y-120267111D01*
X146661410Y-120345537D01*
X146479111Y-120383369D01*
X146304281Y-120372110D01*
X146279358Y-120365356D01*
X146040853Y-120250988D01*
X145856134Y-120073160D01*
X145729012Y-119837878D01*
X145663299Y-119551143D01*
X145654668Y-119381483D01*
X145687717Y-119076793D01*
X145777702Y-118811902D01*
X145914186Y-118592808D01*
X146086728Y-118425511D01*
X146284892Y-118316009D01*
X146498237Y-118270299D01*
X146716326Y-118294381D01*
X146716326Y-118294381D01*
G37*
X146716326Y-118294381D02*
X146928721Y-118394252D01*
X147102539Y-118549495D01*
X147176966Y-118623055D01*
X147227595Y-118634172D01*
X147264575Y-118606914D01*
X147323196Y-118566947D01*
X147348304Y-118601717D01*
X147340294Y-118714211D01*
X147302607Y-118894795D01*
X147253116Y-119087270D01*
X147216181Y-119193003D01*
X147188433Y-119215558D01*
X147166504Y-119158496D01*
X147150590Y-119055526D01*
X147118456Y-118891255D01*
X147070285Y-118740658D01*
X147056014Y-118708903D01*
X146954110Y-118581351D01*
X146806119Y-118486169D01*
X146640221Y-118437104D01*
X146507897Y-118441525D01*
X146354580Y-118520217D01*
X146214326Y-118670973D01*
X146094265Y-118873779D01*
X146001531Y-119108618D01*
X145943257Y-119355475D01*
X145926575Y-119594335D01*
X145958618Y-119805181D01*
X145992287Y-119888422D01*
X146133162Y-120084644D01*
X146306712Y-120205030D01*
X146500121Y-120244534D01*
X146700577Y-120198113D01*
X146735221Y-120180889D01*
X146873255Y-120111936D01*
X146948908Y-120088419D01*
X146965620Y-120109930D01*
X146940716Y-120156591D01*
X146824253Y-120267111D01*
X146661410Y-120345537D01*
X146479111Y-120383369D01*
X146304281Y-120372110D01*
X146279358Y-120365356D01*
X146040853Y-120250988D01*
X145856134Y-120073160D01*
X145729012Y-119837878D01*
X145663299Y-119551143D01*
X145654668Y-119381483D01*
X145687717Y-119076793D01*
X145777702Y-118811902D01*
X145914186Y-118592808D01*
X146086728Y-118425511D01*
X146284892Y-118316009D01*
X146498237Y-118270299D01*
X146716326Y-118294381D01*
G36*
X135178196Y-100012311D02*
X135172116Y-100136371D01*
X135160679Y-100320906D01*
X135144832Y-100550186D01*
X135132786Y-100713519D01*
X135098621Y-101239564D01*
X135072145Y-101799332D01*
X135053936Y-102368395D01*
X135044570Y-102922321D01*
X135044625Y-103436680D01*
X135054677Y-103887043D01*
X135056644Y-103937102D01*
X135068318Y-104203596D01*
X135079420Y-104394640D01*
X135092631Y-104527063D01*
X135110631Y-104617694D01*
X135136099Y-104683363D01*
X135171717Y-104740897D01*
X135188326Y-104763932D01*
X135315464Y-104878702D01*
X135485589Y-104931303D01*
X135702915Y-104922017D01*
X135971658Y-104851126D01*
X136052441Y-104821894D01*
X136213906Y-104757818D01*
X136358955Y-104695267D01*
X136464022Y-104644582D01*
X136488985Y-104630320D01*
X136560533Y-104596631D01*
X136593056Y-104603570D01*
X136593238Y-104605892D01*
X136572434Y-104662265D01*
X136510601Y-104793908D01*
X136408608Y-104999111D01*
X136267324Y-105276164D01*
X136087616Y-105623357D01*
X135870354Y-106038978D01*
X135726344Y-106312870D01*
X135521879Y-106711598D01*
X135360583Y-107053833D01*
X135237843Y-107354797D01*
X135149048Y-107629713D01*
X135089586Y-107893805D01*
X135054845Y-108162294D01*
X135040214Y-108450404D01*
X135038956Y-108581837D01*
X135065662Y-109360926D01*
X135143388Y-110187324D01*
X135268744Y-111044019D01*
X135438338Y-111913997D01*
X135648779Y-112780245D01*
X135896673Y-113625749D01*
X136178631Y-114433498D01*
X136234122Y-114577091D01*
X136316715Y-114791689D01*
X136383461Y-114973400D01*
X136429302Y-115107770D01*
X136449181Y-115180346D01*
X136448185Y-115189000D01*
X136407333Y-115164797D01*
X136318975Y-115099744D01*
X136198163Y-115005176D01*
X136119020Y-114941159D01*
X135685963Y-114546428D01*
X135245703Y-114066070D01*
X134802950Y-113505677D01*
X134362415Y-112870837D01*
X134321590Y-112808004D01*
X134192366Y-112610933D01*
X134096821Y-112476135D01*
X134023223Y-112391922D01*
X133959837Y-112346604D01*
X133894930Y-112328491D01*
X133837485Y-112325727D01*
X133751023Y-112344157D01*
X133660437Y-112403253D01*
X133562399Y-112508730D01*
X133453579Y-112666299D01*
X133330651Y-112881676D01*
X133190285Y-113160571D01*
X133029154Y-113508700D01*
X132843929Y-113931773D01*
X132689394Y-114296456D01*
X132566369Y-114587315D01*
X132469214Y-114805480D01*
X132395207Y-114948607D01*
X132341625Y-115014353D01*
X132305746Y-115000371D01*
X132284848Y-114904318D01*
X132276207Y-114723849D01*
X132277102Y-114456619D01*
X132284811Y-114100284D01*
X132288687Y-113951351D01*
X132316155Y-112913093D01*
X132113726Y-112943923D01*
X131972648Y-112968994D01*
X131795145Y-113005438D01*
X131618968Y-113045492D01*
X131614317Y-113046615D01*
X131473175Y-113077288D01*
X131362735Y-113094770D01*
X131302160Y-113096228D01*
X131296895Y-113093576D01*
X131310542Y-113050014D01*
X131364659Y-112955555D01*
X131448837Y-112827779D01*
X131483774Y-112778019D01*
X131830575Y-112274550D01*
X132150664Y-111775501D01*
X132436594Y-111293570D01*
X132680917Y-110841456D01*
X132876188Y-110431861D01*
X132920149Y-110328722D01*
X133002787Y-110124768D01*
X133076542Y-109931004D01*
X133143506Y-109738262D01*
X133205768Y-109537377D01*
X133265421Y-109319183D01*
X133324555Y-109074513D01*
X133385262Y-108794203D01*
X133449632Y-108469085D01*
X133519758Y-108089993D01*
X133597729Y-107647762D01*
X133685636Y-107133224D01*
X133785572Y-106537215D01*
X133786790Y-106529909D01*
X133945561Y-105592872D01*
X134097395Y-104728270D01*
X134241542Y-103940147D01*
X134377249Y-103232548D01*
X134503765Y-102609518D01*
X134587347Y-102221861D01*
X134636546Y-102007580D01*
X134697037Y-101755649D01*
X134765356Y-101479302D01*
X134838041Y-101191773D01*
X134911629Y-100906297D01*
X134982658Y-100636108D01*
X135047665Y-100394441D01*
X135103188Y-100194529D01*
X135145763Y-100049608D01*
X135171929Y-99972911D01*
X135177969Y-99964460D01*
X135178196Y-100012311D01*
X135178196Y-100012311D01*
G37*
X135178196Y-100012311D02*
X135172116Y-100136371D01*
X135160679Y-100320906D01*
X135144832Y-100550186D01*
X135132786Y-100713519D01*
X135098621Y-101239564D01*
X135072145Y-101799332D01*
X135053936Y-102368395D01*
X135044570Y-102922321D01*
X135044625Y-103436680D01*
X135054677Y-103887043D01*
X135056644Y-103937102D01*
X135068318Y-104203596D01*
X135079420Y-104394640D01*
X135092631Y-104527063D01*
X135110631Y-104617694D01*
X135136099Y-104683363D01*
X135171717Y-104740897D01*
X135188326Y-104763932D01*
X135315464Y-104878702D01*
X135485589Y-104931303D01*
X135702915Y-104922017D01*
X135971658Y-104851126D01*
X136052441Y-104821894D01*
X136213906Y-104757818D01*
X136358955Y-104695267D01*
X136464022Y-104644582D01*
X136488985Y-104630320D01*
X136560533Y-104596631D01*
X136593056Y-104603570D01*
X136593238Y-104605892D01*
X136572434Y-104662265D01*
X136510601Y-104793908D01*
X136408608Y-104999111D01*
X136267324Y-105276164D01*
X136087616Y-105623357D01*
X135870354Y-106038978D01*
X135726344Y-106312870D01*
X135521879Y-106711598D01*
X135360583Y-107053833D01*
X135237843Y-107354797D01*
X135149048Y-107629713D01*
X135089586Y-107893805D01*
X135054845Y-108162294D01*
X135040214Y-108450404D01*
X135038956Y-108581837D01*
X135065662Y-109360926D01*
X135143388Y-110187324D01*
X135268744Y-111044019D01*
X135438338Y-111913997D01*
X135648779Y-112780245D01*
X135896673Y-113625749D01*
X136178631Y-114433498D01*
X136234122Y-114577091D01*
X136316715Y-114791689D01*
X136383461Y-114973400D01*
X136429302Y-115107770D01*
X136449181Y-115180346D01*
X136448185Y-115189000D01*
X136407333Y-115164797D01*
X136318975Y-115099744D01*
X136198163Y-115005176D01*
X136119020Y-114941159D01*
X135685963Y-114546428D01*
X135245703Y-114066070D01*
X134802950Y-113505677D01*
X134362415Y-112870837D01*
X134321590Y-112808004D01*
X134192366Y-112610933D01*
X134096821Y-112476135D01*
X134023223Y-112391922D01*
X133959837Y-112346604D01*
X133894930Y-112328491D01*
X133837485Y-112325727D01*
X133751023Y-112344157D01*
X133660437Y-112403253D01*
X133562399Y-112508730D01*
X133453579Y-112666299D01*
X133330651Y-112881676D01*
X133190285Y-113160571D01*
X133029154Y-113508700D01*
X132843929Y-113931773D01*
X132689394Y-114296456D01*
X132566369Y-114587315D01*
X132469214Y-114805480D01*
X132395207Y-114948607D01*
X132341625Y-115014353D01*
X132305746Y-115000371D01*
X132284848Y-114904318D01*
X132276207Y-114723849D01*
X132277102Y-114456619D01*
X132284811Y-114100284D01*
X132288687Y-113951351D01*
X132316155Y-112913093D01*
X132113726Y-112943923D01*
X131972648Y-112968994D01*
X131795145Y-113005438D01*
X131618968Y-113045492D01*
X131614317Y-113046615D01*
X131473175Y-113077288D01*
X131362735Y-113094770D01*
X131302160Y-113096228D01*
X131296895Y-113093576D01*
X131310542Y-113050014D01*
X131364659Y-112955555D01*
X131448837Y-112827779D01*
X131483774Y-112778019D01*
X131830575Y-112274550D01*
X132150664Y-111775501D01*
X132436594Y-111293570D01*
X132680917Y-110841456D01*
X132876188Y-110431861D01*
X132920149Y-110328722D01*
X133002787Y-110124768D01*
X133076542Y-109931004D01*
X133143506Y-109738262D01*
X133205768Y-109537377D01*
X133265421Y-109319183D01*
X133324555Y-109074513D01*
X133385262Y-108794203D01*
X133449632Y-108469085D01*
X133519758Y-108089993D01*
X133597729Y-107647762D01*
X133685636Y-107133224D01*
X133785572Y-106537215D01*
X133786790Y-106529909D01*
X133945561Y-105592872D01*
X134097395Y-104728270D01*
X134241542Y-103940147D01*
X134377249Y-103232548D01*
X134503765Y-102609518D01*
X134587347Y-102221861D01*
X134636546Y-102007580D01*
X134697037Y-101755649D01*
X134765356Y-101479302D01*
X134838041Y-101191773D01*
X134911629Y-100906297D01*
X134982658Y-100636108D01*
X135047665Y-100394441D01*
X135103188Y-100194529D01*
X135145763Y-100049608D01*
X135171929Y-99972911D01*
X135177969Y-99964460D01*
X135178196Y-100012311D01*
G36*
X170439402Y-100043893D02*
X170475154Y-100151658D01*
X170525339Y-100320264D01*
X170586185Y-100535931D01*
X170653918Y-100784881D01*
X170724768Y-101053333D01*
X170794962Y-101327509D01*
X170860729Y-101593630D01*
X170897990Y-101750091D01*
X170987931Y-102142841D01*
X171076098Y-102545976D01*
X171164336Y-102969232D01*
X171254492Y-103422348D01*
X171348412Y-103915060D01*
X171447943Y-104457106D01*
X171554930Y-105058223D01*
X171671221Y-105728149D01*
X171798660Y-106476621D01*
X171834901Y-106691546D01*
X171903542Y-107096512D01*
X171971561Y-107492566D01*
X172036508Y-107865803D01*
X172095930Y-108202323D01*
X172147374Y-108488222D01*
X172188389Y-108709599D01*
X172213701Y-108839000D01*
X172337641Y-109356964D01*
X172495208Y-109860681D01*
X172691796Y-110362118D01*
X172932798Y-110873243D01*
X173223606Y-111406024D01*
X173569614Y-111972429D01*
X173751795Y-112252081D01*
X173877700Y-112443469D01*
X173983940Y-112607815D01*
X174062599Y-112732642D01*
X174105761Y-112805475D01*
X174111447Y-112818939D01*
X174072704Y-112816851D01*
X173976392Y-112802131D01*
X173839702Y-112777553D01*
X173762868Y-112762688D01*
X173584670Y-112731534D01*
X173410856Y-112708012D01*
X173272037Y-112696083D01*
X173242441Y-112695358D01*
X173134187Y-112698993D01*
X173084033Y-112717659D01*
X173074324Y-112762578D01*
X173079237Y-112799091D01*
X173085549Y-112875266D01*
X173093070Y-113028298D01*
X173101227Y-113242706D01*
X173109445Y-113503009D01*
X173117152Y-113793725D01*
X173119011Y-113872818D01*
X173141194Y-114842636D01*
X172796871Y-114035962D01*
X172602271Y-113588798D01*
X172433114Y-113220652D01*
X172285531Y-112925362D01*
X172155652Y-112696764D01*
X172039608Y-112528694D01*
X171933531Y-112414987D01*
X171833551Y-112349481D01*
X171735799Y-112326012D01*
X171723351Y-112325727D01*
X171662284Y-112335066D01*
X171600676Y-112370114D01*
X171528979Y-112441421D01*
X171437647Y-112559538D01*
X171317131Y-112735013D01*
X171221829Y-112879909D01*
X170842109Y-113434637D01*
X170470916Y-113921503D01*
X170115509Y-114331041D01*
X170082083Y-114366364D01*
X169934200Y-114516238D01*
X169771033Y-114673281D01*
X169604783Y-114826717D01*
X169447648Y-114965768D01*
X169311828Y-115079657D01*
X169209521Y-115157607D01*
X169152927Y-115188841D01*
X169150891Y-115189000D01*
X169151525Y-115151492D01*
X169181536Y-115052106D01*
X169234756Y-114910547D01*
X169248972Y-114875687D01*
X169543002Y-114100443D01*
X169806847Y-113275980D01*
X170036968Y-112419471D01*
X170229825Y-111548092D01*
X170381880Y-110679015D01*
X170489593Y-109829414D01*
X170549426Y-109016463D01*
X170560968Y-108509046D01*
X170555312Y-108275571D01*
X170535821Y-108055264D01*
X170498767Y-107837488D01*
X170440421Y-107611607D01*
X170357055Y-107366985D01*
X170244941Y-107092985D01*
X170100350Y-106778970D01*
X169919553Y-106414303D01*
X169698822Y-105988349D01*
X169634872Y-105867084D01*
X169490892Y-105593514D01*
X169357423Y-105337467D01*
X169241071Y-105111812D01*
X169148444Y-104929416D01*
X169086146Y-104803146D01*
X169064879Y-104756867D01*
X169034295Y-104684653D01*
X169021024Y-104639554D01*
X169035090Y-104622240D01*
X169086515Y-104633381D01*
X169185323Y-104673647D01*
X169341536Y-104743705D01*
X169423686Y-104780828D01*
X169635391Y-104862435D01*
X169831635Y-104902324D01*
X170000861Y-104911288D01*
X170152863Y-104909690D01*
X170251251Y-104897400D01*
X170318170Y-104867481D01*
X170375765Y-104812996D01*
X170397711Y-104786970D01*
X170436007Y-104737248D01*
X170464328Y-104685219D01*
X170485037Y-104615683D01*
X170500497Y-104513438D01*
X170513072Y-104363281D01*
X170525125Y-104150010D01*
X170537719Y-103886425D01*
X170547924Y-103538139D01*
X170550465Y-103120351D01*
X170545948Y-102655375D01*
X170534981Y-102165520D01*
X170518172Y-101673099D01*
X170496126Y-101200423D01*
X170469453Y-100769803D01*
X170444570Y-100463921D01*
X170428864Y-100274619D01*
X170419911Y-100122646D01*
X170418778Y-100029323D01*
X170421854Y-100010748D01*
X170439402Y-100043893D01*
X170439402Y-100043893D01*
G37*
X170439402Y-100043893D02*
X170475154Y-100151658D01*
X170525339Y-100320264D01*
X170586185Y-100535931D01*
X170653918Y-100784881D01*
X170724768Y-101053333D01*
X170794962Y-101327509D01*
X170860729Y-101593630D01*
X170897990Y-101750091D01*
X170987931Y-102142841D01*
X171076098Y-102545976D01*
X171164336Y-102969232D01*
X171254492Y-103422348D01*
X171348412Y-103915060D01*
X171447943Y-104457106D01*
X171554930Y-105058223D01*
X171671221Y-105728149D01*
X171798660Y-106476621D01*
X171834901Y-106691546D01*
X171903542Y-107096512D01*
X171971561Y-107492566D01*
X172036508Y-107865803D01*
X172095930Y-108202323D01*
X172147374Y-108488222D01*
X172188389Y-108709599D01*
X172213701Y-108839000D01*
X172337641Y-109356964D01*
X172495208Y-109860681D01*
X172691796Y-110362118D01*
X172932798Y-110873243D01*
X173223606Y-111406024D01*
X173569614Y-111972429D01*
X173751795Y-112252081D01*
X173877700Y-112443469D01*
X173983940Y-112607815D01*
X174062599Y-112732642D01*
X174105761Y-112805475D01*
X174111447Y-112818939D01*
X174072704Y-112816851D01*
X173976392Y-112802131D01*
X173839702Y-112777553D01*
X173762868Y-112762688D01*
X173584670Y-112731534D01*
X173410856Y-112708012D01*
X173272037Y-112696083D01*
X173242441Y-112695358D01*
X173134187Y-112698993D01*
X173084033Y-112717659D01*
X173074324Y-112762578D01*
X173079237Y-112799091D01*
X173085549Y-112875266D01*
X173093070Y-113028298D01*
X173101227Y-113242706D01*
X173109445Y-113503009D01*
X173117152Y-113793725D01*
X173119011Y-113872818D01*
X173141194Y-114842636D01*
X172796871Y-114035962D01*
X172602271Y-113588798D01*
X172433114Y-113220652D01*
X172285531Y-112925362D01*
X172155652Y-112696764D01*
X172039608Y-112528694D01*
X171933531Y-112414987D01*
X171833551Y-112349481D01*
X171735799Y-112326012D01*
X171723351Y-112325727D01*
X171662284Y-112335066D01*
X171600676Y-112370114D01*
X171528979Y-112441421D01*
X171437647Y-112559538D01*
X171317131Y-112735013D01*
X171221829Y-112879909D01*
X170842109Y-113434637D01*
X170470916Y-113921503D01*
X170115509Y-114331041D01*
X170082083Y-114366364D01*
X169934200Y-114516238D01*
X169771033Y-114673281D01*
X169604783Y-114826717D01*
X169447648Y-114965768D01*
X169311828Y-115079657D01*
X169209521Y-115157607D01*
X169152927Y-115188841D01*
X169150891Y-115189000D01*
X169151525Y-115151492D01*
X169181536Y-115052106D01*
X169234756Y-114910547D01*
X169248972Y-114875687D01*
X169543002Y-114100443D01*
X169806847Y-113275980D01*
X170036968Y-112419471D01*
X170229825Y-111548092D01*
X170381880Y-110679015D01*
X170489593Y-109829414D01*
X170549426Y-109016463D01*
X170560968Y-108509046D01*
X170555312Y-108275571D01*
X170535821Y-108055264D01*
X170498767Y-107837488D01*
X170440421Y-107611607D01*
X170357055Y-107366985D01*
X170244941Y-107092985D01*
X170100350Y-106778970D01*
X169919553Y-106414303D01*
X169698822Y-105988349D01*
X169634872Y-105867084D01*
X169490892Y-105593514D01*
X169357423Y-105337467D01*
X169241071Y-105111812D01*
X169148444Y-104929416D01*
X169086146Y-104803146D01*
X169064879Y-104756867D01*
X169034295Y-104684653D01*
X169021024Y-104639554D01*
X169035090Y-104622240D01*
X169086515Y-104633381D01*
X169185323Y-104673647D01*
X169341536Y-104743705D01*
X169423686Y-104780828D01*
X169635391Y-104862435D01*
X169831635Y-104902324D01*
X170000861Y-104911288D01*
X170152863Y-104909690D01*
X170251251Y-104897400D01*
X170318170Y-104867481D01*
X170375765Y-104812996D01*
X170397711Y-104786970D01*
X170436007Y-104737248D01*
X170464328Y-104685219D01*
X170485037Y-104615683D01*
X170500497Y-104513438D01*
X170513072Y-104363281D01*
X170525125Y-104150010D01*
X170537719Y-103886425D01*
X170547924Y-103538139D01*
X170550465Y-103120351D01*
X170545948Y-102655375D01*
X170534981Y-102165520D01*
X170518172Y-101673099D01*
X170496126Y-101200423D01*
X170469453Y-100769803D01*
X170444570Y-100463921D01*
X170428864Y-100274619D01*
X170419911Y-100122646D01*
X170418778Y-100029323D01*
X170421854Y-100010748D01*
X170439402Y-100043893D01*
G36*
X149285722Y-98677712D02*
X149433833Y-98684684D01*
X149508542Y-98691612D01*
X149673896Y-98714316D01*
X149644686Y-98881385D01*
X149624934Y-99062784D01*
X149616788Y-99288658D01*
X149620123Y-99520729D01*
X149634817Y-99720718D01*
X149647655Y-99802976D01*
X149665762Y-99903880D01*
X149654874Y-99933427D01*
X149606384Y-99909221D01*
X149598281Y-99903965D01*
X149508275Y-99868020D01*
X149452371Y-99866671D01*
X149440278Y-99894160D01*
X149499005Y-99952812D01*
X149580243Y-100010966D01*
X149700173Y-100107194D01*
X149799502Y-100214843D01*
X149838389Y-100275325D01*
X149995306Y-100513198D01*
X150219076Y-100722187D01*
X150373686Y-100825560D01*
X150661481Y-100955283D01*
X150943885Y-100996537D01*
X151232660Y-100950819D01*
X151268349Y-100939543D01*
X151408080Y-100897800D01*
X151529793Y-100869476D01*
X151598877Y-100861129D01*
X151662849Y-100843490D01*
X151668747Y-100806093D01*
X151685515Y-100746589D01*
X151750417Y-100677470D01*
X151759906Y-100670374D01*
X151844144Y-100586524D01*
X151951680Y-100447698D01*
X152066431Y-100277850D01*
X152172317Y-100100934D01*
X152253255Y-99940904D01*
X152259713Y-99925909D01*
X152308500Y-99787641D01*
X152353750Y-99624733D01*
X152360483Y-99595565D01*
X152392699Y-99475726D01*
X152428226Y-99426526D01*
X152482704Y-99427471D01*
X152487666Y-99428896D01*
X152582472Y-99475391D01*
X152629358Y-99513039D01*
X152693818Y-99548459D01*
X152809256Y-99585550D01*
X152951224Y-99616526D01*
X152957702Y-99617627D01*
X153185396Y-99677045D01*
X153374791Y-99768058D01*
X153399503Y-99784794D01*
X153507461Y-99853852D01*
X153568089Y-99869892D01*
X153590922Y-99846875D01*
X153599152Y-99843048D01*
X153591421Y-99912279D01*
X153589237Y-99925909D01*
X153567429Y-100039996D01*
X153537015Y-100081528D01*
X153473404Y-100068240D01*
X153421755Y-100046703D01*
X153286330Y-100001355D01*
X153212998Y-100006996D01*
X153198014Y-100041541D01*
X153231170Y-100079984D01*
X153315064Y-100123904D01*
X153365046Y-100142321D01*
X153466051Y-100179396D01*
X153508456Y-100215924D01*
X153507530Y-100272197D01*
X153495202Y-100315326D01*
X153451472Y-100439329D01*
X153387476Y-100602083D01*
X153315434Y-100774518D01*
X153247568Y-100927560D01*
X153196099Y-101032139D01*
X153188017Y-101046036D01*
X153087123Y-101189676D01*
X152949273Y-101360319D01*
X152792546Y-101538113D01*
X152635018Y-101703204D01*
X152494766Y-101835739D01*
X152404056Y-101907040D01*
X152287094Y-101980208D01*
X152204572Y-102013485D01*
X152125051Y-102012703D01*
X152017091Y-101983697D01*
X152007316Y-101980654D01*
X151864463Y-101930374D01*
X151727897Y-101873370D01*
X151681597Y-101850824D01*
X151549527Y-101798016D01*
X151407750Y-101763659D01*
X151397800Y-101762304D01*
X151297452Y-101741521D01*
X151234276Y-101713178D01*
X151227203Y-101705028D01*
X151172721Y-101672262D01*
X151059529Y-101652684D01*
X150904224Y-101648713D01*
X150854807Y-101650763D01*
X150768464Y-101665347D01*
X150749583Y-101691008D01*
X150791232Y-101720997D01*
X150886478Y-101748563D01*
X150968382Y-101761356D01*
X151082453Y-101783237D01*
X151160526Y-101814242D01*
X151180381Y-101834920D01*
X151222182Y-101869944D01*
X151316665Y-101909655D01*
X151418201Y-101938977D01*
X151535821Y-101974749D01*
X151606818Y-102011878D01*
X151619260Y-102037965D01*
X151627971Y-102063367D01*
X151673659Y-102053342D01*
X151745565Y-102048783D01*
X151775420Y-102071485D01*
X151829782Y-102111890D01*
X151873386Y-102119546D01*
X151942158Y-102129509D01*
X151943692Y-102156169D01*
X151884483Y-102194681D01*
X151771022Y-102240200D01*
X151669378Y-102271782D01*
X151378173Y-102328126D01*
X151057679Y-102346523D01*
X150739104Y-102327318D01*
X150453656Y-102270857D01*
X150411597Y-102257883D01*
X149982159Y-102072180D01*
X149597372Y-101812795D01*
X149260223Y-101482904D01*
X148973697Y-101085685D01*
X148740783Y-100624314D01*
X148650141Y-100384624D01*
X148553657Y-100064978D01*
X148494696Y-99766097D01*
X148467917Y-99450731D01*
X148467230Y-99109249D01*
X148478164Y-98679000D01*
X148910676Y-98673954D01*
X149103429Y-98673901D01*
X149285722Y-98677712D01*
X149285722Y-98677712D01*
G37*
X149285722Y-98677712D02*
X149433833Y-98684684D01*
X149508542Y-98691612D01*
X149673896Y-98714316D01*
X149644686Y-98881385D01*
X149624934Y-99062784D01*
X149616788Y-99288658D01*
X149620123Y-99520729D01*
X149634817Y-99720718D01*
X149647655Y-99802976D01*
X149665762Y-99903880D01*
X149654874Y-99933427D01*
X149606384Y-99909221D01*
X149598281Y-99903965D01*
X149508275Y-99868020D01*
X149452371Y-99866671D01*
X149440278Y-99894160D01*
X149499005Y-99952812D01*
X149580243Y-100010966D01*
X149700173Y-100107194D01*
X149799502Y-100214843D01*
X149838389Y-100275325D01*
X149995306Y-100513198D01*
X150219076Y-100722187D01*
X150373686Y-100825560D01*
X150661481Y-100955283D01*
X150943885Y-100996537D01*
X151232660Y-100950819D01*
X151268349Y-100939543D01*
X151408080Y-100897800D01*
X151529793Y-100869476D01*
X151598877Y-100861129D01*
X151662849Y-100843490D01*
X151668747Y-100806093D01*
X151685515Y-100746589D01*
X151750417Y-100677470D01*
X151759906Y-100670374D01*
X151844144Y-100586524D01*
X151951680Y-100447698D01*
X152066431Y-100277850D01*
X152172317Y-100100934D01*
X152253255Y-99940904D01*
X152259713Y-99925909D01*
X152308500Y-99787641D01*
X152353750Y-99624733D01*
X152360483Y-99595565D01*
X152392699Y-99475726D01*
X152428226Y-99426526D01*
X152482704Y-99427471D01*
X152487666Y-99428896D01*
X152582472Y-99475391D01*
X152629358Y-99513039D01*
X152693818Y-99548459D01*
X152809256Y-99585550D01*
X152951224Y-99616526D01*
X152957702Y-99617627D01*
X153185396Y-99677045D01*
X153374791Y-99768058D01*
X153399503Y-99784794D01*
X153507461Y-99853852D01*
X153568089Y-99869892D01*
X153590922Y-99846875D01*
X153599152Y-99843048D01*
X153591421Y-99912279D01*
X153589237Y-99925909D01*
X153567429Y-100039996D01*
X153537015Y-100081528D01*
X153473404Y-100068240D01*
X153421755Y-100046703D01*
X153286330Y-100001355D01*
X153212998Y-100006996D01*
X153198014Y-100041541D01*
X153231170Y-100079984D01*
X153315064Y-100123904D01*
X153365046Y-100142321D01*
X153466051Y-100179396D01*
X153508456Y-100215924D01*
X153507530Y-100272197D01*
X153495202Y-100315326D01*
X153451472Y-100439329D01*
X153387476Y-100602083D01*
X153315434Y-100774518D01*
X153247568Y-100927560D01*
X153196099Y-101032139D01*
X153188017Y-101046036D01*
X153087123Y-101189676D01*
X152949273Y-101360319D01*
X152792546Y-101538113D01*
X152635018Y-101703204D01*
X152494766Y-101835739D01*
X152404056Y-101907040D01*
X152287094Y-101980208D01*
X152204572Y-102013485D01*
X152125051Y-102012703D01*
X152017091Y-101983697D01*
X152007316Y-101980654D01*
X151864463Y-101930374D01*
X151727897Y-101873370D01*
X151681597Y-101850824D01*
X151549527Y-101798016D01*
X151407750Y-101763659D01*
X151397800Y-101762304D01*
X151297452Y-101741521D01*
X151234276Y-101713178D01*
X151227203Y-101705028D01*
X151172721Y-101672262D01*
X151059529Y-101652684D01*
X150904224Y-101648713D01*
X150854807Y-101650763D01*
X150768464Y-101665347D01*
X150749583Y-101691008D01*
X150791232Y-101720997D01*
X150886478Y-101748563D01*
X150968382Y-101761356D01*
X151082453Y-101783237D01*
X151160526Y-101814242D01*
X151180381Y-101834920D01*
X151222182Y-101869944D01*
X151316665Y-101909655D01*
X151418201Y-101938977D01*
X151535821Y-101974749D01*
X151606818Y-102011878D01*
X151619260Y-102037965D01*
X151627971Y-102063367D01*
X151673659Y-102053342D01*
X151745565Y-102048783D01*
X151775420Y-102071485D01*
X151829782Y-102111890D01*
X151873386Y-102119546D01*
X151942158Y-102129509D01*
X151943692Y-102156169D01*
X151884483Y-102194681D01*
X151771022Y-102240200D01*
X151669378Y-102271782D01*
X151378173Y-102328126D01*
X151057679Y-102346523D01*
X150739104Y-102327318D01*
X150453656Y-102270857D01*
X150411597Y-102257883D01*
X149982159Y-102072180D01*
X149597372Y-101812795D01*
X149260223Y-101482904D01*
X148973697Y-101085685D01*
X148740783Y-100624314D01*
X148650141Y-100384624D01*
X148553657Y-100064978D01*
X148494696Y-99766097D01*
X148467917Y-99450731D01*
X148467230Y-99109249D01*
X148478164Y-98679000D01*
X148910676Y-98673954D01*
X149103429Y-98673901D01*
X149285722Y-98677712D01*
G36*
X151171964Y-98555019D02*
X151344537Y-98653511D01*
X151438702Y-98752753D01*
X151522595Y-98918824D01*
X151562425Y-99126500D01*
X151554253Y-99339017D01*
X151516139Y-99475075D01*
X151403484Y-99647942D01*
X151249616Y-99759042D01*
X151073729Y-99802432D01*
X150895015Y-99772170D01*
X150778025Y-99703594D01*
X150643223Y-99559230D01*
X150568851Y-99381544D01*
X150545626Y-99153971D01*
X150555987Y-98992582D01*
X150600009Y-98868817D01*
X150659909Y-98775790D01*
X150817794Y-98616510D01*
X150992431Y-98542802D01*
X151171964Y-98555019D01*
X151171964Y-98555019D01*
G37*
X151171964Y-98555019D02*
X151344537Y-98653511D01*
X151438702Y-98752753D01*
X151522595Y-98918824D01*
X151562425Y-99126500D01*
X151554253Y-99339017D01*
X151516139Y-99475075D01*
X151403484Y-99647942D01*
X151249616Y-99759042D01*
X151073729Y-99802432D01*
X150895015Y-99772170D01*
X150778025Y-99703594D01*
X150643223Y-99559230D01*
X150568851Y-99381544D01*
X150545626Y-99153971D01*
X150555987Y-98992582D01*
X150600009Y-98868817D01*
X150659909Y-98775790D01*
X150817794Y-98616510D01*
X150992431Y-98542802D01*
X151171964Y-98555019D01*
G36*
X152810781Y-98596753D02*
X152884486Y-98629144D01*
X153023356Y-98682524D01*
X153166321Y-98723006D01*
X153174724Y-98724775D01*
X153307678Y-98765666D01*
X153426773Y-98825760D01*
X153513541Y-98892986D01*
X153549513Y-98955270D01*
X153548315Y-98968993D01*
X153564408Y-99017385D01*
X153592915Y-99025364D01*
X153624267Y-99040879D01*
X153642682Y-99099130D01*
X153651203Y-99217674D01*
X153652940Y-99371727D01*
X153649471Y-99536319D01*
X153640291Y-99656869D01*
X153627245Y-99711307D01*
X153624507Y-99712359D01*
X153573886Y-99696619D01*
X153478381Y-99663352D01*
X153425477Y-99644218D01*
X153289515Y-99596647D01*
X153125538Y-99542218D01*
X153027417Y-99510980D01*
X152861379Y-99457609D01*
X152687096Y-99399074D01*
X152600925Y-99368944D01*
X152486839Y-99325003D01*
X152427645Y-99283356D01*
X152405334Y-99220911D01*
X152401895Y-99114576D01*
X152401895Y-99113743D01*
X152405302Y-98998550D01*
X152422596Y-98957072D01*
X152464384Y-98970747D01*
X152478499Y-98979693D01*
X152555229Y-99008341D01*
X152604057Y-98992919D01*
X152607149Y-98947103D01*
X152574550Y-98906032D01*
X152501437Y-98867185D01*
X152461828Y-98868684D01*
X152420249Y-98846376D01*
X152373369Y-98773724D01*
X152339731Y-98688062D01*
X152337875Y-98626725D01*
X152340055Y-98623484D01*
X152383644Y-98621692D01*
X152471615Y-98642391D01*
X152502594Y-98652285D01*
X152622283Y-98689653D01*
X152683592Y-98697002D01*
X152700231Y-98672920D01*
X152691469Y-98632818D01*
X152685927Y-98580193D01*
X152722234Y-98568238D01*
X152810781Y-98596753D01*
X152810781Y-98596753D01*
G37*
X152810781Y-98596753D02*
X152884486Y-98629144D01*
X153023356Y-98682524D01*
X153166321Y-98723006D01*
X153174724Y-98724775D01*
X153307678Y-98765666D01*
X153426773Y-98825760D01*
X153513541Y-98892986D01*
X153549513Y-98955270D01*
X153548315Y-98968993D01*
X153564408Y-99017385D01*
X153592915Y-99025364D01*
X153624267Y-99040879D01*
X153642682Y-99099130D01*
X153651203Y-99217674D01*
X153652940Y-99371727D01*
X153649471Y-99536319D01*
X153640291Y-99656869D01*
X153627245Y-99711307D01*
X153624507Y-99712359D01*
X153573886Y-99696619D01*
X153478381Y-99663352D01*
X153425477Y-99644218D01*
X153289515Y-99596647D01*
X153125538Y-99542218D01*
X153027417Y-99510980D01*
X152861379Y-99457609D01*
X152687096Y-99399074D01*
X152600925Y-99368944D01*
X152486839Y-99325003D01*
X152427645Y-99283356D01*
X152405334Y-99220911D01*
X152401895Y-99114576D01*
X152401895Y-99113743D01*
X152405302Y-98998550D01*
X152422596Y-98957072D01*
X152464384Y-98970747D01*
X152478499Y-98979693D01*
X152555229Y-99008341D01*
X152604057Y-98992919D01*
X152607149Y-98947103D01*
X152574550Y-98906032D01*
X152501437Y-98867185D01*
X152461828Y-98868684D01*
X152420249Y-98846376D01*
X152373369Y-98773724D01*
X152339731Y-98688062D01*
X152337875Y-98626725D01*
X152340055Y-98623484D01*
X152383644Y-98621692D01*
X152471615Y-98642391D01*
X152502594Y-98652285D01*
X152622283Y-98689653D01*
X152683592Y-98697002D01*
X152700231Y-98672920D01*
X152691469Y-98632818D01*
X152685927Y-98580193D01*
X152722234Y-98568238D01*
X152810781Y-98596753D01*
G36*
X151872503Y-96760529D02*
X152009006Y-96790938D01*
X152143670Y-96829174D01*
X152251280Y-96868151D01*
X152304306Y-96898156D01*
X152364427Y-96928641D01*
X152470923Y-96958945D01*
X152542708Y-96972882D01*
X152661599Y-97003095D01*
X152740581Y-97044535D01*
X152758556Y-97068215D01*
X152808489Y-97120928D01*
X152854297Y-97131909D01*
X152931317Y-97169185D01*
X152970552Y-97224273D01*
X152990661Y-97292034D01*
X152955890Y-97314902D01*
X152915020Y-97316636D01*
X152843139Y-97332245D01*
X152818910Y-97362818D01*
X152849314Y-97404611D01*
X152871720Y-97409000D01*
X152930244Y-97446252D01*
X152946351Y-97478273D01*
X152995587Y-97539680D01*
X153023673Y-97547546D01*
X153079110Y-97585951D01*
X153102590Y-97637419D01*
X153140946Y-97723737D01*
X153211926Y-97841455D01*
X153254710Y-97902964D01*
X153383415Y-98078636D01*
X153230346Y-98093046D01*
X153077278Y-98107455D01*
X153346154Y-98264424D01*
X153500547Y-98366402D01*
X153590171Y-98452648D01*
X153612831Y-98519472D01*
X153566331Y-98563183D01*
X153529731Y-98573029D01*
X153477832Y-98587131D01*
X153482610Y-98610886D01*
X153548964Y-98660450D01*
X153558164Y-98666756D01*
X153619510Y-98718519D01*
X153621034Y-98745029D01*
X153611870Y-98746424D01*
X153548508Y-98736129D01*
X153534012Y-98726548D01*
X153490684Y-98705263D01*
X153394639Y-98670674D01*
X153271798Y-98631843D01*
X153133125Y-98587515D01*
X153015521Y-98544801D01*
X152951597Y-98516496D01*
X152880013Y-98488705D01*
X152756823Y-98452313D01*
X152605198Y-98413996D01*
X152559646Y-98403572D01*
X152381944Y-98361922D01*
X152267579Y-98328266D01*
X152204925Y-98296769D01*
X152182352Y-98261590D01*
X152188180Y-98217061D01*
X152172486Y-98158679D01*
X152124421Y-98126678D01*
X152066344Y-98101003D01*
X152078908Y-98077642D01*
X152117567Y-98056100D01*
X152164393Y-98026788D01*
X152144160Y-98015326D01*
X152095009Y-98012610D01*
X151994172Y-97977872D01*
X151933400Y-97924250D01*
X151865695Y-97857510D01*
X151756307Y-97773333D01*
X151662151Y-97710925D01*
X151553324Y-97641492D01*
X151478031Y-97588946D01*
X151454134Y-97566863D01*
X151465771Y-97518303D01*
X151495806Y-97409555D01*
X151525347Y-97306823D01*
X151573196Y-97134975D01*
X151615539Y-96969983D01*
X151631558Y-96901000D01*
X151665719Y-96790359D01*
X151715199Y-96747876D01*
X151759375Y-96745031D01*
X151872503Y-96760529D01*
X151872503Y-96760529D01*
G37*
X151872503Y-96760529D02*
X152009006Y-96790938D01*
X152143670Y-96829174D01*
X152251280Y-96868151D01*
X152304306Y-96898156D01*
X152364427Y-96928641D01*
X152470923Y-96958945D01*
X152542708Y-96972882D01*
X152661599Y-97003095D01*
X152740581Y-97044535D01*
X152758556Y-97068215D01*
X152808489Y-97120928D01*
X152854297Y-97131909D01*
X152931317Y-97169185D01*
X152970552Y-97224273D01*
X152990661Y-97292034D01*
X152955890Y-97314902D01*
X152915020Y-97316636D01*
X152843139Y-97332245D01*
X152818910Y-97362818D01*
X152849314Y-97404611D01*
X152871720Y-97409000D01*
X152930244Y-97446252D01*
X152946351Y-97478273D01*
X152995587Y-97539680D01*
X153023673Y-97547546D01*
X153079110Y-97585951D01*
X153102590Y-97637419D01*
X153140946Y-97723737D01*
X153211926Y-97841455D01*
X153254710Y-97902964D01*
X153383415Y-98078636D01*
X153230346Y-98093046D01*
X153077278Y-98107455D01*
X153346154Y-98264424D01*
X153500547Y-98366402D01*
X153590171Y-98452648D01*
X153612831Y-98519472D01*
X153566331Y-98563183D01*
X153529731Y-98573029D01*
X153477832Y-98587131D01*
X153482610Y-98610886D01*
X153548964Y-98660450D01*
X153558164Y-98666756D01*
X153619510Y-98718519D01*
X153621034Y-98745029D01*
X153611870Y-98746424D01*
X153548508Y-98736129D01*
X153534012Y-98726548D01*
X153490684Y-98705263D01*
X153394639Y-98670674D01*
X153271798Y-98631843D01*
X153133125Y-98587515D01*
X153015521Y-98544801D01*
X152951597Y-98516496D01*
X152880013Y-98488705D01*
X152756823Y-98452313D01*
X152605198Y-98413996D01*
X152559646Y-98403572D01*
X152381944Y-98361922D01*
X152267579Y-98328266D01*
X152204925Y-98296769D01*
X152182352Y-98261590D01*
X152188180Y-98217061D01*
X152172486Y-98158679D01*
X152124421Y-98126678D01*
X152066344Y-98101003D01*
X152078908Y-98077642D01*
X152117567Y-98056100D01*
X152164393Y-98026788D01*
X152144160Y-98015326D01*
X152095009Y-98012610D01*
X151994172Y-97977872D01*
X151933400Y-97924250D01*
X151865695Y-97857510D01*
X151756307Y-97773333D01*
X151662151Y-97710925D01*
X151553324Y-97641492D01*
X151478031Y-97588946D01*
X151454134Y-97566863D01*
X151465771Y-97518303D01*
X151495806Y-97409555D01*
X151525347Y-97306823D01*
X151573196Y-97134975D01*
X151615539Y-96969983D01*
X151631558Y-96901000D01*
X151665719Y-96790359D01*
X151715199Y-96747876D01*
X151759375Y-96745031D01*
X151872503Y-96760529D01*
G36*
X153539208Y-98217182D02*
X153520253Y-98240273D01*
X153501298Y-98217182D01*
X153520253Y-98194091D01*
X153539208Y-98217182D01*
X153539208Y-98217182D01*
G37*
X153539208Y-98217182D02*
X153520253Y-98240273D01*
X153501298Y-98217182D01*
X153520253Y-98194091D01*
X153539208Y-98217182D01*
G36*
X154563384Y-96066924D02*
X154721769Y-96185849D01*
X154846181Y-96363503D01*
X154908771Y-96532796D01*
X154930037Y-96649388D01*
X154922540Y-96750029D01*
X154881380Y-96875919D01*
X154862321Y-96923342D01*
X154745335Y-97122750D01*
X154594103Y-97253217D01*
X154422789Y-97309322D01*
X154245555Y-97285642D01*
X154114144Y-97209776D01*
X154016637Y-97112779D01*
X153942479Y-97007393D01*
X153935413Y-96993074D01*
X153892185Y-96824173D01*
X153885802Y-96619822D01*
X153915491Y-96424762D01*
X153946746Y-96338003D01*
X154041882Y-96207748D01*
X154178291Y-96098226D01*
X154323416Y-96032628D01*
X154388215Y-96023546D01*
X154563384Y-96066924D01*
X154563384Y-96066924D01*
G37*
X154563384Y-96066924D02*
X154721769Y-96185849D01*
X154846181Y-96363503D01*
X154908771Y-96532796D01*
X154930037Y-96649388D01*
X154922540Y-96750029D01*
X154881380Y-96875919D01*
X154862321Y-96923342D01*
X154745335Y-97122750D01*
X154594103Y-97253217D01*
X154422789Y-97309322D01*
X154245555Y-97285642D01*
X154114144Y-97209776D01*
X154016637Y-97112779D01*
X153942479Y-97007393D01*
X153935413Y-96993074D01*
X153892185Y-96824173D01*
X153885802Y-96619822D01*
X153915491Y-96424762D01*
X153946746Y-96338003D01*
X154041882Y-96207748D01*
X154178291Y-96098226D01*
X154323416Y-96032628D01*
X154388215Y-96023546D01*
X154563384Y-96066924D01*
G36*
X155859508Y-96440456D02*
X156011102Y-96489974D01*
X156101888Y-96527577D01*
X156145312Y-96560027D01*
X156155029Y-96589016D01*
X156120952Y-96614017D01*
X156027246Y-96610302D01*
X155999893Y-96605494D01*
X155899913Y-96592860D01*
X155860419Y-96608951D01*
X155860834Y-96634031D01*
X155903599Y-96668529D01*
X156005773Y-96710645D01*
X156151760Y-96754500D01*
X156233955Y-96774702D01*
X156418332Y-96819766D01*
X156600574Y-96868942D01*
X156749964Y-96913798D01*
X156790029Y-96927351D01*
X156906990Y-96974907D01*
X156967082Y-97020876D01*
X156987838Y-97081451D01*
X156989059Y-97111178D01*
X156979228Y-97194525D01*
X156960626Y-97218459D01*
X156911982Y-97207843D01*
X156809333Y-97185086D01*
X156673244Y-97154749D01*
X156647865Y-97149077D01*
X156458927Y-97108190D01*
X156243549Y-97063573D01*
X156060253Y-97027208D01*
X155756970Y-96968906D01*
X155734584Y-96401784D01*
X155859508Y-96440456D01*
X155859508Y-96440456D01*
G37*
X155859508Y-96440456D02*
X156011102Y-96489974D01*
X156101888Y-96527577D01*
X156145312Y-96560027D01*
X156155029Y-96589016D01*
X156120952Y-96614017D01*
X156027246Y-96610302D01*
X155999893Y-96605494D01*
X155899913Y-96592860D01*
X155860419Y-96608951D01*
X155860834Y-96634031D01*
X155903599Y-96668529D01*
X156005773Y-96710645D01*
X156151760Y-96754500D01*
X156233955Y-96774702D01*
X156418332Y-96819766D01*
X156600574Y-96868942D01*
X156749964Y-96913798D01*
X156790029Y-96927351D01*
X156906990Y-96974907D01*
X156967082Y-97020876D01*
X156987838Y-97081451D01*
X156989059Y-97111178D01*
X156979228Y-97194525D01*
X156960626Y-97218459D01*
X156911982Y-97207843D01*
X156809333Y-97185086D01*
X156673244Y-97154749D01*
X156647865Y-97149077D01*
X156458927Y-97108190D01*
X156243549Y-97063573D01*
X156060253Y-97027208D01*
X155756970Y-96968906D01*
X155734584Y-96401784D01*
X155859508Y-96440456D01*
G36*
X152246058Y-94986707D02*
X152401870Y-95054060D01*
X152607994Y-95129120D01*
X152840053Y-95203711D01*
X153073667Y-95269658D01*
X153139258Y-95286252D01*
X153326211Y-95342170D01*
X153437786Y-95399842D01*
X153474416Y-95459546D01*
X153462363Y-95493959D01*
X153397542Y-95523192D01*
X153270344Y-95520385D01*
X153236828Y-95515687D01*
X153128837Y-95501857D01*
X153059816Y-95498872D01*
X153046373Y-95503091D01*
X153077568Y-95530040D01*
X153154849Y-95575207D01*
X153177866Y-95587187D01*
X153267888Y-95648959D01*
X153289954Y-95711903D01*
X153286705Y-95726030D01*
X153240274Y-95775189D01*
X153208656Y-95772050D01*
X153143086Y-95762442D01*
X153104416Y-95788362D01*
X153114446Y-95831297D01*
X153126347Y-95841946D01*
X153151345Y-95882977D01*
X153138116Y-95956938D01*
X153097957Y-96055537D01*
X153006804Y-96320004D01*
X152944106Y-96625525D01*
X152923546Y-96828157D01*
X152902237Y-96967978D01*
X152860631Y-97026399D01*
X152802970Y-96999050D01*
X152782880Y-96973033D01*
X152715184Y-96918737D01*
X152611903Y-96877463D01*
X152597116Y-96873987D01*
X152492592Y-96836035D01*
X152418612Y-96781844D01*
X152412918Y-96774149D01*
X152344228Y-96725843D01*
X152226148Y-96695618D01*
X152185456Y-96691525D01*
X152038951Y-96676393D01*
X151895762Y-96653631D01*
X151860684Y-96646230D01*
X151771107Y-96618666D01*
X151745034Y-96586002D01*
X151761073Y-96549271D01*
X151784113Y-96495719D01*
X151762872Y-96485364D01*
X151746916Y-96449318D01*
X151764657Y-96356449D01*
X151811509Y-96229656D01*
X151816190Y-96219150D01*
X151852135Y-96225635D01*
X151941559Y-96254179D01*
X152065708Y-96298758D01*
X152075963Y-96302605D01*
X152224909Y-96348337D01*
X152368777Y-96375170D01*
X152490764Y-96382228D01*
X152574065Y-96368632D01*
X152601878Y-96333508D01*
X152601265Y-96330010D01*
X152561501Y-96302789D01*
X152471619Y-96280234D01*
X152421695Y-96273751D01*
X152283048Y-96250276D01*
X152121396Y-96208891D01*
X152042206Y-96183358D01*
X151924910Y-96138606D01*
X151865543Y-96100568D01*
X151848655Y-96052714D01*
X151857391Y-95985617D01*
X151885858Y-95863978D01*
X151919738Y-95807121D01*
X151977431Y-95788827D01*
X151996595Y-95787279D01*
X152047252Y-95779607D01*
X152025154Y-95764734D01*
X152013313Y-95760802D01*
X151955477Y-95719862D01*
X151956921Y-95673769D01*
X152011417Y-95654091D01*
X152053238Y-95641586D01*
X152030373Y-95598673D01*
X151989306Y-95529028D01*
X152010395Y-95488174D01*
X152098799Y-95470870D01*
X152157714Y-95469364D01*
X152268259Y-95460107D01*
X152308427Y-95433041D01*
X152305597Y-95420182D01*
X152254001Y-95389571D01*
X152164002Y-95383784D01*
X152161195Y-95384077D01*
X152087313Y-95384279D01*
X152056499Y-95353302D01*
X152066718Y-95275329D01*
X152115936Y-95134545D01*
X152125799Y-95108983D01*
X152179350Y-95005082D01*
X152232448Y-94981679D01*
X152246058Y-94986707D01*
X152246058Y-94986707D01*
G37*
X152246058Y-94986707D02*
X152401870Y-95054060D01*
X152607994Y-95129120D01*
X152840053Y-95203711D01*
X153073667Y-95269658D01*
X153139258Y-95286252D01*
X153326211Y-95342170D01*
X153437786Y-95399842D01*
X153474416Y-95459546D01*
X153462363Y-95493959D01*
X153397542Y-95523192D01*
X153270344Y-95520385D01*
X153236828Y-95515687D01*
X153128837Y-95501857D01*
X153059816Y-95498872D01*
X153046373Y-95503091D01*
X153077568Y-95530040D01*
X153154849Y-95575207D01*
X153177866Y-95587187D01*
X153267888Y-95648959D01*
X153289954Y-95711903D01*
X153286705Y-95726030D01*
X153240274Y-95775189D01*
X153208656Y-95772050D01*
X153143086Y-95762442D01*
X153104416Y-95788362D01*
X153114446Y-95831297D01*
X153126347Y-95841946D01*
X153151345Y-95882977D01*
X153138116Y-95956938D01*
X153097957Y-96055537D01*
X153006804Y-96320004D01*
X152944106Y-96625525D01*
X152923546Y-96828157D01*
X152902237Y-96967978D01*
X152860631Y-97026399D01*
X152802970Y-96999050D01*
X152782880Y-96973033D01*
X152715184Y-96918737D01*
X152611903Y-96877463D01*
X152597116Y-96873987D01*
X152492592Y-96836035D01*
X152418612Y-96781844D01*
X152412918Y-96774149D01*
X152344228Y-96725843D01*
X152226148Y-96695618D01*
X152185456Y-96691525D01*
X152038951Y-96676393D01*
X151895762Y-96653631D01*
X151860684Y-96646230D01*
X151771107Y-96618666D01*
X151745034Y-96586002D01*
X151761073Y-96549271D01*
X151784113Y-96495719D01*
X151762872Y-96485364D01*
X151746916Y-96449318D01*
X151764657Y-96356449D01*
X151811509Y-96229656D01*
X151816190Y-96219150D01*
X151852135Y-96225635D01*
X151941559Y-96254179D01*
X152065708Y-96298758D01*
X152075963Y-96302605D01*
X152224909Y-96348337D01*
X152368777Y-96375170D01*
X152490764Y-96382228D01*
X152574065Y-96368632D01*
X152601878Y-96333508D01*
X152601265Y-96330010D01*
X152561501Y-96302789D01*
X152471619Y-96280234D01*
X152421695Y-96273751D01*
X152283048Y-96250276D01*
X152121396Y-96208891D01*
X152042206Y-96183358D01*
X151924910Y-96138606D01*
X151865543Y-96100568D01*
X151848655Y-96052714D01*
X151857391Y-95985617D01*
X151885858Y-95863978D01*
X151919738Y-95807121D01*
X151977431Y-95788827D01*
X151996595Y-95787279D01*
X152047252Y-95779607D01*
X152025154Y-95764734D01*
X152013313Y-95760802D01*
X151955477Y-95719862D01*
X151956921Y-95673769D01*
X152011417Y-95654091D01*
X152053238Y-95641586D01*
X152030373Y-95598673D01*
X151989306Y-95529028D01*
X152010395Y-95488174D01*
X152098799Y-95470870D01*
X152157714Y-95469364D01*
X152268259Y-95460107D01*
X152308427Y-95433041D01*
X152305597Y-95420182D01*
X152254001Y-95389571D01*
X152164002Y-95383784D01*
X152161195Y-95384077D01*
X152087313Y-95384279D01*
X152056499Y-95353302D01*
X152066718Y-95275329D01*
X152115936Y-95134545D01*
X152125799Y-95108983D01*
X152179350Y-95005082D01*
X152232448Y-94981679D01*
X152246058Y-94986707D01*
G36*
X153839730Y-93754163D02*
X153938373Y-93779217D01*
X154030171Y-93808280D01*
X154075598Y-93827272D01*
X154141734Y-93828867D01*
X154165635Y-93805036D01*
X154199641Y-93776702D01*
X154218950Y-93801602D01*
X154252608Y-93833028D01*
X154327712Y-93867029D01*
X154452669Y-93906244D01*
X154635885Y-93953312D01*
X154885029Y-94010708D01*
X155069225Y-94058138D01*
X155269041Y-94119201D01*
X155398251Y-94164691D01*
X155540800Y-94210180D01*
X155668808Y-94235472D01*
X155748451Y-94235741D01*
X155838743Y-94238073D01*
X155872856Y-94281914D01*
X155921848Y-94335324D01*
X156014230Y-94376981D01*
X156034446Y-94382014D01*
X156144761Y-94408118D01*
X156229999Y-94432158D01*
X156236874Y-94434512D01*
X156294062Y-94485035D01*
X156378425Y-94596006D01*
X156477911Y-94748838D01*
X156580463Y-94924940D01*
X156674029Y-95105723D01*
X156679375Y-95116905D01*
X156764319Y-95295538D01*
X156620794Y-95263843D01*
X156501544Y-95235901D01*
X156400577Y-95209676D01*
X156391970Y-95207204D01*
X156322991Y-95207074D01*
X156306671Y-95250262D01*
X156343603Y-95305755D01*
X156453053Y-95343113D01*
X156467791Y-95345785D01*
X156622347Y-95385692D01*
X156745852Y-95443001D01*
X156821527Y-95508387D01*
X156837122Y-95551062D01*
X156810161Y-95588791D01*
X156736987Y-95578963D01*
X156667831Y-95567665D01*
X156661655Y-95597562D01*
X156663403Y-95601174D01*
X156719162Y-95643597D01*
X156774987Y-95654091D01*
X156828305Y-95669832D01*
X156869502Y-95730310D01*
X156910192Y-95855409D01*
X156924392Y-95909920D01*
X156965692Y-96079026D01*
X156983517Y-96180298D01*
X156977774Y-96233766D01*
X156948368Y-96259458D01*
X156922716Y-96268802D01*
X156875993Y-96286354D01*
X156902915Y-96293589D01*
X156922716Y-96295279D01*
X156959131Y-96312067D01*
X156979405Y-96368270D01*
X156987859Y-96483777D01*
X156989059Y-96600818D01*
X156987733Y-96752835D01*
X156984263Y-96859223D01*
X156979582Y-96896363D01*
X156940669Y-96884502D01*
X156848889Y-96858279D01*
X156742641Y-96828534D01*
X156547584Y-96772442D01*
X156415161Y-96728821D01*
X156333553Y-96692700D01*
X156290936Y-96659105D01*
X156277541Y-96632905D01*
X156289159Y-96597761D01*
X156322459Y-96605728D01*
X156373053Y-96605689D01*
X156382492Y-96582668D01*
X156413855Y-96537897D01*
X156448835Y-96528618D01*
X156476960Y-96516704D01*
X156445967Y-96490889D01*
X156370667Y-96457773D01*
X156265872Y-96423957D01*
X156155029Y-96397686D01*
X156048827Y-96365702D01*
X155996429Y-96325147D01*
X155993910Y-96309526D01*
X155972313Y-96261737D01*
X155944285Y-96254455D01*
X155905045Y-96276843D01*
X155908611Y-96300636D01*
X155897004Y-96336986D01*
X155853983Y-96346818D01*
X155788656Y-96324496D01*
X155781444Y-96276581D01*
X155823313Y-96238858D01*
X155829650Y-96220228D01*
X155784464Y-96211919D01*
X155712352Y-96169756D01*
X155653299Y-96076000D01*
X155629678Y-95970722D01*
X155633262Y-95941125D01*
X155614874Y-95889755D01*
X155559102Y-95802532D01*
X155538048Y-95774347D01*
X155471674Y-95673722D01*
X155436450Y-95591656D01*
X155434731Y-95578075D01*
X155409797Y-95521124D01*
X155392348Y-95515546D01*
X155339844Y-95487206D01*
X155258334Y-95416022D01*
X155224858Y-95381734D01*
X155117961Y-95290168D01*
X154976212Y-95197121D01*
X154878659Y-95145873D01*
X154761571Y-95097240D01*
X154654115Y-95069365D01*
X154531387Y-95058982D01*
X154368478Y-95062825D01*
X154283291Y-95067819D01*
X154059581Y-95075309D01*
X153894095Y-95063822D01*
X153770645Y-95032089D01*
X153757256Y-95026590D01*
X153625603Y-94983671D01*
X153496893Y-94962000D01*
X153477576Y-94961364D01*
X153391778Y-94950107D01*
X153350348Y-94922556D01*
X153349656Y-94918052D01*
X153318511Y-94883059D01*
X153283313Y-94878310D01*
X153196266Y-94869044D01*
X153116852Y-94848607D01*
X153036173Y-94838376D01*
X152994416Y-94859325D01*
X153014290Y-94893554D01*
X153089667Y-94932408D01*
X153151399Y-94952611D01*
X153395163Y-95020058D01*
X153574209Y-95070764D01*
X153697913Y-95107600D01*
X153775648Y-95133437D01*
X153816789Y-95151147D01*
X153828662Y-95160031D01*
X153819421Y-95196327D01*
X153760690Y-95239779D01*
X153677272Y-95279115D01*
X153593975Y-95303062D01*
X153535603Y-95300348D01*
X153529484Y-95295991D01*
X153466688Y-95260013D01*
X153359441Y-95219378D01*
X153292791Y-95199587D01*
X153167206Y-95165899D01*
X152997871Y-95120404D01*
X152815067Y-95071240D01*
X152755068Y-95055092D01*
X152593313Y-95013725D01*
X152452642Y-94981689D01*
X152354354Y-94963665D01*
X152328576Y-94961364D01*
X152265627Y-94942579D01*
X152250253Y-94915182D01*
X152282581Y-94878879D01*
X152365504Y-94871164D01*
X152477937Y-94890530D01*
X152598791Y-94935471D01*
X152609617Y-94940849D01*
X152734118Y-94983924D01*
X152855133Y-94995732D01*
X152870143Y-94994035D01*
X152946289Y-94979234D01*
X152953210Y-94963514D01*
X152904208Y-94939890D01*
X152838017Y-94889254D01*
X152818910Y-94842148D01*
X152786999Y-94764810D01*
X152714564Y-94715362D01*
X152636552Y-94712837D01*
X152611605Y-94729238D01*
X152552100Y-94752314D01*
X152468845Y-94750799D01*
X152395067Y-94729451D01*
X152363985Y-94693788D01*
X152387298Y-94644859D01*
X152443484Y-94564051D01*
X152444619Y-94562577D01*
X152531097Y-94486435D01*
X152637162Y-94480827D01*
X152643649Y-94482095D01*
X152720874Y-94494879D01*
X152732493Y-94481292D01*
X152690076Y-94435030D01*
X152650630Y-94377993D01*
X152654612Y-94316151D01*
X152708472Y-94238401D01*
X152818655Y-94133642D01*
X152909462Y-94057320D01*
X153038037Y-93964407D01*
X153123646Y-93934103D01*
X153156915Y-93943284D01*
X153226822Y-93973906D01*
X153341257Y-94010127D01*
X153425663Y-94032055D01*
X153560389Y-94065769D01*
X153677533Y-94098095D01*
X153725211Y-94113035D01*
X153788918Y-94123567D01*
X153791973Y-94096419D01*
X153741501Y-94057496D01*
X153647911Y-94022644D01*
X153624926Y-94017082D01*
X153465202Y-93973421D01*
X153340037Y-93922289D01*
X153340014Y-93922273D01*
X153956223Y-93922273D01*
X153975179Y-93945364D01*
X153994134Y-93922273D01*
X153975179Y-93899182D01*
X153956223Y-93922273D01*
X153340014Y-93922273D01*
X153263695Y-93870687D01*
X153247779Y-93831933D01*
X153294580Y-93790282D01*
X153389629Y-93771579D01*
X153507668Y-93776127D01*
X153623436Y-93804230D01*
X153671949Y-93826845D01*
X153769775Y-93874360D01*
X153846993Y-93897156D01*
X153889982Y-93895255D01*
X153885123Y-93868679D01*
X153833014Y-93826585D01*
X153760608Y-93774383D01*
X153728825Y-93742856D01*
X153728761Y-93742272D01*
X153760955Y-93739666D01*
X153839730Y-93754163D01*
X153839730Y-93754163D01*
G37*
X153839730Y-93754163D02*
X153938373Y-93779217D01*
X154030171Y-93808280D01*
X154075598Y-93827272D01*
X154141734Y-93828867D01*
X154165635Y-93805036D01*
X154199641Y-93776702D01*
X154218950Y-93801602D01*
X154252608Y-93833028D01*
X154327712Y-93867029D01*
X154452669Y-93906244D01*
X154635885Y-93953312D01*
X154885029Y-94010708D01*
X155069225Y-94058138D01*
X155269041Y-94119201D01*
X155398251Y-94164691D01*
X155540800Y-94210180D01*
X155668808Y-94235472D01*
X155748451Y-94235741D01*
X155838743Y-94238073D01*
X155872856Y-94281914D01*
X155921848Y-94335324D01*
X156014230Y-94376981D01*
X156034446Y-94382014D01*
X156144761Y-94408118D01*
X156229999Y-94432158D01*
X156236874Y-94434512D01*
X156294062Y-94485035D01*
X156378425Y-94596006D01*
X156477911Y-94748838D01*
X156580463Y-94924940D01*
X156674029Y-95105723D01*
X156679375Y-95116905D01*
X156764319Y-95295538D01*
X156620794Y-95263843D01*
X156501544Y-95235901D01*
X156400577Y-95209676D01*
X156391970Y-95207204D01*
X156322991Y-95207074D01*
X156306671Y-95250262D01*
X156343603Y-95305755D01*
X156453053Y-95343113D01*
X156467791Y-95345785D01*
X156622347Y-95385692D01*
X156745852Y-95443001D01*
X156821527Y-95508387D01*
X156837122Y-95551062D01*
X156810161Y-95588791D01*
X156736987Y-95578963D01*
X156667831Y-95567665D01*
X156661655Y-95597562D01*
X156663403Y-95601174D01*
X156719162Y-95643597D01*
X156774987Y-95654091D01*
X156828305Y-95669832D01*
X156869502Y-95730310D01*
X156910192Y-95855409D01*
X156924392Y-95909920D01*
X156965692Y-96079026D01*
X156983517Y-96180298D01*
X156977774Y-96233766D01*
X156948368Y-96259458D01*
X156922716Y-96268802D01*
X156875993Y-96286354D01*
X156902915Y-96293589D01*
X156922716Y-96295279D01*
X156959131Y-96312067D01*
X156979405Y-96368270D01*
X156987859Y-96483777D01*
X156989059Y-96600818D01*
X156987733Y-96752835D01*
X156984263Y-96859223D01*
X156979582Y-96896363D01*
X156940669Y-96884502D01*
X156848889Y-96858279D01*
X156742641Y-96828534D01*
X156547584Y-96772442D01*
X156415161Y-96728821D01*
X156333553Y-96692700D01*
X156290936Y-96659105D01*
X156277541Y-96632905D01*
X156289159Y-96597761D01*
X156322459Y-96605728D01*
X156373053Y-96605689D01*
X156382492Y-96582668D01*
X156413855Y-96537897D01*
X156448835Y-96528618D01*
X156476960Y-96516704D01*
X156445967Y-96490889D01*
X156370667Y-96457773D01*
X156265872Y-96423957D01*
X156155029Y-96397686D01*
X156048827Y-96365702D01*
X155996429Y-96325147D01*
X155993910Y-96309526D01*
X155972313Y-96261737D01*
X155944285Y-96254455D01*
X155905045Y-96276843D01*
X155908611Y-96300636D01*
X155897004Y-96336986D01*
X155853983Y-96346818D01*
X155788656Y-96324496D01*
X155781444Y-96276581D01*
X155823313Y-96238858D01*
X155829650Y-96220228D01*
X155784464Y-96211919D01*
X155712352Y-96169756D01*
X155653299Y-96076000D01*
X155629678Y-95970722D01*
X155633262Y-95941125D01*
X155614874Y-95889755D01*
X155559102Y-95802532D01*
X155538048Y-95774347D01*
X155471674Y-95673722D01*
X155436450Y-95591656D01*
X155434731Y-95578075D01*
X155409797Y-95521124D01*
X155392348Y-95515546D01*
X155339844Y-95487206D01*
X155258334Y-95416022D01*
X155224858Y-95381734D01*
X155117961Y-95290168D01*
X154976212Y-95197121D01*
X154878659Y-95145873D01*
X154761571Y-95097240D01*
X154654115Y-95069365D01*
X154531387Y-95058982D01*
X154368478Y-95062825D01*
X154283291Y-95067819D01*
X154059581Y-95075309D01*
X153894095Y-95063822D01*
X153770645Y-95032089D01*
X153757256Y-95026590D01*
X153625603Y-94983671D01*
X153496893Y-94962000D01*
X153477576Y-94961364D01*
X153391778Y-94950107D01*
X153350348Y-94922556D01*
X153349656Y-94918052D01*
X153318511Y-94883059D01*
X153283313Y-94878310D01*
X153196266Y-94869044D01*
X153116852Y-94848607D01*
X153036173Y-94838376D01*
X152994416Y-94859325D01*
X153014290Y-94893554D01*
X153089667Y-94932408D01*
X153151399Y-94952611D01*
X153395163Y-95020058D01*
X153574209Y-95070764D01*
X153697913Y-95107600D01*
X153775648Y-95133437D01*
X153816789Y-95151147D01*
X153828662Y-95160031D01*
X153819421Y-95196327D01*
X153760690Y-95239779D01*
X153677272Y-95279115D01*
X153593975Y-95303062D01*
X153535603Y-95300348D01*
X153529484Y-95295991D01*
X153466688Y-95260013D01*
X153359441Y-95219378D01*
X153292791Y-95199587D01*
X153167206Y-95165899D01*
X152997871Y-95120404D01*
X152815067Y-95071240D01*
X152755068Y-95055092D01*
X152593313Y-95013725D01*
X152452642Y-94981689D01*
X152354354Y-94963665D01*
X152328576Y-94961364D01*
X152265627Y-94942579D01*
X152250253Y-94915182D01*
X152282581Y-94878879D01*
X152365504Y-94871164D01*
X152477937Y-94890530D01*
X152598791Y-94935471D01*
X152609617Y-94940849D01*
X152734118Y-94983924D01*
X152855133Y-94995732D01*
X152870143Y-94994035D01*
X152946289Y-94979234D01*
X152953210Y-94963514D01*
X152904208Y-94939890D01*
X152838017Y-94889254D01*
X152818910Y-94842148D01*
X152786999Y-94764810D01*
X152714564Y-94715362D01*
X152636552Y-94712837D01*
X152611605Y-94729238D01*
X152552100Y-94752314D01*
X152468845Y-94750799D01*
X152395067Y-94729451D01*
X152363985Y-94693788D01*
X152387298Y-94644859D01*
X152443484Y-94564051D01*
X152444619Y-94562577D01*
X152531097Y-94486435D01*
X152637162Y-94480827D01*
X152643649Y-94482095D01*
X152720874Y-94494879D01*
X152732493Y-94481292D01*
X152690076Y-94435030D01*
X152650630Y-94377993D01*
X152654612Y-94316151D01*
X152708472Y-94238401D01*
X152818655Y-94133642D01*
X152909462Y-94057320D01*
X153038037Y-93964407D01*
X153123646Y-93934103D01*
X153156915Y-93943284D01*
X153226822Y-93973906D01*
X153341257Y-94010127D01*
X153425663Y-94032055D01*
X153560389Y-94065769D01*
X153677533Y-94098095D01*
X153725211Y-94113035D01*
X153788918Y-94123567D01*
X153791973Y-94096419D01*
X153741501Y-94057496D01*
X153647911Y-94022644D01*
X153624926Y-94017082D01*
X153465202Y-93973421D01*
X153340037Y-93922289D01*
X153340014Y-93922273D01*
X153956223Y-93922273D01*
X153975179Y-93945364D01*
X153994134Y-93922273D01*
X153975179Y-93899182D01*
X153956223Y-93922273D01*
X153340014Y-93922273D01*
X153263695Y-93870687D01*
X153247779Y-93831933D01*
X153294580Y-93790282D01*
X153389629Y-93771579D01*
X153507668Y-93776127D01*
X153623436Y-93804230D01*
X153671949Y-93826845D01*
X153769775Y-93874360D01*
X153846993Y-93897156D01*
X153889982Y-93895255D01*
X153885123Y-93868679D01*
X153833014Y-93826585D01*
X153760608Y-93774383D01*
X153728825Y-93742856D01*
X153728761Y-93742272D01*
X153760955Y-93739666D01*
X153839730Y-93754163D01*
G36*
X154114340Y-93546890D02*
X154323439Y-93570155D01*
X154562100Y-93612612D01*
X154815909Y-93672065D01*
X155070452Y-93746318D01*
X155112492Y-93760165D01*
X155287068Y-93818379D01*
X155463350Y-93876638D01*
X155605607Y-93923136D01*
X155615799Y-93926431D01*
X155771406Y-93988181D01*
X155898446Y-94060119D01*
X155980709Y-94131573D01*
X156003388Y-94181584D01*
X155995369Y-94218806D01*
X155993910Y-94218718D01*
X155955467Y-94206972D01*
X155859665Y-94178382D01*
X155722843Y-94137811D01*
X155624283Y-94108686D01*
X155435829Y-94054238D01*
X155244562Y-94000913D01*
X155082709Y-93957637D01*
X155036671Y-93945944D01*
X154629800Y-93829593D01*
X154202883Y-93682518D01*
X154063089Y-93640701D01*
X153928262Y-93615421D01*
X153880644Y-93612089D01*
X153796904Y-93609631D01*
X153782711Y-93598677D01*
X153831797Y-93571771D01*
X153842492Y-93566716D01*
X153949220Y-93545011D01*
X154114340Y-93546890D01*
X154114340Y-93546890D01*
G37*
X154114340Y-93546890D02*
X154323439Y-93570155D01*
X154562100Y-93612612D01*
X154815909Y-93672065D01*
X155070452Y-93746318D01*
X155112492Y-93760165D01*
X155287068Y-93818379D01*
X155463350Y-93876638D01*
X155605607Y-93923136D01*
X155615799Y-93926431D01*
X155771406Y-93988181D01*
X155898446Y-94060119D01*
X155980709Y-94131573D01*
X156003388Y-94181584D01*
X155995369Y-94218806D01*
X155993910Y-94218718D01*
X155955467Y-94206972D01*
X155859665Y-94178382D01*
X155722843Y-94137811D01*
X155624283Y-94108686D01*
X155435829Y-94054238D01*
X155244562Y-94000913D01*
X155082709Y-93957637D01*
X155036671Y-93945944D01*
X154629800Y-93829593D01*
X154202883Y-93682518D01*
X154063089Y-93640701D01*
X153928262Y-93615421D01*
X153880644Y-93612089D01*
X153796904Y-93609631D01*
X153782711Y-93598677D01*
X153831797Y-93571771D01*
X153842492Y-93566716D01*
X153949220Y-93545011D01*
X154114340Y-93546890D01*
G36*
X153690850Y-93737546D02*
X153671895Y-93760636D01*
X153652940Y-93737546D01*
X153671895Y-93714455D01*
X153690850Y-93737546D01*
X153690850Y-93737546D01*
G37*
X153690850Y-93737546D02*
X153671895Y-93760636D01*
X153652940Y-93737546D01*
X153671895Y-93714455D01*
X153690850Y-93737546D01*
G36*
X155218109Y-93655695D02*
X155226223Y-93668273D01*
X155239567Y-93709809D01*
X155203700Y-93694165D01*
X155169358Y-93668273D01*
X155140213Y-93631199D01*
X155157643Y-93622798D01*
X155218109Y-93655695D01*
X155218109Y-93655695D01*
G37*
X155218109Y-93655695D02*
X155226223Y-93668273D01*
X155239567Y-93709809D01*
X155203700Y-93694165D01*
X155169358Y-93668273D01*
X155140213Y-93631199D01*
X155157643Y-93622798D01*
X155218109Y-93655695D01*
G36*
X155321000Y-93691364D02*
X155302044Y-93714455D01*
X155283089Y-93691364D01*
X155302044Y-93668273D01*
X155321000Y-93691364D01*
X155321000Y-93691364D01*
G37*
X155321000Y-93691364D02*
X155302044Y-93714455D01*
X155283089Y-93691364D01*
X155302044Y-93668273D01*
X155321000Y-93691364D01*
G36*
X154958881Y-93558288D02*
X155012243Y-93595555D01*
X155003304Y-93619652D01*
X154982043Y-93622091D01*
X154930636Y-93588550D01*
X154923208Y-93576438D01*
X154929310Y-93550195D01*
X154958881Y-93558288D01*
X154958881Y-93558288D01*
G37*
X154958881Y-93558288D02*
X155012243Y-93595555D01*
X155003304Y-93619652D01*
X154982043Y-93622091D01*
X154930636Y-93588550D01*
X154923208Y-93576438D01*
X154929310Y-93550195D01*
X154958881Y-93558288D01*
G36*
X154572268Y-93499142D02*
X154577031Y-93515998D01*
X154524880Y-93522435D01*
X154471061Y-93515178D01*
X154477492Y-93499142D01*
X154555108Y-93493042D01*
X154572268Y-93499142D01*
X154572268Y-93499142D01*
G37*
X154572268Y-93499142D02*
X154577031Y-93515998D01*
X154524880Y-93522435D01*
X154471061Y-93515178D01*
X154477492Y-93499142D01*
X154555108Y-93493042D01*
X154572268Y-93499142D01*
G36*
X130196087Y-75642828D02*
X130278223Y-75697806D01*
X130388438Y-75782355D01*
X130398839Y-75790768D01*
X130588622Y-75924513D01*
X130797163Y-76038356D01*
X131000579Y-76121394D01*
X131174987Y-76162724D01*
X131219452Y-76165364D01*
X131329275Y-76153434D01*
X131471117Y-76122971D01*
X131552314Y-76099877D01*
X131665551Y-76065606D01*
X131742954Y-76045052D01*
X131764698Y-76042150D01*
X131778027Y-76088498D01*
X131811786Y-76214960D01*
X131863974Y-76413743D01*
X131932590Y-76677055D01*
X132015636Y-76997104D01*
X132111111Y-77366098D01*
X132217016Y-77776245D01*
X132331349Y-78219753D01*
X132452113Y-78688830D01*
X132577306Y-79175684D01*
X132704929Y-79672522D01*
X132832982Y-80171554D01*
X132959465Y-80664986D01*
X133082378Y-81145027D01*
X133199721Y-81603884D01*
X133309495Y-82033766D01*
X133409699Y-82426880D01*
X133498333Y-82775435D01*
X133573399Y-83071638D01*
X133632895Y-83307697D01*
X133674822Y-83475821D01*
X133697180Y-83568217D01*
X133700384Y-83584053D01*
X133673629Y-83553164D01*
X133599862Y-83459645D01*
X133483273Y-83308989D01*
X133328051Y-83106689D01*
X133138385Y-82858239D01*
X132918463Y-82569133D01*
X132672475Y-82244863D01*
X132404610Y-81890924D01*
X132119056Y-81512810D01*
X131947477Y-81285249D01*
X131651347Y-80892004D01*
X131369068Y-80516638D01*
X131105033Y-80165022D01*
X130863634Y-79843031D01*
X130649263Y-79556538D01*
X130466312Y-79311417D01*
X130319174Y-79113542D01*
X130212241Y-78968785D01*
X130149906Y-78883021D01*
X130136436Y-78863468D01*
X130106364Y-78810156D01*
X130090358Y-78754861D01*
X130088753Y-78677540D01*
X130101881Y-78558151D01*
X130130075Y-78376650D01*
X130146136Y-78279208D01*
X130224775Y-77704993D01*
X130267591Y-77156411D01*
X130270641Y-76927364D01*
X130906463Y-76927364D01*
X131115737Y-77453743D01*
X131275837Y-77842460D01*
X131422681Y-78171088D01*
X131553562Y-78434616D01*
X131665772Y-78628037D01*
X131756604Y-78746339D01*
X131823350Y-78784514D01*
X131833669Y-78782050D01*
X131856404Y-78729711D01*
X131863715Y-78620813D01*
X131862312Y-78585043D01*
X131841274Y-78417796D01*
X131798423Y-78198980D01*
X131739196Y-77947755D01*
X131669033Y-77683280D01*
X131593373Y-77424713D01*
X131517654Y-77191213D01*
X131447315Y-77001940D01*
X131387796Y-76876051D01*
X131369583Y-76849347D01*
X131279503Y-76794050D01*
X131157827Y-76779901D01*
X131041119Y-76807592D01*
X130990990Y-76842203D01*
X130906463Y-76927364D01*
X130270641Y-76927364D01*
X130274370Y-76647477D01*
X130244893Y-76192210D01*
X130184049Y-75826215D01*
X130161758Y-75709720D01*
X130156642Y-75637152D01*
X130159136Y-75628968D01*
X130196087Y-75642828D01*
X130196087Y-75642828D01*
G37*
X130196087Y-75642828D02*
X130278223Y-75697806D01*
X130388438Y-75782355D01*
X130398839Y-75790768D01*
X130588622Y-75924513D01*
X130797163Y-76038356D01*
X131000579Y-76121394D01*
X131174987Y-76162724D01*
X131219452Y-76165364D01*
X131329275Y-76153434D01*
X131471117Y-76122971D01*
X131552314Y-76099877D01*
X131665551Y-76065606D01*
X131742954Y-76045052D01*
X131764698Y-76042150D01*
X131778027Y-76088498D01*
X131811786Y-76214960D01*
X131863974Y-76413743D01*
X131932590Y-76677055D01*
X132015636Y-76997104D01*
X132111111Y-77366098D01*
X132217016Y-77776245D01*
X132331349Y-78219753D01*
X132452113Y-78688830D01*
X132577306Y-79175684D01*
X132704929Y-79672522D01*
X132832982Y-80171554D01*
X132959465Y-80664986D01*
X133082378Y-81145027D01*
X133199721Y-81603884D01*
X133309495Y-82033766D01*
X133409699Y-82426880D01*
X133498333Y-82775435D01*
X133573399Y-83071638D01*
X133632895Y-83307697D01*
X133674822Y-83475821D01*
X133697180Y-83568217D01*
X133700384Y-83584053D01*
X133673629Y-83553164D01*
X133599862Y-83459645D01*
X133483273Y-83308989D01*
X133328051Y-83106689D01*
X133138385Y-82858239D01*
X132918463Y-82569133D01*
X132672475Y-82244863D01*
X132404610Y-81890924D01*
X132119056Y-81512810D01*
X131947477Y-81285249D01*
X131651347Y-80892004D01*
X131369068Y-80516638D01*
X131105033Y-80165022D01*
X130863634Y-79843031D01*
X130649263Y-79556538D01*
X130466312Y-79311417D01*
X130319174Y-79113542D01*
X130212241Y-78968785D01*
X130149906Y-78883021D01*
X130136436Y-78863468D01*
X130106364Y-78810156D01*
X130090358Y-78754861D01*
X130088753Y-78677540D01*
X130101881Y-78558151D01*
X130130075Y-78376650D01*
X130146136Y-78279208D01*
X130224775Y-77704993D01*
X130267591Y-77156411D01*
X130270641Y-76927364D01*
X130906463Y-76927364D01*
X131115737Y-77453743D01*
X131275837Y-77842460D01*
X131422681Y-78171088D01*
X131553562Y-78434616D01*
X131665772Y-78628037D01*
X131756604Y-78746339D01*
X131823350Y-78784514D01*
X131833669Y-78782050D01*
X131856404Y-78729711D01*
X131863715Y-78620813D01*
X131862312Y-78585043D01*
X131841274Y-78417796D01*
X131798423Y-78198980D01*
X131739196Y-77947755D01*
X131669033Y-77683280D01*
X131593373Y-77424713D01*
X131517654Y-77191213D01*
X131447315Y-77001940D01*
X131387796Y-76876051D01*
X131369583Y-76849347D01*
X131279503Y-76794050D01*
X131157827Y-76779901D01*
X131041119Y-76807592D01*
X130990990Y-76842203D01*
X130906463Y-76927364D01*
X130270641Y-76927364D01*
X130274370Y-76647477D01*
X130244893Y-76192210D01*
X130184049Y-75826215D01*
X130161758Y-75709720D01*
X130156642Y-75637152D01*
X130159136Y-75628968D01*
X130196087Y-75642828D01*
G36*
X174264818Y-77764077D02*
X174480130Y-77783178D01*
X174655448Y-77813987D01*
X174774628Y-77854953D01*
X174790308Y-77864230D01*
X174883473Y-77947483D01*
X174992869Y-78077476D01*
X175108334Y-78237619D01*
X175219705Y-78411320D01*
X175316822Y-78581987D01*
X175389522Y-78733029D01*
X175427644Y-78847853D01*
X175426323Y-78902675D01*
X175397126Y-78944346D01*
X175321827Y-79047192D01*
X175205586Y-79204334D01*
X175053562Y-79408891D01*
X174870914Y-79653985D01*
X174662803Y-79932735D01*
X174434387Y-80238261D01*
X174190827Y-80563683D01*
X173937282Y-80902122D01*
X173678911Y-81246698D01*
X173420875Y-81590531D01*
X173168332Y-81926741D01*
X172926443Y-82248448D01*
X172700366Y-82548772D01*
X172495262Y-82820834D01*
X172316290Y-83057754D01*
X172168610Y-83252651D01*
X172057381Y-83398647D01*
X171987763Y-83488860D01*
X171972326Y-83508273D01*
X171911503Y-83578531D01*
X171890317Y-83584214D01*
X171896689Y-83531364D01*
X171911057Y-83472163D01*
X171946287Y-83332578D01*
X172000403Y-83120298D01*
X172071427Y-82843013D01*
X172157384Y-82508412D01*
X172256299Y-82124184D01*
X172366195Y-81698021D01*
X172485095Y-81237610D01*
X172611024Y-80750643D01*
X172645627Y-80616945D01*
X173376148Y-77794890D01*
X173778797Y-77767190D01*
X174025659Y-77758231D01*
X174264818Y-77764077D01*
X174264818Y-77764077D01*
G37*
X174264818Y-77764077D02*
X174480130Y-77783178D01*
X174655448Y-77813987D01*
X174774628Y-77854953D01*
X174790308Y-77864230D01*
X174883473Y-77947483D01*
X174992869Y-78077476D01*
X175108334Y-78237619D01*
X175219705Y-78411320D01*
X175316822Y-78581987D01*
X175389522Y-78733029D01*
X175427644Y-78847853D01*
X175426323Y-78902675D01*
X175397126Y-78944346D01*
X175321827Y-79047192D01*
X175205586Y-79204334D01*
X175053562Y-79408891D01*
X174870914Y-79653985D01*
X174662803Y-79932735D01*
X174434387Y-80238261D01*
X174190827Y-80563683D01*
X173937282Y-80902122D01*
X173678911Y-81246698D01*
X173420875Y-81590531D01*
X173168332Y-81926741D01*
X172926443Y-82248448D01*
X172700366Y-82548772D01*
X172495262Y-82820834D01*
X172316290Y-83057754D01*
X172168610Y-83252651D01*
X172057381Y-83398647D01*
X171987763Y-83488860D01*
X171972326Y-83508273D01*
X171911503Y-83578531D01*
X171890317Y-83584214D01*
X171896689Y-83531364D01*
X171911057Y-83472163D01*
X171946287Y-83332578D01*
X172000403Y-83120298D01*
X172071427Y-82843013D01*
X172157384Y-82508412D01*
X172256299Y-82124184D01*
X172366195Y-81698021D01*
X172485095Y-81237610D01*
X172611024Y-80750643D01*
X172645627Y-80616945D01*
X173376148Y-77794890D01*
X173778797Y-77767190D01*
X174025659Y-77758231D01*
X174264818Y-77764077D01*
D12*
X151384000Y-128778000D03*
X153924000Y-128778000D03*
D13*
X142016000Y-119253000D03*
X142016000Y-116713000D03*
X142016000Y-114173000D03*
X142016000Y-111633000D03*
X142016000Y-109093000D03*
X142016000Y-106553000D03*
X142016000Y-104013000D03*
X142016000Y-101473000D03*
X142016000Y-98933000D03*
X142016000Y-96393000D03*
X142016000Y-93853000D03*
X142016000Y-91313000D03*
X142016000Y-88773000D03*
X142016000Y-86233000D03*
X142016000Y-83693000D03*
D14*
X114016000Y-83693000D03*
D13*
X114016000Y-86233000D03*
X114016000Y-88773000D03*
X114016000Y-91313000D03*
X114016000Y-93853000D03*
X114016000Y-96393000D03*
X114016000Y-98933000D03*
X114016000Y-101473000D03*
X114016000Y-104013000D03*
X114016000Y-106553000D03*
X114016000Y-109093000D03*
X114016000Y-111633000D03*
X114016000Y-114173000D03*
X114016000Y-116713000D03*
X114016000Y-119253000D03*
D15*
X147066000Y-81026000D03*
D16*
X147066000Y-83566000D03*
X147066000Y-86106000D03*
X147066000Y-88646000D03*
X147066000Y-91186000D03*
X147066000Y-93726000D03*
X147066000Y-96266000D03*
X147066000Y-98806000D03*
X147066000Y-101346000D03*
X147066000Y-103886000D03*
X147066000Y-106426000D03*
X147066000Y-108966000D03*
X147066000Y-111506000D03*
X147066000Y-114046000D03*
X147066000Y-116586000D03*
X147066000Y-119126000D03*
D15*
X159512000Y-109220000D03*
D16*
X159512000Y-106680000D03*
X159512000Y-104140000D03*
X159512000Y-101600000D03*
X159512000Y-99060000D03*
X159512000Y-96520000D03*
X159512000Y-93980000D03*
X159512000Y-91440000D03*
M02*
