M48
;DRILL file {KiCad 4.0.4+e1-6308~48~ubuntu16.04.1-stable} date Tue Jan 10 15:15:52 2017
;FORMAT={-:-/ absolute / inch / decimal}
FMAT,2
INCH,TZ
T1C0.016
T2C0.039
T3C0.039
T4C0.040
%
G90
G05
M72
T1
X4.67Y-3.395
X5.445Y-4.365
X5.45Y-3.63
X5.485Y-4.345
X5.9Y-4.09
X5.9Y-4.24
X5.925Y-3.79
X5.93Y-3.44
X5.96Y-3.735
X5.965Y-3.34
X5.965Y-3.685
X5.97Y-4.055
X5.97Y-4.19
T2
X5.96Y-5.07
X6.06Y-5.07
T3
X5.79Y-3.19
X5.79Y-3.29
X5.79Y-3.39
X5.79Y-3.49
X5.79Y-3.59
X5.79Y-3.69
X5.79Y-3.79
X5.79Y-3.89
X5.79Y-3.99
X5.79Y-4.09
X5.79Y-4.19
X5.79Y-4.29
X5.79Y-4.39
X5.79Y-4.49
X5.79Y-4.59
X5.79Y-4.69
X6.28Y-3.6
X6.28Y-3.7
X6.28Y-3.8
X6.28Y-3.9
X6.28Y-4.
X6.28Y-4.1
X6.28Y-4.2
X6.28Y-4.3
T4
X4.4888Y-3.295
X4.4888Y-3.395
X4.4888Y-3.495
X4.4888Y-3.595
X4.4888Y-3.695
X4.4888Y-3.795
X4.4888Y-3.895
X4.4888Y-3.995
X4.4888Y-4.095
X4.4888Y-4.195
X4.4888Y-4.295
X4.4888Y-4.395
X4.4888Y-4.495
X4.4888Y-4.595
X4.4888Y-4.695
X5.5912Y-3.295
X5.5912Y-3.395
X5.5912Y-3.495
X5.5912Y-3.595
X5.5912Y-3.695
X5.5912Y-3.795
X5.5912Y-3.895
X5.5912Y-3.995
X5.5912Y-4.095
X5.5912Y-4.195
X5.5912Y-4.295
X5.5912Y-4.395
X5.5912Y-4.495
X5.5912Y-4.595
X5.5912Y-4.695
T0
M30
