G04 #@! TF.FileFunction,Copper,L1,Top,Signal*
%FSLAX46Y46*%
G04 Gerber Fmt 4.6, Leading zero omitted, Abs format (unit mm)*
G04 Created by KiCad (PCBNEW 4.0.4+e1-6308~48~ubuntu16.04.1-stable) date Mon Jan  2 16:02:27 2017*
%MOMM*%
%LPD*%
G01*
G04 APERTURE LIST*
%ADD10C,0.100000*%
%ADD11O,1.506220X3.014980*%
%ADD12O,2.032000X1.727200*%
%ADD13R,2.032000X1.727200*%
%ADD14R,1.700000X1.700000*%
%ADD15O,1.700000X1.700000*%
%ADD16C,0.600000*%
%ADD17C,1.000000*%
%ADD18C,0.250000*%
%ADD19C,0.254000*%
G04 APERTURE END LIST*
D10*
D11*
X151384000Y-128778000D03*
X153924000Y-128778000D03*
D12*
X142016000Y-119253000D03*
X142016000Y-116713000D03*
X142016000Y-114173000D03*
X142016000Y-111633000D03*
X142016000Y-109093000D03*
X142016000Y-106553000D03*
X142016000Y-104013000D03*
X142016000Y-101473000D03*
X142016000Y-98933000D03*
X142016000Y-96393000D03*
X142016000Y-93853000D03*
X142016000Y-91313000D03*
X142016000Y-88773000D03*
X142016000Y-86233000D03*
X142016000Y-83693000D03*
D13*
X114016000Y-83693000D03*
D12*
X114016000Y-86233000D03*
X114016000Y-88773000D03*
X114016000Y-91313000D03*
X114016000Y-93853000D03*
X114016000Y-96393000D03*
X114016000Y-98933000D03*
X114016000Y-101473000D03*
X114016000Y-104013000D03*
X114016000Y-106553000D03*
X114016000Y-109093000D03*
X114016000Y-111633000D03*
X114016000Y-114173000D03*
X114016000Y-116713000D03*
X114016000Y-119253000D03*
D14*
X147066000Y-81026000D03*
D15*
X147066000Y-83566000D03*
X147066000Y-86106000D03*
X147066000Y-88646000D03*
X147066000Y-91186000D03*
X147066000Y-93726000D03*
X147066000Y-96266000D03*
X147066000Y-98806000D03*
X147066000Y-101346000D03*
X147066000Y-103886000D03*
X147066000Y-106426000D03*
X147066000Y-108966000D03*
X147066000Y-111506000D03*
X147066000Y-114046000D03*
X147066000Y-116586000D03*
X147066000Y-119126000D03*
D14*
X159512000Y-109220000D03*
D15*
X159512000Y-106680000D03*
X159512000Y-104140000D03*
X159512000Y-101600000D03*
X159512000Y-99060000D03*
X159512000Y-96520000D03*
X159512000Y-93980000D03*
X159512000Y-91440000D03*
D16*
X118618000Y-86233000D03*
X151384000Y-94869000D03*
X162814000Y-113919000D03*
X162687000Y-86360000D03*
X149860000Y-103886000D03*
X149860000Y-107696000D03*
X139319000Y-110363000D03*
X151638000Y-106426000D03*
X151638000Y-102997000D03*
X138430000Y-92202000D03*
X138303000Y-110871000D03*
X150495000Y-96266000D03*
X150622000Y-87376000D03*
X151511000Y-93599000D03*
X151511000Y-84836000D03*
X137160000Y-111506000D03*
X136652000Y-93853000D03*
D17*
X151384000Y-128778000D02*
X146558000Y-128778000D01*
D18*
X115316000Y-119253000D02*
X114016000Y-119253000D01*
D17*
X118110000Y-116459000D02*
X115316000Y-119253000D01*
X118745000Y-116459000D02*
X118110000Y-116459000D01*
X119761000Y-117475000D02*
X118745000Y-116459000D01*
X129413000Y-117475000D02*
X119761000Y-117475000D01*
X131318000Y-115570000D02*
X129413000Y-117475000D01*
X131318000Y-113792000D02*
X131318000Y-115570000D01*
X133223000Y-111887000D02*
X131318000Y-113792000D01*
X134620000Y-111887000D02*
X133223000Y-111887000D01*
X139192000Y-116459000D02*
X134620000Y-111887000D01*
X139192000Y-121412000D02*
X139192000Y-116459000D01*
X146558000Y-128778000D02*
X139192000Y-121412000D01*
D18*
X147066000Y-81026000D02*
X139700000Y-81026000D01*
D17*
X118618000Y-86233000D02*
X114016000Y-86233000D01*
X121158000Y-88773000D02*
X118618000Y-86233000D01*
X134366000Y-88773000D02*
X121158000Y-88773000D01*
D18*
X136271000Y-86868000D02*
X134366000Y-88773000D01*
X136271000Y-84455000D02*
X136271000Y-86868000D01*
X139700000Y-81026000D02*
X136271000Y-84455000D01*
X159512000Y-96520000D02*
X152654000Y-96520000D01*
X143764000Y-98933000D02*
X142016000Y-98933000D01*
X145161000Y-97536000D02*
X143764000Y-98933000D01*
X151638000Y-97536000D02*
X145161000Y-97536000D01*
X152654000Y-96520000D02*
X151638000Y-97536000D01*
X153924000Y-128778000D02*
X153924000Y-124968000D01*
X143256000Y-116713000D02*
X142016000Y-116713000D01*
X144653000Y-118110000D02*
X143256000Y-116713000D01*
X144653000Y-120650000D02*
X144653000Y-118110000D01*
X147701000Y-123698000D02*
X144653000Y-120650000D01*
X152654000Y-123698000D02*
X147701000Y-123698000D01*
X153924000Y-124968000D02*
X152654000Y-123698000D01*
D17*
X114016000Y-109093000D02*
X133350000Y-109093000D01*
D18*
X140335000Y-119253000D02*
X142016000Y-119253000D01*
X140081000Y-118999000D02*
X140335000Y-119253000D01*
X140081000Y-115824000D02*
X140081000Y-118999000D01*
X133350000Y-109093000D02*
X140081000Y-115824000D01*
D17*
X142016000Y-96393000D02*
X132334000Y-96393000D01*
D18*
X119634000Y-109093000D02*
X114016000Y-109093000D01*
D17*
X132334000Y-96393000D02*
X119634000Y-109093000D01*
D18*
X143510000Y-96393000D02*
X142016000Y-96393000D01*
D17*
X144907000Y-94996000D02*
X143510000Y-96393000D01*
D18*
X151257000Y-94996000D02*
X144907000Y-94996000D01*
X151384000Y-94869000D02*
X151257000Y-94996000D01*
X147066000Y-88646000D02*
X151892000Y-88646000D01*
X143637000Y-114173000D02*
X142016000Y-114173000D01*
X145034000Y-112776000D02*
X143637000Y-114173000D01*
X161671000Y-112776000D02*
X145034000Y-112776000D01*
D17*
X162814000Y-113919000D02*
X161671000Y-112776000D01*
X154178000Y-86360000D02*
X162687000Y-86360000D01*
X151892000Y-88646000D02*
X154178000Y-86360000D01*
D18*
X142016000Y-109093000D02*
X143256000Y-109093000D01*
X149860000Y-103886000D02*
X147066000Y-103886000D01*
X144653000Y-107696000D02*
X149860000Y-107696000D01*
X143256000Y-109093000D02*
X144653000Y-107696000D01*
D17*
X159512000Y-104140000D02*
X157734000Y-104140000D01*
D18*
X143413000Y-105156000D02*
X142016000Y-106553000D01*
X156718000Y-105156000D02*
X143413000Y-105156000D01*
D17*
X157734000Y-104140000D02*
X156718000Y-105156000D01*
D18*
X147066000Y-108966000D02*
X145161000Y-108966000D01*
X143764000Y-110363000D02*
X139319000Y-110363000D01*
X145161000Y-108966000D02*
X143764000Y-110363000D01*
X147066000Y-108966000D02*
X155067000Y-108966000D01*
D17*
X162306000Y-101600000D02*
X159512000Y-101600000D01*
X162814000Y-102108000D02*
X162306000Y-101600000D01*
X162814000Y-105283000D02*
X162814000Y-102108000D01*
D18*
X160147000Y-107950000D02*
X162814000Y-105283000D01*
X156083000Y-107950000D02*
X160147000Y-107950000D01*
X155067000Y-108966000D02*
X156083000Y-107950000D01*
X147066000Y-101346000D02*
X147955000Y-101346000D01*
D17*
X151638000Y-106426000D02*
X152908000Y-106426000D01*
D18*
X149606000Y-102997000D02*
X151638000Y-102997000D01*
X147955000Y-101346000D02*
X149606000Y-102997000D01*
D17*
X142016000Y-101473000D02*
X144272000Y-101473000D01*
X144399000Y-101346000D02*
X147066000Y-101346000D01*
X144272000Y-101473000D02*
X144399000Y-101346000D01*
X147066000Y-106426000D02*
X152908000Y-106426000D01*
X152908000Y-106426000D02*
X155448000Y-106426000D01*
X155448000Y-106426000D02*
X155702000Y-106680000D01*
X155702000Y-106680000D02*
X159512000Y-106680000D01*
D18*
X139319000Y-112014000D02*
X139319000Y-111887000D01*
D17*
X156591000Y-109220000D02*
X155575000Y-110236000D01*
D18*
X155575000Y-110236000D02*
X145923000Y-110236000D01*
X145923000Y-110236000D02*
X143256000Y-112903000D01*
X143256000Y-112903000D02*
X140208000Y-112903000D01*
X140208000Y-112903000D02*
X139319000Y-112014000D01*
D17*
X159512000Y-109220000D02*
X156591000Y-109220000D01*
X139319000Y-91313000D02*
X142016000Y-91313000D01*
X138430000Y-92202000D02*
X139319000Y-91313000D01*
D18*
X139319000Y-111887000D02*
X138303000Y-110871000D01*
X142016000Y-88773000D02*
X143383000Y-88773000D01*
X150495000Y-96266000D02*
X147066000Y-96266000D01*
X144780000Y-87376000D02*
X150622000Y-87376000D01*
X143383000Y-88773000D02*
X144780000Y-87376000D01*
X142016000Y-83693000D02*
X143510000Y-83693000D01*
X151384000Y-93726000D02*
X147066000Y-93726000D01*
X151511000Y-93599000D02*
X151384000Y-93726000D01*
X144653000Y-84836000D02*
X151511000Y-84836000D01*
X143510000Y-83693000D02*
X144653000Y-84836000D01*
D17*
X159512000Y-93980000D02*
X155067000Y-93980000D01*
X118364000Y-91313000D02*
X114016000Y-91313000D01*
X119634000Y-90043000D02*
X118364000Y-91313000D01*
D18*
X144399000Y-90043000D02*
X119634000Y-90043000D01*
X144526000Y-89916000D02*
X144399000Y-90043000D01*
X151003000Y-89916000D02*
X144526000Y-89916000D01*
D17*
X155067000Y-93980000D02*
X151003000Y-89916000D01*
D18*
X137160000Y-111633000D02*
X137160000Y-111506000D01*
X140843000Y-115443000D02*
X137160000Y-111633000D01*
X144907000Y-115443000D02*
X140843000Y-115443000D01*
X146304000Y-114046000D02*
X144907000Y-115443000D01*
D17*
X136652000Y-93853000D02*
X114016000Y-93853000D01*
D18*
X147066000Y-114046000D02*
X146304000Y-114046000D01*
D19*
G36*
X169606409Y-82355094D02*
X169606409Y-82355095D01*
X169614057Y-85934185D01*
X169634431Y-86035480D01*
X169647814Y-86137930D01*
X169658914Y-86157199D01*
X169663298Y-86178998D01*
X169720883Y-86264783D01*
X169772455Y-86354315D01*
X170029802Y-86648360D01*
X170044251Y-86659470D01*
X170054219Y-86674726D01*
X170406800Y-87034647D01*
X170443410Y-87059658D01*
X170472519Y-87093097D01*
X170849501Y-87384569D01*
X170900143Y-87409774D01*
X170944186Y-87445284D01*
X171325532Y-87644880D01*
X171390069Y-87663847D01*
X171450076Y-87694240D01*
X171836304Y-87802164D01*
X171909925Y-87807780D01*
X171981673Y-87825212D01*
X172354604Y-87840882D01*
X172525476Y-112745463D01*
X172456336Y-112624811D01*
X172415170Y-112577563D01*
X172384077Y-112523157D01*
X172309620Y-112437498D01*
X172253520Y-112394058D01*
X172205651Y-112341691D01*
X172155744Y-112318346D01*
X172112178Y-112284611D01*
X172043726Y-112265946D01*
X171979459Y-112235884D01*
X171906254Y-112217877D01*
X171901011Y-112217642D01*
X171896224Y-112215496D01*
X171776492Y-112212055D01*
X171656789Y-112206684D01*
X171651856Y-112208473D01*
X171646611Y-112208322D01*
X171534639Y-112250976D01*
X171422030Y-112291809D01*
X171418158Y-112295348D01*
X171413255Y-112297216D01*
X171330465Y-112349157D01*
X171256940Y-112418574D01*
X171178384Y-112482236D01*
X171075180Y-112606421D01*
X171059984Y-112634433D01*
X171037318Y-112656838D01*
X170902866Y-112855560D01*
X170901421Y-112858992D01*
X170898805Y-112861638D01*
X170866547Y-112910510D01*
X170697541Y-113150249D01*
X170491807Y-113422005D01*
X170261955Y-113710222D01*
X170023841Y-113995473D01*
X169793561Y-114258477D01*
X169588521Y-114479049D01*
X169424186Y-114640199D01*
X169365930Y-114691327D01*
X169180389Y-114840505D01*
X168985081Y-114983326D01*
X168811863Y-115096295D01*
X168455156Y-115308832D01*
X168368018Y-115387396D01*
X168279043Y-115463817D01*
X168275508Y-115470804D01*
X168269692Y-115476047D01*
X168219265Y-115581950D01*
X168166295Y-115686629D01*
X167955202Y-116443160D01*
X167927173Y-116543057D01*
X167471551Y-118035888D01*
X166968331Y-119454281D01*
X166414938Y-120806278D01*
X165810545Y-122094130D01*
X165154287Y-123320121D01*
X164445182Y-124486651D01*
X163682177Y-125596113D01*
X162863521Y-126651675D01*
X162087332Y-127546823D01*
X161241525Y-128418963D01*
X160358180Y-129227024D01*
X159429288Y-129978147D01*
X158446826Y-130679063D01*
X157397189Y-131339686D01*
X157163346Y-131476205D01*
X156602506Y-131788746D01*
X156039356Y-132080764D01*
X155456767Y-132360580D01*
X154839666Y-132635192D01*
X154173371Y-132911304D01*
X153440998Y-133196421D01*
X152798594Y-133439762D01*
X152194411Y-133207985D01*
X152039642Y-133148389D01*
X151391252Y-132892982D01*
X150806782Y-132652208D01*
X150273610Y-132420326D01*
X149780294Y-132192078D01*
X149314702Y-131961851D01*
X148864809Y-131723990D01*
X148418302Y-131472555D01*
X147966496Y-131203622D01*
X147148959Y-130680370D01*
X146167131Y-129978428D01*
X145240894Y-129228597D01*
X144359647Y-128422056D01*
X143514594Y-127550914D01*
X142695593Y-126605293D01*
X142373837Y-126198969D01*
X145755434Y-129580566D01*
X146123654Y-129826603D01*
X146558000Y-129913000D01*
X150063251Y-129913000D01*
X150101554Y-130105561D01*
X150402458Y-130555896D01*
X150852793Y-130856800D01*
X151384000Y-130962464D01*
X151915207Y-130856800D01*
X152365542Y-130555896D01*
X152666446Y-130105561D01*
X152667016Y-130102694D01*
X152690154Y-130180919D01*
X153032260Y-130603724D01*
X153510125Y-130863427D01*
X153582326Y-130877783D01*
X153797000Y-130755162D01*
X153797000Y-128905000D01*
X154051000Y-128905000D01*
X154051000Y-130755162D01*
X154265674Y-130877783D01*
X154337875Y-130863427D01*
X154815740Y-130603724D01*
X155157846Y-130180919D01*
X155312110Y-129659380D01*
X155312110Y-128905000D01*
X154051000Y-128905000D01*
X153797000Y-128905000D01*
X153777000Y-128905000D01*
X153777000Y-128651000D01*
X153797000Y-128651000D01*
X153797000Y-126800838D01*
X154051000Y-126800838D01*
X154051000Y-128651000D01*
X155312110Y-128651000D01*
X155312110Y-127896620D01*
X155157846Y-127375081D01*
X154815740Y-126952276D01*
X154337875Y-126692573D01*
X154265674Y-126678217D01*
X154051000Y-126800838D01*
X153797000Y-126800838D01*
X153582326Y-126678217D01*
X153510125Y-126692573D01*
X153032260Y-126952276D01*
X152690154Y-127375081D01*
X152667016Y-127453306D01*
X152666446Y-127450439D01*
X152365542Y-127000104D01*
X151915207Y-126699200D01*
X151384000Y-126593536D01*
X150852793Y-126699200D01*
X150402458Y-127000104D01*
X150101554Y-127450439D01*
X150063251Y-127643000D01*
X147028132Y-127643000D01*
X140327000Y-120941868D01*
X140327000Y-120011409D01*
X140335000Y-120013000D01*
X140571352Y-120013000D01*
X140771585Y-120312670D01*
X141257766Y-120637526D01*
X141831255Y-120751600D01*
X142200745Y-120751600D01*
X142774234Y-120637526D01*
X143260415Y-120312670D01*
X143585271Y-119826489D01*
X143699345Y-119253000D01*
X143585271Y-118679511D01*
X143260415Y-118193330D01*
X142950931Y-117986539D01*
X143366732Y-117615036D01*
X143620709Y-117087791D01*
X143623358Y-117072026D01*
X143502217Y-116840000D01*
X142143000Y-116840000D01*
X142143000Y-116860000D01*
X141889000Y-116860000D01*
X141889000Y-116840000D01*
X141869000Y-116840000D01*
X141869000Y-116586000D01*
X141889000Y-116586000D01*
X141889000Y-116566000D01*
X142143000Y-116566000D01*
X142143000Y-116586000D01*
X143502217Y-116586000D01*
X143623358Y-116353974D01*
X143620709Y-116338209D01*
X143555578Y-116203000D01*
X144907000Y-116203000D01*
X145197839Y-116145148D01*
X145444401Y-115980401D01*
X146191804Y-115232998D01*
X146316026Y-115316000D01*
X145986853Y-115535946D01*
X145664946Y-116017715D01*
X145551907Y-116586000D01*
X145664946Y-117154285D01*
X145986853Y-117636054D01*
X146316026Y-117856000D01*
X145986853Y-118075946D01*
X145664946Y-118557715D01*
X145551907Y-119126000D01*
X145664946Y-119694285D01*
X145986853Y-120176054D01*
X146468622Y-120497961D01*
X147036907Y-120611000D01*
X147095093Y-120611000D01*
X147663378Y-120497961D01*
X148145147Y-120176054D01*
X148467054Y-119694285D01*
X148580093Y-119126000D01*
X148467054Y-118557715D01*
X148145147Y-118075946D01*
X147815974Y-117856000D01*
X148145147Y-117636054D01*
X148467054Y-117154285D01*
X148580093Y-116586000D01*
X148467054Y-116017715D01*
X148145147Y-115535946D01*
X147815974Y-115316000D01*
X148145147Y-115096054D01*
X148467054Y-114614285D01*
X148580093Y-114046000D01*
X148478648Y-113536000D01*
X160839992Y-113536000D01*
X160868434Y-113578566D01*
X162011434Y-114721566D01*
X162379655Y-114967603D01*
X162814000Y-115054000D01*
X163248345Y-114967603D01*
X163616566Y-114721566D01*
X163862603Y-114353345D01*
X163949000Y-113919000D01*
X163862603Y-113484655D01*
X163616566Y-113116434D01*
X162473566Y-111973434D01*
X162105345Y-111727397D01*
X161671000Y-111641000D01*
X161236655Y-111727397D01*
X160868434Y-111973434D01*
X160839992Y-112016000D01*
X148478648Y-112016000D01*
X148580093Y-111506000D01*
X148478648Y-110996000D01*
X154743992Y-110996000D01*
X154772434Y-111038566D01*
X155140655Y-111284603D01*
X155575000Y-111371000D01*
X156009345Y-111284603D01*
X156377566Y-111038566D01*
X157061132Y-110355000D01*
X158090808Y-110355000D01*
X158197910Y-110521441D01*
X158410110Y-110666431D01*
X158662000Y-110717440D01*
X160362000Y-110717440D01*
X160597317Y-110673162D01*
X160813441Y-110534090D01*
X160958431Y-110321890D01*
X161009440Y-110070000D01*
X161009440Y-108370000D01*
X160976557Y-108195245D01*
X162763790Y-106408012D01*
X162814000Y-106418000D01*
X163248346Y-106331603D01*
X163616566Y-106085566D01*
X163862603Y-105717346D01*
X163949000Y-105283000D01*
X163949000Y-102108000D01*
X163862603Y-101673654D01*
X163783934Y-101555918D01*
X163616566Y-101305433D01*
X163108566Y-100797434D01*
X163079054Y-100777715D01*
X162740346Y-100551397D01*
X162306000Y-100465000D01*
X160464016Y-100465000D01*
X160261974Y-100330000D01*
X160591147Y-100110054D01*
X160913054Y-99628285D01*
X161026093Y-99060000D01*
X160913054Y-98491715D01*
X160591147Y-98009946D01*
X160250447Y-97782298D01*
X160393358Y-97715183D01*
X160783645Y-97286924D01*
X160953476Y-96876890D01*
X160832155Y-96647000D01*
X159639000Y-96647000D01*
X159639000Y-96667000D01*
X159385000Y-96667000D01*
X159385000Y-96647000D01*
X158191845Y-96647000D01*
X158070524Y-96876890D01*
X158240355Y-97286924D01*
X158630642Y-97715183D01*
X158773553Y-97782298D01*
X158432853Y-98009946D01*
X158110946Y-98491715D01*
X157997907Y-99060000D01*
X158110946Y-99628285D01*
X158432853Y-100110054D01*
X158762026Y-100330000D01*
X158432853Y-100549946D01*
X158110946Y-101031715D01*
X157997907Y-101600000D01*
X158110946Y-102168285D01*
X158432853Y-102650054D01*
X158762026Y-102870000D01*
X158559984Y-103005000D01*
X157734000Y-103005000D01*
X157299654Y-103091397D01*
X157072766Y-103242999D01*
X156931434Y-103337434D01*
X155915434Y-104353434D01*
X155886992Y-104396000D01*
X150660633Y-104396000D01*
X150794838Y-104072799D01*
X150795113Y-103757000D01*
X151075537Y-103757000D01*
X151107673Y-103789192D01*
X151451201Y-103931838D01*
X151823167Y-103932162D01*
X152166943Y-103790117D01*
X152430192Y-103527327D01*
X152572838Y-103183799D01*
X152573162Y-102811833D01*
X152431117Y-102468057D01*
X152168327Y-102204808D01*
X151824799Y-102062162D01*
X151452833Y-102061838D01*
X151109057Y-102203883D01*
X151075882Y-102237000D01*
X149920802Y-102237000D01*
X148492401Y-100808599D01*
X148470254Y-100793801D01*
X148467054Y-100777715D01*
X148145147Y-100295946D01*
X147815974Y-100076000D01*
X148145147Y-99856054D01*
X148467054Y-99374285D01*
X148580093Y-98806000D01*
X148467054Y-98237715D01*
X148145147Y-97755946D01*
X147815974Y-97536000D01*
X148145147Y-97316054D01*
X148338954Y-97026000D01*
X149932537Y-97026000D01*
X149964673Y-97058192D01*
X150308201Y-97200838D01*
X150680167Y-97201162D01*
X151023943Y-97059117D01*
X151287192Y-96796327D01*
X151429838Y-96452799D01*
X151430162Y-96080833D01*
X151315753Y-95803941D01*
X151569167Y-95804162D01*
X151912943Y-95662117D01*
X152176192Y-95399327D01*
X152318838Y-95055799D01*
X152319162Y-94683833D01*
X152177117Y-94340057D01*
X152134680Y-94297546D01*
X152303192Y-94129327D01*
X152445838Y-93785799D01*
X152446162Y-93413833D01*
X152304117Y-93070057D01*
X152041327Y-92806808D01*
X151697799Y-92664162D01*
X151325833Y-92663838D01*
X150982057Y-92805883D01*
X150821660Y-92966000D01*
X148338954Y-92966000D01*
X148145147Y-92675946D01*
X147815974Y-92456000D01*
X148145147Y-92236054D01*
X148467054Y-91754285D01*
X148580093Y-91186000D01*
X148478648Y-90676000D01*
X150171992Y-90676000D01*
X150200434Y-90718566D01*
X154264434Y-94782566D01*
X154632654Y-95028603D01*
X155067000Y-95115000D01*
X158559984Y-95115000D01*
X158773553Y-95257702D01*
X158630642Y-95324817D01*
X158240355Y-95753076D01*
X158070524Y-96163110D01*
X158191845Y-96393000D01*
X159385000Y-96393000D01*
X159385000Y-96373000D01*
X159639000Y-96373000D01*
X159639000Y-96393000D01*
X160832155Y-96393000D01*
X160953476Y-96163110D01*
X160783645Y-95753076D01*
X160393358Y-95324817D01*
X160250447Y-95257702D01*
X160591147Y-95030054D01*
X160913054Y-94548285D01*
X161026093Y-93980000D01*
X160913054Y-93411715D01*
X160591147Y-92929946D01*
X160261974Y-92710000D01*
X160591147Y-92490054D01*
X160913054Y-92008285D01*
X161026093Y-91440000D01*
X160913054Y-90871715D01*
X160591147Y-90389946D01*
X160109378Y-90068039D01*
X159541093Y-89955000D01*
X159482907Y-89955000D01*
X158914622Y-90068039D01*
X158432853Y-90389946D01*
X158110946Y-90871715D01*
X157997907Y-91440000D01*
X158110946Y-92008285D01*
X158432853Y-92490054D01*
X158762026Y-92710000D01*
X158559984Y-92845000D01*
X155537132Y-92845000D01*
X152362546Y-89670414D01*
X152694566Y-89448566D01*
X154648132Y-87495000D01*
X162687000Y-87495000D01*
X163121346Y-87408603D01*
X163489566Y-87162566D01*
X163735603Y-86794346D01*
X163822000Y-86360000D01*
X163735603Y-85925654D01*
X163489566Y-85557434D01*
X163121346Y-85311397D01*
X162687000Y-85225000D01*
X154178000Y-85225000D01*
X153743654Y-85311397D01*
X153425789Y-85523788D01*
X153375434Y-85557434D01*
X151557001Y-87375867D01*
X151557162Y-87190833D01*
X151415117Y-86847057D01*
X151152327Y-86583808D01*
X150808799Y-86441162D01*
X150436833Y-86440838D01*
X150093057Y-86582883D01*
X150059882Y-86616000D01*
X148478648Y-86616000D01*
X148580093Y-86106000D01*
X148478648Y-85596000D01*
X150948537Y-85596000D01*
X150980673Y-85628192D01*
X151324201Y-85770838D01*
X151696167Y-85771162D01*
X152039943Y-85629117D01*
X152303192Y-85366327D01*
X152445838Y-85022799D01*
X152446162Y-84650833D01*
X152304117Y-84307057D01*
X152041327Y-84043808D01*
X151697799Y-83901162D01*
X151325833Y-83900838D01*
X150982057Y-84042883D01*
X150948882Y-84076000D01*
X148478648Y-84076000D01*
X148580093Y-83566000D01*
X148467054Y-82997715D01*
X148145147Y-82515946D01*
X148101223Y-82486597D01*
X148275698Y-82414327D01*
X148454327Y-82235699D01*
X148551000Y-82002310D01*
X148551000Y-81311750D01*
X148392250Y-81153000D01*
X147193000Y-81153000D01*
X147193000Y-81173000D01*
X146939000Y-81173000D01*
X146939000Y-81153000D01*
X145739750Y-81153000D01*
X145581000Y-81311750D01*
X145581000Y-82002310D01*
X145677673Y-82235699D01*
X145856302Y-82414327D01*
X146030777Y-82486597D01*
X145986853Y-82515946D01*
X145664946Y-82997715D01*
X145551907Y-83566000D01*
X145653352Y-84076000D01*
X144967802Y-84076000D01*
X144047401Y-83155599D01*
X143800839Y-82990852D01*
X143510000Y-82933000D01*
X143460648Y-82933000D01*
X143260415Y-82633330D01*
X142774234Y-82308474D01*
X142200745Y-82194400D01*
X141831255Y-82194400D01*
X141257766Y-82308474D01*
X140771585Y-82633330D01*
X140446729Y-83119511D01*
X140332655Y-83693000D01*
X140446729Y-84266489D01*
X140771585Y-84752670D01*
X141086366Y-84963000D01*
X140771585Y-85173330D01*
X140446729Y-85659511D01*
X140332655Y-86233000D01*
X140446729Y-86806489D01*
X140771585Y-87292670D01*
X141086366Y-87503000D01*
X140771585Y-87713330D01*
X140446729Y-88199511D01*
X140332655Y-88773000D01*
X140434100Y-89283000D01*
X134747000Y-89283000D01*
X134747000Y-87386516D01*
X135027734Y-87112234D01*
X135058025Y-87068022D01*
X135097454Y-87031728D01*
X135383496Y-86639765D01*
X135402872Y-86597968D01*
X135431978Y-86562253D01*
X135680190Y-86094033D01*
X135686087Y-86074350D01*
X135698035Y-86057630D01*
X135906542Y-85595812D01*
X135908425Y-85587689D01*
X135913095Y-85580786D01*
X135936542Y-85466373D01*
X135962923Y-85352545D01*
X135961554Y-85344320D01*
X135963227Y-85336155D01*
X135982183Y-82057246D01*
X135993788Y-80049690D01*
X145581000Y-80049690D01*
X145581000Y-80740250D01*
X145739750Y-80899000D01*
X146939000Y-80899000D01*
X146939000Y-79699750D01*
X147193000Y-79699750D01*
X147193000Y-80899000D01*
X148392250Y-80899000D01*
X148551000Y-80740250D01*
X148551000Y-80049690D01*
X148454327Y-79816301D01*
X148275698Y-79637673D01*
X148042309Y-79541000D01*
X147351750Y-79541000D01*
X147193000Y-79699750D01*
X146939000Y-79699750D01*
X146780250Y-79541000D01*
X146089691Y-79541000D01*
X145856302Y-79637673D01*
X145677673Y-79816301D01*
X145581000Y-80049690D01*
X135993788Y-80049690D01*
X135997460Y-79414636D01*
X169600126Y-79414636D01*
X169606409Y-82355094D01*
X169606409Y-82355094D01*
G37*
X169606409Y-82355094D02*
X169606409Y-82355095D01*
X169614057Y-85934185D01*
X169634431Y-86035480D01*
X169647814Y-86137930D01*
X169658914Y-86157199D01*
X169663298Y-86178998D01*
X169720883Y-86264783D01*
X169772455Y-86354315D01*
X170029802Y-86648360D01*
X170044251Y-86659470D01*
X170054219Y-86674726D01*
X170406800Y-87034647D01*
X170443410Y-87059658D01*
X170472519Y-87093097D01*
X170849501Y-87384569D01*
X170900143Y-87409774D01*
X170944186Y-87445284D01*
X171325532Y-87644880D01*
X171390069Y-87663847D01*
X171450076Y-87694240D01*
X171836304Y-87802164D01*
X171909925Y-87807780D01*
X171981673Y-87825212D01*
X172354604Y-87840882D01*
X172525476Y-112745463D01*
X172456336Y-112624811D01*
X172415170Y-112577563D01*
X172384077Y-112523157D01*
X172309620Y-112437498D01*
X172253520Y-112394058D01*
X172205651Y-112341691D01*
X172155744Y-112318346D01*
X172112178Y-112284611D01*
X172043726Y-112265946D01*
X171979459Y-112235884D01*
X171906254Y-112217877D01*
X171901011Y-112217642D01*
X171896224Y-112215496D01*
X171776492Y-112212055D01*
X171656789Y-112206684D01*
X171651856Y-112208473D01*
X171646611Y-112208322D01*
X171534639Y-112250976D01*
X171422030Y-112291809D01*
X171418158Y-112295348D01*
X171413255Y-112297216D01*
X171330465Y-112349157D01*
X171256940Y-112418574D01*
X171178384Y-112482236D01*
X171075180Y-112606421D01*
X171059984Y-112634433D01*
X171037318Y-112656838D01*
X170902866Y-112855560D01*
X170901421Y-112858992D01*
X170898805Y-112861638D01*
X170866547Y-112910510D01*
X170697541Y-113150249D01*
X170491807Y-113422005D01*
X170261955Y-113710222D01*
X170023841Y-113995473D01*
X169793561Y-114258477D01*
X169588521Y-114479049D01*
X169424186Y-114640199D01*
X169365930Y-114691327D01*
X169180389Y-114840505D01*
X168985081Y-114983326D01*
X168811863Y-115096295D01*
X168455156Y-115308832D01*
X168368018Y-115387396D01*
X168279043Y-115463817D01*
X168275508Y-115470804D01*
X168269692Y-115476047D01*
X168219265Y-115581950D01*
X168166295Y-115686629D01*
X167955202Y-116443160D01*
X167927173Y-116543057D01*
X167471551Y-118035888D01*
X166968331Y-119454281D01*
X166414938Y-120806278D01*
X165810545Y-122094130D01*
X165154287Y-123320121D01*
X164445182Y-124486651D01*
X163682177Y-125596113D01*
X162863521Y-126651675D01*
X162087332Y-127546823D01*
X161241525Y-128418963D01*
X160358180Y-129227024D01*
X159429288Y-129978147D01*
X158446826Y-130679063D01*
X157397189Y-131339686D01*
X157163346Y-131476205D01*
X156602506Y-131788746D01*
X156039356Y-132080764D01*
X155456767Y-132360580D01*
X154839666Y-132635192D01*
X154173371Y-132911304D01*
X153440998Y-133196421D01*
X152798594Y-133439762D01*
X152194411Y-133207985D01*
X152039642Y-133148389D01*
X151391252Y-132892982D01*
X150806782Y-132652208D01*
X150273610Y-132420326D01*
X149780294Y-132192078D01*
X149314702Y-131961851D01*
X148864809Y-131723990D01*
X148418302Y-131472555D01*
X147966496Y-131203622D01*
X147148959Y-130680370D01*
X146167131Y-129978428D01*
X145240894Y-129228597D01*
X144359647Y-128422056D01*
X143514594Y-127550914D01*
X142695593Y-126605293D01*
X142373837Y-126198969D01*
X145755434Y-129580566D01*
X146123654Y-129826603D01*
X146558000Y-129913000D01*
X150063251Y-129913000D01*
X150101554Y-130105561D01*
X150402458Y-130555896D01*
X150852793Y-130856800D01*
X151384000Y-130962464D01*
X151915207Y-130856800D01*
X152365542Y-130555896D01*
X152666446Y-130105561D01*
X152667016Y-130102694D01*
X152690154Y-130180919D01*
X153032260Y-130603724D01*
X153510125Y-130863427D01*
X153582326Y-130877783D01*
X153797000Y-130755162D01*
X153797000Y-128905000D01*
X154051000Y-128905000D01*
X154051000Y-130755162D01*
X154265674Y-130877783D01*
X154337875Y-130863427D01*
X154815740Y-130603724D01*
X155157846Y-130180919D01*
X155312110Y-129659380D01*
X155312110Y-128905000D01*
X154051000Y-128905000D01*
X153797000Y-128905000D01*
X153777000Y-128905000D01*
X153777000Y-128651000D01*
X153797000Y-128651000D01*
X153797000Y-126800838D01*
X154051000Y-126800838D01*
X154051000Y-128651000D01*
X155312110Y-128651000D01*
X155312110Y-127896620D01*
X155157846Y-127375081D01*
X154815740Y-126952276D01*
X154337875Y-126692573D01*
X154265674Y-126678217D01*
X154051000Y-126800838D01*
X153797000Y-126800838D01*
X153582326Y-126678217D01*
X153510125Y-126692573D01*
X153032260Y-126952276D01*
X152690154Y-127375081D01*
X152667016Y-127453306D01*
X152666446Y-127450439D01*
X152365542Y-127000104D01*
X151915207Y-126699200D01*
X151384000Y-126593536D01*
X150852793Y-126699200D01*
X150402458Y-127000104D01*
X150101554Y-127450439D01*
X150063251Y-127643000D01*
X147028132Y-127643000D01*
X140327000Y-120941868D01*
X140327000Y-120011409D01*
X140335000Y-120013000D01*
X140571352Y-120013000D01*
X140771585Y-120312670D01*
X141257766Y-120637526D01*
X141831255Y-120751600D01*
X142200745Y-120751600D01*
X142774234Y-120637526D01*
X143260415Y-120312670D01*
X143585271Y-119826489D01*
X143699345Y-119253000D01*
X143585271Y-118679511D01*
X143260415Y-118193330D01*
X142950931Y-117986539D01*
X143366732Y-117615036D01*
X143620709Y-117087791D01*
X143623358Y-117072026D01*
X143502217Y-116840000D01*
X142143000Y-116840000D01*
X142143000Y-116860000D01*
X141889000Y-116860000D01*
X141889000Y-116840000D01*
X141869000Y-116840000D01*
X141869000Y-116586000D01*
X141889000Y-116586000D01*
X141889000Y-116566000D01*
X142143000Y-116566000D01*
X142143000Y-116586000D01*
X143502217Y-116586000D01*
X143623358Y-116353974D01*
X143620709Y-116338209D01*
X143555578Y-116203000D01*
X144907000Y-116203000D01*
X145197839Y-116145148D01*
X145444401Y-115980401D01*
X146191804Y-115232998D01*
X146316026Y-115316000D01*
X145986853Y-115535946D01*
X145664946Y-116017715D01*
X145551907Y-116586000D01*
X145664946Y-117154285D01*
X145986853Y-117636054D01*
X146316026Y-117856000D01*
X145986853Y-118075946D01*
X145664946Y-118557715D01*
X145551907Y-119126000D01*
X145664946Y-119694285D01*
X145986853Y-120176054D01*
X146468622Y-120497961D01*
X147036907Y-120611000D01*
X147095093Y-120611000D01*
X147663378Y-120497961D01*
X148145147Y-120176054D01*
X148467054Y-119694285D01*
X148580093Y-119126000D01*
X148467054Y-118557715D01*
X148145147Y-118075946D01*
X147815974Y-117856000D01*
X148145147Y-117636054D01*
X148467054Y-117154285D01*
X148580093Y-116586000D01*
X148467054Y-116017715D01*
X148145147Y-115535946D01*
X147815974Y-115316000D01*
X148145147Y-115096054D01*
X148467054Y-114614285D01*
X148580093Y-114046000D01*
X148478648Y-113536000D01*
X160839992Y-113536000D01*
X160868434Y-113578566D01*
X162011434Y-114721566D01*
X162379655Y-114967603D01*
X162814000Y-115054000D01*
X163248345Y-114967603D01*
X163616566Y-114721566D01*
X163862603Y-114353345D01*
X163949000Y-113919000D01*
X163862603Y-113484655D01*
X163616566Y-113116434D01*
X162473566Y-111973434D01*
X162105345Y-111727397D01*
X161671000Y-111641000D01*
X161236655Y-111727397D01*
X160868434Y-111973434D01*
X160839992Y-112016000D01*
X148478648Y-112016000D01*
X148580093Y-111506000D01*
X148478648Y-110996000D01*
X154743992Y-110996000D01*
X154772434Y-111038566D01*
X155140655Y-111284603D01*
X155575000Y-111371000D01*
X156009345Y-111284603D01*
X156377566Y-111038566D01*
X157061132Y-110355000D01*
X158090808Y-110355000D01*
X158197910Y-110521441D01*
X158410110Y-110666431D01*
X158662000Y-110717440D01*
X160362000Y-110717440D01*
X160597317Y-110673162D01*
X160813441Y-110534090D01*
X160958431Y-110321890D01*
X161009440Y-110070000D01*
X161009440Y-108370000D01*
X160976557Y-108195245D01*
X162763790Y-106408012D01*
X162814000Y-106418000D01*
X163248346Y-106331603D01*
X163616566Y-106085566D01*
X163862603Y-105717346D01*
X163949000Y-105283000D01*
X163949000Y-102108000D01*
X163862603Y-101673654D01*
X163783934Y-101555918D01*
X163616566Y-101305433D01*
X163108566Y-100797434D01*
X163079054Y-100777715D01*
X162740346Y-100551397D01*
X162306000Y-100465000D01*
X160464016Y-100465000D01*
X160261974Y-100330000D01*
X160591147Y-100110054D01*
X160913054Y-99628285D01*
X161026093Y-99060000D01*
X160913054Y-98491715D01*
X160591147Y-98009946D01*
X160250447Y-97782298D01*
X160393358Y-97715183D01*
X160783645Y-97286924D01*
X160953476Y-96876890D01*
X160832155Y-96647000D01*
X159639000Y-96647000D01*
X159639000Y-96667000D01*
X159385000Y-96667000D01*
X159385000Y-96647000D01*
X158191845Y-96647000D01*
X158070524Y-96876890D01*
X158240355Y-97286924D01*
X158630642Y-97715183D01*
X158773553Y-97782298D01*
X158432853Y-98009946D01*
X158110946Y-98491715D01*
X157997907Y-99060000D01*
X158110946Y-99628285D01*
X158432853Y-100110054D01*
X158762026Y-100330000D01*
X158432853Y-100549946D01*
X158110946Y-101031715D01*
X157997907Y-101600000D01*
X158110946Y-102168285D01*
X158432853Y-102650054D01*
X158762026Y-102870000D01*
X158559984Y-103005000D01*
X157734000Y-103005000D01*
X157299654Y-103091397D01*
X157072766Y-103242999D01*
X156931434Y-103337434D01*
X155915434Y-104353434D01*
X155886992Y-104396000D01*
X150660633Y-104396000D01*
X150794838Y-104072799D01*
X150795113Y-103757000D01*
X151075537Y-103757000D01*
X151107673Y-103789192D01*
X151451201Y-103931838D01*
X151823167Y-103932162D01*
X152166943Y-103790117D01*
X152430192Y-103527327D01*
X152572838Y-103183799D01*
X152573162Y-102811833D01*
X152431117Y-102468057D01*
X152168327Y-102204808D01*
X151824799Y-102062162D01*
X151452833Y-102061838D01*
X151109057Y-102203883D01*
X151075882Y-102237000D01*
X149920802Y-102237000D01*
X148492401Y-100808599D01*
X148470254Y-100793801D01*
X148467054Y-100777715D01*
X148145147Y-100295946D01*
X147815974Y-100076000D01*
X148145147Y-99856054D01*
X148467054Y-99374285D01*
X148580093Y-98806000D01*
X148467054Y-98237715D01*
X148145147Y-97755946D01*
X147815974Y-97536000D01*
X148145147Y-97316054D01*
X148338954Y-97026000D01*
X149932537Y-97026000D01*
X149964673Y-97058192D01*
X150308201Y-97200838D01*
X150680167Y-97201162D01*
X151023943Y-97059117D01*
X151287192Y-96796327D01*
X151429838Y-96452799D01*
X151430162Y-96080833D01*
X151315753Y-95803941D01*
X151569167Y-95804162D01*
X151912943Y-95662117D01*
X152176192Y-95399327D01*
X152318838Y-95055799D01*
X152319162Y-94683833D01*
X152177117Y-94340057D01*
X152134680Y-94297546D01*
X152303192Y-94129327D01*
X152445838Y-93785799D01*
X152446162Y-93413833D01*
X152304117Y-93070057D01*
X152041327Y-92806808D01*
X151697799Y-92664162D01*
X151325833Y-92663838D01*
X150982057Y-92805883D01*
X150821660Y-92966000D01*
X148338954Y-92966000D01*
X148145147Y-92675946D01*
X147815974Y-92456000D01*
X148145147Y-92236054D01*
X148467054Y-91754285D01*
X148580093Y-91186000D01*
X148478648Y-90676000D01*
X150171992Y-90676000D01*
X150200434Y-90718566D01*
X154264434Y-94782566D01*
X154632654Y-95028603D01*
X155067000Y-95115000D01*
X158559984Y-95115000D01*
X158773553Y-95257702D01*
X158630642Y-95324817D01*
X158240355Y-95753076D01*
X158070524Y-96163110D01*
X158191845Y-96393000D01*
X159385000Y-96393000D01*
X159385000Y-96373000D01*
X159639000Y-96373000D01*
X159639000Y-96393000D01*
X160832155Y-96393000D01*
X160953476Y-96163110D01*
X160783645Y-95753076D01*
X160393358Y-95324817D01*
X160250447Y-95257702D01*
X160591147Y-95030054D01*
X160913054Y-94548285D01*
X161026093Y-93980000D01*
X160913054Y-93411715D01*
X160591147Y-92929946D01*
X160261974Y-92710000D01*
X160591147Y-92490054D01*
X160913054Y-92008285D01*
X161026093Y-91440000D01*
X160913054Y-90871715D01*
X160591147Y-90389946D01*
X160109378Y-90068039D01*
X159541093Y-89955000D01*
X159482907Y-89955000D01*
X158914622Y-90068039D01*
X158432853Y-90389946D01*
X158110946Y-90871715D01*
X157997907Y-91440000D01*
X158110946Y-92008285D01*
X158432853Y-92490054D01*
X158762026Y-92710000D01*
X158559984Y-92845000D01*
X155537132Y-92845000D01*
X152362546Y-89670414D01*
X152694566Y-89448566D01*
X154648132Y-87495000D01*
X162687000Y-87495000D01*
X163121346Y-87408603D01*
X163489566Y-87162566D01*
X163735603Y-86794346D01*
X163822000Y-86360000D01*
X163735603Y-85925654D01*
X163489566Y-85557434D01*
X163121346Y-85311397D01*
X162687000Y-85225000D01*
X154178000Y-85225000D01*
X153743654Y-85311397D01*
X153425789Y-85523788D01*
X153375434Y-85557434D01*
X151557001Y-87375867D01*
X151557162Y-87190833D01*
X151415117Y-86847057D01*
X151152327Y-86583808D01*
X150808799Y-86441162D01*
X150436833Y-86440838D01*
X150093057Y-86582883D01*
X150059882Y-86616000D01*
X148478648Y-86616000D01*
X148580093Y-86106000D01*
X148478648Y-85596000D01*
X150948537Y-85596000D01*
X150980673Y-85628192D01*
X151324201Y-85770838D01*
X151696167Y-85771162D01*
X152039943Y-85629117D01*
X152303192Y-85366327D01*
X152445838Y-85022799D01*
X152446162Y-84650833D01*
X152304117Y-84307057D01*
X152041327Y-84043808D01*
X151697799Y-83901162D01*
X151325833Y-83900838D01*
X150982057Y-84042883D01*
X150948882Y-84076000D01*
X148478648Y-84076000D01*
X148580093Y-83566000D01*
X148467054Y-82997715D01*
X148145147Y-82515946D01*
X148101223Y-82486597D01*
X148275698Y-82414327D01*
X148454327Y-82235699D01*
X148551000Y-82002310D01*
X148551000Y-81311750D01*
X148392250Y-81153000D01*
X147193000Y-81153000D01*
X147193000Y-81173000D01*
X146939000Y-81173000D01*
X146939000Y-81153000D01*
X145739750Y-81153000D01*
X145581000Y-81311750D01*
X145581000Y-82002310D01*
X145677673Y-82235699D01*
X145856302Y-82414327D01*
X146030777Y-82486597D01*
X145986853Y-82515946D01*
X145664946Y-82997715D01*
X145551907Y-83566000D01*
X145653352Y-84076000D01*
X144967802Y-84076000D01*
X144047401Y-83155599D01*
X143800839Y-82990852D01*
X143510000Y-82933000D01*
X143460648Y-82933000D01*
X143260415Y-82633330D01*
X142774234Y-82308474D01*
X142200745Y-82194400D01*
X141831255Y-82194400D01*
X141257766Y-82308474D01*
X140771585Y-82633330D01*
X140446729Y-83119511D01*
X140332655Y-83693000D01*
X140446729Y-84266489D01*
X140771585Y-84752670D01*
X141086366Y-84963000D01*
X140771585Y-85173330D01*
X140446729Y-85659511D01*
X140332655Y-86233000D01*
X140446729Y-86806489D01*
X140771585Y-87292670D01*
X141086366Y-87503000D01*
X140771585Y-87713330D01*
X140446729Y-88199511D01*
X140332655Y-88773000D01*
X140434100Y-89283000D01*
X134747000Y-89283000D01*
X134747000Y-87386516D01*
X135027734Y-87112234D01*
X135058025Y-87068022D01*
X135097454Y-87031728D01*
X135383496Y-86639765D01*
X135402872Y-86597968D01*
X135431978Y-86562253D01*
X135680190Y-86094033D01*
X135686087Y-86074350D01*
X135698035Y-86057630D01*
X135906542Y-85595812D01*
X135908425Y-85587689D01*
X135913095Y-85580786D01*
X135936542Y-85466373D01*
X135962923Y-85352545D01*
X135961554Y-85344320D01*
X135963227Y-85336155D01*
X135982183Y-82057246D01*
X135993788Y-80049690D01*
X145581000Y-80049690D01*
X145581000Y-80740250D01*
X145739750Y-80899000D01*
X146939000Y-80899000D01*
X146939000Y-79699750D01*
X147193000Y-79699750D01*
X147193000Y-80899000D01*
X148392250Y-80899000D01*
X148551000Y-80740250D01*
X148551000Y-80049690D01*
X148454327Y-79816301D01*
X148275698Y-79637673D01*
X148042309Y-79541000D01*
X147351750Y-79541000D01*
X147193000Y-79699750D01*
X146939000Y-79699750D01*
X146780250Y-79541000D01*
X146089691Y-79541000D01*
X145856302Y-79637673D01*
X145677673Y-79816301D01*
X145581000Y-80049690D01*
X135993788Y-80049690D01*
X135997460Y-79414636D01*
X169600126Y-79414636D01*
X169606409Y-82355094D01*
G36*
X145551907Y-96266000D02*
X145664946Y-96834285D01*
X145986853Y-97316054D01*
X146316026Y-97536000D01*
X145986853Y-97755946D01*
X145664946Y-98237715D01*
X145551907Y-98806000D01*
X145664946Y-99374285D01*
X145986853Y-99856054D01*
X146316026Y-100076000D01*
X146113984Y-100211000D01*
X144399000Y-100211000D01*
X143964654Y-100297397D01*
X143903887Y-100338000D01*
X143147676Y-100338000D01*
X142950931Y-100206539D01*
X143366732Y-99835036D01*
X143620709Y-99307791D01*
X143623358Y-99292026D01*
X143502217Y-99060000D01*
X142143000Y-99060000D01*
X142143000Y-99080000D01*
X141889000Y-99080000D01*
X141889000Y-99060000D01*
X140529783Y-99060000D01*
X140408642Y-99292026D01*
X140411291Y-99307791D01*
X140665268Y-99835036D01*
X141081069Y-100206539D01*
X140771585Y-100413330D01*
X140446729Y-100899511D01*
X140332655Y-101473000D01*
X140446729Y-102046489D01*
X140771585Y-102532670D01*
X141086366Y-102743000D01*
X140771585Y-102953330D01*
X140446729Y-103439511D01*
X140332655Y-104013000D01*
X140446729Y-104586489D01*
X140771585Y-105072670D01*
X141086366Y-105283000D01*
X140771585Y-105493330D01*
X140446729Y-105979511D01*
X140332655Y-106553000D01*
X140446729Y-107126489D01*
X140771585Y-107612670D01*
X141086366Y-107823000D01*
X140771585Y-108033330D01*
X140446729Y-108519511D01*
X140332655Y-109093000D01*
X140434100Y-109603000D01*
X139881463Y-109603000D01*
X139849327Y-109570808D01*
X139505799Y-109428162D01*
X139133833Y-109427838D01*
X138790057Y-109569883D01*
X138526808Y-109832673D01*
X138483838Y-109936157D01*
X138117833Y-109935838D01*
X137774057Y-110077883D01*
X137510808Y-110340673D01*
X137405055Y-110595352D01*
X137346799Y-110571162D01*
X136974833Y-110570838D01*
X136631057Y-110712883D01*
X136367808Y-110975673D01*
X136350106Y-111018304D01*
X134747000Y-109415198D01*
X134747000Y-97528000D01*
X140884324Y-97528000D01*
X141081069Y-97659461D01*
X140665268Y-98030964D01*
X140411291Y-98558209D01*
X140408642Y-98573974D01*
X140529783Y-98806000D01*
X141889000Y-98806000D01*
X141889000Y-98786000D01*
X142143000Y-98786000D01*
X142143000Y-98806000D01*
X143502217Y-98806000D01*
X143623358Y-98573974D01*
X143620709Y-98558209D01*
X143366732Y-98030964D01*
X142950931Y-97659461D01*
X143230794Y-97472462D01*
X143510000Y-97528000D01*
X143944345Y-97441603D01*
X144312566Y-97195566D01*
X145628825Y-95879307D01*
X145551907Y-96266000D01*
X145551907Y-96266000D01*
G37*
X145551907Y-96266000D02*
X145664946Y-96834285D01*
X145986853Y-97316054D01*
X146316026Y-97536000D01*
X145986853Y-97755946D01*
X145664946Y-98237715D01*
X145551907Y-98806000D01*
X145664946Y-99374285D01*
X145986853Y-99856054D01*
X146316026Y-100076000D01*
X146113984Y-100211000D01*
X144399000Y-100211000D01*
X143964654Y-100297397D01*
X143903887Y-100338000D01*
X143147676Y-100338000D01*
X142950931Y-100206539D01*
X143366732Y-99835036D01*
X143620709Y-99307791D01*
X143623358Y-99292026D01*
X143502217Y-99060000D01*
X142143000Y-99060000D01*
X142143000Y-99080000D01*
X141889000Y-99080000D01*
X141889000Y-99060000D01*
X140529783Y-99060000D01*
X140408642Y-99292026D01*
X140411291Y-99307791D01*
X140665268Y-99835036D01*
X141081069Y-100206539D01*
X140771585Y-100413330D01*
X140446729Y-100899511D01*
X140332655Y-101473000D01*
X140446729Y-102046489D01*
X140771585Y-102532670D01*
X141086366Y-102743000D01*
X140771585Y-102953330D01*
X140446729Y-103439511D01*
X140332655Y-104013000D01*
X140446729Y-104586489D01*
X140771585Y-105072670D01*
X141086366Y-105283000D01*
X140771585Y-105493330D01*
X140446729Y-105979511D01*
X140332655Y-106553000D01*
X140446729Y-107126489D01*
X140771585Y-107612670D01*
X141086366Y-107823000D01*
X140771585Y-108033330D01*
X140446729Y-108519511D01*
X140332655Y-109093000D01*
X140434100Y-109603000D01*
X139881463Y-109603000D01*
X139849327Y-109570808D01*
X139505799Y-109428162D01*
X139133833Y-109427838D01*
X138790057Y-109569883D01*
X138526808Y-109832673D01*
X138483838Y-109936157D01*
X138117833Y-109935838D01*
X137774057Y-110077883D01*
X137510808Y-110340673D01*
X137405055Y-110595352D01*
X137346799Y-110571162D01*
X136974833Y-110570838D01*
X136631057Y-110712883D01*
X136367808Y-110975673D01*
X136350106Y-111018304D01*
X134747000Y-109415198D01*
X134747000Y-97528000D01*
X140884324Y-97528000D01*
X141081069Y-97659461D01*
X140665268Y-98030964D01*
X140411291Y-98558209D01*
X140408642Y-98573974D01*
X140529783Y-98806000D01*
X141889000Y-98806000D01*
X141889000Y-98786000D01*
X142143000Y-98786000D01*
X142143000Y-98806000D01*
X143502217Y-98806000D01*
X143623358Y-98573974D01*
X143620709Y-98558209D01*
X143366732Y-98030964D01*
X142950931Y-97659461D01*
X143230794Y-97472462D01*
X143510000Y-97528000D01*
X143944345Y-97441603D01*
X144312566Y-97195566D01*
X145628825Y-95879307D01*
X145551907Y-96266000D01*
M02*
