G04 #@! TF.FileFunction,Soldermask,Top*
%FSLAX46Y46*%
G04 Gerber Fmt 4.6, Leading zero omitted, Abs format (unit mm)*
G04 Created by KiCad (PCBNEW 4.0.4+e1-6308~48~ubuntu16.04.1-stable) date Mon Jan  2 16:02:27 2017*
%MOMM*%
%LPD*%
G01*
G04 APERTURE LIST*
%ADD10C,0.100000*%
%ADD11O,1.506220X3.014980*%
%ADD12O,2.032000X1.727200*%
%ADD13R,2.032000X1.727200*%
%ADD14R,1.700000X1.700000*%
%ADD15O,1.700000X1.700000*%
G04 APERTURE END LIST*
D10*
D11*
X151384000Y-128778000D03*
X153924000Y-128778000D03*
D12*
X142016000Y-119253000D03*
X142016000Y-116713000D03*
X142016000Y-114173000D03*
X142016000Y-111633000D03*
X142016000Y-109093000D03*
X142016000Y-106553000D03*
X142016000Y-104013000D03*
X142016000Y-101473000D03*
X142016000Y-98933000D03*
X142016000Y-96393000D03*
X142016000Y-93853000D03*
X142016000Y-91313000D03*
X142016000Y-88773000D03*
X142016000Y-86233000D03*
X142016000Y-83693000D03*
D13*
X114016000Y-83693000D03*
D12*
X114016000Y-86233000D03*
X114016000Y-88773000D03*
X114016000Y-91313000D03*
X114016000Y-93853000D03*
X114016000Y-96393000D03*
X114016000Y-98933000D03*
X114016000Y-101473000D03*
X114016000Y-104013000D03*
X114016000Y-106553000D03*
X114016000Y-109093000D03*
X114016000Y-111633000D03*
X114016000Y-114173000D03*
X114016000Y-116713000D03*
X114016000Y-119253000D03*
D14*
X147066000Y-81026000D03*
D15*
X147066000Y-83566000D03*
X147066000Y-86106000D03*
X147066000Y-88646000D03*
X147066000Y-91186000D03*
X147066000Y-93726000D03*
X147066000Y-96266000D03*
X147066000Y-98806000D03*
X147066000Y-101346000D03*
X147066000Y-103886000D03*
X147066000Y-106426000D03*
X147066000Y-108966000D03*
X147066000Y-111506000D03*
X147066000Y-114046000D03*
X147066000Y-116586000D03*
X147066000Y-119126000D03*
D14*
X159512000Y-109220000D03*
D15*
X159512000Y-106680000D03*
X159512000Y-104140000D03*
X159512000Y-101600000D03*
X159512000Y-99060000D03*
X159512000Y-96520000D03*
X159512000Y-93980000D03*
X159512000Y-91440000D03*
M02*
