G04 #@! TF.FileFunction,Legend,Top*
%FSLAX46Y46*%
G04 Gerber Fmt 4.6, Leading zero omitted, Abs format (unit mm)*
G04 Created by KiCad (PCBNEW 4.0.4+e1-6308~48~ubuntu16.04.1-stable) date Mon Jan  2 16:02:27 2017*
%MOMM*%
%LPD*%
G01*
G04 APERTURE LIST*
%ADD10C,0.100000*%
%ADD11C,0.300000*%
%ADD12C,0.150000*%
%ADD13C,0.120000*%
G04 APERTURE END LIST*
D10*
D11*
X151955428Y-131552143D02*
X150812571Y-131552143D01*
X151384000Y-132123571D02*
X151384000Y-130980714D01*
D12*
X155194000Y-127508000D02*
X150114000Y-127508000D01*
X155194000Y-131953000D02*
X150114000Y-131953000D01*
X150114000Y-125603000D02*
X155194000Y-125603000D01*
X150114000Y-125603000D02*
X150114000Y-131953000D01*
X155194000Y-125603000D02*
X155194000Y-131953000D01*
X140716000Y-82677000D02*
X140716000Y-84963000D01*
X143256000Y-82677000D02*
X143256000Y-85217000D01*
X140466000Y-82143000D02*
X143566000Y-82143000D01*
X140466000Y-83693000D02*
X140466000Y-82143000D01*
X143286000Y-82677000D02*
X140746000Y-82677000D01*
X143566000Y-82143000D02*
X143566000Y-83693000D01*
X143286000Y-120523000D02*
X143286000Y-84963000D01*
X140746000Y-120523000D02*
X143286000Y-120523000D01*
X140746000Y-84963000D02*
X140746000Y-120523000D01*
X112746000Y-84963000D02*
X112746000Y-120523000D01*
X112746000Y-120523000D02*
X115286000Y-120523000D01*
X115286000Y-120523000D02*
X115286000Y-84963000D01*
X115566000Y-82143000D02*
X115566000Y-83693000D01*
X115286000Y-84963000D02*
X112746000Y-84963000D01*
X112466000Y-83693000D02*
X112466000Y-82143000D01*
X112466000Y-82143000D02*
X115566000Y-82143000D01*
D13*
X145676000Y-82296000D02*
X145676000Y-120516000D01*
X145676000Y-120516000D02*
X148456000Y-120516000D01*
X148456000Y-120516000D02*
X148456000Y-82296000D01*
X148456000Y-82296000D02*
X145676000Y-82296000D01*
X145676000Y-81026000D02*
X145676000Y-79636000D01*
X145676000Y-79636000D02*
X147066000Y-79636000D01*
D12*
X151868286Y-124806571D02*
X152011143Y-124854190D01*
X152058762Y-124901810D01*
X152106381Y-124997048D01*
X152106381Y-125139905D01*
X152058762Y-125235143D01*
X152011143Y-125282762D01*
X151915905Y-125330381D01*
X151534952Y-125330381D01*
X151534952Y-124330381D01*
X151868286Y-124330381D01*
X151963524Y-124378000D01*
X152011143Y-124425619D01*
X152058762Y-124520857D01*
X152058762Y-124616095D01*
X152011143Y-124711333D01*
X151963524Y-124758952D01*
X151868286Y-124806571D01*
X151534952Y-124806571D01*
X152392095Y-124330381D02*
X152963524Y-124330381D01*
X152677809Y-125330381D02*
X152677809Y-124330381D01*
X153820667Y-125330381D02*
X153249238Y-125330381D01*
X153534952Y-125330381D02*
X153534952Y-124330381D01*
X153439714Y-124473238D01*
X153344476Y-124568476D01*
X153249238Y-124616095D01*
X127254095Y-99845381D02*
X127254095Y-100654905D01*
X127301714Y-100750143D01*
X127349333Y-100797762D01*
X127444571Y-100845381D01*
X127635048Y-100845381D01*
X127730286Y-100797762D01*
X127777905Y-100750143D01*
X127825524Y-100654905D01*
X127825524Y-99845381D01*
X128825524Y-100845381D02*
X128254095Y-100845381D01*
X128539809Y-100845381D02*
X128539809Y-99845381D01*
X128444571Y-99988238D01*
X128349333Y-100083476D01*
X128254095Y-100131095D01*
X146304095Y-78088381D02*
X146304095Y-78897905D01*
X146351714Y-78993143D01*
X146399333Y-79040762D01*
X146494571Y-79088381D01*
X146685048Y-79088381D01*
X146780286Y-79040762D01*
X146827905Y-78993143D01*
X146875524Y-78897905D01*
X146875524Y-78088381D01*
X147304095Y-78183619D02*
X147351714Y-78136000D01*
X147446952Y-78088381D01*
X147685048Y-78088381D01*
X147780286Y-78136000D01*
X147827905Y-78183619D01*
X147875524Y-78278857D01*
X147875524Y-78374095D01*
X147827905Y-78516952D01*
X147256476Y-79088381D01*
X147875524Y-79088381D01*
M02*
