G04 #@! TF.FileFunction,Profile,NP*
%FSLAX46Y46*%
G04 Gerber Fmt 4.6, Leading zero omitted, Abs format (unit mm)*
G04 Created by KiCad (PCBNEW 4.0.4+e1-6308~48~ubuntu16.04.1-stable) date Mon Jan  2 16:02:27 2017*
%MOMM*%
%LPD*%
G01*
G04 APERTURE LIST*
%ADD10C,0.100000*%
%ADD11C,0.010000*%
G04 APERTURE END LIST*
D10*
D11*
G36*
X121340634Y-65747925D02*
X122100576Y-65895920D01*
X122850290Y-66132899D01*
X123586168Y-66458281D01*
X124304602Y-66871490D01*
X124601085Y-67071660D01*
X125002158Y-67350839D01*
X125354130Y-67586191D01*
X125670798Y-67785467D01*
X125965959Y-67956416D01*
X126253409Y-68106789D01*
X126546946Y-68244337D01*
X126860366Y-68376809D01*
X127075460Y-68461619D01*
X127587866Y-68665539D01*
X128038865Y-68860277D01*
X128441573Y-69053677D01*
X128809107Y-69253581D01*
X129154581Y-69467835D01*
X129491111Y-69704281D01*
X129831813Y-69970763D01*
X130189803Y-70275126D01*
X130358055Y-70424758D01*
X130675946Y-70727511D01*
X130939273Y-71020403D01*
X131162291Y-71324609D01*
X131359255Y-71661303D01*
X131544421Y-72051659D01*
X131686052Y-72397311D01*
X131867235Y-72906623D01*
X132039618Y-73483910D01*
X132204015Y-74133017D01*
X132361241Y-74857787D01*
X132512110Y-75662066D01*
X132657437Y-76549698D01*
X132798036Y-77524528D01*
X132841571Y-77851000D01*
X132866577Y-78039516D01*
X132890478Y-78210562D01*
X132915204Y-78372633D01*
X132942681Y-78534223D01*
X132974837Y-78703827D01*
X133013599Y-78889937D01*
X133060895Y-79101050D01*
X133118653Y-79345659D01*
X133188798Y-79632258D01*
X133273260Y-79969342D01*
X133373966Y-80365404D01*
X133492843Y-80828941D01*
X133631818Y-81368444D01*
X133697429Y-81622775D01*
X133824815Y-82117920D01*
X133945201Y-82588695D01*
X134056675Y-83027438D01*
X134157324Y-83426484D01*
X134245235Y-83778170D01*
X134318496Y-84074833D01*
X134375194Y-84308809D01*
X134413417Y-84472434D01*
X134431253Y-84558045D01*
X134432343Y-84567545D01*
X134398674Y-84661618D01*
X134313117Y-84750922D01*
X134198849Y-84817667D01*
X134079046Y-84844065D01*
X134072194Y-84843978D01*
X134039715Y-84836687D01*
X133999407Y-84812639D01*
X133946485Y-84766009D01*
X133876166Y-84690971D01*
X133783668Y-84581700D01*
X133664206Y-84432370D01*
X133512997Y-84237157D01*
X133325258Y-83990233D01*
X133096205Y-83685774D01*
X132840104Y-83343460D01*
X132542789Y-82946980D01*
X132290330Y-82614028D01*
X132077788Y-82338478D01*
X131900226Y-82114203D01*
X131752706Y-81935076D01*
X131630289Y-81794973D01*
X131528037Y-81687765D01*
X131441013Y-81607328D01*
X131440093Y-81606545D01*
X131254750Y-81446090D01*
X131075696Y-81284535D01*
X130895934Y-81114568D01*
X130708470Y-80928880D01*
X130506308Y-80720161D01*
X130282453Y-80481099D01*
X130029909Y-80204384D01*
X129741681Y-79882706D01*
X129410774Y-79508755D01*
X129164023Y-79227965D01*
X128958240Y-79000799D01*
X128712161Y-78741001D01*
X128446883Y-78470138D01*
X128183507Y-78209775D01*
X127958156Y-77995396D01*
X127739248Y-77790061D01*
X127519734Y-77580343D01*
X127314254Y-77380505D01*
X127137449Y-77204811D01*
X127003959Y-77067526D01*
X126984944Y-77047223D01*
X126857304Y-76903440D01*
X126717816Y-76735979D01*
X126576949Y-76558708D01*
X126445169Y-76385491D01*
X126332944Y-76230195D01*
X126250742Y-76106687D01*
X126209031Y-76028833D01*
X126205932Y-76015273D01*
X126181662Y-75978832D01*
X126120407Y-75999953D01*
X126038579Y-76070620D01*
X125999856Y-76115891D01*
X125893482Y-76251146D01*
X125973022Y-76387221D01*
X126065998Y-76571976D01*
X126164135Y-76808362D01*
X126255015Y-77062265D01*
X126326221Y-77299571D01*
X126359958Y-77450271D01*
X126378696Y-77619647D01*
X126389366Y-77839958D01*
X126390220Y-78070096D01*
X126388656Y-78125435D01*
X126353758Y-78485289D01*
X126272327Y-78807848D01*
X126137827Y-79107066D01*
X125943720Y-79396899D01*
X125683470Y-79691302D01*
X125630065Y-79744900D01*
X125490324Y-79883000D01*
X125781706Y-80666365D01*
X125895295Y-80966101D01*
X125985325Y-81189695D01*
X126056244Y-81346834D01*
X126112505Y-81447207D01*
X126158557Y-81500500D01*
X126167865Y-81506932D01*
X126227446Y-81542537D01*
X126344683Y-81612298D01*
X126509049Y-81709961D01*
X126710019Y-81829275D01*
X126937068Y-81963989D01*
X127115626Y-82069881D01*
X128071309Y-82670090D01*
X128955777Y-83295694D01*
X129771156Y-83948672D01*
X130519575Y-84631004D01*
X131203163Y-85344669D01*
X131824046Y-86091645D01*
X132384353Y-86873912D01*
X132540847Y-87115606D01*
X132592246Y-87191685D01*
X132641787Y-87238925D01*
X132709280Y-87265442D01*
X132814534Y-87279351D01*
X132961627Y-87287980D01*
X133350840Y-87269284D01*
X133709767Y-87170376D01*
X134044870Y-86988042D01*
X134362615Y-86719065D01*
X134569561Y-86488104D01*
X134730515Y-86281401D01*
X134852354Y-86097774D01*
X134955394Y-85902944D01*
X135059955Y-85662636D01*
X135062397Y-85656649D01*
X135247417Y-85202667D01*
X135257638Y-81930925D01*
X135267858Y-78659182D01*
X170333537Y-78659182D01*
X170333537Y-82208024D01*
X170333579Y-82864404D01*
X170333792Y-83434646D01*
X170334303Y-83924974D01*
X170335241Y-84341615D01*
X170336734Y-84690793D01*
X170338912Y-84978733D01*
X170341902Y-85211662D01*
X170345832Y-85395803D01*
X170350832Y-85537382D01*
X170357030Y-85642625D01*
X170364554Y-85717757D01*
X170373532Y-85769003D01*
X170384094Y-85802588D01*
X170396367Y-85824737D01*
X170408464Y-85839469D01*
X170458389Y-85911005D01*
X170466973Y-85954431D01*
X170483608Y-86002145D01*
X170546835Y-86092067D01*
X170643852Y-86208995D01*
X170761856Y-86337726D01*
X170888044Y-86463060D01*
X170921149Y-86493701D01*
X171287130Y-86776602D01*
X171663075Y-86967982D01*
X172050015Y-87068038D01*
X172448984Y-87076970D01*
X172861016Y-86994977D01*
X173092245Y-86911747D01*
X173192208Y-86838933D01*
X173322493Y-86694203D01*
X173457546Y-86512040D01*
X173570748Y-86356311D01*
X173722819Y-86157885D01*
X173897484Y-85937458D01*
X174078468Y-85715722D01*
X174167644Y-85609173D01*
X174717429Y-84994287D01*
X175301965Y-84411266D01*
X175929079Y-83853621D01*
X176606597Y-83314866D01*
X177342344Y-82788511D01*
X178144148Y-82268070D01*
X178351597Y-82140699D01*
X178587740Y-81996141D01*
X178800388Y-81863911D01*
X178980412Y-81749853D01*
X179118680Y-81659812D01*
X179206063Y-81599633D01*
X179233606Y-81576058D01*
X179207147Y-81542301D01*
X179128422Y-81493584D01*
X179060947Y-81461174D01*
X178861434Y-81351022D01*
X178650945Y-81197350D01*
X178455571Y-81021790D01*
X178301407Y-80845971D01*
X178276728Y-80811068D01*
X178135336Y-80573081D01*
X178043228Y-80341154D01*
X177992153Y-80085574D01*
X177973858Y-79776625D01*
X177973418Y-79718969D01*
X177974883Y-79506158D01*
X177984307Y-79352509D01*
X178007633Y-79224850D01*
X178050808Y-79090010D01*
X178115787Y-78924649D01*
X178298772Y-78562482D01*
X178545217Y-78224869D01*
X178858788Y-77907664D01*
X179243152Y-77606717D01*
X179337268Y-77542484D01*
X179526820Y-77416096D01*
X179527769Y-76825366D01*
X179530342Y-76558433D01*
X179538654Y-76359660D01*
X179555077Y-76204937D01*
X179581987Y-76070150D01*
X179613067Y-75959146D01*
X179668933Y-75764706D01*
X179693194Y-75646631D01*
X179684374Y-75605390D01*
X179640999Y-75641453D01*
X179561594Y-75755288D01*
X179444683Y-75947366D01*
X179397843Y-76027618D01*
X179112885Y-76466282D01*
X178779798Y-76878567D01*
X178392416Y-77270425D01*
X177944572Y-77647810D01*
X177430101Y-78016674D01*
X177151282Y-78196446D01*
X176890483Y-78362418D01*
X176692542Y-78495984D01*
X176550941Y-78602009D01*
X176459164Y-78685356D01*
X176412029Y-78748272D01*
X176312375Y-78894379D01*
X176171131Y-79047367D01*
X176016773Y-79178824D01*
X175916534Y-79242629D01*
X175864542Y-79291065D01*
X175762746Y-79407976D01*
X175611641Y-79592728D01*
X175411724Y-79844684D01*
X175163491Y-80163208D01*
X174867436Y-80547664D01*
X174524055Y-80997417D01*
X174133846Y-81511830D01*
X173707362Y-82076908D01*
X173324614Y-82585281D01*
X172989775Y-83029840D01*
X172699257Y-83414562D01*
X172449472Y-83743426D01*
X172236832Y-84020409D01*
X172057748Y-84249487D01*
X171908633Y-84434639D01*
X171785898Y-84579842D01*
X171685956Y-84689072D01*
X171605218Y-84766309D01*
X171540096Y-84815528D01*
X171487002Y-84840708D01*
X171442348Y-84845826D01*
X171402545Y-84834859D01*
X171364007Y-84811784D01*
X171323144Y-84780580D01*
X171290776Y-84755688D01*
X171193623Y-84651977D01*
X171167562Y-84559588D01*
X171178692Y-84499689D01*
X171210914Y-84358738D01*
X171262475Y-84143756D01*
X171331621Y-83861760D01*
X171416597Y-83519772D01*
X171515650Y-83124809D01*
X171627025Y-82683893D01*
X171748970Y-82204041D01*
X171879729Y-81692273D01*
X172017550Y-81155609D01*
X172036062Y-81083727D01*
X172904568Y-77712455D01*
X172867168Y-77389182D01*
X172850001Y-77096855D01*
X172856171Y-76751270D01*
X172882849Y-76377285D01*
X172927201Y-75999757D01*
X172986399Y-75643545D01*
X173057609Y-75333506D01*
X173124903Y-75126273D01*
X173171732Y-74979811D01*
X173222988Y-74774848D01*
X173270937Y-74544052D01*
X173294311Y-74410455D01*
X173423612Y-73749659D01*
X173592970Y-73111361D01*
X173796197Y-72514941D01*
X174027104Y-71979781D01*
X174140494Y-71760278D01*
X174314512Y-71464495D01*
X174497769Y-71200808D01*
X174705846Y-70950087D01*
X174954330Y-70693207D01*
X175187829Y-70474804D01*
X175571769Y-70136056D01*
X175928734Y-69842114D01*
X176272268Y-69584798D01*
X176615917Y-69355931D01*
X176973225Y-69147336D01*
X177357736Y-68950834D01*
X177782994Y-68758248D01*
X178262543Y-68561400D01*
X178526496Y-68458980D01*
X178924971Y-68298215D01*
X179295006Y-68129315D01*
X179654143Y-67942560D01*
X180019924Y-67728231D01*
X180409891Y-67476609D01*
X180841586Y-67177975D01*
X180852448Y-67170261D01*
X181248088Y-66898987D01*
X181609995Y-66673861D01*
X181962349Y-66481415D01*
X182329330Y-66308181D01*
X182616522Y-66187652D01*
X183366675Y-65933484D01*
X184125316Y-65769148D01*
X184887669Y-65694244D01*
X185648956Y-65708374D01*
X186404402Y-65811138D01*
X187149229Y-66002136D01*
X187878661Y-66280971D01*
X188587921Y-66647241D01*
X188665017Y-66693162D01*
X189192041Y-67035128D01*
X189665161Y-67395825D01*
X190106293Y-67794102D01*
X190537352Y-68248809D01*
X190720718Y-68461210D01*
X191233131Y-69130435D01*
X191684772Y-69847696D01*
X192073198Y-70607109D01*
X192395965Y-71402793D01*
X192650627Y-72228866D01*
X192834740Y-73079447D01*
X192929858Y-73776227D01*
X192954246Y-74125476D01*
X192965012Y-74535865D01*
X192962956Y-74982294D01*
X192948880Y-75439666D01*
X192923587Y-75882883D01*
X192887878Y-76286847D01*
X192842554Y-76626461D01*
X192837948Y-76653482D01*
X192665756Y-77444081D01*
X192426561Y-78239443D01*
X192127206Y-79023388D01*
X191774536Y-79779738D01*
X191375392Y-80492311D01*
X190940433Y-81139766D01*
X190853238Y-81264106D01*
X190791031Y-81364637D01*
X190767268Y-81419617D01*
X190767268Y-81419644D01*
X190799328Y-81460818D01*
X190882189Y-81520208D01*
X190966298Y-81568076D01*
X191339749Y-81788086D01*
X191737701Y-82069995D01*
X192142293Y-82399101D01*
X192535660Y-82760702D01*
X192899941Y-83140096D01*
X192963128Y-83211530D01*
X193445346Y-83822359D01*
X193885816Y-84497342D01*
X194278494Y-85223425D01*
X194617339Y-85987557D01*
X194896308Y-86776687D01*
X195109361Y-87577762D01*
X195200759Y-88045154D01*
X195231174Y-88259370D01*
X195264186Y-88552519D01*
X195298741Y-88911275D01*
X195333788Y-89322315D01*
X195368273Y-89772313D01*
X195401145Y-90247946D01*
X195431350Y-90735889D01*
X195457836Y-91222818D01*
X195467514Y-91422032D01*
X195480785Y-91775689D01*
X195491138Y-92194973D01*
X195498576Y-92662665D01*
X195503101Y-93161548D01*
X195504718Y-93674403D01*
X195503429Y-94184012D01*
X195499237Y-94673157D01*
X195492144Y-95124620D01*
X195482153Y-95521182D01*
X195469268Y-95845625D01*
X195466762Y-95892872D01*
X195359072Y-97286044D01*
X195192796Y-98626737D01*
X194966186Y-99923601D01*
X194677495Y-101185286D01*
X194324974Y-102420444D01*
X193906876Y-103637725D01*
X193896370Y-103665860D01*
X193834749Y-103839156D01*
X193788045Y-103986826D01*
X193763905Y-104084084D01*
X193762194Y-104100803D01*
X193779865Y-104179603D01*
X193829138Y-104325429D01*
X193904406Y-104524831D01*
X194000059Y-104764358D01*
X194110487Y-105030563D01*
X194230082Y-105309994D01*
X194353235Y-105589204D01*
X194474336Y-105854741D01*
X194587778Y-106093157D01*
X194621884Y-106162205D01*
X195113476Y-107087080D01*
X195630192Y-107939839D01*
X196184120Y-108739357D01*
X196678673Y-109373451D01*
X197220271Y-109996737D01*
X197753354Y-110534625D01*
X198284291Y-110992282D01*
X198819447Y-111374878D01*
X199365190Y-111687581D01*
X199745222Y-111862779D01*
X200150104Y-112032057D01*
X200150104Y-112532965D01*
X199733089Y-112686441D01*
X199376109Y-112811953D01*
X199069587Y-112905158D01*
X198794294Y-112970133D01*
X198530997Y-113010960D01*
X198260467Y-113031716D01*
X198083985Y-113036262D01*
X197874001Y-113035546D01*
X197672339Y-113029759D01*
X197500891Y-113019848D01*
X197381547Y-113006760D01*
X197374707Y-113005568D01*
X197258405Y-112987576D01*
X197192471Y-112994227D01*
X197152523Y-113034693D01*
X197121510Y-113100825D01*
X196998463Y-113324068D01*
X196819500Y-113560391D01*
X196600684Y-113793852D01*
X196358079Y-114008506D01*
X196107749Y-114188410D01*
X195920427Y-114292942D01*
X195794258Y-114356704D01*
X195701562Y-114410151D01*
X195659721Y-114443124D01*
X195658907Y-114445842D01*
X195687466Y-114488479D01*
X195755420Y-114555634D01*
X195763161Y-114562411D01*
X196032600Y-114809176D01*
X196331254Y-115106060D01*
X196648265Y-115440422D01*
X196972774Y-115799621D01*
X197293923Y-116171016D01*
X197600853Y-116541965D01*
X197882705Y-116899828D01*
X198128620Y-117231964D01*
X198327741Y-117525731D01*
X198377740Y-117606158D01*
X198690341Y-118154861D01*
X198941716Y-118672234D01*
X199136452Y-119172808D01*
X199279138Y-119671114D01*
X199374362Y-120181682D01*
X199426710Y-120719045D01*
X199437173Y-120961727D01*
X199435013Y-121508674D01*
X199392347Y-122007093D01*
X199304772Y-122489675D01*
X199167889Y-122989111D01*
X199161574Y-123009119D01*
X199055712Y-123329536D01*
X198964428Y-123570163D01*
X198881609Y-123740071D01*
X198801142Y-123848326D01*
X198716917Y-123903999D01*
X198622820Y-123916158D01*
X198557165Y-123905898D01*
X198463089Y-123883990D01*
X198462431Y-124466404D01*
X198451709Y-124898225D01*
X198418108Y-125264134D01*
X198357879Y-125587596D01*
X198267267Y-125892075D01*
X198210527Y-126041727D01*
X198013105Y-126429745D01*
X197761129Y-126755787D01*
X197459511Y-127015183D01*
X197113161Y-127203261D01*
X196918239Y-127270975D01*
X196688421Y-127313740D01*
X196412887Y-127329311D01*
X196118022Y-127319062D01*
X195830213Y-127284366D01*
X195575847Y-127226598D01*
X195487119Y-127196474D01*
X195043716Y-126988091D01*
X194628205Y-126711686D01*
X194228735Y-126358438D01*
X193936349Y-126042217D01*
X193526892Y-125505680D01*
X193152194Y-124892005D01*
X192815168Y-124207877D01*
X192518730Y-123459981D01*
X192265793Y-122655001D01*
X192059272Y-121799623D01*
X192035394Y-121682095D01*
X191993779Y-121485082D01*
X191954603Y-121321282D01*
X191923210Y-121211960D01*
X191909120Y-121179692D01*
X191857006Y-121154780D01*
X191750246Y-121126956D01*
X191609721Y-121101426D01*
X191575566Y-121096527D01*
X191401203Y-121066952D01*
X191227886Y-121028072D01*
X191092325Y-120988153D01*
X191089207Y-120987019D01*
X190978285Y-120953920D01*
X190898707Y-120944119D01*
X190876086Y-120951519D01*
X190869006Y-121008908D01*
X190867171Y-121149422D01*
X190870258Y-121364073D01*
X190877943Y-121643873D01*
X190889901Y-121979834D01*
X190905809Y-122362966D01*
X190925343Y-122784282D01*
X190948179Y-123234792D01*
X190973993Y-123705509D01*
X190977630Y-123769106D01*
X190993854Y-124072354D01*
X191006330Y-124348154D01*
X191014584Y-124581953D01*
X191018142Y-124759198D01*
X191016527Y-124865336D01*
X191014045Y-124885806D01*
X190958612Y-124961743D01*
X190855865Y-125007191D01*
X190732303Y-125012755D01*
X190685198Y-125002395D01*
X190638263Y-124967178D01*
X190569963Y-124880274D01*
X190476265Y-124735312D01*
X190353137Y-124525924D01*
X190196546Y-124245740D01*
X190135456Y-124134118D01*
X189461313Y-122847821D01*
X188856528Y-121589450D01*
X188319322Y-120354971D01*
X187847916Y-119140350D01*
X187538184Y-118245211D01*
X187412194Y-117860876D01*
X187054437Y-117681351D01*
X186853517Y-117571888D01*
X186633955Y-117438733D01*
X186434747Y-117305865D01*
X186383981Y-117269050D01*
X186248679Y-117169444D01*
X186139438Y-117091122D01*
X186071056Y-117044579D01*
X186055807Y-117036273D01*
X186049020Y-117079805D01*
X186040425Y-117199918D01*
X186030898Y-117380886D01*
X186021311Y-117606986D01*
X186016195Y-117748881D01*
X186004596Y-118028984D01*
X185989381Y-118307061D01*
X185972281Y-118555928D01*
X185955024Y-118748404D01*
X185949720Y-118793893D01*
X185925889Y-118926047D01*
X185880187Y-119129929D01*
X185816438Y-119390369D01*
X185738467Y-119692199D01*
X185650098Y-120020249D01*
X185555157Y-120359350D01*
X185554021Y-120363327D01*
X185200658Y-121600358D01*
X185141222Y-122424042D01*
X185080159Y-123376428D01*
X185037203Y-124285500D01*
X185012258Y-125145587D01*
X185005225Y-125951020D01*
X185016007Y-126696126D01*
X185044505Y-127375235D01*
X185090622Y-127982676D01*
X185154260Y-128512780D01*
X185235321Y-128959874D01*
X185255460Y-129046437D01*
X185342150Y-129345743D01*
X185450264Y-129603074D01*
X185587899Y-129826651D01*
X185763152Y-130024696D01*
X185984122Y-130205430D01*
X186258905Y-130377077D01*
X186595601Y-130547857D01*
X186843537Y-130658870D01*
X187254023Y-130851259D01*
X187595448Y-131046606D01*
X187874537Y-131250521D01*
X188098020Y-131468615D01*
X188272623Y-131706500D01*
X188399737Y-131956862D01*
X188498709Y-132229222D01*
X188565714Y-132487976D01*
X188598615Y-132717467D01*
X188595276Y-132902035D01*
X188553561Y-133026023D01*
X188546799Y-133034974D01*
X188497167Y-133079315D01*
X188431819Y-133099848D01*
X188338850Y-133095013D01*
X188206354Y-133063249D01*
X188022423Y-133002994D01*
X187862866Y-132945309D01*
X187236090Y-132747367D01*
X186572077Y-132599026D01*
X185896780Y-132504421D01*
X185236153Y-132467682D01*
X184897869Y-132473216D01*
X184466071Y-132507489D01*
X184096004Y-132572259D01*
X183776603Y-132672183D01*
X183496808Y-132811917D01*
X183245554Y-132996116D01*
X183011780Y-133229437D01*
X182961168Y-133288333D01*
X182834570Y-133445685D01*
X182723651Y-133600516D01*
X182619429Y-133768829D01*
X182512922Y-133966630D01*
X182395149Y-134209922D01*
X182257130Y-134514711D01*
X182199160Y-134646210D01*
X181952396Y-135208818D01*
X181573985Y-135208818D01*
X181429734Y-134862455D01*
X181256192Y-134459937D01*
X181101559Y-134134622D01*
X180959556Y-133876595D01*
X180823902Y-133675941D01*
X180688318Y-133522745D01*
X180546524Y-133407093D01*
X180482263Y-133366543D01*
X180305956Y-133289919D01*
X180068714Y-133225430D01*
X179784878Y-133174175D01*
X179468792Y-133137254D01*
X179134796Y-133115766D01*
X178797235Y-133110812D01*
X178470450Y-133123491D01*
X178168783Y-133154903D01*
X178029358Y-133178464D01*
X177399243Y-133346365D01*
X176758628Y-133605118D01*
X176108570Y-133954291D01*
X176057711Y-133985186D01*
X175842413Y-134098435D01*
X175653350Y-134161342D01*
X175501084Y-134171886D01*
X175396176Y-134128045D01*
X175383208Y-134114309D01*
X175342620Y-134003271D01*
X175348778Y-133839774D01*
X175399906Y-133642332D01*
X175437735Y-133545905D01*
X175667940Y-133107842D01*
X175962415Y-132697843D01*
X176311101Y-132325736D01*
X176703941Y-132001347D01*
X177130877Y-131734502D01*
X177441127Y-131588642D01*
X177604361Y-131518903D01*
X177709555Y-131463698D01*
X177771612Y-131412362D01*
X177805437Y-131354229D01*
X177816159Y-131320262D01*
X177871951Y-131157414D01*
X177949950Y-131018822D01*
X178056823Y-130901485D01*
X178199237Y-130802401D01*
X178383858Y-130718570D01*
X178617352Y-130646992D01*
X178906385Y-130584666D01*
X179257625Y-130528590D01*
X179677736Y-130475764D01*
X179697150Y-130473553D01*
X180082734Y-130427864D01*
X180404639Y-130384803D01*
X180674892Y-130341920D01*
X180905520Y-130296766D01*
X181108551Y-130246890D01*
X181296010Y-130189843D01*
X181479925Y-130123175D01*
X181546203Y-130096906D01*
X181940232Y-129899259D01*
X182276614Y-129646691D01*
X182526286Y-129379690D01*
X182665276Y-129181042D01*
X182776629Y-128962720D01*
X182862748Y-128713151D01*
X182926030Y-128420767D01*
X182968875Y-128073995D01*
X182993684Y-127661266D01*
X183002855Y-127171008D01*
X183003032Y-127080818D01*
X182991272Y-126470608D01*
X182957337Y-125794351D01*
X182903171Y-125073568D01*
X182830718Y-124329778D01*
X182741922Y-123584502D01*
X182638727Y-122859259D01*
X182599568Y-122614150D01*
X182563017Y-122404957D01*
X182524772Y-122229560D01*
X182477946Y-122073939D01*
X182415647Y-121924074D01*
X182330988Y-121765946D01*
X182217078Y-121585536D01*
X182067029Y-121368823D01*
X181873950Y-121101789D01*
X181820437Y-121028647D01*
X181660010Y-120807343D01*
X181495817Y-120576898D01*
X181344469Y-120360872D01*
X181222578Y-120182830D01*
X181194915Y-120141370D01*
X180967417Y-119797460D01*
X178844432Y-119786978D01*
X178349490Y-119784097D01*
X177921629Y-119780372D01*
X177552110Y-119775308D01*
X177232193Y-119768411D01*
X176953139Y-119759184D01*
X176706209Y-119747133D01*
X176482663Y-119731764D01*
X176273763Y-119712582D01*
X176070769Y-119689091D01*
X175864941Y-119660797D01*
X175647540Y-119627205D01*
X175451447Y-119594845D01*
X175211516Y-119547993D01*
X175021952Y-119493985D01*
X174857308Y-119424527D01*
X174750104Y-119366293D01*
X174463850Y-119169037D01*
X174151259Y-118900603D01*
X173820826Y-118571851D01*
X173481048Y-118193640D01*
X173140424Y-117776829D01*
X172807449Y-117332279D01*
X172490621Y-116870850D01*
X172198437Y-116403401D01*
X171939393Y-115940792D01*
X171724328Y-115499138D01*
X171639617Y-115305033D01*
X171593762Y-115171042D01*
X171593666Y-115084677D01*
X171646235Y-115033452D01*
X171758373Y-115004880D01*
X171936984Y-114986475D01*
X172011074Y-114980553D01*
X172238955Y-114963303D01*
X172401989Y-114944908D01*
X172505154Y-114913088D01*
X172553429Y-114855566D01*
X172551792Y-114760065D01*
X172505221Y-114614305D01*
X172418694Y-114406009D01*
X172328741Y-114197078D01*
X172219912Y-113946323D01*
X172110867Y-113701805D01*
X172011579Y-113485441D01*
X171932027Y-113319150D01*
X171904253Y-113264450D01*
X171765337Y-112999909D01*
X171692743Y-113121308D01*
X171642361Y-113199131D01*
X171553212Y-113330541D01*
X171436341Y-113499491D01*
X171302793Y-113689934D01*
X171249274Y-113765581D01*
X170889018Y-114243100D01*
X170514832Y-114682259D01*
X170136491Y-115073424D01*
X169763771Y-115406967D01*
X169406445Y-115673256D01*
X169168528Y-115815643D01*
X168879121Y-115968902D01*
X168627886Y-116860497D01*
X168161636Y-118390705D01*
X167644301Y-119852857D01*
X167075512Y-121247554D01*
X166454900Y-122575399D01*
X165782097Y-123836995D01*
X165056734Y-125032943D01*
X164278441Y-126163847D01*
X163446850Y-127230309D01*
X162561593Y-128232931D01*
X161622299Y-129172315D01*
X160628602Y-130049064D01*
X160476820Y-130173595D01*
X159794107Y-130708244D01*
X159106255Y-131204994D01*
X158403943Y-131669037D01*
X157677845Y-132105565D01*
X156918639Y-132519771D01*
X156117000Y-132916845D01*
X155263603Y-133301981D01*
X154349126Y-133680371D01*
X153787177Y-133898750D01*
X152803055Y-134273035D01*
X152213893Y-134052680D01*
X151909038Y-133936680D01*
X151571613Y-133804879D01*
X151215891Y-133663132D01*
X150856144Y-133517289D01*
X150506645Y-133373202D01*
X150181666Y-133236724D01*
X149895481Y-133113706D01*
X149662360Y-133010001D01*
X149594572Y-132978707D01*
X148380535Y-132365134D01*
X147219003Y-131684943D01*
X146110141Y-130938339D01*
X145054109Y-130125525D01*
X144051072Y-129246708D01*
X143101191Y-128302090D01*
X142204630Y-127291877D01*
X141361551Y-126216273D01*
X140572117Y-125075483D01*
X139836490Y-123869712D01*
X139154834Y-122599163D01*
X138527311Y-121264041D01*
X137954084Y-119864552D01*
X137435315Y-118400898D01*
X137077094Y-117244091D01*
X136992654Y-116952733D01*
X136915105Y-116682338D01*
X136848693Y-116447936D01*
X136797665Y-116264560D01*
X136766268Y-116147242D01*
X136760250Y-116122593D01*
X136734819Y-116042343D01*
X136690248Y-115978637D01*
X136610658Y-115916582D01*
X136480166Y-115841285D01*
X136434092Y-115816723D01*
X136055612Y-115580072D01*
X135660600Y-115263943D01*
X135256805Y-114876358D01*
X134851975Y-114425340D01*
X134453857Y-113918912D01*
X134077820Y-113376802D01*
X133844731Y-113019330D01*
X133775587Y-113120585D01*
X133717750Y-113219477D01*
X133638364Y-113375037D01*
X133543225Y-113573862D01*
X133438129Y-113802544D01*
X133328872Y-114047681D01*
X133221251Y-114295865D01*
X133121062Y-114533693D01*
X133034101Y-114747758D01*
X132966164Y-114924656D01*
X132923047Y-115050982D01*
X132910548Y-115113330D01*
X132912346Y-115117033D01*
X132962143Y-115131569D01*
X133065433Y-115149084D01*
X133200091Y-115165840D01*
X133203344Y-115166183D01*
X133410253Y-115189521D01*
X133552937Y-115210856D01*
X133642857Y-115233635D01*
X133691477Y-115261311D01*
X133710260Y-115297332D01*
X133712044Y-115319287D01*
X133689064Y-115410364D01*
X133624551Y-115561409D01*
X133525150Y-115761068D01*
X133397504Y-115997985D01*
X133248257Y-116260807D01*
X133084052Y-116538178D01*
X132911532Y-116818745D01*
X132737343Y-117091153D01*
X132568126Y-117344046D01*
X132410527Y-117566071D01*
X132351365Y-117644820D01*
X132221911Y-117809356D01*
X132124594Y-117918399D01*
X132042388Y-117986777D01*
X131958268Y-118029314D01*
X131881851Y-118053684D01*
X131786807Y-118069850D01*
X131625185Y-118085564D01*
X131406230Y-118100292D01*
X131139185Y-118113497D01*
X130833294Y-118124644D01*
X130515621Y-118132830D01*
X129347407Y-118157260D01*
X129018158Y-118411732D01*
X128711432Y-118647959D01*
X128459148Y-118839262D01*
X128252134Y-118990974D01*
X128081218Y-119108429D01*
X127937227Y-119196960D01*
X127810991Y-119261900D01*
X127693337Y-119308582D01*
X127575092Y-119342341D01*
X127447086Y-119368508D01*
X127343089Y-119385743D01*
X127134925Y-119413739D01*
X126869356Y-119442260D01*
X126564780Y-119469879D01*
X126239595Y-119495165D01*
X125912200Y-119516691D01*
X125600994Y-119533029D01*
X125324375Y-119542748D01*
X125319547Y-119542860D01*
X124869289Y-119553182D01*
X124399780Y-120453727D01*
X124138238Y-120964595D01*
X123919243Y-121414375D01*
X123738449Y-121814556D01*
X123591506Y-122176626D01*
X123474065Y-122512074D01*
X123381777Y-122832388D01*
X123310295Y-123149057D01*
X123255268Y-123473569D01*
X123254410Y-123479496D01*
X123187841Y-123940455D01*
X123000316Y-123963546D01*
X122812791Y-123986636D01*
X122768660Y-124309909D01*
X122713956Y-124775879D01*
X122667150Y-125303603D01*
X122630151Y-125862763D01*
X122604868Y-126423039D01*
X122593213Y-126954109D01*
X122592660Y-127103909D01*
X122598450Y-127588155D01*
X122616402Y-127993163D01*
X122649226Y-128331339D01*
X122699632Y-128615086D01*
X122770331Y-128856810D01*
X122864032Y-129068917D01*
X122983447Y-129263811D01*
X123097171Y-129413064D01*
X123318608Y-129649749D01*
X123567668Y-129849682D01*
X123852577Y-130016462D01*
X124181555Y-130153693D01*
X124562827Y-130264975D01*
X125004615Y-130353910D01*
X125364332Y-130406070D01*
X125759118Y-130456176D01*
X126086294Y-130498541D01*
X126353705Y-130534461D01*
X126569198Y-130565230D01*
X126740618Y-130592146D01*
X126875812Y-130616504D01*
X126982627Y-130639599D01*
X127068907Y-130662728D01*
X127142500Y-130687186D01*
X127198467Y-130708972D01*
X127404701Y-130807514D01*
X127552391Y-130916165D01*
X127658631Y-131051411D01*
X127740515Y-131229740D01*
X127741660Y-131232868D01*
X127791963Y-131360810D01*
X127841253Y-131439475D01*
X127912316Y-131491129D01*
X128027941Y-131538039D01*
X128068665Y-131552399D01*
X128459815Y-131728089D01*
X128854093Y-131977646D01*
X129232251Y-132286686D01*
X129575036Y-132640827D01*
X129655626Y-132738061D01*
X129869498Y-133026610D01*
X130040231Y-133301830D01*
X130163644Y-133554577D01*
X130235555Y-133775703D01*
X130251782Y-133956064D01*
X130240839Y-134017977D01*
X130207833Y-134098876D01*
X130153250Y-134140154D01*
X130052198Y-134158456D01*
X130027577Y-134160561D01*
X129921132Y-134159169D01*
X129814442Y-134131525D01*
X129684335Y-134069450D01*
X129554415Y-133993529D01*
X128930323Y-133650164D01*
X128322906Y-133392462D01*
X127725321Y-133218276D01*
X127130729Y-133125462D01*
X126730522Y-133107731D01*
X126463807Y-133114853D01*
X126184240Y-133134913D01*
X125907344Y-133165655D01*
X125648641Y-133204826D01*
X125423655Y-133250170D01*
X125247910Y-133299432D01*
X125161312Y-133335669D01*
X124986947Y-133452726D01*
X124822600Y-133616785D01*
X124661784Y-133837330D01*
X124498010Y-134123844D01*
X124324792Y-134485814D01*
X124237855Y-134685684D01*
X124015947Y-135208818D01*
X123847019Y-135222588D01*
X123718434Y-135217978D01*
X123644271Y-135182050D01*
X123640174Y-135176406D01*
X123609230Y-135115443D01*
X123550436Y-134989446D01*
X123471384Y-134815032D01*
X123379664Y-134608817D01*
X123349035Y-134539182D01*
X123136692Y-134083470D01*
X122932025Y-133707048D01*
X122726871Y-133398880D01*
X122513064Y-133147932D01*
X122282439Y-132943168D01*
X122054582Y-132789741D01*
X121845014Y-132681633D01*
X121619406Y-132599317D01*
X121363631Y-132539644D01*
X121063557Y-132499463D01*
X120705058Y-132475626D01*
X120632940Y-132472817D01*
X120043413Y-132479124D01*
X119428233Y-132535693D01*
X118811347Y-132638523D01*
X118216702Y-132783609D01*
X117668246Y-132966949D01*
X117661898Y-132969422D01*
X117429264Y-133052702D01*
X117256246Y-133096281D01*
X117134444Y-133101273D01*
X117055457Y-133068796D01*
X117039029Y-133052127D01*
X117000262Y-132946206D01*
X116994213Y-132778431D01*
X117017444Y-132568131D01*
X117066517Y-132334639D01*
X117137996Y-132097285D01*
X117228441Y-131875400D01*
X117259243Y-131813822D01*
X117392525Y-131596901D01*
X117556619Y-131400026D01*
X117759931Y-131216750D01*
X118010867Y-131040626D01*
X118317834Y-130865207D01*
X118689238Y-130684046D01*
X118794283Y-130636595D01*
X119100654Y-130495439D01*
X119345960Y-130370822D01*
X119542323Y-130255141D01*
X119701862Y-130140795D01*
X119836699Y-130020183D01*
X119921220Y-129929846D01*
X120060449Y-129744589D01*
X120179057Y-129525381D01*
X120279066Y-129263580D01*
X120362499Y-128950544D01*
X120431378Y-128577630D01*
X120487726Y-128136195D01*
X120533566Y-127617596D01*
X120560930Y-127196273D01*
X120574853Y-126855650D01*
X120582679Y-126440722D01*
X120584653Y-125969221D01*
X120581019Y-125458882D01*
X120572023Y-124927438D01*
X120557909Y-124392623D01*
X120538924Y-123872171D01*
X120515311Y-123383816D01*
X120506053Y-123224636D01*
X120462343Y-122508818D01*
X120304176Y-122494793D01*
X120196309Y-122473564D01*
X120120723Y-122437765D01*
X120109017Y-122425520D01*
X120093806Y-122362463D01*
X120075834Y-122224227D01*
X120056832Y-122027836D01*
X120038529Y-121790313D01*
X120028519Y-121633710D01*
X119984153Y-121062535D01*
X119921784Y-120531112D01*
X119843378Y-120049754D01*
X119750905Y-119628775D01*
X119646331Y-119278488D01*
X119531625Y-119009207D01*
X119525616Y-118997976D01*
X119455263Y-118884003D01*
X119344031Y-118722538D01*
X119204707Y-118531341D01*
X119050075Y-118328171D01*
X118971157Y-118227825D01*
X118541182Y-117687559D01*
X118364562Y-117772073D01*
X118187943Y-117856586D01*
X117994465Y-118427793D01*
X117598014Y-119531816D01*
X117157165Y-120631234D01*
X116664243Y-121744450D01*
X116247360Y-122616553D01*
X116074204Y-122963334D01*
X115896288Y-123310924D01*
X115718860Y-123649812D01*
X115547164Y-123970485D01*
X115386447Y-124263434D01*
X115241953Y-124519145D01*
X115118930Y-124728107D01*
X115022622Y-124880809D01*
X114958275Y-124967739D01*
X114942906Y-124981805D01*
X114846915Y-125010722D01*
X114734179Y-125004841D01*
X114668705Y-124982763D01*
X114621698Y-124942637D01*
X114591375Y-124872000D01*
X114575953Y-124758387D01*
X114573652Y-124589333D01*
X114582689Y-124352376D01*
X114599529Y-124062994D01*
X114621230Y-123698558D01*
X114642005Y-123316998D01*
X114661440Y-122929247D01*
X114679119Y-122546234D01*
X114694628Y-122178890D01*
X114707552Y-121838143D01*
X114717478Y-121534925D01*
X114723989Y-121280166D01*
X114726671Y-121084796D01*
X114725111Y-120959744D01*
X114718910Y-120915941D01*
X114674795Y-120928617D01*
X114582450Y-120960420D01*
X114511500Y-120986181D01*
X114377192Y-121026437D01*
X114204119Y-121065781D01*
X114029088Y-121095875D01*
X114024343Y-121096527D01*
X113878937Y-121120966D01*
X113762446Y-121149089D01*
X113695833Y-121175615D01*
X113689881Y-121180799D01*
X113667456Y-121239700D01*
X113631344Y-121370138D01*
X113586169Y-121554018D01*
X113536557Y-121773249D01*
X113526367Y-121820408D01*
X113413594Y-122316540D01*
X113298484Y-122754631D01*
X113170919Y-123168514D01*
X113020782Y-123592024D01*
X112913147Y-123871182D01*
X112629380Y-124527083D01*
X112326368Y-125104043D01*
X111997458Y-125614205D01*
X111849168Y-125812530D01*
X111425994Y-126297842D01*
X110983925Y-126694798D01*
X110523721Y-127002793D01*
X110112791Y-127196529D01*
X109879847Y-127263347D01*
X109602629Y-127307672D01*
X109307513Y-127328133D01*
X109020879Y-127323356D01*
X108769105Y-127291970D01*
X108681671Y-127270975D01*
X108309036Y-127123347D01*
X107986838Y-126907717D01*
X107713417Y-126622262D01*
X107487114Y-126265158D01*
X107306271Y-125834583D01*
X107268944Y-125718455D01*
X107227631Y-125574493D01*
X107197843Y-125442983D01*
X107177127Y-125302578D01*
X107163030Y-125131929D01*
X107153103Y-124909686D01*
X107145627Y-124644727D01*
X107127762Y-123917364D01*
X107002705Y-123917364D01*
X106895788Y-123908799D01*
X106815741Y-123888424D01*
X106755671Y-123822305D01*
X106681409Y-123682011D01*
X106598002Y-123482711D01*
X106510498Y-123239570D01*
X106423944Y-122967757D01*
X106343386Y-122682437D01*
X106273873Y-122398778D01*
X106220450Y-122131946D01*
X106209934Y-122067933D01*
X106175189Y-121753641D01*
X106156538Y-121382956D01*
X106153977Y-120989744D01*
X106167501Y-120607869D01*
X106197105Y-120271197D01*
X106210191Y-120177139D01*
X106332832Y-119594572D01*
X106520533Y-119008037D01*
X106774486Y-118415625D01*
X107095883Y-117815429D01*
X107485916Y-117205542D01*
X107945777Y-116584056D01*
X108476657Y-115949063D01*
X109079748Y-115298657D01*
X109554903Y-114824069D01*
X109690939Y-114687831D01*
X109800496Y-114569937D01*
X109872326Y-114483075D01*
X109895230Y-114440098D01*
X109856865Y-114402347D01*
X109766875Y-114343041D01*
X109644157Y-114274545D01*
X109634812Y-114269716D01*
X109466214Y-114173049D01*
X109287952Y-114055528D01*
X109173645Y-113970126D01*
X109038199Y-113846509D01*
X108892503Y-113690657D01*
X108750235Y-113520004D01*
X108625073Y-113351984D01*
X108530692Y-113204028D01*
X108480771Y-113093572D01*
X108478504Y-113084088D01*
X108460759Y-113018644D01*
X108429102Y-112988006D01*
X108363290Y-112985372D01*
X108243081Y-113003939D01*
X108241052Y-113004294D01*
X108120373Y-113018212D01*
X107946528Y-113029053D01*
X107742152Y-113035787D01*
X107529881Y-113037385D01*
X107515925Y-113037283D01*
X107174477Y-113022443D01*
X106849890Y-112980765D01*
X106520180Y-112907582D01*
X106163363Y-112798230D01*
X105848354Y-112683392D01*
X105669980Y-112612496D01*
X105550959Y-112557358D01*
X105477555Y-112509166D01*
X105436034Y-112459106D01*
X105414543Y-112405078D01*
X105402500Y-112258951D01*
X105513882Y-112258951D01*
X105517491Y-112307612D01*
X105564590Y-112369090D01*
X105639777Y-112425452D01*
X105775714Y-112494784D01*
X105958772Y-112572140D01*
X106175319Y-112652572D01*
X106411727Y-112731134D01*
X106654364Y-112802878D01*
X106889601Y-112862856D01*
X106979468Y-112882633D01*
X107275855Y-112936920D01*
X107520615Y-112963254D01*
X107734163Y-112962478D01*
X107936913Y-112935433D01*
X107989805Y-112924331D01*
X108196653Y-112878794D01*
X108342207Y-112851500D01*
X108439739Y-112843951D01*
X108502519Y-112857645D01*
X108543819Y-112894083D01*
X108576910Y-112954763D01*
X108593612Y-112992569D01*
X108674406Y-113134425D01*
X108802272Y-113309500D01*
X108961190Y-113499794D01*
X109135137Y-113687306D01*
X109308092Y-113854035D01*
X109464033Y-113981981D01*
X109491060Y-114000855D01*
X109647831Y-114099041D01*
X109812930Y-114190991D01*
X109932716Y-114248737D01*
X110065055Y-114320474D01*
X110125627Y-114398015D01*
X110114789Y-114489233D01*
X110032898Y-114602005D01*
X109952320Y-114681000D01*
X109654082Y-114964379D01*
X109332467Y-115289665D01*
X108999017Y-115643720D01*
X108665277Y-116013405D01*
X108342792Y-116385578D01*
X108043104Y-116747102D01*
X107777758Y-117084836D01*
X107558298Y-117385640D01*
X107497623Y-117475000D01*
X107101900Y-118120083D01*
X106780475Y-118751663D01*
X106532873Y-119371522D01*
X106358614Y-119981445D01*
X106257224Y-120583213D01*
X106228225Y-121178610D01*
X106271139Y-121769419D01*
X106299437Y-121954636D01*
X106359056Y-122252051D01*
X106435665Y-122560104D01*
X106523913Y-122863316D01*
X106618448Y-123146204D01*
X106713919Y-123393287D01*
X106804976Y-123589085D01*
X106886265Y-123718116D01*
X106920779Y-123752181D01*
X106973642Y-123771694D01*
X107027838Y-123735836D01*
X107091376Y-123651402D01*
X107183471Y-123533164D01*
X107243681Y-123498087D01*
X107273245Y-123547000D01*
X107273401Y-123680734D01*
X107264398Y-123767273D01*
X107251644Y-123920989D01*
X107241881Y-124137038D01*
X107236145Y-124385421D01*
X107235270Y-124610091D01*
X107238748Y-124867065D01*
X107247500Y-125058601D01*
X107264709Y-125211589D01*
X107293558Y-125352918D01*
X107337229Y-125509478D01*
X107344580Y-125533727D01*
X107520765Y-125992450D01*
X107748230Y-126385403D01*
X108024211Y-126709532D01*
X108345944Y-126961780D01*
X108710662Y-127139094D01*
X108833312Y-127178740D01*
X109170697Y-127231134D01*
X109535614Y-127206595D01*
X109918281Y-127108595D01*
X110308915Y-126940605D01*
X110697733Y-126706095D01*
X111074953Y-126408536D01*
X111120670Y-126367202D01*
X111338226Y-126146760D01*
X111577365Y-125869410D01*
X111820937Y-125557644D01*
X112051793Y-125233956D01*
X112252781Y-124920837D01*
X112342427Y-124764856D01*
X112607007Y-124231984D01*
X112858090Y-123632816D01*
X113086579Y-122993266D01*
X113283378Y-122339246D01*
X113439388Y-121696669D01*
X113466807Y-121562091D01*
X113508974Y-121368209D01*
X113551724Y-121206685D01*
X113588705Y-121100047D01*
X113604862Y-121072366D01*
X113667314Y-121042866D01*
X113780740Y-121014849D01*
X113918148Y-120994677D01*
X114092490Y-120964065D01*
X114291891Y-120910238D01*
X114461531Y-120849402D01*
X114600846Y-120793115D01*
X114714737Y-120751291D01*
X114782382Y-120731477D01*
X114788704Y-120730818D01*
X114807596Y-120756176D01*
X114818087Y-120839094D01*
X114820580Y-120989835D01*
X114815482Y-121218666D01*
X114811960Y-121319636D01*
X114798911Y-121655958D01*
X114783778Y-122021394D01*
X114767177Y-122403160D01*
X114749728Y-122788476D01*
X114732048Y-123164556D01*
X114714755Y-123518620D01*
X114698468Y-123837884D01*
X114683804Y-124109565D01*
X114671382Y-124320881D01*
X114661821Y-124459049D01*
X114658341Y-124496401D01*
X114654261Y-124647399D01*
X114690082Y-124759694D01*
X114712193Y-124796182D01*
X114787498Y-124909470D01*
X114872006Y-124817508D01*
X114928985Y-124738424D01*
X115019630Y-124591516D01*
X115137990Y-124387711D01*
X115278112Y-124137936D01*
X115434045Y-123853119D01*
X115599838Y-123544187D01*
X115769540Y-123222068D01*
X115937198Y-122897690D01*
X116096862Y-122581981D01*
X116171327Y-122431826D01*
X116574577Y-121586692D01*
X116953817Y-120740195D01*
X117302277Y-119908601D01*
X117613185Y-119108175D01*
X117879773Y-118355181D01*
X117924812Y-118218953D01*
X117991926Y-118016238D01*
X118042626Y-117880535D01*
X118088525Y-117793035D01*
X118141236Y-117734928D01*
X118212372Y-117687406D01*
X118274095Y-117653225D01*
X118399435Y-117592725D01*
X118508782Y-117553106D01*
X118558424Y-117544140D01*
X118615552Y-117576856D01*
X118711943Y-117666659D01*
X118837171Y-117800870D01*
X118980809Y-117966812D01*
X119132431Y-118151806D01*
X119281612Y-118343173D01*
X119417925Y-118528236D01*
X119530945Y-118694315D01*
X119602077Y-118813249D01*
X119712639Y-119068410D01*
X119815141Y-119403158D01*
X119907130Y-119804969D01*
X119986153Y-120261318D01*
X120049757Y-120759682D01*
X120095489Y-121287536D01*
X120099784Y-121354273D01*
X120114400Y-121597486D01*
X120126646Y-121814662D01*
X120135444Y-121985638D01*
X120139713Y-122090251D01*
X120139950Y-122104727D01*
X120166119Y-122214613D01*
X120216123Y-122301241D01*
X120282853Y-122362560D01*
X120342320Y-122354220D01*
X120362743Y-122340134D01*
X120421247Y-122302788D01*
X120466435Y-122297721D01*
X120500990Y-122334629D01*
X120527597Y-122423209D01*
X120548939Y-122573156D01*
X120567700Y-122794168D01*
X120586564Y-123095939D01*
X120590335Y-123162394D01*
X120623958Y-123858897D01*
X120647295Y-124559703D01*
X120660468Y-125252753D01*
X120663603Y-125925990D01*
X120656823Y-126567357D01*
X120640250Y-127164796D01*
X120614009Y-127706250D01*
X120578223Y-128179660D01*
X120535044Y-128558636D01*
X120470177Y-128973587D01*
X120397345Y-129318656D01*
X120308379Y-129605000D01*
X120195113Y-129843771D01*
X120049380Y-130046123D01*
X119863013Y-130223210D01*
X119627845Y-130386187D01*
X119335709Y-130546207D01*
X118978439Y-130714423D01*
X118945925Y-130728958D01*
X118513982Y-130936827D01*
X118151456Y-131146754D01*
X117852021Y-131365001D01*
X117609350Y-131597826D01*
X117417117Y-131851491D01*
X117268998Y-132132254D01*
X117158665Y-132446377D01*
X117139983Y-132516071D01*
X117101663Y-132671029D01*
X117086239Y-132764343D01*
X117093860Y-132822477D01*
X117124675Y-132871896D01*
X117142107Y-132893419D01*
X117179518Y-132935189D01*
X117217807Y-132955891D01*
X117273688Y-132954104D01*
X117363879Y-132928406D01*
X117505097Y-132877375D01*
X117556580Y-132858158D01*
X118286747Y-132629707D01*
X119058725Y-132473497D01*
X119866062Y-132390531D01*
X120632940Y-132379712D01*
X120994662Y-132393795D01*
X121293455Y-132416551D01*
X121542042Y-132450539D01*
X121753149Y-132498319D01*
X121939501Y-132562450D01*
X122113822Y-132645492D01*
X122200747Y-132695084D01*
X122425218Y-132845440D01*
X122623681Y-133016756D01*
X122804921Y-133221087D01*
X122977722Y-133470487D01*
X123150869Y-133777010D01*
X123333147Y-134152709D01*
X123443717Y-134400636D01*
X123542238Y-134622049D01*
X123632747Y-134816671D01*
X123707561Y-134968623D01*
X123758997Y-135062028D01*
X123773169Y-135081447D01*
X123815302Y-135108487D01*
X123858804Y-135097498D01*
X123909654Y-135039406D01*
X123973835Y-134925136D01*
X124057328Y-134745615D01*
X124166115Y-134491768D01*
X124173544Y-134474053D01*
X124339016Y-134098585D01*
X124492553Y-133800842D01*
X124645034Y-133570465D01*
X124807340Y-133397095D01*
X124990352Y-133270376D01*
X125204950Y-133179948D01*
X125462013Y-133115454D01*
X125631119Y-133086415D01*
X125920319Y-133051995D01*
X126245941Y-133029304D01*
X126588680Y-133018369D01*
X126929233Y-133019214D01*
X127248296Y-133031865D01*
X127526564Y-133056345D01*
X127703238Y-133083741D01*
X128303543Y-133243533D01*
X128918569Y-133484126D01*
X129535474Y-133800275D01*
X129708339Y-133902563D01*
X129851733Y-133988847D01*
X129943866Y-134037650D01*
X130001191Y-134053048D01*
X130040161Y-134039116D01*
X130077228Y-133999929D01*
X130081322Y-133994951D01*
X130125387Y-133934987D01*
X130135205Y-133881290D01*
X130110556Y-133799801D01*
X130079563Y-133724438D01*
X129885025Y-133343987D01*
X129627521Y-132969349D01*
X129319721Y-132612805D01*
X128974295Y-132286632D01*
X128603911Y-132003110D01*
X128221239Y-131774518D01*
X127936657Y-131647587D01*
X127808865Y-131593469D01*
X127732397Y-131538638D01*
X127684617Y-131462053D01*
X127657344Y-131387978D01*
X127551585Y-131182126D01*
X127382919Y-131000019D01*
X127163636Y-130853561D01*
X127053707Y-130803249D01*
X126981329Y-130776042D01*
X126903564Y-130751395D01*
X126812469Y-130727992D01*
X126700099Y-130704519D01*
X126558511Y-130679660D01*
X126379760Y-130652100D01*
X126155902Y-130620524D01*
X125878994Y-130583616D01*
X125541092Y-130540061D01*
X125212690Y-130498434D01*
X124709847Y-130420537D01*
X124274396Y-130320879D01*
X123899504Y-130196552D01*
X123578335Y-130044645D01*
X123304058Y-129862248D01*
X123069839Y-129646452D01*
X122985965Y-129550287D01*
X122861842Y-129383484D01*
X122760693Y-129207786D01*
X122680375Y-129012050D01*
X122618743Y-128785132D01*
X122573653Y-128515889D01*
X122542959Y-128193177D01*
X122524517Y-127805852D01*
X122516184Y-127342773D01*
X122515157Y-127103909D01*
X122516647Y-126671830D01*
X122523015Y-126289820D01*
X122535593Y-125933733D01*
X122555710Y-125579425D01*
X122584697Y-125202753D01*
X122623886Y-124779570D01*
X122665961Y-124367636D01*
X122692217Y-124125690D01*
X122713385Y-123960834D01*
X122733057Y-123858399D01*
X122754823Y-123803719D01*
X122782276Y-123782126D01*
X122810128Y-123778818D01*
X122897374Y-123802483D01*
X122936999Y-123833145D01*
X122998444Y-123863406D01*
X123056995Y-123807231D01*
X123109793Y-123670551D01*
X123153982Y-123459293D01*
X123169043Y-123351722D01*
X123220366Y-123021080D01*
X123294600Y-122687432D01*
X123395596Y-122340437D01*
X123527206Y-121969755D01*
X123693282Y-121565046D01*
X123897675Y-121115968D01*
X124144237Y-120612183D01*
X124312204Y-120282865D01*
X124746223Y-119442366D01*
X125258014Y-119439641D01*
X125632874Y-119430755D01*
X126043284Y-119409234D01*
X126460737Y-119377230D01*
X126856727Y-119336896D01*
X127172492Y-119295057D01*
X127317176Y-119271313D01*
X127444299Y-119244134D01*
X127563092Y-119208201D01*
X127682788Y-119158197D01*
X127812623Y-119088803D01*
X127961827Y-118994702D01*
X128139635Y-118870576D01*
X128355279Y-118711106D01*
X128617993Y-118510976D01*
X128866517Y-118319368D01*
X129195765Y-118064896D01*
X130363979Y-118040467D01*
X130696933Y-118031799D01*
X131000334Y-118020570D01*
X131264858Y-118007318D01*
X131481180Y-117992584D01*
X131639977Y-117976906D01*
X131729776Y-117961433D01*
X131821683Y-117930723D01*
X131900702Y-117886703D01*
X131982118Y-117815777D01*
X132081219Y-117704349D01*
X132213289Y-117538823D01*
X132232138Y-117514603D01*
X132386369Y-117304953D01*
X132568966Y-117039030D01*
X132766659Y-116737751D01*
X132966179Y-116422036D01*
X133154256Y-116112802D01*
X133317621Y-115830968D01*
X133421102Y-115640255D01*
X133492386Y-115499300D01*
X133526185Y-115415229D01*
X133526721Y-115367791D01*
X133498217Y-115336733D01*
X133486087Y-115328527D01*
X133400924Y-115297362D01*
X133285141Y-115281774D01*
X133264902Y-115281364D01*
X133129083Y-115274554D01*
X132976722Y-115257635D01*
X132940171Y-115251996D01*
X132831677Y-115227592D01*
X132779585Y-115192139D01*
X132764548Y-115130570D01*
X132764283Y-115115026D01*
X132781609Y-115043947D01*
X132829613Y-114906184D01*
X132902330Y-114715915D01*
X132993798Y-114487317D01*
X133098052Y-114234569D01*
X133209130Y-113971850D01*
X133321068Y-113713336D01*
X133427902Y-113473208D01*
X133523670Y-113265641D01*
X133602408Y-113104816D01*
X133636916Y-113040320D01*
X133719525Y-112910886D01*
X133793133Y-112845638D01*
X133868319Y-112847720D01*
X133955664Y-112920275D01*
X134065747Y-113066448D01*
X134148005Y-113192198D01*
X134298112Y-113412935D01*
X134489008Y-113670729D01*
X134708166Y-113950635D01*
X134943056Y-114237705D01*
X135181150Y-114516994D01*
X135409918Y-114773555D01*
X135616832Y-114992442D01*
X135789362Y-115158708D01*
X135816074Y-115182130D01*
X136001637Y-115331878D01*
X136210864Y-115485583D01*
X136409801Y-115618797D01*
X136489507Y-115667039D01*
X136644335Y-115758557D01*
X136744490Y-115827168D01*
X136804567Y-115887527D01*
X136839162Y-115954289D01*
X136862819Y-116041878D01*
X136905781Y-116213652D01*
X136972403Y-116455074D01*
X137057808Y-116750218D01*
X137157120Y-117083159D01*
X137265462Y-117437971D01*
X137377959Y-117798729D01*
X137489733Y-118149508D01*
X137595909Y-118474383D01*
X137691610Y-118757428D01*
X137714066Y-118821892D01*
X138248171Y-120240245D01*
X138831143Y-121589564D01*
X139464891Y-122873332D01*
X140151323Y-124095033D01*
X140892348Y-125258149D01*
X141689875Y-126366165D01*
X142202595Y-127013644D01*
X143042646Y-127983570D01*
X143913517Y-128881327D01*
X144823113Y-129713813D01*
X145779341Y-130487923D01*
X146790107Y-131210554D01*
X147630208Y-131748249D01*
X148097539Y-132026423D01*
X148558161Y-132285807D01*
X149023259Y-132531707D01*
X149504016Y-132769433D01*
X150011616Y-133004290D01*
X150557244Y-133241589D01*
X151152084Y-133486635D01*
X151807319Y-133744738D01*
X151964523Y-133805272D01*
X152797152Y-134124685D01*
X153670494Y-133793866D01*
X154411982Y-133505200D01*
X155092339Y-133223261D01*
X155725466Y-132941516D01*
X156325268Y-132653434D01*
X156905647Y-132352482D01*
X157480507Y-132032127D01*
X157729066Y-131887017D01*
X158803427Y-131210833D01*
X159816682Y-130487949D01*
X160775768Y-129712412D01*
X161687621Y-128878273D01*
X162559179Y-127979580D01*
X163358524Y-127057727D01*
X164199122Y-125973874D01*
X164982714Y-124834478D01*
X165710268Y-123637597D01*
X166382755Y-122381290D01*
X167001143Y-121063614D01*
X167566402Y-119682628D01*
X168079502Y-118236390D01*
X168541411Y-116722958D01*
X168571406Y-116616055D01*
X168782747Y-115858636D01*
X169150604Y-115639455D01*
X169349027Y-115510048D01*
X169570004Y-115348456D01*
X169777723Y-115181446D01*
X169859656Y-115109538D01*
X170047199Y-114925629D01*
X170268784Y-114687259D01*
X170510351Y-114411363D01*
X170757843Y-114114879D01*
X170997200Y-113814743D01*
X171214364Y-113527890D01*
X171395277Y-113271259D01*
X171432940Y-113214199D01*
X171567392Y-113015477D01*
X171670596Y-112891293D01*
X171753385Y-112839352D01*
X171826591Y-112857359D01*
X171901048Y-112943018D01*
X171987588Y-113094035D01*
X171988845Y-113096426D01*
X172058129Y-113236360D01*
X172145800Y-113425360D01*
X172245607Y-113648618D01*
X172351298Y-113891324D01*
X172456621Y-114138670D01*
X172555324Y-114375846D01*
X172641157Y-114588042D01*
X172707866Y-114760449D01*
X172749201Y-114878258D01*
X172759805Y-114922716D01*
X172748458Y-114962337D01*
X172707899Y-114993590D01*
X172628354Y-115018852D01*
X172500049Y-115040501D01*
X172313209Y-115060914D01*
X172124805Y-115077165D01*
X171963633Y-115091869D01*
X171835097Y-115106816D01*
X171755009Y-115119970D01*
X171736223Y-115127212D01*
X171755086Y-115192850D01*
X171805594Y-115316619D01*
X171878630Y-115478771D01*
X171965075Y-115659560D01*
X172055810Y-115839238D01*
X172122534Y-115963814D01*
X172356519Y-116359889D01*
X172632142Y-116782224D01*
X172936762Y-117214281D01*
X173257737Y-117639520D01*
X173582423Y-118041401D01*
X173898179Y-118403386D01*
X174192361Y-118708935D01*
X174295179Y-118806177D01*
X174564491Y-119039532D01*
X174804475Y-119214082D01*
X175035566Y-119340707D01*
X175278201Y-119430286D01*
X175552814Y-119493699D01*
X175603089Y-119502481D01*
X175838665Y-119541276D01*
X176053552Y-119574239D01*
X176256545Y-119601860D01*
X176456434Y-119624629D01*
X176662013Y-119643035D01*
X176882073Y-119657567D01*
X177125408Y-119668714D01*
X177400809Y-119676966D01*
X177717068Y-119682813D01*
X178082979Y-119686742D01*
X178507333Y-119689245D01*
X178986439Y-119690780D01*
X181099789Y-119695878D01*
X181295987Y-119993984D01*
X181393322Y-120137706D01*
X181526333Y-120328352D01*
X181679801Y-120544383D01*
X181838506Y-120764260D01*
X181892441Y-120838096D01*
X182097604Y-121120113D01*
X182258027Y-121348454D01*
X182380589Y-121537099D01*
X182472166Y-121700026D01*
X182539637Y-121851216D01*
X182589880Y-122004647D01*
X182629772Y-122174298D01*
X182666193Y-122374150D01*
X182675389Y-122429422D01*
X182820109Y-123408460D01*
X182935086Y-124399806D01*
X183018230Y-125379475D01*
X183067447Y-126323477D01*
X183081045Y-127080818D01*
X183078060Y-127540910D01*
X183067989Y-127922391D01*
X183049414Y-128238756D01*
X183020919Y-128503498D01*
X182981088Y-128730111D01*
X182928503Y-128932090D01*
X182868462Y-129105627D01*
X182710290Y-129410785D01*
X182484421Y-129685115D01*
X182195868Y-129923977D01*
X181849643Y-130122730D01*
X181697845Y-130189269D01*
X181512310Y-130259916D01*
X181327474Y-130320077D01*
X181131309Y-130372202D01*
X180911788Y-130418742D01*
X180656885Y-130462146D01*
X180354572Y-130504865D01*
X179992823Y-130549347D01*
X179848791Y-130565917D01*
X179432467Y-130618057D01*
X179085637Y-130672671D01*
X178801976Y-130731313D01*
X178575161Y-130795537D01*
X178398868Y-130866898D01*
X178266774Y-130946951D01*
X178252031Y-130958470D01*
X178117033Y-131093391D01*
X177997819Y-131258315D01*
X177916133Y-131421527D01*
X177900864Y-131470628D01*
X177861157Y-131535564D01*
X177768550Y-131599396D01*
X177612189Y-131669535D01*
X177606086Y-131671937D01*
X177186745Y-131876678D01*
X176778799Y-132152375D01*
X176395159Y-132486452D01*
X176048739Y-132866332D01*
X175752452Y-133279439D01*
X175526310Y-133697490D01*
X175436447Y-133894888D01*
X175514443Y-133989902D01*
X175592440Y-134084917D01*
X175899903Y-133896599D01*
X176548246Y-133540894D01*
X177184699Y-133275475D01*
X177810779Y-133099719D01*
X177877716Y-133086100D01*
X178127102Y-133049372D01*
X178417247Y-133026659D01*
X178734886Y-133017195D01*
X179066750Y-133020215D01*
X179399575Y-133034952D01*
X179720092Y-133060639D01*
X180015036Y-133096511D01*
X180271139Y-133141801D01*
X180475136Y-133195742D01*
X180588313Y-133242667D01*
X180741675Y-133342779D01*
X180881721Y-133476579D01*
X181015833Y-133655208D01*
X181151390Y-133889806D01*
X181295774Y-134191515D01*
X181436867Y-134523517D01*
X181519749Y-134717644D01*
X181598538Y-134886697D01*
X181662970Y-135009474D01*
X181695903Y-135058658D01*
X181751537Y-135109993D01*
X181793802Y-135099612D01*
X181845889Y-135035567D01*
X181893133Y-134954616D01*
X181964752Y-134811627D01*
X182050913Y-134626995D01*
X182139273Y-134426964D01*
X182337061Y-133989169D01*
X182522716Y-133629452D01*
X182704047Y-133336781D01*
X182888862Y-133100122D01*
X183084972Y-132908442D01*
X183300185Y-132750708D01*
X183345536Y-132722668D01*
X183526337Y-132622569D01*
X183705364Y-132544537D01*
X183896590Y-132485478D01*
X184113992Y-132442299D01*
X184371543Y-132411909D01*
X184683219Y-132391213D01*
X184880804Y-132382914D01*
X185618471Y-132382917D01*
X186314253Y-132439753D01*
X186987756Y-132556215D01*
X187658588Y-132735101D01*
X187896304Y-132812952D01*
X188099062Y-132880637D01*
X188241942Y-132923025D01*
X188337399Y-132942520D01*
X188397885Y-132941523D01*
X188435855Y-132922438D01*
X188440584Y-132917957D01*
X188484483Y-132816926D01*
X188482969Y-132661806D01*
X188441166Y-132467365D01*
X188364195Y-132248374D01*
X188257178Y-132019599D01*
X188125238Y-131795811D01*
X187985648Y-131606303D01*
X187800793Y-131409800D01*
X187582032Y-131229887D01*
X187318503Y-131059387D01*
X186999348Y-130891122D01*
X186691895Y-130751234D01*
X186325720Y-130583611D01*
X186026795Y-130423608D01*
X185787378Y-130265217D01*
X185599730Y-130102424D01*
X185456108Y-129929221D01*
X185348773Y-129739597D01*
X185328095Y-129692283D01*
X185221551Y-129372549D01*
X185130970Y-128967357D01*
X185056524Y-128481587D01*
X184998386Y-127920119D01*
X184956726Y-127287834D01*
X184931717Y-126589612D01*
X184923531Y-125830334D01*
X184932341Y-125014879D01*
X184958318Y-124148127D01*
X185001633Y-123234960D01*
X185062460Y-122280257D01*
X185065401Y-122239315D01*
X185124838Y-121415630D01*
X185478200Y-120178600D01*
X185573245Y-119839207D01*
X185661788Y-119510448D01*
X185739996Y-119207548D01*
X185804035Y-118945728D01*
X185850072Y-118740209D01*
X185874274Y-118606215D01*
X185874389Y-118605320D01*
X185891226Y-118437027D01*
X185908391Y-118203030D01*
X185924228Y-117929957D01*
X185937080Y-117644435D01*
X185940868Y-117537217D01*
X185951800Y-117246500D01*
X185963606Y-117038051D01*
X185977295Y-116901776D01*
X185993878Y-116827579D01*
X186014142Y-116805364D01*
X186065319Y-116829367D01*
X186163339Y-116894037D01*
X186292201Y-116988370D01*
X186385148Y-117060559D01*
X186567030Y-117199648D01*
X186745685Y-117323272D01*
X186941554Y-117444310D01*
X187175075Y-117575640D01*
X187355328Y-117671885D01*
X187450108Y-117728681D01*
X187513207Y-117793977D01*
X187562631Y-117894315D01*
X187616388Y-118056237D01*
X187616645Y-118057074D01*
X187749781Y-118464450D01*
X187916607Y-118932732D01*
X188110275Y-119444776D01*
X188323934Y-119983435D01*
X188550735Y-120531564D01*
X188783830Y-121072015D01*
X189016369Y-121587645D01*
X189090587Y-121746818D01*
X189272486Y-122127768D01*
X189461912Y-122514117D01*
X189654436Y-122897670D01*
X189845630Y-123270229D01*
X190031066Y-123623595D01*
X190206313Y-123949572D01*
X190366945Y-124239963D01*
X190508531Y-124486569D01*
X190626645Y-124681193D01*
X190716856Y-124815639D01*
X190774736Y-124881707D01*
X190787155Y-124887182D01*
X190846022Y-124851294D01*
X190893426Y-124783273D01*
X190912053Y-124731384D01*
X190923250Y-124655637D01*
X190927084Y-124542056D01*
X190923622Y-124376666D01*
X190912930Y-124145492D01*
X190897740Y-123879003D01*
X190879579Y-123557554D01*
X190861629Y-123208268D01*
X190844322Y-122842878D01*
X190828089Y-122473112D01*
X190813364Y-122110704D01*
X190800577Y-121767383D01*
X190790160Y-121454880D01*
X190782547Y-121184926D01*
X190778168Y-120969253D01*
X190777457Y-120819590D01*
X190780844Y-120747670D01*
X190782260Y-120743344D01*
X190825250Y-120745352D01*
X190922067Y-120772604D01*
X191054987Y-120819779D01*
X191114657Y-120843181D01*
X191299435Y-120907659D01*
X191497285Y-120961173D01*
X191668563Y-120993162D01*
X191684597Y-120994967D01*
X191822961Y-121015508D01*
X191934325Y-121043658D01*
X191993152Y-121072366D01*
X192024492Y-121139237D01*
X192063186Y-121271419D01*
X192102095Y-121443563D01*
X192111566Y-121492818D01*
X192277197Y-122235904D01*
X192496720Y-122981086D01*
X192761983Y-123706406D01*
X193064834Y-124389906D01*
X193397118Y-125009630D01*
X193449795Y-125097035D01*
X193596946Y-125318567D01*
X193780435Y-125566497D01*
X193984979Y-125822604D01*
X194195299Y-126068663D01*
X194396113Y-126286451D01*
X194572140Y-126457745D01*
X194637559Y-126513495D01*
X195069150Y-126819939D01*
X195491782Y-127041552D01*
X195902543Y-127178337D01*
X196298517Y-127230300D01*
X196676792Y-127197445D01*
X197034454Y-127079775D01*
X197368589Y-126877296D01*
X197676283Y-126590012D01*
X197745517Y-126508878D01*
X198002608Y-126133620D01*
X198192545Y-125717484D01*
X198315746Y-125259019D01*
X198372627Y-124756774D01*
X198371189Y-124333000D01*
X198358990Y-124113223D01*
X198345335Y-123912550D01*
X198332235Y-123758733D01*
X198325118Y-123698000D01*
X198317123Y-123593434D01*
X198340534Y-123552249D01*
X198368032Y-123547909D01*
X198436012Y-123581858D01*
X198507773Y-123663364D01*
X198576219Y-123744594D01*
X198636824Y-123778814D01*
X198637273Y-123778818D01*
X198699366Y-123736366D01*
X198776035Y-123617831D01*
X198862545Y-123436448D01*
X198954159Y-123205452D01*
X199046139Y-122938077D01*
X199133748Y-122647558D01*
X199212251Y-122347129D01*
X199276909Y-122050025D01*
X199298437Y-121931546D01*
X199361549Y-121354294D01*
X199355191Y-120771736D01*
X199278853Y-120182810D01*
X199132025Y-119586453D01*
X198914198Y-118981602D01*
X198624859Y-118367196D01*
X198263500Y-117742172D01*
X197829611Y-117105468D01*
X197322681Y-116456022D01*
X196742200Y-115792771D01*
X196087658Y-115114654D01*
X195968148Y-114997002D01*
X195776320Y-114804121D01*
X195626724Y-114642472D01*
X195525425Y-114519040D01*
X195478492Y-114440805D01*
X195476106Y-114430722D01*
X195481398Y-114374455D01*
X195521298Y-114326186D01*
X195609752Y-114274000D01*
X195717209Y-114224748D01*
X195874680Y-114142872D01*
X196056510Y-114028692D01*
X196226352Y-113905242D01*
X196244732Y-113890466D01*
X196397388Y-113752710D01*
X196561122Y-113582968D01*
X196721292Y-113398858D01*
X196863259Y-113217999D01*
X196972382Y-113058008D01*
X197031394Y-112943824D01*
X197053847Y-112889275D01*
X197081625Y-112855477D01*
X197128587Y-112841427D01*
X197208589Y-112846121D01*
X197335488Y-112868554D01*
X197523142Y-112907722D01*
X197524789Y-112908071D01*
X197795148Y-112949425D01*
X198072883Y-112957569D01*
X198369985Y-112930758D01*
X198698446Y-112867252D01*
X199070257Y-112765307D01*
X199497409Y-112623181D01*
X199505626Y-112620262D01*
X199687354Y-112550736D01*
X199847541Y-112480385D01*
X199969047Y-112417339D01*
X200034734Y-112369727D01*
X200035320Y-112369037D01*
X200086031Y-112300590D01*
X200082409Y-112251896D01*
X200035320Y-112191145D01*
X199967820Y-112138860D01*
X199847703Y-112070798D01*
X199694982Y-111997702D01*
X199600403Y-111957657D01*
X199023977Y-111680678D01*
X198446753Y-111315589D01*
X197872418Y-110866484D01*
X197304659Y-110337455D01*
X196747164Y-109732594D01*
X196203618Y-109055995D01*
X195677709Y-108311749D01*
X195173125Y-107503950D01*
X194693551Y-106636689D01*
X194545800Y-106346932D01*
X194406790Y-106059927D01*
X194265621Y-105752456D01*
X194127441Y-105437335D01*
X193997400Y-105127384D01*
X193880646Y-104835420D01*
X193782329Y-104574261D01*
X193707597Y-104356724D01*
X193661600Y-104195628D01*
X193648935Y-104114301D01*
X193663754Y-104013777D01*
X193704494Y-103851612D01*
X193764999Y-103649855D01*
X193839113Y-103430557D01*
X193842330Y-103421574D01*
X194196013Y-102382646D01*
X194500228Y-101369163D01*
X194757183Y-100367634D01*
X194969084Y-99364564D01*
X195138141Y-98346462D01*
X195266559Y-97299833D01*
X195356547Y-96211185D01*
X195410312Y-95067026D01*
X195430063Y-93853862D01*
X195430253Y-93715904D01*
X195426358Y-93147775D01*
X195415138Y-92553448D01*
X195397291Y-91945466D01*
X195373515Y-91336375D01*
X195344509Y-90738719D01*
X195310971Y-90165044D01*
X195273598Y-89627896D01*
X195233090Y-89139818D01*
X195190144Y-88713356D01*
X195145458Y-88361055D01*
X195124938Y-88229881D01*
X194946865Y-87399025D01*
X194698839Y-86585960D01*
X194385948Y-85798461D01*
X194013280Y-85044303D01*
X193585922Y-84331261D01*
X193108962Y-83667108D01*
X192587487Y-83059619D01*
X192026586Y-82516569D01*
X191431345Y-82045732D01*
X190830917Y-81668103D01*
X190681614Y-81576138D01*
X190599528Y-81500904D01*
X190577847Y-81444533D01*
X190601701Y-81374289D01*
X190665476Y-81256425D01*
X190757677Y-81111198D01*
X190808779Y-81037546D01*
X191322115Y-80258122D01*
X191765952Y-79456032D01*
X192138974Y-78634350D01*
X192439867Y-77796157D01*
X192667316Y-76944528D01*
X192761108Y-76468755D01*
X192818313Y-76054380D01*
X192859108Y-75586359D01*
X192882323Y-75096030D01*
X192886790Y-74614731D01*
X192871340Y-74173801D01*
X192854464Y-73965090D01*
X192730110Y-73109896D01*
X192534798Y-72275731D01*
X192272300Y-71467987D01*
X191946385Y-70692058D01*
X191560824Y-69953340D01*
X191119386Y-69257225D01*
X190625841Y-68609110D01*
X190083960Y-68014386D01*
X189497513Y-67478450D01*
X188870270Y-67006694D01*
X188206000Y-66604514D01*
X187508474Y-66277303D01*
X187470837Y-66262231D01*
X186740493Y-66015520D01*
X186018202Y-65859622D01*
X185300048Y-65794553D01*
X184582110Y-65820326D01*
X183860472Y-65936957D01*
X183131212Y-66144461D01*
X182768164Y-66280016D01*
X182375644Y-66447755D01*
X182015180Y-66624998D01*
X181662591Y-66825213D01*
X181293699Y-67061868D01*
X181004090Y-67262624D01*
X180571195Y-67562489D01*
X180180443Y-67815111D01*
X179814292Y-68030210D01*
X179455201Y-68217505D01*
X179085626Y-68386715D01*
X178688027Y-68547560D01*
X178678138Y-68551344D01*
X178167853Y-68752760D01*
X177718549Y-68945722D01*
X177316633Y-69138437D01*
X176948509Y-69339113D01*
X176600583Y-69555956D01*
X176259258Y-69797173D01*
X175910939Y-70070970D01*
X175542033Y-70385555D01*
X175337716Y-70567835D01*
X174981750Y-70910080D01*
X174684641Y-71243666D01*
X174432439Y-71585717D01*
X174215754Y-71945006D01*
X173973393Y-72448587D01*
X173756175Y-73022120D01*
X173570320Y-73646114D01*
X173422046Y-74301081D01*
X173370132Y-74595182D01*
X173327656Y-74825964D01*
X173277319Y-75049971D01*
X173226864Y-75234536D01*
X173200455Y-75311000D01*
X173118954Y-75568822D01*
X173047429Y-75899233D01*
X172989512Y-76282782D01*
X172954211Y-76629625D01*
X172936939Y-76904194D01*
X172936692Y-77123417D01*
X172954940Y-77322348D01*
X172991987Y-77530458D01*
X172998206Y-77569101D01*
X173000463Y-77614838D01*
X172997329Y-77673775D01*
X172987376Y-77752018D01*
X172969173Y-77855675D01*
X172941294Y-77990852D01*
X172902308Y-78163655D01*
X172850787Y-78380191D01*
X172785302Y-78646566D01*
X172704424Y-78968888D01*
X172606725Y-79353262D01*
X172490775Y-79805796D01*
X172355146Y-80332596D01*
X172198409Y-80939768D01*
X172154541Y-81109549D01*
X171278101Y-84501182D01*
X171378298Y-84606881D01*
X171453145Y-84673848D01*
X171504802Y-84678813D01*
X171537903Y-84653063D01*
X171572359Y-84610343D01*
X171654008Y-84504788D01*
X171778843Y-84341687D01*
X171942853Y-84126328D01*
X172142030Y-83863997D01*
X172372365Y-83559983D01*
X172629849Y-83219572D01*
X172910473Y-82848054D01*
X173210229Y-82450714D01*
X173525107Y-82032842D01*
X173619649Y-81907283D01*
X174015994Y-81381561D01*
X174364459Y-80921019D01*
X174667825Y-80522115D01*
X174928871Y-80181307D01*
X175150377Y-79895055D01*
X175335123Y-79659815D01*
X175485889Y-79472047D01*
X175605455Y-79328208D01*
X175696601Y-79224758D01*
X175762106Y-79158154D01*
X175802613Y-79126079D01*
X175918207Y-79041297D01*
X176052431Y-78918998D01*
X176183712Y-78781546D01*
X176290479Y-78651305D01*
X176345920Y-78562812D01*
X176389261Y-78519536D01*
X176489313Y-78442977D01*
X176634891Y-78340966D01*
X176814810Y-78221333D01*
X177017885Y-78091908D01*
X177024731Y-78087635D01*
X177466035Y-77798514D01*
X177849409Y-77515402D01*
X178191031Y-77224804D01*
X178507082Y-76913224D01*
X178731885Y-76663681D01*
X178864518Y-76500163D01*
X179009741Y-76305504D01*
X179156884Y-76095826D01*
X179295272Y-75887251D01*
X179414234Y-75695902D01*
X179503097Y-75537902D01*
X179551188Y-75429372D01*
X179552949Y-75423331D01*
X179589575Y-75416925D01*
X179669038Y-75440510D01*
X179766426Y-75482609D01*
X179856826Y-75531746D01*
X179915325Y-75576444D01*
X179924880Y-75594668D01*
X179905082Y-75646083D01*
X179857062Y-75736278D01*
X179853396Y-75742598D01*
X179731916Y-76015907D01*
X179640765Y-76363419D01*
X179620101Y-76479171D01*
X179602005Y-76613710D01*
X179596129Y-76739452D01*
X179604072Y-76879325D01*
X179627433Y-77056253D01*
X179667813Y-77293161D01*
X179682554Y-77374279D01*
X179688446Y-77454088D01*
X179659919Y-77512608D01*
X179581794Y-77573946D01*
X179540191Y-77600376D01*
X179194748Y-77843373D01*
X178883052Y-78119015D01*
X178611525Y-78418167D01*
X178386588Y-78731696D01*
X178214666Y-79050465D01*
X178102179Y-79365340D01*
X178055551Y-79667186D01*
X178054631Y-79713310D01*
X178091154Y-80025554D01*
X178195714Y-80335089D01*
X178360801Y-80631383D01*
X178578905Y-80903901D01*
X178842515Y-81142109D01*
X179144120Y-81335474D01*
X179247373Y-81386133D01*
X179387189Y-81460877D01*
X179458015Y-81527756D01*
X179469955Y-81568036D01*
X179449425Y-81606514D01*
X179384613Y-81666194D01*
X179270680Y-81750429D01*
X179102791Y-81862572D01*
X178876109Y-82005975D01*
X178585798Y-82183991D01*
X178550626Y-82205312D01*
X177835274Y-82653989D01*
X177181917Y-83097291D01*
X176577748Y-83544928D01*
X176009959Y-84006607D01*
X175465742Y-84492037D01*
X175200792Y-84744434D01*
X175017552Y-84930250D01*
X174804466Y-85158719D01*
X174573677Y-85415662D01*
X174337328Y-85686898D01*
X174107561Y-85958249D01*
X173896520Y-86215535D01*
X173716345Y-86444575D01*
X173579182Y-86631191D01*
X173555925Y-86665232D01*
X173384173Y-86881258D01*
X173217619Y-87008044D01*
X173103328Y-87044953D01*
X173037484Y-87059926D01*
X172923731Y-87090728D01*
X172797716Y-87127424D01*
X172400170Y-87202232D01*
X172008542Y-87185776D01*
X171622314Y-87077852D01*
X171240968Y-86878256D01*
X170863986Y-86586784D01*
X170511404Y-86226863D01*
X170254056Y-85932818D01*
X170246408Y-82353727D01*
X170238761Y-78774636D01*
X135361149Y-78774636D01*
X135342194Y-82053546D01*
X135323238Y-85332455D01*
X135114731Y-85794273D01*
X134866519Y-86262492D01*
X134580477Y-86654455D01*
X134259693Y-86967866D01*
X133907254Y-87200430D01*
X133526251Y-87349852D01*
X133119771Y-87413836D01*
X132934880Y-87414383D01*
X132737963Y-87405357D01*
X132604583Y-87396477D01*
X132522481Y-87385533D01*
X132479397Y-87370316D01*
X132463072Y-87348618D01*
X132461000Y-87328997D01*
X132435827Y-87265790D01*
X132365610Y-87147506D01*
X132258299Y-86985122D01*
X132121845Y-86789617D01*
X131964197Y-86571969D01*
X131793305Y-86343157D01*
X131617121Y-86114158D01*
X131443595Y-85895952D01*
X131282505Y-85701663D01*
X130644305Y-85001057D01*
X129946099Y-84328903D01*
X129182959Y-83680747D01*
X128349957Y-83052138D01*
X128347716Y-83050539D01*
X128075487Y-82861979D01*
X127759759Y-82652458D01*
X127419693Y-82433989D01*
X127074451Y-82218584D01*
X126743192Y-82018256D01*
X126445079Y-81845017D01*
X126272928Y-81749815D01*
X125979930Y-81592299D01*
X125675518Y-80760740D01*
X125581423Y-80498911D01*
X125499177Y-80260897D01*
X125433586Y-80061358D01*
X125389453Y-79914959D01*
X125371583Y-79836359D01*
X125371426Y-79832683D01*
X125405301Y-79741586D01*
X125503815Y-79616561D01*
X125592140Y-79527691D01*
X125872225Y-79217222D01*
X126085101Y-78881779D01*
X126228882Y-78526837D01*
X126301687Y-78157871D01*
X126301630Y-77780355D01*
X126268206Y-77563127D01*
X126185519Y-77261092D01*
X126064452Y-76934532D01*
X125921046Y-76623239D01*
X125809628Y-76425553D01*
X125673059Y-76207602D01*
X125787776Y-76090014D01*
X125861011Y-76004740D01*
X125900349Y-75939062D01*
X125902492Y-75928400D01*
X125926409Y-75859511D01*
X125983643Y-75764054D01*
X126052420Y-75672881D01*
X126110965Y-75616848D01*
X126126361Y-75611182D01*
X126161103Y-75646369D01*
X126223498Y-75738283D01*
X126294350Y-75857193D01*
X126495109Y-76172215D01*
X126758285Y-76516815D01*
X127085477Y-76892800D01*
X127478287Y-77301975D01*
X127938312Y-77746148D01*
X128101298Y-77897182D01*
X128333563Y-78112198D01*
X128535731Y-78304126D01*
X128720308Y-78486073D01*
X128899799Y-78671144D01*
X129086710Y-78872445D01*
X129293546Y-79103080D01*
X129532814Y-79376156D01*
X129731447Y-79605549D01*
X130180973Y-80115503D01*
X130594389Y-80561194D01*
X130981037Y-80952284D01*
X131350259Y-81298439D01*
X131472783Y-81407000D01*
X131572683Y-81497277D01*
X131672468Y-81594975D01*
X131778281Y-81707562D01*
X131896267Y-81842503D01*
X132032566Y-82007265D01*
X132193324Y-82209314D01*
X132384683Y-82456115D01*
X132612787Y-82755136D01*
X132883777Y-83113842D01*
X132954712Y-83208091D01*
X133188787Y-83518768D01*
X133407334Y-83807871D01*
X133604992Y-84068377D01*
X133776399Y-84293266D01*
X133916195Y-84475515D01*
X134019019Y-84608105D01*
X134079511Y-84684014D01*
X134093538Y-84699610D01*
X134137258Y-84681366D01*
X134208635Y-84618680D01*
X134219522Y-84607246D01*
X134318325Y-84501182D01*
X133616545Y-81799546D01*
X132914766Y-79097909D01*
X132742448Y-77851016D01*
X132617082Y-76978269D01*
X132493538Y-76190288D01*
X132370204Y-75479572D01*
X132245469Y-74838618D01*
X132117720Y-74259926D01*
X131985345Y-73735993D01*
X131846733Y-73259316D01*
X131700270Y-72822395D01*
X131610231Y-72582038D01*
X131411579Y-72111388D01*
X131204816Y-71707873D01*
X130975710Y-71350564D01*
X130710024Y-71018528D01*
X130393525Y-70690836D01*
X130205328Y-70516274D01*
X129835693Y-70192696D01*
X129489005Y-69910411D01*
X129152161Y-69661584D01*
X128812054Y-69438378D01*
X128455582Y-69232958D01*
X128069640Y-69037486D01*
X127641122Y-68844127D01*
X127156926Y-68645044D01*
X126923819Y-68553983D01*
X126590665Y-68420716D01*
X126286134Y-68287283D01*
X125996430Y-68145935D01*
X125707755Y-67988919D01*
X125406313Y-67808487D01*
X125078306Y-67596888D01*
X124709938Y-67346372D01*
X124449443Y-67164024D01*
X123748207Y-66717742D01*
X123033635Y-66358355D01*
X122309114Y-66086640D01*
X121578032Y-65903378D01*
X120843778Y-65809347D01*
X120109739Y-65805327D01*
X119379304Y-65892098D01*
X119135477Y-65941722D01*
X118400845Y-66153202D01*
X117688075Y-66449571D01*
X117002228Y-66826123D01*
X116348368Y-67278153D01*
X115731559Y-67800956D01*
X115156862Y-68389829D01*
X114629342Y-69040065D01*
X114154060Y-69746960D01*
X113736080Y-70505810D01*
X113394218Y-71276814D01*
X113110528Y-72097552D01*
X112901612Y-72927457D01*
X112767065Y-73763677D01*
X112706486Y-74603362D01*
X112719471Y-75443663D01*
X112805617Y-76281730D01*
X112964520Y-77114712D01*
X113195778Y-77939760D01*
X113498987Y-78754023D01*
X113873745Y-79554652D01*
X114319648Y-80338796D01*
X114771658Y-81014455D01*
X114877730Y-81169519D01*
X114961469Y-81305979D01*
X115011779Y-81404965D01*
X115021316Y-81439075D01*
X114991831Y-81495710D01*
X114899913Y-81575458D01*
X114741917Y-81681211D01*
X114633611Y-81746745D01*
X114007162Y-82166329D01*
X113407804Y-82666777D01*
X112843102Y-83239707D01*
X112320617Y-83876735D01*
X111847913Y-84569480D01*
X111449526Y-85276098D01*
X111163412Y-85892888D01*
X110909723Y-86550986D01*
X110697231Y-87224029D01*
X110534705Y-87885656D01*
X110474398Y-88207089D01*
X110422138Y-88573492D01*
X110372949Y-89020011D01*
X110327502Y-89534447D01*
X110286471Y-90104597D01*
X110250530Y-90718261D01*
X110220351Y-91363239D01*
X110196607Y-92027330D01*
X110179972Y-92698332D01*
X110171119Y-93364046D01*
X110169810Y-93727553D01*
X110183343Y-94886049D01*
X110225138Y-95971431D01*
X110297381Y-96997310D01*
X110402252Y-97977300D01*
X110541936Y-98925015D01*
X110718616Y-99854066D01*
X110934474Y-100778066D01*
X111191694Y-101710629D01*
X111492458Y-102665367D01*
X111699994Y-103269424D01*
X111784300Y-103514874D01*
X111856560Y-103738646D01*
X111911632Y-103923730D01*
X111944376Y-104053120D01*
X111951264Y-104100697D01*
X111931492Y-104225751D01*
X111875565Y-104417581D01*
X111788163Y-104665138D01*
X111673965Y-104957373D01*
X111537649Y-105283237D01*
X111383896Y-105631683D01*
X111217384Y-105991661D01*
X111042793Y-106352123D01*
X110864802Y-106702019D01*
X110788368Y-106846508D01*
X110288228Y-107724611D01*
X109765677Y-108535579D01*
X109223838Y-109276079D01*
X108665835Y-109942780D01*
X108094792Y-110532347D01*
X107513831Y-111041447D01*
X106926077Y-111466748D01*
X106334653Y-111804917D01*
X105999507Y-111956424D01*
X105837220Y-112028325D01*
X105696016Y-112101115D01*
X105595864Y-112163998D01*
X105564590Y-112191520D01*
X105513882Y-112258951D01*
X105402500Y-112258951D01*
X105399989Y-112228489D01*
X105414054Y-112155872D01*
X105439099Y-112097623D01*
X105485548Y-112046407D01*
X105566440Y-111993573D01*
X105694813Y-111930471D01*
X105866402Y-111855768D01*
X106447353Y-111571065D01*
X107013152Y-111214040D01*
X107569287Y-110780255D01*
X108121249Y-110265273D01*
X108674525Y-109664655D01*
X108882744Y-109417314D01*
X109571778Y-108515287D01*
X110210001Y-107546203D01*
X110794777Y-106514325D01*
X111249293Y-105587881D01*
X111346098Y-105370931D01*
X111448474Y-105132072D01*
X111550287Y-104886733D01*
X111645401Y-104650342D01*
X111727681Y-104438329D01*
X111790991Y-104266120D01*
X111829195Y-104149147D01*
X111837716Y-104108188D01*
X111823408Y-104051171D01*
X111783944Y-103925294D01*
X111724516Y-103746338D01*
X111650315Y-103530087D01*
X111605353Y-103401722D01*
X111246627Y-102325454D01*
X110943575Y-101282614D01*
X110692263Y-100253405D01*
X110488754Y-99218028D01*
X110329112Y-98156684D01*
X110209402Y-97049576D01*
X110132176Y-95991244D01*
X110118690Y-95692359D01*
X110107969Y-95317537D01*
X110100016Y-94883142D01*
X110094832Y-94405539D01*
X110092418Y-93901094D01*
X110092776Y-93386171D01*
X110095908Y-92877134D01*
X110101814Y-92390350D01*
X110110497Y-91942182D01*
X110121957Y-91548995D01*
X110131742Y-91313000D01*
X110159532Y-90786791D01*
X110191379Y-90265304D01*
X110226222Y-89761599D01*
X110263004Y-89288739D01*
X110300664Y-88859787D01*
X110338143Y-88487805D01*
X110374382Y-88185855D01*
X110398577Y-88022362D01*
X110557980Y-87267749D01*
X110784272Y-86505295D01*
X111071189Y-85751442D01*
X111412466Y-85022632D01*
X111801839Y-84335308D01*
X111805537Y-84329371D01*
X112183119Y-83777049D01*
X112610035Y-83247042D01*
X113072819Y-82752642D01*
X113558008Y-82307146D01*
X114052138Y-81923849D01*
X114541744Y-81616044D01*
X114567776Y-81601838D01*
X114693803Y-81529430D01*
X114787304Y-81467717D01*
X114831283Y-81428119D01*
X114832641Y-81423881D01*
X114809298Y-81375000D01*
X114747490Y-81276903D01*
X114659555Y-81148943D01*
X114639616Y-81121051D01*
X114143546Y-80367657D01*
X113715265Y-79582173D01*
X113355723Y-78768616D01*
X113065873Y-77931003D01*
X112846667Y-77073353D01*
X112699056Y-76199683D01*
X112623994Y-75314010D01*
X112622431Y-74420351D01*
X112695320Y-73522725D01*
X112748941Y-73141861D01*
X112919014Y-72309904D01*
X113158984Y-71502812D01*
X113464627Y-70726006D01*
X113831719Y-69984905D01*
X114256036Y-69284928D01*
X114733354Y-68631495D01*
X115259448Y-68030026D01*
X115830094Y-67485940D01*
X116441069Y-67004658D01*
X117088148Y-66591598D01*
X117767107Y-66252180D01*
X118270725Y-66057328D01*
X119035509Y-65843613D01*
X119804493Y-65721193D01*
X120574070Y-65689490D01*
X121340634Y-65747925D01*
X121340634Y-65747925D01*
G37*
X121340634Y-65747925D02*
X122100576Y-65895920D01*
X122850290Y-66132899D01*
X123586168Y-66458281D01*
X124304602Y-66871490D01*
X124601085Y-67071660D01*
X125002158Y-67350839D01*
X125354130Y-67586191D01*
X125670798Y-67785467D01*
X125965959Y-67956416D01*
X126253409Y-68106789D01*
X126546946Y-68244337D01*
X126860366Y-68376809D01*
X127075460Y-68461619D01*
X127587866Y-68665539D01*
X128038865Y-68860277D01*
X128441573Y-69053677D01*
X128809107Y-69253581D01*
X129154581Y-69467835D01*
X129491111Y-69704281D01*
X129831813Y-69970763D01*
X130189803Y-70275126D01*
X130358055Y-70424758D01*
X130675946Y-70727511D01*
X130939273Y-71020403D01*
X131162291Y-71324609D01*
X131359255Y-71661303D01*
X131544421Y-72051659D01*
X131686052Y-72397311D01*
X131867235Y-72906623D01*
X132039618Y-73483910D01*
X132204015Y-74133017D01*
X132361241Y-74857787D01*
X132512110Y-75662066D01*
X132657437Y-76549698D01*
X132798036Y-77524528D01*
X132841571Y-77851000D01*
X132866577Y-78039516D01*
X132890478Y-78210562D01*
X132915204Y-78372633D01*
X132942681Y-78534223D01*
X132974837Y-78703827D01*
X133013599Y-78889937D01*
X133060895Y-79101050D01*
X133118653Y-79345659D01*
X133188798Y-79632258D01*
X133273260Y-79969342D01*
X133373966Y-80365404D01*
X133492843Y-80828941D01*
X133631818Y-81368444D01*
X133697429Y-81622775D01*
X133824815Y-82117920D01*
X133945201Y-82588695D01*
X134056675Y-83027438D01*
X134157324Y-83426484D01*
X134245235Y-83778170D01*
X134318496Y-84074833D01*
X134375194Y-84308809D01*
X134413417Y-84472434D01*
X134431253Y-84558045D01*
X134432343Y-84567545D01*
X134398674Y-84661618D01*
X134313117Y-84750922D01*
X134198849Y-84817667D01*
X134079046Y-84844065D01*
X134072194Y-84843978D01*
X134039715Y-84836687D01*
X133999407Y-84812639D01*
X133946485Y-84766009D01*
X133876166Y-84690971D01*
X133783668Y-84581700D01*
X133664206Y-84432370D01*
X133512997Y-84237157D01*
X133325258Y-83990233D01*
X133096205Y-83685774D01*
X132840104Y-83343460D01*
X132542789Y-82946980D01*
X132290330Y-82614028D01*
X132077788Y-82338478D01*
X131900226Y-82114203D01*
X131752706Y-81935076D01*
X131630289Y-81794973D01*
X131528037Y-81687765D01*
X131441013Y-81607328D01*
X131440093Y-81606545D01*
X131254750Y-81446090D01*
X131075696Y-81284535D01*
X130895934Y-81114568D01*
X130708470Y-80928880D01*
X130506308Y-80720161D01*
X130282453Y-80481099D01*
X130029909Y-80204384D01*
X129741681Y-79882706D01*
X129410774Y-79508755D01*
X129164023Y-79227965D01*
X128958240Y-79000799D01*
X128712161Y-78741001D01*
X128446883Y-78470138D01*
X128183507Y-78209775D01*
X127958156Y-77995396D01*
X127739248Y-77790061D01*
X127519734Y-77580343D01*
X127314254Y-77380505D01*
X127137449Y-77204811D01*
X127003959Y-77067526D01*
X126984944Y-77047223D01*
X126857304Y-76903440D01*
X126717816Y-76735979D01*
X126576949Y-76558708D01*
X126445169Y-76385491D01*
X126332944Y-76230195D01*
X126250742Y-76106687D01*
X126209031Y-76028833D01*
X126205932Y-76015273D01*
X126181662Y-75978832D01*
X126120407Y-75999953D01*
X126038579Y-76070620D01*
X125999856Y-76115891D01*
X125893482Y-76251146D01*
X125973022Y-76387221D01*
X126065998Y-76571976D01*
X126164135Y-76808362D01*
X126255015Y-77062265D01*
X126326221Y-77299571D01*
X126359958Y-77450271D01*
X126378696Y-77619647D01*
X126389366Y-77839958D01*
X126390220Y-78070096D01*
X126388656Y-78125435D01*
X126353758Y-78485289D01*
X126272327Y-78807848D01*
X126137827Y-79107066D01*
X125943720Y-79396899D01*
X125683470Y-79691302D01*
X125630065Y-79744900D01*
X125490324Y-79883000D01*
X125781706Y-80666365D01*
X125895295Y-80966101D01*
X125985325Y-81189695D01*
X126056244Y-81346834D01*
X126112505Y-81447207D01*
X126158557Y-81500500D01*
X126167865Y-81506932D01*
X126227446Y-81542537D01*
X126344683Y-81612298D01*
X126509049Y-81709961D01*
X126710019Y-81829275D01*
X126937068Y-81963989D01*
X127115626Y-82069881D01*
X128071309Y-82670090D01*
X128955777Y-83295694D01*
X129771156Y-83948672D01*
X130519575Y-84631004D01*
X131203163Y-85344669D01*
X131824046Y-86091645D01*
X132384353Y-86873912D01*
X132540847Y-87115606D01*
X132592246Y-87191685D01*
X132641787Y-87238925D01*
X132709280Y-87265442D01*
X132814534Y-87279351D01*
X132961627Y-87287980D01*
X133350840Y-87269284D01*
X133709767Y-87170376D01*
X134044870Y-86988042D01*
X134362615Y-86719065D01*
X134569561Y-86488104D01*
X134730515Y-86281401D01*
X134852354Y-86097774D01*
X134955394Y-85902944D01*
X135059955Y-85662636D01*
X135062397Y-85656649D01*
X135247417Y-85202667D01*
X135257638Y-81930925D01*
X135267858Y-78659182D01*
X170333537Y-78659182D01*
X170333537Y-82208024D01*
X170333579Y-82864404D01*
X170333792Y-83434646D01*
X170334303Y-83924974D01*
X170335241Y-84341615D01*
X170336734Y-84690793D01*
X170338912Y-84978733D01*
X170341902Y-85211662D01*
X170345832Y-85395803D01*
X170350832Y-85537382D01*
X170357030Y-85642625D01*
X170364554Y-85717757D01*
X170373532Y-85769003D01*
X170384094Y-85802588D01*
X170396367Y-85824737D01*
X170408464Y-85839469D01*
X170458389Y-85911005D01*
X170466973Y-85954431D01*
X170483608Y-86002145D01*
X170546835Y-86092067D01*
X170643852Y-86208995D01*
X170761856Y-86337726D01*
X170888044Y-86463060D01*
X170921149Y-86493701D01*
X171287130Y-86776602D01*
X171663075Y-86967982D01*
X172050015Y-87068038D01*
X172448984Y-87076970D01*
X172861016Y-86994977D01*
X173092245Y-86911747D01*
X173192208Y-86838933D01*
X173322493Y-86694203D01*
X173457546Y-86512040D01*
X173570748Y-86356311D01*
X173722819Y-86157885D01*
X173897484Y-85937458D01*
X174078468Y-85715722D01*
X174167644Y-85609173D01*
X174717429Y-84994287D01*
X175301965Y-84411266D01*
X175929079Y-83853621D01*
X176606597Y-83314866D01*
X177342344Y-82788511D01*
X178144148Y-82268070D01*
X178351597Y-82140699D01*
X178587740Y-81996141D01*
X178800388Y-81863911D01*
X178980412Y-81749853D01*
X179118680Y-81659812D01*
X179206063Y-81599633D01*
X179233606Y-81576058D01*
X179207147Y-81542301D01*
X179128422Y-81493584D01*
X179060947Y-81461174D01*
X178861434Y-81351022D01*
X178650945Y-81197350D01*
X178455571Y-81021790D01*
X178301407Y-80845971D01*
X178276728Y-80811068D01*
X178135336Y-80573081D01*
X178043228Y-80341154D01*
X177992153Y-80085574D01*
X177973858Y-79776625D01*
X177973418Y-79718969D01*
X177974883Y-79506158D01*
X177984307Y-79352509D01*
X178007633Y-79224850D01*
X178050808Y-79090010D01*
X178115787Y-78924649D01*
X178298772Y-78562482D01*
X178545217Y-78224869D01*
X178858788Y-77907664D01*
X179243152Y-77606717D01*
X179337268Y-77542484D01*
X179526820Y-77416096D01*
X179527769Y-76825366D01*
X179530342Y-76558433D01*
X179538654Y-76359660D01*
X179555077Y-76204937D01*
X179581987Y-76070150D01*
X179613067Y-75959146D01*
X179668933Y-75764706D01*
X179693194Y-75646631D01*
X179684374Y-75605390D01*
X179640999Y-75641453D01*
X179561594Y-75755288D01*
X179444683Y-75947366D01*
X179397843Y-76027618D01*
X179112885Y-76466282D01*
X178779798Y-76878567D01*
X178392416Y-77270425D01*
X177944572Y-77647810D01*
X177430101Y-78016674D01*
X177151282Y-78196446D01*
X176890483Y-78362418D01*
X176692542Y-78495984D01*
X176550941Y-78602009D01*
X176459164Y-78685356D01*
X176412029Y-78748272D01*
X176312375Y-78894379D01*
X176171131Y-79047367D01*
X176016773Y-79178824D01*
X175916534Y-79242629D01*
X175864542Y-79291065D01*
X175762746Y-79407976D01*
X175611641Y-79592728D01*
X175411724Y-79844684D01*
X175163491Y-80163208D01*
X174867436Y-80547664D01*
X174524055Y-80997417D01*
X174133846Y-81511830D01*
X173707362Y-82076908D01*
X173324614Y-82585281D01*
X172989775Y-83029840D01*
X172699257Y-83414562D01*
X172449472Y-83743426D01*
X172236832Y-84020409D01*
X172057748Y-84249487D01*
X171908633Y-84434639D01*
X171785898Y-84579842D01*
X171685956Y-84689072D01*
X171605218Y-84766309D01*
X171540096Y-84815528D01*
X171487002Y-84840708D01*
X171442348Y-84845826D01*
X171402545Y-84834859D01*
X171364007Y-84811784D01*
X171323144Y-84780580D01*
X171290776Y-84755688D01*
X171193623Y-84651977D01*
X171167562Y-84559588D01*
X171178692Y-84499689D01*
X171210914Y-84358738D01*
X171262475Y-84143756D01*
X171331621Y-83861760D01*
X171416597Y-83519772D01*
X171515650Y-83124809D01*
X171627025Y-82683893D01*
X171748970Y-82204041D01*
X171879729Y-81692273D01*
X172017550Y-81155609D01*
X172036062Y-81083727D01*
X172904568Y-77712455D01*
X172867168Y-77389182D01*
X172850001Y-77096855D01*
X172856171Y-76751270D01*
X172882849Y-76377285D01*
X172927201Y-75999757D01*
X172986399Y-75643545D01*
X173057609Y-75333506D01*
X173124903Y-75126273D01*
X173171732Y-74979811D01*
X173222988Y-74774848D01*
X173270937Y-74544052D01*
X173294311Y-74410455D01*
X173423612Y-73749659D01*
X173592970Y-73111361D01*
X173796197Y-72514941D01*
X174027104Y-71979781D01*
X174140494Y-71760278D01*
X174314512Y-71464495D01*
X174497769Y-71200808D01*
X174705846Y-70950087D01*
X174954330Y-70693207D01*
X175187829Y-70474804D01*
X175571769Y-70136056D01*
X175928734Y-69842114D01*
X176272268Y-69584798D01*
X176615917Y-69355931D01*
X176973225Y-69147336D01*
X177357736Y-68950834D01*
X177782994Y-68758248D01*
X178262543Y-68561400D01*
X178526496Y-68458980D01*
X178924971Y-68298215D01*
X179295006Y-68129315D01*
X179654143Y-67942560D01*
X180019924Y-67728231D01*
X180409891Y-67476609D01*
X180841586Y-67177975D01*
X180852448Y-67170261D01*
X181248088Y-66898987D01*
X181609995Y-66673861D01*
X181962349Y-66481415D01*
X182329330Y-66308181D01*
X182616522Y-66187652D01*
X183366675Y-65933484D01*
X184125316Y-65769148D01*
X184887669Y-65694244D01*
X185648956Y-65708374D01*
X186404402Y-65811138D01*
X187149229Y-66002136D01*
X187878661Y-66280971D01*
X188587921Y-66647241D01*
X188665017Y-66693162D01*
X189192041Y-67035128D01*
X189665161Y-67395825D01*
X190106293Y-67794102D01*
X190537352Y-68248809D01*
X190720718Y-68461210D01*
X191233131Y-69130435D01*
X191684772Y-69847696D01*
X192073198Y-70607109D01*
X192395965Y-71402793D01*
X192650627Y-72228866D01*
X192834740Y-73079447D01*
X192929858Y-73776227D01*
X192954246Y-74125476D01*
X192965012Y-74535865D01*
X192962956Y-74982294D01*
X192948880Y-75439666D01*
X192923587Y-75882883D01*
X192887878Y-76286847D01*
X192842554Y-76626461D01*
X192837948Y-76653482D01*
X192665756Y-77444081D01*
X192426561Y-78239443D01*
X192127206Y-79023388D01*
X191774536Y-79779738D01*
X191375392Y-80492311D01*
X190940433Y-81139766D01*
X190853238Y-81264106D01*
X190791031Y-81364637D01*
X190767268Y-81419617D01*
X190767268Y-81419644D01*
X190799328Y-81460818D01*
X190882189Y-81520208D01*
X190966298Y-81568076D01*
X191339749Y-81788086D01*
X191737701Y-82069995D01*
X192142293Y-82399101D01*
X192535660Y-82760702D01*
X192899941Y-83140096D01*
X192963128Y-83211530D01*
X193445346Y-83822359D01*
X193885816Y-84497342D01*
X194278494Y-85223425D01*
X194617339Y-85987557D01*
X194896308Y-86776687D01*
X195109361Y-87577762D01*
X195200759Y-88045154D01*
X195231174Y-88259370D01*
X195264186Y-88552519D01*
X195298741Y-88911275D01*
X195333788Y-89322315D01*
X195368273Y-89772313D01*
X195401145Y-90247946D01*
X195431350Y-90735889D01*
X195457836Y-91222818D01*
X195467514Y-91422032D01*
X195480785Y-91775689D01*
X195491138Y-92194973D01*
X195498576Y-92662665D01*
X195503101Y-93161548D01*
X195504718Y-93674403D01*
X195503429Y-94184012D01*
X195499237Y-94673157D01*
X195492144Y-95124620D01*
X195482153Y-95521182D01*
X195469268Y-95845625D01*
X195466762Y-95892872D01*
X195359072Y-97286044D01*
X195192796Y-98626737D01*
X194966186Y-99923601D01*
X194677495Y-101185286D01*
X194324974Y-102420444D01*
X193906876Y-103637725D01*
X193896370Y-103665860D01*
X193834749Y-103839156D01*
X193788045Y-103986826D01*
X193763905Y-104084084D01*
X193762194Y-104100803D01*
X193779865Y-104179603D01*
X193829138Y-104325429D01*
X193904406Y-104524831D01*
X194000059Y-104764358D01*
X194110487Y-105030563D01*
X194230082Y-105309994D01*
X194353235Y-105589204D01*
X194474336Y-105854741D01*
X194587778Y-106093157D01*
X194621884Y-106162205D01*
X195113476Y-107087080D01*
X195630192Y-107939839D01*
X196184120Y-108739357D01*
X196678673Y-109373451D01*
X197220271Y-109996737D01*
X197753354Y-110534625D01*
X198284291Y-110992282D01*
X198819447Y-111374878D01*
X199365190Y-111687581D01*
X199745222Y-111862779D01*
X200150104Y-112032057D01*
X200150104Y-112532965D01*
X199733089Y-112686441D01*
X199376109Y-112811953D01*
X199069587Y-112905158D01*
X198794294Y-112970133D01*
X198530997Y-113010960D01*
X198260467Y-113031716D01*
X198083985Y-113036262D01*
X197874001Y-113035546D01*
X197672339Y-113029759D01*
X197500891Y-113019848D01*
X197381547Y-113006760D01*
X197374707Y-113005568D01*
X197258405Y-112987576D01*
X197192471Y-112994227D01*
X197152523Y-113034693D01*
X197121510Y-113100825D01*
X196998463Y-113324068D01*
X196819500Y-113560391D01*
X196600684Y-113793852D01*
X196358079Y-114008506D01*
X196107749Y-114188410D01*
X195920427Y-114292942D01*
X195794258Y-114356704D01*
X195701562Y-114410151D01*
X195659721Y-114443124D01*
X195658907Y-114445842D01*
X195687466Y-114488479D01*
X195755420Y-114555634D01*
X195763161Y-114562411D01*
X196032600Y-114809176D01*
X196331254Y-115106060D01*
X196648265Y-115440422D01*
X196972774Y-115799621D01*
X197293923Y-116171016D01*
X197600853Y-116541965D01*
X197882705Y-116899828D01*
X198128620Y-117231964D01*
X198327741Y-117525731D01*
X198377740Y-117606158D01*
X198690341Y-118154861D01*
X198941716Y-118672234D01*
X199136452Y-119172808D01*
X199279138Y-119671114D01*
X199374362Y-120181682D01*
X199426710Y-120719045D01*
X199437173Y-120961727D01*
X199435013Y-121508674D01*
X199392347Y-122007093D01*
X199304772Y-122489675D01*
X199167889Y-122989111D01*
X199161574Y-123009119D01*
X199055712Y-123329536D01*
X198964428Y-123570163D01*
X198881609Y-123740071D01*
X198801142Y-123848326D01*
X198716917Y-123903999D01*
X198622820Y-123916158D01*
X198557165Y-123905898D01*
X198463089Y-123883990D01*
X198462431Y-124466404D01*
X198451709Y-124898225D01*
X198418108Y-125264134D01*
X198357879Y-125587596D01*
X198267267Y-125892075D01*
X198210527Y-126041727D01*
X198013105Y-126429745D01*
X197761129Y-126755787D01*
X197459511Y-127015183D01*
X197113161Y-127203261D01*
X196918239Y-127270975D01*
X196688421Y-127313740D01*
X196412887Y-127329311D01*
X196118022Y-127319062D01*
X195830213Y-127284366D01*
X195575847Y-127226598D01*
X195487119Y-127196474D01*
X195043716Y-126988091D01*
X194628205Y-126711686D01*
X194228735Y-126358438D01*
X193936349Y-126042217D01*
X193526892Y-125505680D01*
X193152194Y-124892005D01*
X192815168Y-124207877D01*
X192518730Y-123459981D01*
X192265793Y-122655001D01*
X192059272Y-121799623D01*
X192035394Y-121682095D01*
X191993779Y-121485082D01*
X191954603Y-121321282D01*
X191923210Y-121211960D01*
X191909120Y-121179692D01*
X191857006Y-121154780D01*
X191750246Y-121126956D01*
X191609721Y-121101426D01*
X191575566Y-121096527D01*
X191401203Y-121066952D01*
X191227886Y-121028072D01*
X191092325Y-120988153D01*
X191089207Y-120987019D01*
X190978285Y-120953920D01*
X190898707Y-120944119D01*
X190876086Y-120951519D01*
X190869006Y-121008908D01*
X190867171Y-121149422D01*
X190870258Y-121364073D01*
X190877943Y-121643873D01*
X190889901Y-121979834D01*
X190905809Y-122362966D01*
X190925343Y-122784282D01*
X190948179Y-123234792D01*
X190973993Y-123705509D01*
X190977630Y-123769106D01*
X190993854Y-124072354D01*
X191006330Y-124348154D01*
X191014584Y-124581953D01*
X191018142Y-124759198D01*
X191016527Y-124865336D01*
X191014045Y-124885806D01*
X190958612Y-124961743D01*
X190855865Y-125007191D01*
X190732303Y-125012755D01*
X190685198Y-125002395D01*
X190638263Y-124967178D01*
X190569963Y-124880274D01*
X190476265Y-124735312D01*
X190353137Y-124525924D01*
X190196546Y-124245740D01*
X190135456Y-124134118D01*
X189461313Y-122847821D01*
X188856528Y-121589450D01*
X188319322Y-120354971D01*
X187847916Y-119140350D01*
X187538184Y-118245211D01*
X187412194Y-117860876D01*
X187054437Y-117681351D01*
X186853517Y-117571888D01*
X186633955Y-117438733D01*
X186434747Y-117305865D01*
X186383981Y-117269050D01*
X186248679Y-117169444D01*
X186139438Y-117091122D01*
X186071056Y-117044579D01*
X186055807Y-117036273D01*
X186049020Y-117079805D01*
X186040425Y-117199918D01*
X186030898Y-117380886D01*
X186021311Y-117606986D01*
X186016195Y-117748881D01*
X186004596Y-118028984D01*
X185989381Y-118307061D01*
X185972281Y-118555928D01*
X185955024Y-118748404D01*
X185949720Y-118793893D01*
X185925889Y-118926047D01*
X185880187Y-119129929D01*
X185816438Y-119390369D01*
X185738467Y-119692199D01*
X185650098Y-120020249D01*
X185555157Y-120359350D01*
X185554021Y-120363327D01*
X185200658Y-121600358D01*
X185141222Y-122424042D01*
X185080159Y-123376428D01*
X185037203Y-124285500D01*
X185012258Y-125145587D01*
X185005225Y-125951020D01*
X185016007Y-126696126D01*
X185044505Y-127375235D01*
X185090622Y-127982676D01*
X185154260Y-128512780D01*
X185235321Y-128959874D01*
X185255460Y-129046437D01*
X185342150Y-129345743D01*
X185450264Y-129603074D01*
X185587899Y-129826651D01*
X185763152Y-130024696D01*
X185984122Y-130205430D01*
X186258905Y-130377077D01*
X186595601Y-130547857D01*
X186843537Y-130658870D01*
X187254023Y-130851259D01*
X187595448Y-131046606D01*
X187874537Y-131250521D01*
X188098020Y-131468615D01*
X188272623Y-131706500D01*
X188399737Y-131956862D01*
X188498709Y-132229222D01*
X188565714Y-132487976D01*
X188598615Y-132717467D01*
X188595276Y-132902035D01*
X188553561Y-133026023D01*
X188546799Y-133034974D01*
X188497167Y-133079315D01*
X188431819Y-133099848D01*
X188338850Y-133095013D01*
X188206354Y-133063249D01*
X188022423Y-133002994D01*
X187862866Y-132945309D01*
X187236090Y-132747367D01*
X186572077Y-132599026D01*
X185896780Y-132504421D01*
X185236153Y-132467682D01*
X184897869Y-132473216D01*
X184466071Y-132507489D01*
X184096004Y-132572259D01*
X183776603Y-132672183D01*
X183496808Y-132811917D01*
X183245554Y-132996116D01*
X183011780Y-133229437D01*
X182961168Y-133288333D01*
X182834570Y-133445685D01*
X182723651Y-133600516D01*
X182619429Y-133768829D01*
X182512922Y-133966630D01*
X182395149Y-134209922D01*
X182257130Y-134514711D01*
X182199160Y-134646210D01*
X181952396Y-135208818D01*
X181573985Y-135208818D01*
X181429734Y-134862455D01*
X181256192Y-134459937D01*
X181101559Y-134134622D01*
X180959556Y-133876595D01*
X180823902Y-133675941D01*
X180688318Y-133522745D01*
X180546524Y-133407093D01*
X180482263Y-133366543D01*
X180305956Y-133289919D01*
X180068714Y-133225430D01*
X179784878Y-133174175D01*
X179468792Y-133137254D01*
X179134796Y-133115766D01*
X178797235Y-133110812D01*
X178470450Y-133123491D01*
X178168783Y-133154903D01*
X178029358Y-133178464D01*
X177399243Y-133346365D01*
X176758628Y-133605118D01*
X176108570Y-133954291D01*
X176057711Y-133985186D01*
X175842413Y-134098435D01*
X175653350Y-134161342D01*
X175501084Y-134171886D01*
X175396176Y-134128045D01*
X175383208Y-134114309D01*
X175342620Y-134003271D01*
X175348778Y-133839774D01*
X175399906Y-133642332D01*
X175437735Y-133545905D01*
X175667940Y-133107842D01*
X175962415Y-132697843D01*
X176311101Y-132325736D01*
X176703941Y-132001347D01*
X177130877Y-131734502D01*
X177441127Y-131588642D01*
X177604361Y-131518903D01*
X177709555Y-131463698D01*
X177771612Y-131412362D01*
X177805437Y-131354229D01*
X177816159Y-131320262D01*
X177871951Y-131157414D01*
X177949950Y-131018822D01*
X178056823Y-130901485D01*
X178199237Y-130802401D01*
X178383858Y-130718570D01*
X178617352Y-130646992D01*
X178906385Y-130584666D01*
X179257625Y-130528590D01*
X179677736Y-130475764D01*
X179697150Y-130473553D01*
X180082734Y-130427864D01*
X180404639Y-130384803D01*
X180674892Y-130341920D01*
X180905520Y-130296766D01*
X181108551Y-130246890D01*
X181296010Y-130189843D01*
X181479925Y-130123175D01*
X181546203Y-130096906D01*
X181940232Y-129899259D01*
X182276614Y-129646691D01*
X182526286Y-129379690D01*
X182665276Y-129181042D01*
X182776629Y-128962720D01*
X182862748Y-128713151D01*
X182926030Y-128420767D01*
X182968875Y-128073995D01*
X182993684Y-127661266D01*
X183002855Y-127171008D01*
X183003032Y-127080818D01*
X182991272Y-126470608D01*
X182957337Y-125794351D01*
X182903171Y-125073568D01*
X182830718Y-124329778D01*
X182741922Y-123584502D01*
X182638727Y-122859259D01*
X182599568Y-122614150D01*
X182563017Y-122404957D01*
X182524772Y-122229560D01*
X182477946Y-122073939D01*
X182415647Y-121924074D01*
X182330988Y-121765946D01*
X182217078Y-121585536D01*
X182067029Y-121368823D01*
X181873950Y-121101789D01*
X181820437Y-121028647D01*
X181660010Y-120807343D01*
X181495817Y-120576898D01*
X181344469Y-120360872D01*
X181222578Y-120182830D01*
X181194915Y-120141370D01*
X180967417Y-119797460D01*
X178844432Y-119786978D01*
X178349490Y-119784097D01*
X177921629Y-119780372D01*
X177552110Y-119775308D01*
X177232193Y-119768411D01*
X176953139Y-119759184D01*
X176706209Y-119747133D01*
X176482663Y-119731764D01*
X176273763Y-119712582D01*
X176070769Y-119689091D01*
X175864941Y-119660797D01*
X175647540Y-119627205D01*
X175451447Y-119594845D01*
X175211516Y-119547993D01*
X175021952Y-119493985D01*
X174857308Y-119424527D01*
X174750104Y-119366293D01*
X174463850Y-119169037D01*
X174151259Y-118900603D01*
X173820826Y-118571851D01*
X173481048Y-118193640D01*
X173140424Y-117776829D01*
X172807449Y-117332279D01*
X172490621Y-116870850D01*
X172198437Y-116403401D01*
X171939393Y-115940792D01*
X171724328Y-115499138D01*
X171639617Y-115305033D01*
X171593762Y-115171042D01*
X171593666Y-115084677D01*
X171646235Y-115033452D01*
X171758373Y-115004880D01*
X171936984Y-114986475D01*
X172011074Y-114980553D01*
X172238955Y-114963303D01*
X172401989Y-114944908D01*
X172505154Y-114913088D01*
X172553429Y-114855566D01*
X172551792Y-114760065D01*
X172505221Y-114614305D01*
X172418694Y-114406009D01*
X172328741Y-114197078D01*
X172219912Y-113946323D01*
X172110867Y-113701805D01*
X172011579Y-113485441D01*
X171932027Y-113319150D01*
X171904253Y-113264450D01*
X171765337Y-112999909D01*
X171692743Y-113121308D01*
X171642361Y-113199131D01*
X171553212Y-113330541D01*
X171436341Y-113499491D01*
X171302793Y-113689934D01*
X171249274Y-113765581D01*
X170889018Y-114243100D01*
X170514832Y-114682259D01*
X170136491Y-115073424D01*
X169763771Y-115406967D01*
X169406445Y-115673256D01*
X169168528Y-115815643D01*
X168879121Y-115968902D01*
X168627886Y-116860497D01*
X168161636Y-118390705D01*
X167644301Y-119852857D01*
X167075512Y-121247554D01*
X166454900Y-122575399D01*
X165782097Y-123836995D01*
X165056734Y-125032943D01*
X164278441Y-126163847D01*
X163446850Y-127230309D01*
X162561593Y-128232931D01*
X161622299Y-129172315D01*
X160628602Y-130049064D01*
X160476820Y-130173595D01*
X159794107Y-130708244D01*
X159106255Y-131204994D01*
X158403943Y-131669037D01*
X157677845Y-132105565D01*
X156918639Y-132519771D01*
X156117000Y-132916845D01*
X155263603Y-133301981D01*
X154349126Y-133680371D01*
X153787177Y-133898750D01*
X152803055Y-134273035D01*
X152213893Y-134052680D01*
X151909038Y-133936680D01*
X151571613Y-133804879D01*
X151215891Y-133663132D01*
X150856144Y-133517289D01*
X150506645Y-133373202D01*
X150181666Y-133236724D01*
X149895481Y-133113706D01*
X149662360Y-133010001D01*
X149594572Y-132978707D01*
X148380535Y-132365134D01*
X147219003Y-131684943D01*
X146110141Y-130938339D01*
X145054109Y-130125525D01*
X144051072Y-129246708D01*
X143101191Y-128302090D01*
X142204630Y-127291877D01*
X141361551Y-126216273D01*
X140572117Y-125075483D01*
X139836490Y-123869712D01*
X139154834Y-122599163D01*
X138527311Y-121264041D01*
X137954084Y-119864552D01*
X137435315Y-118400898D01*
X137077094Y-117244091D01*
X136992654Y-116952733D01*
X136915105Y-116682338D01*
X136848693Y-116447936D01*
X136797665Y-116264560D01*
X136766268Y-116147242D01*
X136760250Y-116122593D01*
X136734819Y-116042343D01*
X136690248Y-115978637D01*
X136610658Y-115916582D01*
X136480166Y-115841285D01*
X136434092Y-115816723D01*
X136055612Y-115580072D01*
X135660600Y-115263943D01*
X135256805Y-114876358D01*
X134851975Y-114425340D01*
X134453857Y-113918912D01*
X134077820Y-113376802D01*
X133844731Y-113019330D01*
X133775587Y-113120585D01*
X133717750Y-113219477D01*
X133638364Y-113375037D01*
X133543225Y-113573862D01*
X133438129Y-113802544D01*
X133328872Y-114047681D01*
X133221251Y-114295865D01*
X133121062Y-114533693D01*
X133034101Y-114747758D01*
X132966164Y-114924656D01*
X132923047Y-115050982D01*
X132910548Y-115113330D01*
X132912346Y-115117033D01*
X132962143Y-115131569D01*
X133065433Y-115149084D01*
X133200091Y-115165840D01*
X133203344Y-115166183D01*
X133410253Y-115189521D01*
X133552937Y-115210856D01*
X133642857Y-115233635D01*
X133691477Y-115261311D01*
X133710260Y-115297332D01*
X133712044Y-115319287D01*
X133689064Y-115410364D01*
X133624551Y-115561409D01*
X133525150Y-115761068D01*
X133397504Y-115997985D01*
X133248257Y-116260807D01*
X133084052Y-116538178D01*
X132911532Y-116818745D01*
X132737343Y-117091153D01*
X132568126Y-117344046D01*
X132410527Y-117566071D01*
X132351365Y-117644820D01*
X132221911Y-117809356D01*
X132124594Y-117918399D01*
X132042388Y-117986777D01*
X131958268Y-118029314D01*
X131881851Y-118053684D01*
X131786807Y-118069850D01*
X131625185Y-118085564D01*
X131406230Y-118100292D01*
X131139185Y-118113497D01*
X130833294Y-118124644D01*
X130515621Y-118132830D01*
X129347407Y-118157260D01*
X129018158Y-118411732D01*
X128711432Y-118647959D01*
X128459148Y-118839262D01*
X128252134Y-118990974D01*
X128081218Y-119108429D01*
X127937227Y-119196960D01*
X127810991Y-119261900D01*
X127693337Y-119308582D01*
X127575092Y-119342341D01*
X127447086Y-119368508D01*
X127343089Y-119385743D01*
X127134925Y-119413739D01*
X126869356Y-119442260D01*
X126564780Y-119469879D01*
X126239595Y-119495165D01*
X125912200Y-119516691D01*
X125600994Y-119533029D01*
X125324375Y-119542748D01*
X125319547Y-119542860D01*
X124869289Y-119553182D01*
X124399780Y-120453727D01*
X124138238Y-120964595D01*
X123919243Y-121414375D01*
X123738449Y-121814556D01*
X123591506Y-122176626D01*
X123474065Y-122512074D01*
X123381777Y-122832388D01*
X123310295Y-123149057D01*
X123255268Y-123473569D01*
X123254410Y-123479496D01*
X123187841Y-123940455D01*
X123000316Y-123963546D01*
X122812791Y-123986636D01*
X122768660Y-124309909D01*
X122713956Y-124775879D01*
X122667150Y-125303603D01*
X122630151Y-125862763D01*
X122604868Y-126423039D01*
X122593213Y-126954109D01*
X122592660Y-127103909D01*
X122598450Y-127588155D01*
X122616402Y-127993163D01*
X122649226Y-128331339D01*
X122699632Y-128615086D01*
X122770331Y-128856810D01*
X122864032Y-129068917D01*
X122983447Y-129263811D01*
X123097171Y-129413064D01*
X123318608Y-129649749D01*
X123567668Y-129849682D01*
X123852577Y-130016462D01*
X124181555Y-130153693D01*
X124562827Y-130264975D01*
X125004615Y-130353910D01*
X125364332Y-130406070D01*
X125759118Y-130456176D01*
X126086294Y-130498541D01*
X126353705Y-130534461D01*
X126569198Y-130565230D01*
X126740618Y-130592146D01*
X126875812Y-130616504D01*
X126982627Y-130639599D01*
X127068907Y-130662728D01*
X127142500Y-130687186D01*
X127198467Y-130708972D01*
X127404701Y-130807514D01*
X127552391Y-130916165D01*
X127658631Y-131051411D01*
X127740515Y-131229740D01*
X127741660Y-131232868D01*
X127791963Y-131360810D01*
X127841253Y-131439475D01*
X127912316Y-131491129D01*
X128027941Y-131538039D01*
X128068665Y-131552399D01*
X128459815Y-131728089D01*
X128854093Y-131977646D01*
X129232251Y-132286686D01*
X129575036Y-132640827D01*
X129655626Y-132738061D01*
X129869498Y-133026610D01*
X130040231Y-133301830D01*
X130163644Y-133554577D01*
X130235555Y-133775703D01*
X130251782Y-133956064D01*
X130240839Y-134017977D01*
X130207833Y-134098876D01*
X130153250Y-134140154D01*
X130052198Y-134158456D01*
X130027577Y-134160561D01*
X129921132Y-134159169D01*
X129814442Y-134131525D01*
X129684335Y-134069450D01*
X129554415Y-133993529D01*
X128930323Y-133650164D01*
X128322906Y-133392462D01*
X127725321Y-133218276D01*
X127130729Y-133125462D01*
X126730522Y-133107731D01*
X126463807Y-133114853D01*
X126184240Y-133134913D01*
X125907344Y-133165655D01*
X125648641Y-133204826D01*
X125423655Y-133250170D01*
X125247910Y-133299432D01*
X125161312Y-133335669D01*
X124986947Y-133452726D01*
X124822600Y-133616785D01*
X124661784Y-133837330D01*
X124498010Y-134123844D01*
X124324792Y-134485814D01*
X124237855Y-134685684D01*
X124015947Y-135208818D01*
X123847019Y-135222588D01*
X123718434Y-135217978D01*
X123644271Y-135182050D01*
X123640174Y-135176406D01*
X123609230Y-135115443D01*
X123550436Y-134989446D01*
X123471384Y-134815032D01*
X123379664Y-134608817D01*
X123349035Y-134539182D01*
X123136692Y-134083470D01*
X122932025Y-133707048D01*
X122726871Y-133398880D01*
X122513064Y-133147932D01*
X122282439Y-132943168D01*
X122054582Y-132789741D01*
X121845014Y-132681633D01*
X121619406Y-132599317D01*
X121363631Y-132539644D01*
X121063557Y-132499463D01*
X120705058Y-132475626D01*
X120632940Y-132472817D01*
X120043413Y-132479124D01*
X119428233Y-132535693D01*
X118811347Y-132638523D01*
X118216702Y-132783609D01*
X117668246Y-132966949D01*
X117661898Y-132969422D01*
X117429264Y-133052702D01*
X117256246Y-133096281D01*
X117134444Y-133101273D01*
X117055457Y-133068796D01*
X117039029Y-133052127D01*
X117000262Y-132946206D01*
X116994213Y-132778431D01*
X117017444Y-132568131D01*
X117066517Y-132334639D01*
X117137996Y-132097285D01*
X117228441Y-131875400D01*
X117259243Y-131813822D01*
X117392525Y-131596901D01*
X117556619Y-131400026D01*
X117759931Y-131216750D01*
X118010867Y-131040626D01*
X118317834Y-130865207D01*
X118689238Y-130684046D01*
X118794283Y-130636595D01*
X119100654Y-130495439D01*
X119345960Y-130370822D01*
X119542323Y-130255141D01*
X119701862Y-130140795D01*
X119836699Y-130020183D01*
X119921220Y-129929846D01*
X120060449Y-129744589D01*
X120179057Y-129525381D01*
X120279066Y-129263580D01*
X120362499Y-128950544D01*
X120431378Y-128577630D01*
X120487726Y-128136195D01*
X120533566Y-127617596D01*
X120560930Y-127196273D01*
X120574853Y-126855650D01*
X120582679Y-126440722D01*
X120584653Y-125969221D01*
X120581019Y-125458882D01*
X120572023Y-124927438D01*
X120557909Y-124392623D01*
X120538924Y-123872171D01*
X120515311Y-123383816D01*
X120506053Y-123224636D01*
X120462343Y-122508818D01*
X120304176Y-122494793D01*
X120196309Y-122473564D01*
X120120723Y-122437765D01*
X120109017Y-122425520D01*
X120093806Y-122362463D01*
X120075834Y-122224227D01*
X120056832Y-122027836D01*
X120038529Y-121790313D01*
X120028519Y-121633710D01*
X119984153Y-121062535D01*
X119921784Y-120531112D01*
X119843378Y-120049754D01*
X119750905Y-119628775D01*
X119646331Y-119278488D01*
X119531625Y-119009207D01*
X119525616Y-118997976D01*
X119455263Y-118884003D01*
X119344031Y-118722538D01*
X119204707Y-118531341D01*
X119050075Y-118328171D01*
X118971157Y-118227825D01*
X118541182Y-117687559D01*
X118364562Y-117772073D01*
X118187943Y-117856586D01*
X117994465Y-118427793D01*
X117598014Y-119531816D01*
X117157165Y-120631234D01*
X116664243Y-121744450D01*
X116247360Y-122616553D01*
X116074204Y-122963334D01*
X115896288Y-123310924D01*
X115718860Y-123649812D01*
X115547164Y-123970485D01*
X115386447Y-124263434D01*
X115241953Y-124519145D01*
X115118930Y-124728107D01*
X115022622Y-124880809D01*
X114958275Y-124967739D01*
X114942906Y-124981805D01*
X114846915Y-125010722D01*
X114734179Y-125004841D01*
X114668705Y-124982763D01*
X114621698Y-124942637D01*
X114591375Y-124872000D01*
X114575953Y-124758387D01*
X114573652Y-124589333D01*
X114582689Y-124352376D01*
X114599529Y-124062994D01*
X114621230Y-123698558D01*
X114642005Y-123316998D01*
X114661440Y-122929247D01*
X114679119Y-122546234D01*
X114694628Y-122178890D01*
X114707552Y-121838143D01*
X114717478Y-121534925D01*
X114723989Y-121280166D01*
X114726671Y-121084796D01*
X114725111Y-120959744D01*
X114718910Y-120915941D01*
X114674795Y-120928617D01*
X114582450Y-120960420D01*
X114511500Y-120986181D01*
X114377192Y-121026437D01*
X114204119Y-121065781D01*
X114029088Y-121095875D01*
X114024343Y-121096527D01*
X113878937Y-121120966D01*
X113762446Y-121149089D01*
X113695833Y-121175615D01*
X113689881Y-121180799D01*
X113667456Y-121239700D01*
X113631344Y-121370138D01*
X113586169Y-121554018D01*
X113536557Y-121773249D01*
X113526367Y-121820408D01*
X113413594Y-122316540D01*
X113298484Y-122754631D01*
X113170919Y-123168514D01*
X113020782Y-123592024D01*
X112913147Y-123871182D01*
X112629380Y-124527083D01*
X112326368Y-125104043D01*
X111997458Y-125614205D01*
X111849168Y-125812530D01*
X111425994Y-126297842D01*
X110983925Y-126694798D01*
X110523721Y-127002793D01*
X110112791Y-127196529D01*
X109879847Y-127263347D01*
X109602629Y-127307672D01*
X109307513Y-127328133D01*
X109020879Y-127323356D01*
X108769105Y-127291970D01*
X108681671Y-127270975D01*
X108309036Y-127123347D01*
X107986838Y-126907717D01*
X107713417Y-126622262D01*
X107487114Y-126265158D01*
X107306271Y-125834583D01*
X107268944Y-125718455D01*
X107227631Y-125574493D01*
X107197843Y-125442983D01*
X107177127Y-125302578D01*
X107163030Y-125131929D01*
X107153103Y-124909686D01*
X107145627Y-124644727D01*
X107127762Y-123917364D01*
X107002705Y-123917364D01*
X106895788Y-123908799D01*
X106815741Y-123888424D01*
X106755671Y-123822305D01*
X106681409Y-123682011D01*
X106598002Y-123482711D01*
X106510498Y-123239570D01*
X106423944Y-122967757D01*
X106343386Y-122682437D01*
X106273873Y-122398778D01*
X106220450Y-122131946D01*
X106209934Y-122067933D01*
X106175189Y-121753641D01*
X106156538Y-121382956D01*
X106153977Y-120989744D01*
X106167501Y-120607869D01*
X106197105Y-120271197D01*
X106210191Y-120177139D01*
X106332832Y-119594572D01*
X106520533Y-119008037D01*
X106774486Y-118415625D01*
X107095883Y-117815429D01*
X107485916Y-117205542D01*
X107945777Y-116584056D01*
X108476657Y-115949063D01*
X109079748Y-115298657D01*
X109554903Y-114824069D01*
X109690939Y-114687831D01*
X109800496Y-114569937D01*
X109872326Y-114483075D01*
X109895230Y-114440098D01*
X109856865Y-114402347D01*
X109766875Y-114343041D01*
X109644157Y-114274545D01*
X109634812Y-114269716D01*
X109466214Y-114173049D01*
X109287952Y-114055528D01*
X109173645Y-113970126D01*
X109038199Y-113846509D01*
X108892503Y-113690657D01*
X108750235Y-113520004D01*
X108625073Y-113351984D01*
X108530692Y-113204028D01*
X108480771Y-113093572D01*
X108478504Y-113084088D01*
X108460759Y-113018644D01*
X108429102Y-112988006D01*
X108363290Y-112985372D01*
X108243081Y-113003939D01*
X108241052Y-113004294D01*
X108120373Y-113018212D01*
X107946528Y-113029053D01*
X107742152Y-113035787D01*
X107529881Y-113037385D01*
X107515925Y-113037283D01*
X107174477Y-113022443D01*
X106849890Y-112980765D01*
X106520180Y-112907582D01*
X106163363Y-112798230D01*
X105848354Y-112683392D01*
X105669980Y-112612496D01*
X105550959Y-112557358D01*
X105477555Y-112509166D01*
X105436034Y-112459106D01*
X105414543Y-112405078D01*
X105402500Y-112258951D01*
X105513882Y-112258951D01*
X105517491Y-112307612D01*
X105564590Y-112369090D01*
X105639777Y-112425452D01*
X105775714Y-112494784D01*
X105958772Y-112572140D01*
X106175319Y-112652572D01*
X106411727Y-112731134D01*
X106654364Y-112802878D01*
X106889601Y-112862856D01*
X106979468Y-112882633D01*
X107275855Y-112936920D01*
X107520615Y-112963254D01*
X107734163Y-112962478D01*
X107936913Y-112935433D01*
X107989805Y-112924331D01*
X108196653Y-112878794D01*
X108342207Y-112851500D01*
X108439739Y-112843951D01*
X108502519Y-112857645D01*
X108543819Y-112894083D01*
X108576910Y-112954763D01*
X108593612Y-112992569D01*
X108674406Y-113134425D01*
X108802272Y-113309500D01*
X108961190Y-113499794D01*
X109135137Y-113687306D01*
X109308092Y-113854035D01*
X109464033Y-113981981D01*
X109491060Y-114000855D01*
X109647831Y-114099041D01*
X109812930Y-114190991D01*
X109932716Y-114248737D01*
X110065055Y-114320474D01*
X110125627Y-114398015D01*
X110114789Y-114489233D01*
X110032898Y-114602005D01*
X109952320Y-114681000D01*
X109654082Y-114964379D01*
X109332467Y-115289665D01*
X108999017Y-115643720D01*
X108665277Y-116013405D01*
X108342792Y-116385578D01*
X108043104Y-116747102D01*
X107777758Y-117084836D01*
X107558298Y-117385640D01*
X107497623Y-117475000D01*
X107101900Y-118120083D01*
X106780475Y-118751663D01*
X106532873Y-119371522D01*
X106358614Y-119981445D01*
X106257224Y-120583213D01*
X106228225Y-121178610D01*
X106271139Y-121769419D01*
X106299437Y-121954636D01*
X106359056Y-122252051D01*
X106435665Y-122560104D01*
X106523913Y-122863316D01*
X106618448Y-123146204D01*
X106713919Y-123393287D01*
X106804976Y-123589085D01*
X106886265Y-123718116D01*
X106920779Y-123752181D01*
X106973642Y-123771694D01*
X107027838Y-123735836D01*
X107091376Y-123651402D01*
X107183471Y-123533164D01*
X107243681Y-123498087D01*
X107273245Y-123547000D01*
X107273401Y-123680734D01*
X107264398Y-123767273D01*
X107251644Y-123920989D01*
X107241881Y-124137038D01*
X107236145Y-124385421D01*
X107235270Y-124610091D01*
X107238748Y-124867065D01*
X107247500Y-125058601D01*
X107264709Y-125211589D01*
X107293558Y-125352918D01*
X107337229Y-125509478D01*
X107344580Y-125533727D01*
X107520765Y-125992450D01*
X107748230Y-126385403D01*
X108024211Y-126709532D01*
X108345944Y-126961780D01*
X108710662Y-127139094D01*
X108833312Y-127178740D01*
X109170697Y-127231134D01*
X109535614Y-127206595D01*
X109918281Y-127108595D01*
X110308915Y-126940605D01*
X110697733Y-126706095D01*
X111074953Y-126408536D01*
X111120670Y-126367202D01*
X111338226Y-126146760D01*
X111577365Y-125869410D01*
X111820937Y-125557644D01*
X112051793Y-125233956D01*
X112252781Y-124920837D01*
X112342427Y-124764856D01*
X112607007Y-124231984D01*
X112858090Y-123632816D01*
X113086579Y-122993266D01*
X113283378Y-122339246D01*
X113439388Y-121696669D01*
X113466807Y-121562091D01*
X113508974Y-121368209D01*
X113551724Y-121206685D01*
X113588705Y-121100047D01*
X113604862Y-121072366D01*
X113667314Y-121042866D01*
X113780740Y-121014849D01*
X113918148Y-120994677D01*
X114092490Y-120964065D01*
X114291891Y-120910238D01*
X114461531Y-120849402D01*
X114600846Y-120793115D01*
X114714737Y-120751291D01*
X114782382Y-120731477D01*
X114788704Y-120730818D01*
X114807596Y-120756176D01*
X114818087Y-120839094D01*
X114820580Y-120989835D01*
X114815482Y-121218666D01*
X114811960Y-121319636D01*
X114798911Y-121655958D01*
X114783778Y-122021394D01*
X114767177Y-122403160D01*
X114749728Y-122788476D01*
X114732048Y-123164556D01*
X114714755Y-123518620D01*
X114698468Y-123837884D01*
X114683804Y-124109565D01*
X114671382Y-124320881D01*
X114661821Y-124459049D01*
X114658341Y-124496401D01*
X114654261Y-124647399D01*
X114690082Y-124759694D01*
X114712193Y-124796182D01*
X114787498Y-124909470D01*
X114872006Y-124817508D01*
X114928985Y-124738424D01*
X115019630Y-124591516D01*
X115137990Y-124387711D01*
X115278112Y-124137936D01*
X115434045Y-123853119D01*
X115599838Y-123544187D01*
X115769540Y-123222068D01*
X115937198Y-122897690D01*
X116096862Y-122581981D01*
X116171327Y-122431826D01*
X116574577Y-121586692D01*
X116953817Y-120740195D01*
X117302277Y-119908601D01*
X117613185Y-119108175D01*
X117879773Y-118355181D01*
X117924812Y-118218953D01*
X117991926Y-118016238D01*
X118042626Y-117880535D01*
X118088525Y-117793035D01*
X118141236Y-117734928D01*
X118212372Y-117687406D01*
X118274095Y-117653225D01*
X118399435Y-117592725D01*
X118508782Y-117553106D01*
X118558424Y-117544140D01*
X118615552Y-117576856D01*
X118711943Y-117666659D01*
X118837171Y-117800870D01*
X118980809Y-117966812D01*
X119132431Y-118151806D01*
X119281612Y-118343173D01*
X119417925Y-118528236D01*
X119530945Y-118694315D01*
X119602077Y-118813249D01*
X119712639Y-119068410D01*
X119815141Y-119403158D01*
X119907130Y-119804969D01*
X119986153Y-120261318D01*
X120049757Y-120759682D01*
X120095489Y-121287536D01*
X120099784Y-121354273D01*
X120114400Y-121597486D01*
X120126646Y-121814662D01*
X120135444Y-121985638D01*
X120139713Y-122090251D01*
X120139950Y-122104727D01*
X120166119Y-122214613D01*
X120216123Y-122301241D01*
X120282853Y-122362560D01*
X120342320Y-122354220D01*
X120362743Y-122340134D01*
X120421247Y-122302788D01*
X120466435Y-122297721D01*
X120500990Y-122334629D01*
X120527597Y-122423209D01*
X120548939Y-122573156D01*
X120567700Y-122794168D01*
X120586564Y-123095939D01*
X120590335Y-123162394D01*
X120623958Y-123858897D01*
X120647295Y-124559703D01*
X120660468Y-125252753D01*
X120663603Y-125925990D01*
X120656823Y-126567357D01*
X120640250Y-127164796D01*
X120614009Y-127706250D01*
X120578223Y-128179660D01*
X120535044Y-128558636D01*
X120470177Y-128973587D01*
X120397345Y-129318656D01*
X120308379Y-129605000D01*
X120195113Y-129843771D01*
X120049380Y-130046123D01*
X119863013Y-130223210D01*
X119627845Y-130386187D01*
X119335709Y-130546207D01*
X118978439Y-130714423D01*
X118945925Y-130728958D01*
X118513982Y-130936827D01*
X118151456Y-131146754D01*
X117852021Y-131365001D01*
X117609350Y-131597826D01*
X117417117Y-131851491D01*
X117268998Y-132132254D01*
X117158665Y-132446377D01*
X117139983Y-132516071D01*
X117101663Y-132671029D01*
X117086239Y-132764343D01*
X117093860Y-132822477D01*
X117124675Y-132871896D01*
X117142107Y-132893419D01*
X117179518Y-132935189D01*
X117217807Y-132955891D01*
X117273688Y-132954104D01*
X117363879Y-132928406D01*
X117505097Y-132877375D01*
X117556580Y-132858158D01*
X118286747Y-132629707D01*
X119058725Y-132473497D01*
X119866062Y-132390531D01*
X120632940Y-132379712D01*
X120994662Y-132393795D01*
X121293455Y-132416551D01*
X121542042Y-132450539D01*
X121753149Y-132498319D01*
X121939501Y-132562450D01*
X122113822Y-132645492D01*
X122200747Y-132695084D01*
X122425218Y-132845440D01*
X122623681Y-133016756D01*
X122804921Y-133221087D01*
X122977722Y-133470487D01*
X123150869Y-133777010D01*
X123333147Y-134152709D01*
X123443717Y-134400636D01*
X123542238Y-134622049D01*
X123632747Y-134816671D01*
X123707561Y-134968623D01*
X123758997Y-135062028D01*
X123773169Y-135081447D01*
X123815302Y-135108487D01*
X123858804Y-135097498D01*
X123909654Y-135039406D01*
X123973835Y-134925136D01*
X124057328Y-134745615D01*
X124166115Y-134491768D01*
X124173544Y-134474053D01*
X124339016Y-134098585D01*
X124492553Y-133800842D01*
X124645034Y-133570465D01*
X124807340Y-133397095D01*
X124990352Y-133270376D01*
X125204950Y-133179948D01*
X125462013Y-133115454D01*
X125631119Y-133086415D01*
X125920319Y-133051995D01*
X126245941Y-133029304D01*
X126588680Y-133018369D01*
X126929233Y-133019214D01*
X127248296Y-133031865D01*
X127526564Y-133056345D01*
X127703238Y-133083741D01*
X128303543Y-133243533D01*
X128918569Y-133484126D01*
X129535474Y-133800275D01*
X129708339Y-133902563D01*
X129851733Y-133988847D01*
X129943866Y-134037650D01*
X130001191Y-134053048D01*
X130040161Y-134039116D01*
X130077228Y-133999929D01*
X130081322Y-133994951D01*
X130125387Y-133934987D01*
X130135205Y-133881290D01*
X130110556Y-133799801D01*
X130079563Y-133724438D01*
X129885025Y-133343987D01*
X129627521Y-132969349D01*
X129319721Y-132612805D01*
X128974295Y-132286632D01*
X128603911Y-132003110D01*
X128221239Y-131774518D01*
X127936657Y-131647587D01*
X127808865Y-131593469D01*
X127732397Y-131538638D01*
X127684617Y-131462053D01*
X127657344Y-131387978D01*
X127551585Y-131182126D01*
X127382919Y-131000019D01*
X127163636Y-130853561D01*
X127053707Y-130803249D01*
X126981329Y-130776042D01*
X126903564Y-130751395D01*
X126812469Y-130727992D01*
X126700099Y-130704519D01*
X126558511Y-130679660D01*
X126379760Y-130652100D01*
X126155902Y-130620524D01*
X125878994Y-130583616D01*
X125541092Y-130540061D01*
X125212690Y-130498434D01*
X124709847Y-130420537D01*
X124274396Y-130320879D01*
X123899504Y-130196552D01*
X123578335Y-130044645D01*
X123304058Y-129862248D01*
X123069839Y-129646452D01*
X122985965Y-129550287D01*
X122861842Y-129383484D01*
X122760693Y-129207786D01*
X122680375Y-129012050D01*
X122618743Y-128785132D01*
X122573653Y-128515889D01*
X122542959Y-128193177D01*
X122524517Y-127805852D01*
X122516184Y-127342773D01*
X122515157Y-127103909D01*
X122516647Y-126671830D01*
X122523015Y-126289820D01*
X122535593Y-125933733D01*
X122555710Y-125579425D01*
X122584697Y-125202753D01*
X122623886Y-124779570D01*
X122665961Y-124367636D01*
X122692217Y-124125690D01*
X122713385Y-123960834D01*
X122733057Y-123858399D01*
X122754823Y-123803719D01*
X122782276Y-123782126D01*
X122810128Y-123778818D01*
X122897374Y-123802483D01*
X122936999Y-123833145D01*
X122998444Y-123863406D01*
X123056995Y-123807231D01*
X123109793Y-123670551D01*
X123153982Y-123459293D01*
X123169043Y-123351722D01*
X123220366Y-123021080D01*
X123294600Y-122687432D01*
X123395596Y-122340437D01*
X123527206Y-121969755D01*
X123693282Y-121565046D01*
X123897675Y-121115968D01*
X124144237Y-120612183D01*
X124312204Y-120282865D01*
X124746223Y-119442366D01*
X125258014Y-119439641D01*
X125632874Y-119430755D01*
X126043284Y-119409234D01*
X126460737Y-119377230D01*
X126856727Y-119336896D01*
X127172492Y-119295057D01*
X127317176Y-119271313D01*
X127444299Y-119244134D01*
X127563092Y-119208201D01*
X127682788Y-119158197D01*
X127812623Y-119088803D01*
X127961827Y-118994702D01*
X128139635Y-118870576D01*
X128355279Y-118711106D01*
X128617993Y-118510976D01*
X128866517Y-118319368D01*
X129195765Y-118064896D01*
X130363979Y-118040467D01*
X130696933Y-118031799D01*
X131000334Y-118020570D01*
X131264858Y-118007318D01*
X131481180Y-117992584D01*
X131639977Y-117976906D01*
X131729776Y-117961433D01*
X131821683Y-117930723D01*
X131900702Y-117886703D01*
X131982118Y-117815777D01*
X132081219Y-117704349D01*
X132213289Y-117538823D01*
X132232138Y-117514603D01*
X132386369Y-117304953D01*
X132568966Y-117039030D01*
X132766659Y-116737751D01*
X132966179Y-116422036D01*
X133154256Y-116112802D01*
X133317621Y-115830968D01*
X133421102Y-115640255D01*
X133492386Y-115499300D01*
X133526185Y-115415229D01*
X133526721Y-115367791D01*
X133498217Y-115336733D01*
X133486087Y-115328527D01*
X133400924Y-115297362D01*
X133285141Y-115281774D01*
X133264902Y-115281364D01*
X133129083Y-115274554D01*
X132976722Y-115257635D01*
X132940171Y-115251996D01*
X132831677Y-115227592D01*
X132779585Y-115192139D01*
X132764548Y-115130570D01*
X132764283Y-115115026D01*
X132781609Y-115043947D01*
X132829613Y-114906184D01*
X132902330Y-114715915D01*
X132993798Y-114487317D01*
X133098052Y-114234569D01*
X133209130Y-113971850D01*
X133321068Y-113713336D01*
X133427902Y-113473208D01*
X133523670Y-113265641D01*
X133602408Y-113104816D01*
X133636916Y-113040320D01*
X133719525Y-112910886D01*
X133793133Y-112845638D01*
X133868319Y-112847720D01*
X133955664Y-112920275D01*
X134065747Y-113066448D01*
X134148005Y-113192198D01*
X134298112Y-113412935D01*
X134489008Y-113670729D01*
X134708166Y-113950635D01*
X134943056Y-114237705D01*
X135181150Y-114516994D01*
X135409918Y-114773555D01*
X135616832Y-114992442D01*
X135789362Y-115158708D01*
X135816074Y-115182130D01*
X136001637Y-115331878D01*
X136210864Y-115485583D01*
X136409801Y-115618797D01*
X136489507Y-115667039D01*
X136644335Y-115758557D01*
X136744490Y-115827168D01*
X136804567Y-115887527D01*
X136839162Y-115954289D01*
X136862819Y-116041878D01*
X136905781Y-116213652D01*
X136972403Y-116455074D01*
X137057808Y-116750218D01*
X137157120Y-117083159D01*
X137265462Y-117437971D01*
X137377959Y-117798729D01*
X137489733Y-118149508D01*
X137595909Y-118474383D01*
X137691610Y-118757428D01*
X137714066Y-118821892D01*
X138248171Y-120240245D01*
X138831143Y-121589564D01*
X139464891Y-122873332D01*
X140151323Y-124095033D01*
X140892348Y-125258149D01*
X141689875Y-126366165D01*
X142202595Y-127013644D01*
X143042646Y-127983570D01*
X143913517Y-128881327D01*
X144823113Y-129713813D01*
X145779341Y-130487923D01*
X146790107Y-131210554D01*
X147630208Y-131748249D01*
X148097539Y-132026423D01*
X148558161Y-132285807D01*
X149023259Y-132531707D01*
X149504016Y-132769433D01*
X150011616Y-133004290D01*
X150557244Y-133241589D01*
X151152084Y-133486635D01*
X151807319Y-133744738D01*
X151964523Y-133805272D01*
X152797152Y-134124685D01*
X153670494Y-133793866D01*
X154411982Y-133505200D01*
X155092339Y-133223261D01*
X155725466Y-132941516D01*
X156325268Y-132653434D01*
X156905647Y-132352482D01*
X157480507Y-132032127D01*
X157729066Y-131887017D01*
X158803427Y-131210833D01*
X159816682Y-130487949D01*
X160775768Y-129712412D01*
X161687621Y-128878273D01*
X162559179Y-127979580D01*
X163358524Y-127057727D01*
X164199122Y-125973874D01*
X164982714Y-124834478D01*
X165710268Y-123637597D01*
X166382755Y-122381290D01*
X167001143Y-121063614D01*
X167566402Y-119682628D01*
X168079502Y-118236390D01*
X168541411Y-116722958D01*
X168571406Y-116616055D01*
X168782747Y-115858636D01*
X169150604Y-115639455D01*
X169349027Y-115510048D01*
X169570004Y-115348456D01*
X169777723Y-115181446D01*
X169859656Y-115109538D01*
X170047199Y-114925629D01*
X170268784Y-114687259D01*
X170510351Y-114411363D01*
X170757843Y-114114879D01*
X170997200Y-113814743D01*
X171214364Y-113527890D01*
X171395277Y-113271259D01*
X171432940Y-113214199D01*
X171567392Y-113015477D01*
X171670596Y-112891293D01*
X171753385Y-112839352D01*
X171826591Y-112857359D01*
X171901048Y-112943018D01*
X171987588Y-113094035D01*
X171988845Y-113096426D01*
X172058129Y-113236360D01*
X172145800Y-113425360D01*
X172245607Y-113648618D01*
X172351298Y-113891324D01*
X172456621Y-114138670D01*
X172555324Y-114375846D01*
X172641157Y-114588042D01*
X172707866Y-114760449D01*
X172749201Y-114878258D01*
X172759805Y-114922716D01*
X172748458Y-114962337D01*
X172707899Y-114993590D01*
X172628354Y-115018852D01*
X172500049Y-115040501D01*
X172313209Y-115060914D01*
X172124805Y-115077165D01*
X171963633Y-115091869D01*
X171835097Y-115106816D01*
X171755009Y-115119970D01*
X171736223Y-115127212D01*
X171755086Y-115192850D01*
X171805594Y-115316619D01*
X171878630Y-115478771D01*
X171965075Y-115659560D01*
X172055810Y-115839238D01*
X172122534Y-115963814D01*
X172356519Y-116359889D01*
X172632142Y-116782224D01*
X172936762Y-117214281D01*
X173257737Y-117639520D01*
X173582423Y-118041401D01*
X173898179Y-118403386D01*
X174192361Y-118708935D01*
X174295179Y-118806177D01*
X174564491Y-119039532D01*
X174804475Y-119214082D01*
X175035566Y-119340707D01*
X175278201Y-119430286D01*
X175552814Y-119493699D01*
X175603089Y-119502481D01*
X175838665Y-119541276D01*
X176053552Y-119574239D01*
X176256545Y-119601860D01*
X176456434Y-119624629D01*
X176662013Y-119643035D01*
X176882073Y-119657567D01*
X177125408Y-119668714D01*
X177400809Y-119676966D01*
X177717068Y-119682813D01*
X178082979Y-119686742D01*
X178507333Y-119689245D01*
X178986439Y-119690780D01*
X181099789Y-119695878D01*
X181295987Y-119993984D01*
X181393322Y-120137706D01*
X181526333Y-120328352D01*
X181679801Y-120544383D01*
X181838506Y-120764260D01*
X181892441Y-120838096D01*
X182097604Y-121120113D01*
X182258027Y-121348454D01*
X182380589Y-121537099D01*
X182472166Y-121700026D01*
X182539637Y-121851216D01*
X182589880Y-122004647D01*
X182629772Y-122174298D01*
X182666193Y-122374150D01*
X182675389Y-122429422D01*
X182820109Y-123408460D01*
X182935086Y-124399806D01*
X183018230Y-125379475D01*
X183067447Y-126323477D01*
X183081045Y-127080818D01*
X183078060Y-127540910D01*
X183067989Y-127922391D01*
X183049414Y-128238756D01*
X183020919Y-128503498D01*
X182981088Y-128730111D01*
X182928503Y-128932090D01*
X182868462Y-129105627D01*
X182710290Y-129410785D01*
X182484421Y-129685115D01*
X182195868Y-129923977D01*
X181849643Y-130122730D01*
X181697845Y-130189269D01*
X181512310Y-130259916D01*
X181327474Y-130320077D01*
X181131309Y-130372202D01*
X180911788Y-130418742D01*
X180656885Y-130462146D01*
X180354572Y-130504865D01*
X179992823Y-130549347D01*
X179848791Y-130565917D01*
X179432467Y-130618057D01*
X179085637Y-130672671D01*
X178801976Y-130731313D01*
X178575161Y-130795537D01*
X178398868Y-130866898D01*
X178266774Y-130946951D01*
X178252031Y-130958470D01*
X178117033Y-131093391D01*
X177997819Y-131258315D01*
X177916133Y-131421527D01*
X177900864Y-131470628D01*
X177861157Y-131535564D01*
X177768550Y-131599396D01*
X177612189Y-131669535D01*
X177606086Y-131671937D01*
X177186745Y-131876678D01*
X176778799Y-132152375D01*
X176395159Y-132486452D01*
X176048739Y-132866332D01*
X175752452Y-133279439D01*
X175526310Y-133697490D01*
X175436447Y-133894888D01*
X175514443Y-133989902D01*
X175592440Y-134084917D01*
X175899903Y-133896599D01*
X176548246Y-133540894D01*
X177184699Y-133275475D01*
X177810779Y-133099719D01*
X177877716Y-133086100D01*
X178127102Y-133049372D01*
X178417247Y-133026659D01*
X178734886Y-133017195D01*
X179066750Y-133020215D01*
X179399575Y-133034952D01*
X179720092Y-133060639D01*
X180015036Y-133096511D01*
X180271139Y-133141801D01*
X180475136Y-133195742D01*
X180588313Y-133242667D01*
X180741675Y-133342779D01*
X180881721Y-133476579D01*
X181015833Y-133655208D01*
X181151390Y-133889806D01*
X181295774Y-134191515D01*
X181436867Y-134523517D01*
X181519749Y-134717644D01*
X181598538Y-134886697D01*
X181662970Y-135009474D01*
X181695903Y-135058658D01*
X181751537Y-135109993D01*
X181793802Y-135099612D01*
X181845889Y-135035567D01*
X181893133Y-134954616D01*
X181964752Y-134811627D01*
X182050913Y-134626995D01*
X182139273Y-134426964D01*
X182337061Y-133989169D01*
X182522716Y-133629452D01*
X182704047Y-133336781D01*
X182888862Y-133100122D01*
X183084972Y-132908442D01*
X183300185Y-132750708D01*
X183345536Y-132722668D01*
X183526337Y-132622569D01*
X183705364Y-132544537D01*
X183896590Y-132485478D01*
X184113992Y-132442299D01*
X184371543Y-132411909D01*
X184683219Y-132391213D01*
X184880804Y-132382914D01*
X185618471Y-132382917D01*
X186314253Y-132439753D01*
X186987756Y-132556215D01*
X187658588Y-132735101D01*
X187896304Y-132812952D01*
X188099062Y-132880637D01*
X188241942Y-132923025D01*
X188337399Y-132942520D01*
X188397885Y-132941523D01*
X188435855Y-132922438D01*
X188440584Y-132917957D01*
X188484483Y-132816926D01*
X188482969Y-132661806D01*
X188441166Y-132467365D01*
X188364195Y-132248374D01*
X188257178Y-132019599D01*
X188125238Y-131795811D01*
X187985648Y-131606303D01*
X187800793Y-131409800D01*
X187582032Y-131229887D01*
X187318503Y-131059387D01*
X186999348Y-130891122D01*
X186691895Y-130751234D01*
X186325720Y-130583611D01*
X186026795Y-130423608D01*
X185787378Y-130265217D01*
X185599730Y-130102424D01*
X185456108Y-129929221D01*
X185348773Y-129739597D01*
X185328095Y-129692283D01*
X185221551Y-129372549D01*
X185130970Y-128967357D01*
X185056524Y-128481587D01*
X184998386Y-127920119D01*
X184956726Y-127287834D01*
X184931717Y-126589612D01*
X184923531Y-125830334D01*
X184932341Y-125014879D01*
X184958318Y-124148127D01*
X185001633Y-123234960D01*
X185062460Y-122280257D01*
X185065401Y-122239315D01*
X185124838Y-121415630D01*
X185478200Y-120178600D01*
X185573245Y-119839207D01*
X185661788Y-119510448D01*
X185739996Y-119207548D01*
X185804035Y-118945728D01*
X185850072Y-118740209D01*
X185874274Y-118606215D01*
X185874389Y-118605320D01*
X185891226Y-118437027D01*
X185908391Y-118203030D01*
X185924228Y-117929957D01*
X185937080Y-117644435D01*
X185940868Y-117537217D01*
X185951800Y-117246500D01*
X185963606Y-117038051D01*
X185977295Y-116901776D01*
X185993878Y-116827579D01*
X186014142Y-116805364D01*
X186065319Y-116829367D01*
X186163339Y-116894037D01*
X186292201Y-116988370D01*
X186385148Y-117060559D01*
X186567030Y-117199648D01*
X186745685Y-117323272D01*
X186941554Y-117444310D01*
X187175075Y-117575640D01*
X187355328Y-117671885D01*
X187450108Y-117728681D01*
X187513207Y-117793977D01*
X187562631Y-117894315D01*
X187616388Y-118056237D01*
X187616645Y-118057074D01*
X187749781Y-118464450D01*
X187916607Y-118932732D01*
X188110275Y-119444776D01*
X188323934Y-119983435D01*
X188550735Y-120531564D01*
X188783830Y-121072015D01*
X189016369Y-121587645D01*
X189090587Y-121746818D01*
X189272486Y-122127768D01*
X189461912Y-122514117D01*
X189654436Y-122897670D01*
X189845630Y-123270229D01*
X190031066Y-123623595D01*
X190206313Y-123949572D01*
X190366945Y-124239963D01*
X190508531Y-124486569D01*
X190626645Y-124681193D01*
X190716856Y-124815639D01*
X190774736Y-124881707D01*
X190787155Y-124887182D01*
X190846022Y-124851294D01*
X190893426Y-124783273D01*
X190912053Y-124731384D01*
X190923250Y-124655637D01*
X190927084Y-124542056D01*
X190923622Y-124376666D01*
X190912930Y-124145492D01*
X190897740Y-123879003D01*
X190879579Y-123557554D01*
X190861629Y-123208268D01*
X190844322Y-122842878D01*
X190828089Y-122473112D01*
X190813364Y-122110704D01*
X190800577Y-121767383D01*
X190790160Y-121454880D01*
X190782547Y-121184926D01*
X190778168Y-120969253D01*
X190777457Y-120819590D01*
X190780844Y-120747670D01*
X190782260Y-120743344D01*
X190825250Y-120745352D01*
X190922067Y-120772604D01*
X191054987Y-120819779D01*
X191114657Y-120843181D01*
X191299435Y-120907659D01*
X191497285Y-120961173D01*
X191668563Y-120993162D01*
X191684597Y-120994967D01*
X191822961Y-121015508D01*
X191934325Y-121043658D01*
X191993152Y-121072366D01*
X192024492Y-121139237D01*
X192063186Y-121271419D01*
X192102095Y-121443563D01*
X192111566Y-121492818D01*
X192277197Y-122235904D01*
X192496720Y-122981086D01*
X192761983Y-123706406D01*
X193064834Y-124389906D01*
X193397118Y-125009630D01*
X193449795Y-125097035D01*
X193596946Y-125318567D01*
X193780435Y-125566497D01*
X193984979Y-125822604D01*
X194195299Y-126068663D01*
X194396113Y-126286451D01*
X194572140Y-126457745D01*
X194637559Y-126513495D01*
X195069150Y-126819939D01*
X195491782Y-127041552D01*
X195902543Y-127178337D01*
X196298517Y-127230300D01*
X196676792Y-127197445D01*
X197034454Y-127079775D01*
X197368589Y-126877296D01*
X197676283Y-126590012D01*
X197745517Y-126508878D01*
X198002608Y-126133620D01*
X198192545Y-125717484D01*
X198315746Y-125259019D01*
X198372627Y-124756774D01*
X198371189Y-124333000D01*
X198358990Y-124113223D01*
X198345335Y-123912550D01*
X198332235Y-123758733D01*
X198325118Y-123698000D01*
X198317123Y-123593434D01*
X198340534Y-123552249D01*
X198368032Y-123547909D01*
X198436012Y-123581858D01*
X198507773Y-123663364D01*
X198576219Y-123744594D01*
X198636824Y-123778814D01*
X198637273Y-123778818D01*
X198699366Y-123736366D01*
X198776035Y-123617831D01*
X198862545Y-123436448D01*
X198954159Y-123205452D01*
X199046139Y-122938077D01*
X199133748Y-122647558D01*
X199212251Y-122347129D01*
X199276909Y-122050025D01*
X199298437Y-121931546D01*
X199361549Y-121354294D01*
X199355191Y-120771736D01*
X199278853Y-120182810D01*
X199132025Y-119586453D01*
X198914198Y-118981602D01*
X198624859Y-118367196D01*
X198263500Y-117742172D01*
X197829611Y-117105468D01*
X197322681Y-116456022D01*
X196742200Y-115792771D01*
X196087658Y-115114654D01*
X195968148Y-114997002D01*
X195776320Y-114804121D01*
X195626724Y-114642472D01*
X195525425Y-114519040D01*
X195478492Y-114440805D01*
X195476106Y-114430722D01*
X195481398Y-114374455D01*
X195521298Y-114326186D01*
X195609752Y-114274000D01*
X195717209Y-114224748D01*
X195874680Y-114142872D01*
X196056510Y-114028692D01*
X196226352Y-113905242D01*
X196244732Y-113890466D01*
X196397388Y-113752710D01*
X196561122Y-113582968D01*
X196721292Y-113398858D01*
X196863259Y-113217999D01*
X196972382Y-113058008D01*
X197031394Y-112943824D01*
X197053847Y-112889275D01*
X197081625Y-112855477D01*
X197128587Y-112841427D01*
X197208589Y-112846121D01*
X197335488Y-112868554D01*
X197523142Y-112907722D01*
X197524789Y-112908071D01*
X197795148Y-112949425D01*
X198072883Y-112957569D01*
X198369985Y-112930758D01*
X198698446Y-112867252D01*
X199070257Y-112765307D01*
X199497409Y-112623181D01*
X199505626Y-112620262D01*
X199687354Y-112550736D01*
X199847541Y-112480385D01*
X199969047Y-112417339D01*
X200034734Y-112369727D01*
X200035320Y-112369037D01*
X200086031Y-112300590D01*
X200082409Y-112251896D01*
X200035320Y-112191145D01*
X199967820Y-112138860D01*
X199847703Y-112070798D01*
X199694982Y-111997702D01*
X199600403Y-111957657D01*
X199023977Y-111680678D01*
X198446753Y-111315589D01*
X197872418Y-110866484D01*
X197304659Y-110337455D01*
X196747164Y-109732594D01*
X196203618Y-109055995D01*
X195677709Y-108311749D01*
X195173125Y-107503950D01*
X194693551Y-106636689D01*
X194545800Y-106346932D01*
X194406790Y-106059927D01*
X194265621Y-105752456D01*
X194127441Y-105437335D01*
X193997400Y-105127384D01*
X193880646Y-104835420D01*
X193782329Y-104574261D01*
X193707597Y-104356724D01*
X193661600Y-104195628D01*
X193648935Y-104114301D01*
X193663754Y-104013777D01*
X193704494Y-103851612D01*
X193764999Y-103649855D01*
X193839113Y-103430557D01*
X193842330Y-103421574D01*
X194196013Y-102382646D01*
X194500228Y-101369163D01*
X194757183Y-100367634D01*
X194969084Y-99364564D01*
X195138141Y-98346462D01*
X195266559Y-97299833D01*
X195356547Y-96211185D01*
X195410312Y-95067026D01*
X195430063Y-93853862D01*
X195430253Y-93715904D01*
X195426358Y-93147775D01*
X195415138Y-92553448D01*
X195397291Y-91945466D01*
X195373515Y-91336375D01*
X195344509Y-90738719D01*
X195310971Y-90165044D01*
X195273598Y-89627896D01*
X195233090Y-89139818D01*
X195190144Y-88713356D01*
X195145458Y-88361055D01*
X195124938Y-88229881D01*
X194946865Y-87399025D01*
X194698839Y-86585960D01*
X194385948Y-85798461D01*
X194013280Y-85044303D01*
X193585922Y-84331261D01*
X193108962Y-83667108D01*
X192587487Y-83059619D01*
X192026586Y-82516569D01*
X191431345Y-82045732D01*
X190830917Y-81668103D01*
X190681614Y-81576138D01*
X190599528Y-81500904D01*
X190577847Y-81444533D01*
X190601701Y-81374289D01*
X190665476Y-81256425D01*
X190757677Y-81111198D01*
X190808779Y-81037546D01*
X191322115Y-80258122D01*
X191765952Y-79456032D01*
X192138974Y-78634350D01*
X192439867Y-77796157D01*
X192667316Y-76944528D01*
X192761108Y-76468755D01*
X192818313Y-76054380D01*
X192859108Y-75586359D01*
X192882323Y-75096030D01*
X192886790Y-74614731D01*
X192871340Y-74173801D01*
X192854464Y-73965090D01*
X192730110Y-73109896D01*
X192534798Y-72275731D01*
X192272300Y-71467987D01*
X191946385Y-70692058D01*
X191560824Y-69953340D01*
X191119386Y-69257225D01*
X190625841Y-68609110D01*
X190083960Y-68014386D01*
X189497513Y-67478450D01*
X188870270Y-67006694D01*
X188206000Y-66604514D01*
X187508474Y-66277303D01*
X187470837Y-66262231D01*
X186740493Y-66015520D01*
X186018202Y-65859622D01*
X185300048Y-65794553D01*
X184582110Y-65820326D01*
X183860472Y-65936957D01*
X183131212Y-66144461D01*
X182768164Y-66280016D01*
X182375644Y-66447755D01*
X182015180Y-66624998D01*
X181662591Y-66825213D01*
X181293699Y-67061868D01*
X181004090Y-67262624D01*
X180571195Y-67562489D01*
X180180443Y-67815111D01*
X179814292Y-68030210D01*
X179455201Y-68217505D01*
X179085626Y-68386715D01*
X178688027Y-68547560D01*
X178678138Y-68551344D01*
X178167853Y-68752760D01*
X177718549Y-68945722D01*
X177316633Y-69138437D01*
X176948509Y-69339113D01*
X176600583Y-69555956D01*
X176259258Y-69797173D01*
X175910939Y-70070970D01*
X175542033Y-70385555D01*
X175337716Y-70567835D01*
X174981750Y-70910080D01*
X174684641Y-71243666D01*
X174432439Y-71585717D01*
X174215754Y-71945006D01*
X173973393Y-72448587D01*
X173756175Y-73022120D01*
X173570320Y-73646114D01*
X173422046Y-74301081D01*
X173370132Y-74595182D01*
X173327656Y-74825964D01*
X173277319Y-75049971D01*
X173226864Y-75234536D01*
X173200455Y-75311000D01*
X173118954Y-75568822D01*
X173047429Y-75899233D01*
X172989512Y-76282782D01*
X172954211Y-76629625D01*
X172936939Y-76904194D01*
X172936692Y-77123417D01*
X172954940Y-77322348D01*
X172991987Y-77530458D01*
X172998206Y-77569101D01*
X173000463Y-77614838D01*
X172997329Y-77673775D01*
X172987376Y-77752018D01*
X172969173Y-77855675D01*
X172941294Y-77990852D01*
X172902308Y-78163655D01*
X172850787Y-78380191D01*
X172785302Y-78646566D01*
X172704424Y-78968888D01*
X172606725Y-79353262D01*
X172490775Y-79805796D01*
X172355146Y-80332596D01*
X172198409Y-80939768D01*
X172154541Y-81109549D01*
X171278101Y-84501182D01*
X171378298Y-84606881D01*
X171453145Y-84673848D01*
X171504802Y-84678813D01*
X171537903Y-84653063D01*
X171572359Y-84610343D01*
X171654008Y-84504788D01*
X171778843Y-84341687D01*
X171942853Y-84126328D01*
X172142030Y-83863997D01*
X172372365Y-83559983D01*
X172629849Y-83219572D01*
X172910473Y-82848054D01*
X173210229Y-82450714D01*
X173525107Y-82032842D01*
X173619649Y-81907283D01*
X174015994Y-81381561D01*
X174364459Y-80921019D01*
X174667825Y-80522115D01*
X174928871Y-80181307D01*
X175150377Y-79895055D01*
X175335123Y-79659815D01*
X175485889Y-79472047D01*
X175605455Y-79328208D01*
X175696601Y-79224758D01*
X175762106Y-79158154D01*
X175802613Y-79126079D01*
X175918207Y-79041297D01*
X176052431Y-78918998D01*
X176183712Y-78781546D01*
X176290479Y-78651305D01*
X176345920Y-78562812D01*
X176389261Y-78519536D01*
X176489313Y-78442977D01*
X176634891Y-78340966D01*
X176814810Y-78221333D01*
X177017885Y-78091908D01*
X177024731Y-78087635D01*
X177466035Y-77798514D01*
X177849409Y-77515402D01*
X178191031Y-77224804D01*
X178507082Y-76913224D01*
X178731885Y-76663681D01*
X178864518Y-76500163D01*
X179009741Y-76305504D01*
X179156884Y-76095826D01*
X179295272Y-75887251D01*
X179414234Y-75695902D01*
X179503097Y-75537902D01*
X179551188Y-75429372D01*
X179552949Y-75423331D01*
X179589575Y-75416925D01*
X179669038Y-75440510D01*
X179766426Y-75482609D01*
X179856826Y-75531746D01*
X179915325Y-75576444D01*
X179924880Y-75594668D01*
X179905082Y-75646083D01*
X179857062Y-75736278D01*
X179853396Y-75742598D01*
X179731916Y-76015907D01*
X179640765Y-76363419D01*
X179620101Y-76479171D01*
X179602005Y-76613710D01*
X179596129Y-76739452D01*
X179604072Y-76879325D01*
X179627433Y-77056253D01*
X179667813Y-77293161D01*
X179682554Y-77374279D01*
X179688446Y-77454088D01*
X179659919Y-77512608D01*
X179581794Y-77573946D01*
X179540191Y-77600376D01*
X179194748Y-77843373D01*
X178883052Y-78119015D01*
X178611525Y-78418167D01*
X178386588Y-78731696D01*
X178214666Y-79050465D01*
X178102179Y-79365340D01*
X178055551Y-79667186D01*
X178054631Y-79713310D01*
X178091154Y-80025554D01*
X178195714Y-80335089D01*
X178360801Y-80631383D01*
X178578905Y-80903901D01*
X178842515Y-81142109D01*
X179144120Y-81335474D01*
X179247373Y-81386133D01*
X179387189Y-81460877D01*
X179458015Y-81527756D01*
X179469955Y-81568036D01*
X179449425Y-81606514D01*
X179384613Y-81666194D01*
X179270680Y-81750429D01*
X179102791Y-81862572D01*
X178876109Y-82005975D01*
X178585798Y-82183991D01*
X178550626Y-82205312D01*
X177835274Y-82653989D01*
X177181917Y-83097291D01*
X176577748Y-83544928D01*
X176009959Y-84006607D01*
X175465742Y-84492037D01*
X175200792Y-84744434D01*
X175017552Y-84930250D01*
X174804466Y-85158719D01*
X174573677Y-85415662D01*
X174337328Y-85686898D01*
X174107561Y-85958249D01*
X173896520Y-86215535D01*
X173716345Y-86444575D01*
X173579182Y-86631191D01*
X173555925Y-86665232D01*
X173384173Y-86881258D01*
X173217619Y-87008044D01*
X173103328Y-87044953D01*
X173037484Y-87059926D01*
X172923731Y-87090728D01*
X172797716Y-87127424D01*
X172400170Y-87202232D01*
X172008542Y-87185776D01*
X171622314Y-87077852D01*
X171240968Y-86878256D01*
X170863986Y-86586784D01*
X170511404Y-86226863D01*
X170254056Y-85932818D01*
X170246408Y-82353727D01*
X170238761Y-78774636D01*
X135361149Y-78774636D01*
X135342194Y-82053546D01*
X135323238Y-85332455D01*
X135114731Y-85794273D01*
X134866519Y-86262492D01*
X134580477Y-86654455D01*
X134259693Y-86967866D01*
X133907254Y-87200430D01*
X133526251Y-87349852D01*
X133119771Y-87413836D01*
X132934880Y-87414383D01*
X132737963Y-87405357D01*
X132604583Y-87396477D01*
X132522481Y-87385533D01*
X132479397Y-87370316D01*
X132463072Y-87348618D01*
X132461000Y-87328997D01*
X132435827Y-87265790D01*
X132365610Y-87147506D01*
X132258299Y-86985122D01*
X132121845Y-86789617D01*
X131964197Y-86571969D01*
X131793305Y-86343157D01*
X131617121Y-86114158D01*
X131443595Y-85895952D01*
X131282505Y-85701663D01*
X130644305Y-85001057D01*
X129946099Y-84328903D01*
X129182959Y-83680747D01*
X128349957Y-83052138D01*
X128347716Y-83050539D01*
X128075487Y-82861979D01*
X127759759Y-82652458D01*
X127419693Y-82433989D01*
X127074451Y-82218584D01*
X126743192Y-82018256D01*
X126445079Y-81845017D01*
X126272928Y-81749815D01*
X125979930Y-81592299D01*
X125675518Y-80760740D01*
X125581423Y-80498911D01*
X125499177Y-80260897D01*
X125433586Y-80061358D01*
X125389453Y-79914959D01*
X125371583Y-79836359D01*
X125371426Y-79832683D01*
X125405301Y-79741586D01*
X125503815Y-79616561D01*
X125592140Y-79527691D01*
X125872225Y-79217222D01*
X126085101Y-78881779D01*
X126228882Y-78526837D01*
X126301687Y-78157871D01*
X126301630Y-77780355D01*
X126268206Y-77563127D01*
X126185519Y-77261092D01*
X126064452Y-76934532D01*
X125921046Y-76623239D01*
X125809628Y-76425553D01*
X125673059Y-76207602D01*
X125787776Y-76090014D01*
X125861011Y-76004740D01*
X125900349Y-75939062D01*
X125902492Y-75928400D01*
X125926409Y-75859511D01*
X125983643Y-75764054D01*
X126052420Y-75672881D01*
X126110965Y-75616848D01*
X126126361Y-75611182D01*
X126161103Y-75646369D01*
X126223498Y-75738283D01*
X126294350Y-75857193D01*
X126495109Y-76172215D01*
X126758285Y-76516815D01*
X127085477Y-76892800D01*
X127478287Y-77301975D01*
X127938312Y-77746148D01*
X128101298Y-77897182D01*
X128333563Y-78112198D01*
X128535731Y-78304126D01*
X128720308Y-78486073D01*
X128899799Y-78671144D01*
X129086710Y-78872445D01*
X129293546Y-79103080D01*
X129532814Y-79376156D01*
X129731447Y-79605549D01*
X130180973Y-80115503D01*
X130594389Y-80561194D01*
X130981037Y-80952284D01*
X131350259Y-81298439D01*
X131472783Y-81407000D01*
X131572683Y-81497277D01*
X131672468Y-81594975D01*
X131778281Y-81707562D01*
X131896267Y-81842503D01*
X132032566Y-82007265D01*
X132193324Y-82209314D01*
X132384683Y-82456115D01*
X132612787Y-82755136D01*
X132883777Y-83113842D01*
X132954712Y-83208091D01*
X133188787Y-83518768D01*
X133407334Y-83807871D01*
X133604992Y-84068377D01*
X133776399Y-84293266D01*
X133916195Y-84475515D01*
X134019019Y-84608105D01*
X134079511Y-84684014D01*
X134093538Y-84699610D01*
X134137258Y-84681366D01*
X134208635Y-84618680D01*
X134219522Y-84607246D01*
X134318325Y-84501182D01*
X133616545Y-81799546D01*
X132914766Y-79097909D01*
X132742448Y-77851016D01*
X132617082Y-76978269D01*
X132493538Y-76190288D01*
X132370204Y-75479572D01*
X132245469Y-74838618D01*
X132117720Y-74259926D01*
X131985345Y-73735993D01*
X131846733Y-73259316D01*
X131700270Y-72822395D01*
X131610231Y-72582038D01*
X131411579Y-72111388D01*
X131204816Y-71707873D01*
X130975710Y-71350564D01*
X130710024Y-71018528D01*
X130393525Y-70690836D01*
X130205328Y-70516274D01*
X129835693Y-70192696D01*
X129489005Y-69910411D01*
X129152161Y-69661584D01*
X128812054Y-69438378D01*
X128455582Y-69232958D01*
X128069640Y-69037486D01*
X127641122Y-68844127D01*
X127156926Y-68645044D01*
X126923819Y-68553983D01*
X126590665Y-68420716D01*
X126286134Y-68287283D01*
X125996430Y-68145935D01*
X125707755Y-67988919D01*
X125406313Y-67808487D01*
X125078306Y-67596888D01*
X124709938Y-67346372D01*
X124449443Y-67164024D01*
X123748207Y-66717742D01*
X123033635Y-66358355D01*
X122309114Y-66086640D01*
X121578032Y-65903378D01*
X120843778Y-65809347D01*
X120109739Y-65805327D01*
X119379304Y-65892098D01*
X119135477Y-65941722D01*
X118400845Y-66153202D01*
X117688075Y-66449571D01*
X117002228Y-66826123D01*
X116348368Y-67278153D01*
X115731559Y-67800956D01*
X115156862Y-68389829D01*
X114629342Y-69040065D01*
X114154060Y-69746960D01*
X113736080Y-70505810D01*
X113394218Y-71276814D01*
X113110528Y-72097552D01*
X112901612Y-72927457D01*
X112767065Y-73763677D01*
X112706486Y-74603362D01*
X112719471Y-75443663D01*
X112805617Y-76281730D01*
X112964520Y-77114712D01*
X113195778Y-77939760D01*
X113498987Y-78754023D01*
X113873745Y-79554652D01*
X114319648Y-80338796D01*
X114771658Y-81014455D01*
X114877730Y-81169519D01*
X114961469Y-81305979D01*
X115011779Y-81404965D01*
X115021316Y-81439075D01*
X114991831Y-81495710D01*
X114899913Y-81575458D01*
X114741917Y-81681211D01*
X114633611Y-81746745D01*
X114007162Y-82166329D01*
X113407804Y-82666777D01*
X112843102Y-83239707D01*
X112320617Y-83876735D01*
X111847913Y-84569480D01*
X111449526Y-85276098D01*
X111163412Y-85892888D01*
X110909723Y-86550986D01*
X110697231Y-87224029D01*
X110534705Y-87885656D01*
X110474398Y-88207089D01*
X110422138Y-88573492D01*
X110372949Y-89020011D01*
X110327502Y-89534447D01*
X110286471Y-90104597D01*
X110250530Y-90718261D01*
X110220351Y-91363239D01*
X110196607Y-92027330D01*
X110179972Y-92698332D01*
X110171119Y-93364046D01*
X110169810Y-93727553D01*
X110183343Y-94886049D01*
X110225138Y-95971431D01*
X110297381Y-96997310D01*
X110402252Y-97977300D01*
X110541936Y-98925015D01*
X110718616Y-99854066D01*
X110934474Y-100778066D01*
X111191694Y-101710629D01*
X111492458Y-102665367D01*
X111699994Y-103269424D01*
X111784300Y-103514874D01*
X111856560Y-103738646D01*
X111911632Y-103923730D01*
X111944376Y-104053120D01*
X111951264Y-104100697D01*
X111931492Y-104225751D01*
X111875565Y-104417581D01*
X111788163Y-104665138D01*
X111673965Y-104957373D01*
X111537649Y-105283237D01*
X111383896Y-105631683D01*
X111217384Y-105991661D01*
X111042793Y-106352123D01*
X110864802Y-106702019D01*
X110788368Y-106846508D01*
X110288228Y-107724611D01*
X109765677Y-108535579D01*
X109223838Y-109276079D01*
X108665835Y-109942780D01*
X108094792Y-110532347D01*
X107513831Y-111041447D01*
X106926077Y-111466748D01*
X106334653Y-111804917D01*
X105999507Y-111956424D01*
X105837220Y-112028325D01*
X105696016Y-112101115D01*
X105595864Y-112163998D01*
X105564590Y-112191520D01*
X105513882Y-112258951D01*
X105402500Y-112258951D01*
X105399989Y-112228489D01*
X105414054Y-112155872D01*
X105439099Y-112097623D01*
X105485548Y-112046407D01*
X105566440Y-111993573D01*
X105694813Y-111930471D01*
X105866402Y-111855768D01*
X106447353Y-111571065D01*
X107013152Y-111214040D01*
X107569287Y-110780255D01*
X108121249Y-110265273D01*
X108674525Y-109664655D01*
X108882744Y-109417314D01*
X109571778Y-108515287D01*
X110210001Y-107546203D01*
X110794777Y-106514325D01*
X111249293Y-105587881D01*
X111346098Y-105370931D01*
X111448474Y-105132072D01*
X111550287Y-104886733D01*
X111645401Y-104650342D01*
X111727681Y-104438329D01*
X111790991Y-104266120D01*
X111829195Y-104149147D01*
X111837716Y-104108188D01*
X111823408Y-104051171D01*
X111783944Y-103925294D01*
X111724516Y-103746338D01*
X111650315Y-103530087D01*
X111605353Y-103401722D01*
X111246627Y-102325454D01*
X110943575Y-101282614D01*
X110692263Y-100253405D01*
X110488754Y-99218028D01*
X110329112Y-98156684D01*
X110209402Y-97049576D01*
X110132176Y-95991244D01*
X110118690Y-95692359D01*
X110107969Y-95317537D01*
X110100016Y-94883142D01*
X110094832Y-94405539D01*
X110092418Y-93901094D01*
X110092776Y-93386171D01*
X110095908Y-92877134D01*
X110101814Y-92390350D01*
X110110497Y-91942182D01*
X110121957Y-91548995D01*
X110131742Y-91313000D01*
X110159532Y-90786791D01*
X110191379Y-90265304D01*
X110226222Y-89761599D01*
X110263004Y-89288739D01*
X110300664Y-88859787D01*
X110338143Y-88487805D01*
X110374382Y-88185855D01*
X110398577Y-88022362D01*
X110557980Y-87267749D01*
X110784272Y-86505295D01*
X111071189Y-85751442D01*
X111412466Y-85022632D01*
X111801839Y-84335308D01*
X111805537Y-84329371D01*
X112183119Y-83777049D01*
X112610035Y-83247042D01*
X113072819Y-82752642D01*
X113558008Y-82307146D01*
X114052138Y-81923849D01*
X114541744Y-81616044D01*
X114567776Y-81601838D01*
X114693803Y-81529430D01*
X114787304Y-81467717D01*
X114831283Y-81428119D01*
X114832641Y-81423881D01*
X114809298Y-81375000D01*
X114747490Y-81276903D01*
X114659555Y-81148943D01*
X114639616Y-81121051D01*
X114143546Y-80367657D01*
X113715265Y-79582173D01*
X113355723Y-78768616D01*
X113065873Y-77931003D01*
X112846667Y-77073353D01*
X112699056Y-76199683D01*
X112623994Y-75314010D01*
X112622431Y-74420351D01*
X112695320Y-73522725D01*
X112748941Y-73141861D01*
X112919014Y-72309904D01*
X113158984Y-71502812D01*
X113464627Y-70726006D01*
X113831719Y-69984905D01*
X114256036Y-69284928D01*
X114733354Y-68631495D01*
X115259448Y-68030026D01*
X115830094Y-67485940D01*
X116441069Y-67004658D01*
X117088148Y-66591598D01*
X117767107Y-66252180D01*
X118270725Y-66057328D01*
X119035509Y-65843613D01*
X119804493Y-65721193D01*
X120574070Y-65689490D01*
X121340634Y-65747925D01*
G36*
X184967343Y-70765700D02*
X185308707Y-70777032D01*
X185602344Y-70797751D01*
X185862212Y-70829394D01*
X186102268Y-70873496D01*
X186336472Y-70931593D01*
X186475940Y-70972558D01*
X186890501Y-71130633D01*
X187243087Y-71333610D01*
X187539391Y-71588472D01*
X187785110Y-71902199D01*
X187985937Y-72281773D01*
X188147568Y-72734176D01*
X188251688Y-73149527D01*
X188324871Y-73608376D01*
X188355033Y-74082046D01*
X188341877Y-74542106D01*
X188285106Y-74960125D01*
X188271252Y-75024280D01*
X188119437Y-75540003D01*
X187900302Y-76052571D01*
X187611034Y-76567864D01*
X187344959Y-76961609D01*
X187205077Y-77145584D01*
X187048911Y-77335608D01*
X186887500Y-77519925D01*
X186731886Y-77686780D01*
X186593110Y-77824418D01*
X186482212Y-77921084D01*
X186410234Y-77965022D01*
X186401181Y-77966450D01*
X186341502Y-77930048D01*
X186274539Y-77840120D01*
X186261672Y-77816364D01*
X186097705Y-77566079D01*
X185884375Y-77367755D01*
X185617195Y-77218927D01*
X185291679Y-77117131D01*
X184903340Y-77059900D01*
X184881671Y-77058123D01*
X184512044Y-77028866D01*
X184512044Y-76745363D01*
X184476535Y-76302862D01*
X184373589Y-75891748D01*
X184208579Y-75517634D01*
X183986878Y-75186134D01*
X183713859Y-74902862D01*
X183394894Y-74673432D01*
X183035356Y-74503458D01*
X182640618Y-74398553D01*
X182233219Y-74364273D01*
X181744750Y-74406667D01*
X181277350Y-74531987D01*
X180839828Y-74737439D01*
X180630270Y-74872718D01*
X180504114Y-74959607D01*
X180402177Y-75024439D01*
X180342714Y-75055747D01*
X180336938Y-75057000D01*
X180286635Y-75034108D01*
X180198973Y-74976179D01*
X180152343Y-74941546D01*
X180055674Y-74872698D01*
X179983898Y-74831394D01*
X179966252Y-74826091D01*
X179912281Y-74798585D01*
X179860224Y-74737339D01*
X179832545Y-74674265D01*
X179839599Y-74646198D01*
X179843778Y-74639732D01*
X180048161Y-74639732D01*
X180049894Y-74692609D01*
X180073268Y-74735621D01*
X180090898Y-74757837D01*
X180192908Y-74838878D01*
X180314350Y-74847787D01*
X180466326Y-74784069D01*
X180538602Y-74737827D01*
X180877376Y-74539895D01*
X181240122Y-74398939D01*
X181639589Y-74311457D01*
X182088526Y-74273943D01*
X182233832Y-74271909D01*
X182497907Y-74276463D01*
X182707939Y-74291731D01*
X182885397Y-74320121D01*
X183049914Y-74363469D01*
X183452131Y-74525368D01*
X183793053Y-74741546D01*
X184072972Y-75012407D01*
X184292177Y-75338353D01*
X184450959Y-75719789D01*
X184549610Y-76157117D01*
X184582604Y-76488636D01*
X184606820Y-76927364D01*
X184966970Y-76956072D01*
X185363033Y-77008190D01*
X185691909Y-77096766D01*
X185956527Y-77223110D01*
X186159816Y-77388530D01*
X186274880Y-77540820D01*
X186349257Y-77650162D01*
X186413128Y-77719833D01*
X186437229Y-77732724D01*
X186478800Y-77702456D01*
X186563719Y-77616784D01*
X186682298Y-77486309D01*
X186824846Y-77321633D01*
X186951749Y-77169818D01*
X187343681Y-76660419D01*
X187663852Y-76169084D01*
X187913892Y-75690691D01*
X188095434Y-75220117D01*
X188210108Y-74752243D01*
X188259548Y-74281945D01*
X188245384Y-73804102D01*
X188173616Y-73334254D01*
X188034581Y-72802751D01*
X187853489Y-72346300D01*
X187626485Y-71960168D01*
X187349710Y-71639623D01*
X187019308Y-71379931D01*
X186631421Y-71176359D01*
X186324299Y-71064922D01*
X186050637Y-70989029D01*
X185776977Y-70932189D01*
X185486696Y-70892413D01*
X185163167Y-70867715D01*
X184789767Y-70856108D01*
X184564293Y-70854585D01*
X184299101Y-70855728D01*
X184093341Y-70860398D01*
X183930636Y-70870289D01*
X183794612Y-70887098D01*
X183668895Y-70912521D01*
X183537110Y-70948252D01*
X183473331Y-70967569D01*
X182976672Y-71166693D01*
X182487216Y-71452064D01*
X182011028Y-71817578D01*
X181554171Y-72257128D01*
X181122710Y-72764610D01*
X180722709Y-73333917D01*
X180360231Y-73958945D01*
X180215238Y-74247853D01*
X180126589Y-74434759D01*
X180072311Y-74559584D01*
X180048161Y-74639732D01*
X179843778Y-74639732D01*
X179871272Y-74597194D01*
X179931647Y-74485120D01*
X180011798Y-74327091D01*
X180095031Y-74156455D01*
X180462788Y-73460548D01*
X180863539Y-72836159D01*
X181294195Y-72286426D01*
X181751670Y-71814490D01*
X182232874Y-71423491D01*
X182734720Y-71116569D01*
X183254120Y-70896864D01*
X183321689Y-70875206D01*
X183446399Y-70838343D01*
X183559311Y-70810446D01*
X183673971Y-70790282D01*
X183803925Y-70776620D01*
X183962721Y-70768229D01*
X184163905Y-70763875D01*
X184421023Y-70762329D01*
X184564293Y-70762221D01*
X184967343Y-70765700D01*
X184967343Y-70765700D01*
G37*
X184967343Y-70765700D02*
X185308707Y-70777032D01*
X185602344Y-70797751D01*
X185862212Y-70829394D01*
X186102268Y-70873496D01*
X186336472Y-70931593D01*
X186475940Y-70972558D01*
X186890501Y-71130633D01*
X187243087Y-71333610D01*
X187539391Y-71588472D01*
X187785110Y-71902199D01*
X187985937Y-72281773D01*
X188147568Y-72734176D01*
X188251688Y-73149527D01*
X188324871Y-73608376D01*
X188355033Y-74082046D01*
X188341877Y-74542106D01*
X188285106Y-74960125D01*
X188271252Y-75024280D01*
X188119437Y-75540003D01*
X187900302Y-76052571D01*
X187611034Y-76567864D01*
X187344959Y-76961609D01*
X187205077Y-77145584D01*
X187048911Y-77335608D01*
X186887500Y-77519925D01*
X186731886Y-77686780D01*
X186593110Y-77824418D01*
X186482212Y-77921084D01*
X186410234Y-77965022D01*
X186401181Y-77966450D01*
X186341502Y-77930048D01*
X186274539Y-77840120D01*
X186261672Y-77816364D01*
X186097705Y-77566079D01*
X185884375Y-77367755D01*
X185617195Y-77218927D01*
X185291679Y-77117131D01*
X184903340Y-77059900D01*
X184881671Y-77058123D01*
X184512044Y-77028866D01*
X184512044Y-76745363D01*
X184476535Y-76302862D01*
X184373589Y-75891748D01*
X184208579Y-75517634D01*
X183986878Y-75186134D01*
X183713859Y-74902862D01*
X183394894Y-74673432D01*
X183035356Y-74503458D01*
X182640618Y-74398553D01*
X182233219Y-74364273D01*
X181744750Y-74406667D01*
X181277350Y-74531987D01*
X180839828Y-74737439D01*
X180630270Y-74872718D01*
X180504114Y-74959607D01*
X180402177Y-75024439D01*
X180342714Y-75055747D01*
X180336938Y-75057000D01*
X180286635Y-75034108D01*
X180198973Y-74976179D01*
X180152343Y-74941546D01*
X180055674Y-74872698D01*
X179983898Y-74831394D01*
X179966252Y-74826091D01*
X179912281Y-74798585D01*
X179860224Y-74737339D01*
X179832545Y-74674265D01*
X179839599Y-74646198D01*
X179843778Y-74639732D01*
X180048161Y-74639732D01*
X180049894Y-74692609D01*
X180073268Y-74735621D01*
X180090898Y-74757837D01*
X180192908Y-74838878D01*
X180314350Y-74847787D01*
X180466326Y-74784069D01*
X180538602Y-74737827D01*
X180877376Y-74539895D01*
X181240122Y-74398939D01*
X181639589Y-74311457D01*
X182088526Y-74273943D01*
X182233832Y-74271909D01*
X182497907Y-74276463D01*
X182707939Y-74291731D01*
X182885397Y-74320121D01*
X183049914Y-74363469D01*
X183452131Y-74525368D01*
X183793053Y-74741546D01*
X184072972Y-75012407D01*
X184292177Y-75338353D01*
X184450959Y-75719789D01*
X184549610Y-76157117D01*
X184582604Y-76488636D01*
X184606820Y-76927364D01*
X184966970Y-76956072D01*
X185363033Y-77008190D01*
X185691909Y-77096766D01*
X185956527Y-77223110D01*
X186159816Y-77388530D01*
X186274880Y-77540820D01*
X186349257Y-77650162D01*
X186413128Y-77719833D01*
X186437229Y-77732724D01*
X186478800Y-77702456D01*
X186563719Y-77616784D01*
X186682298Y-77486309D01*
X186824846Y-77321633D01*
X186951749Y-77169818D01*
X187343681Y-76660419D01*
X187663852Y-76169084D01*
X187913892Y-75690691D01*
X188095434Y-75220117D01*
X188210108Y-74752243D01*
X188259548Y-74281945D01*
X188245384Y-73804102D01*
X188173616Y-73334254D01*
X188034581Y-72802751D01*
X187853489Y-72346300D01*
X187626485Y-71960168D01*
X187349710Y-71639623D01*
X187019308Y-71379931D01*
X186631421Y-71176359D01*
X186324299Y-71064922D01*
X186050637Y-70989029D01*
X185776977Y-70932189D01*
X185486696Y-70892413D01*
X185163167Y-70867715D01*
X184789767Y-70856108D01*
X184564293Y-70854585D01*
X184299101Y-70855728D01*
X184093341Y-70860398D01*
X183930636Y-70870289D01*
X183794612Y-70887098D01*
X183668895Y-70912521D01*
X183537110Y-70948252D01*
X183473331Y-70967569D01*
X182976672Y-71166693D01*
X182487216Y-71452064D01*
X182011028Y-71817578D01*
X181554171Y-72257128D01*
X181122710Y-72764610D01*
X180722709Y-73333917D01*
X180360231Y-73958945D01*
X180215238Y-74247853D01*
X180126589Y-74434759D01*
X180072311Y-74559584D01*
X180048161Y-74639732D01*
X179843778Y-74639732D01*
X179871272Y-74597194D01*
X179931647Y-74485120D01*
X180011798Y-74327091D01*
X180095031Y-74156455D01*
X180462788Y-73460548D01*
X180863539Y-72836159D01*
X181294195Y-72286426D01*
X181751670Y-71814490D01*
X182232874Y-71423491D01*
X182734720Y-71116569D01*
X183254120Y-70896864D01*
X183321689Y-70875206D01*
X183446399Y-70838343D01*
X183559311Y-70810446D01*
X183673971Y-70790282D01*
X183803925Y-70776620D01*
X183962721Y-70768229D01*
X184163905Y-70763875D01*
X184421023Y-70762329D01*
X184564293Y-70762221D01*
X184967343Y-70765700D01*
G36*
X121323762Y-70762888D02*
X121549617Y-70765800D01*
X121726707Y-70772181D01*
X121868556Y-70783253D01*
X121988691Y-70800242D01*
X122100636Y-70824368D01*
X122217917Y-70856857D01*
X122275508Y-70874368D01*
X122788597Y-71079790D01*
X123287776Y-71372912D01*
X123768885Y-71749834D01*
X124227762Y-72206660D01*
X124660245Y-72739490D01*
X125062173Y-73344426D01*
X125237092Y-73648455D01*
X125354429Y-73870554D01*
X125473955Y-74111764D01*
X125588788Y-74356478D01*
X125692050Y-74589091D01*
X125776858Y-74794000D01*
X125836332Y-74955600D01*
X125863591Y-75058285D01*
X125864582Y-75071534D01*
X125832300Y-75153476D01*
X125747661Y-75254568D01*
X125628972Y-75360486D01*
X125494542Y-75456905D01*
X125362679Y-75529501D01*
X125251691Y-75563949D01*
X125233894Y-75565000D01*
X125180391Y-75537498D01*
X125086185Y-75464205D01*
X124968489Y-75358938D01*
X124924276Y-75316457D01*
X124474905Y-74915107D01*
X124005704Y-74568244D01*
X123524828Y-74278940D01*
X123040428Y-74050264D01*
X122560658Y-73885287D01*
X122093671Y-73787081D01*
X121647619Y-73758716D01*
X121230655Y-73803263D01*
X121038563Y-73852911D01*
X120636110Y-74025376D01*
X120273277Y-74274781D01*
X119953085Y-74597177D01*
X119678557Y-74988612D01*
X119452714Y-75445135D01*
X119278578Y-75962797D01*
X119212489Y-76240224D01*
X119141591Y-76656112D01*
X119095388Y-77089071D01*
X119079362Y-77470000D01*
X119076628Y-77636562D01*
X119066277Y-77730752D01*
X119043578Y-77772497D01*
X119005310Y-77781727D01*
X118950208Y-77751270D01*
X118854935Y-77668420D01*
X118733044Y-77545960D01*
X118602785Y-77402097D01*
X118193208Y-76881755D01*
X117850876Y-76344021D01*
X117578573Y-75793869D01*
X117379084Y-75236273D01*
X117367486Y-75195546D01*
X117314804Y-74999681D01*
X117279783Y-74840613D01*
X117258897Y-74689007D01*
X117248619Y-74515529D01*
X117245423Y-74290845D01*
X117245338Y-74179546D01*
X117324535Y-74179546D01*
X117358903Y-74617385D01*
X117461523Y-75079812D01*
X117629726Y-75558749D01*
X117860843Y-76046121D01*
X118049451Y-76373182D01*
X118143794Y-76516473D01*
X118263391Y-76684566D01*
X118398295Y-76865041D01*
X118538561Y-77045480D01*
X118674241Y-77213463D01*
X118795387Y-77356571D01*
X118892053Y-77462384D01*
X118954293Y-77518483D01*
X118970663Y-77523373D01*
X118988280Y-77467530D01*
X119000263Y-77348539D01*
X119003542Y-77236365D01*
X119009849Y-77045480D01*
X119025432Y-76819461D01*
X119042174Y-76650273D01*
X119143259Y-76031579D01*
X119293216Y-75482895D01*
X119491871Y-75004490D01*
X119739052Y-74596636D01*
X120034586Y-74259604D01*
X120378301Y-73993665D01*
X120770023Y-73799089D01*
X120886922Y-73757875D01*
X121156301Y-73695591D01*
X121475114Y-73662408D01*
X121820840Y-73658316D01*
X122170955Y-73683303D01*
X122502937Y-73737359D01*
X122593376Y-73758668D01*
X123179192Y-73952697D01*
X123760899Y-74233056D01*
X124328583Y-74593981D01*
X124872330Y-75029710D01*
X125030552Y-75175339D01*
X125152447Y-75283880D01*
X125239963Y-75339623D01*
X125313574Y-75353538D01*
X125352791Y-75347965D01*
X125466778Y-75294030D01*
X125573143Y-75198092D01*
X125649587Y-75084930D01*
X125674396Y-74990633D01*
X125653599Y-74892147D01*
X125596725Y-74733185D01*
X125510790Y-74529264D01*
X125402811Y-74295902D01*
X125279805Y-74048617D01*
X125148787Y-73802927D01*
X125090952Y-73700272D01*
X124698761Y-73078649D01*
X124275122Y-72522843D01*
X123825271Y-72037678D01*
X123354442Y-71627977D01*
X122867871Y-71298561D01*
X122370791Y-71054254D01*
X122123866Y-70966731D01*
X121984986Y-70926219D01*
X121858829Y-70896692D01*
X121729051Y-70876465D01*
X121579311Y-70863854D01*
X121393265Y-70857175D01*
X121154569Y-70854744D01*
X121035616Y-70854585D01*
X120489314Y-70868093D01*
X120007312Y-70909551D01*
X119581210Y-70980672D01*
X119202610Y-71083167D01*
X118863114Y-71218750D01*
X118623686Y-71346402D01*
X118329538Y-71566738D01*
X118056477Y-71856445D01*
X117823342Y-72192570D01*
X117662748Y-72517000D01*
X117529596Y-72905450D01*
X117424356Y-73327807D01*
X117353847Y-73750545D01*
X117324891Y-74140139D01*
X117324535Y-74179546D01*
X117245338Y-74179546D01*
X117274124Y-73599942D01*
X117357509Y-73063211D01*
X117492939Y-72575441D01*
X117677861Y-72142719D01*
X117909722Y-71771135D01*
X118185969Y-71466777D01*
X118472044Y-71254398D01*
X118741041Y-71111736D01*
X119029582Y-70996181D01*
X119347000Y-70905940D01*
X119702627Y-70839224D01*
X120105796Y-70794239D01*
X120565840Y-70769194D01*
X121035616Y-70762221D01*
X121323762Y-70762888D01*
X121323762Y-70762888D01*
G37*
X121323762Y-70762888D02*
X121549617Y-70765800D01*
X121726707Y-70772181D01*
X121868556Y-70783253D01*
X121988691Y-70800242D01*
X122100636Y-70824368D01*
X122217917Y-70856857D01*
X122275508Y-70874368D01*
X122788597Y-71079790D01*
X123287776Y-71372912D01*
X123768885Y-71749834D01*
X124227762Y-72206660D01*
X124660245Y-72739490D01*
X125062173Y-73344426D01*
X125237092Y-73648455D01*
X125354429Y-73870554D01*
X125473955Y-74111764D01*
X125588788Y-74356478D01*
X125692050Y-74589091D01*
X125776858Y-74794000D01*
X125836332Y-74955600D01*
X125863591Y-75058285D01*
X125864582Y-75071534D01*
X125832300Y-75153476D01*
X125747661Y-75254568D01*
X125628972Y-75360486D01*
X125494542Y-75456905D01*
X125362679Y-75529501D01*
X125251691Y-75563949D01*
X125233894Y-75565000D01*
X125180391Y-75537498D01*
X125086185Y-75464205D01*
X124968489Y-75358938D01*
X124924276Y-75316457D01*
X124474905Y-74915107D01*
X124005704Y-74568244D01*
X123524828Y-74278940D01*
X123040428Y-74050264D01*
X122560658Y-73885287D01*
X122093671Y-73787081D01*
X121647619Y-73758716D01*
X121230655Y-73803263D01*
X121038563Y-73852911D01*
X120636110Y-74025376D01*
X120273277Y-74274781D01*
X119953085Y-74597177D01*
X119678557Y-74988612D01*
X119452714Y-75445135D01*
X119278578Y-75962797D01*
X119212489Y-76240224D01*
X119141591Y-76656112D01*
X119095388Y-77089071D01*
X119079362Y-77470000D01*
X119076628Y-77636562D01*
X119066277Y-77730752D01*
X119043578Y-77772497D01*
X119005310Y-77781727D01*
X118950208Y-77751270D01*
X118854935Y-77668420D01*
X118733044Y-77545960D01*
X118602785Y-77402097D01*
X118193208Y-76881755D01*
X117850876Y-76344021D01*
X117578573Y-75793869D01*
X117379084Y-75236273D01*
X117367486Y-75195546D01*
X117314804Y-74999681D01*
X117279783Y-74840613D01*
X117258897Y-74689007D01*
X117248619Y-74515529D01*
X117245423Y-74290845D01*
X117245338Y-74179546D01*
X117324535Y-74179546D01*
X117358903Y-74617385D01*
X117461523Y-75079812D01*
X117629726Y-75558749D01*
X117860843Y-76046121D01*
X118049451Y-76373182D01*
X118143794Y-76516473D01*
X118263391Y-76684566D01*
X118398295Y-76865041D01*
X118538561Y-77045480D01*
X118674241Y-77213463D01*
X118795387Y-77356571D01*
X118892053Y-77462384D01*
X118954293Y-77518483D01*
X118970663Y-77523373D01*
X118988280Y-77467530D01*
X119000263Y-77348539D01*
X119003542Y-77236365D01*
X119009849Y-77045480D01*
X119025432Y-76819461D01*
X119042174Y-76650273D01*
X119143259Y-76031579D01*
X119293216Y-75482895D01*
X119491871Y-75004490D01*
X119739052Y-74596636D01*
X120034586Y-74259604D01*
X120378301Y-73993665D01*
X120770023Y-73799089D01*
X120886922Y-73757875D01*
X121156301Y-73695591D01*
X121475114Y-73662408D01*
X121820840Y-73658316D01*
X122170955Y-73683303D01*
X122502937Y-73737359D01*
X122593376Y-73758668D01*
X123179192Y-73952697D01*
X123760899Y-74233056D01*
X124328583Y-74593981D01*
X124872330Y-75029710D01*
X125030552Y-75175339D01*
X125152447Y-75283880D01*
X125239963Y-75339623D01*
X125313574Y-75353538D01*
X125352791Y-75347965D01*
X125466778Y-75294030D01*
X125573143Y-75198092D01*
X125649587Y-75084930D01*
X125674396Y-74990633D01*
X125653599Y-74892147D01*
X125596725Y-74733185D01*
X125510790Y-74529264D01*
X125402811Y-74295902D01*
X125279805Y-74048617D01*
X125148787Y-73802927D01*
X125090952Y-73700272D01*
X124698761Y-73078649D01*
X124275122Y-72522843D01*
X123825271Y-72037678D01*
X123354442Y-71627977D01*
X122867871Y-71298561D01*
X122370791Y-71054254D01*
X122123866Y-70966731D01*
X121984986Y-70926219D01*
X121858829Y-70896692D01*
X121729051Y-70876465D01*
X121579311Y-70863854D01*
X121393265Y-70857175D01*
X121154569Y-70854744D01*
X121035616Y-70854585D01*
X120489314Y-70868093D01*
X120007312Y-70909551D01*
X119581210Y-70980672D01*
X119202610Y-71083167D01*
X118863114Y-71218750D01*
X118623686Y-71346402D01*
X118329538Y-71566738D01*
X118056477Y-71856445D01*
X117823342Y-72192570D01*
X117662748Y-72517000D01*
X117529596Y-72905450D01*
X117424356Y-73327807D01*
X117353847Y-73750545D01*
X117324891Y-74140139D01*
X117324535Y-74179546D01*
X117245338Y-74179546D01*
X117274124Y-73599942D01*
X117357509Y-73063211D01*
X117492939Y-72575441D01*
X117677861Y-72142719D01*
X117909722Y-71771135D01*
X118185969Y-71466777D01*
X118472044Y-71254398D01*
X118741041Y-71111736D01*
X119029582Y-70996181D01*
X119347000Y-70905940D01*
X119702627Y-70839224D01*
X120105796Y-70794239D01*
X120565840Y-70769194D01*
X121035616Y-70762221D01*
X121323762Y-70762888D01*
M02*
